<svg xmlns="http://www.w3.org/2000/svg" width="404.898" height="245.764" viewBox="0 0 404.898 245.764">
  <defs>
    <style>
      .cls-1 {
        fill: #fff;
      }

      .cls-2, .cls-4 {
        fill: none;
      }

      .cls-2 {
        stroke: #fff;
        opacity: 0;
      }

      .cls-3 {
        stroke: none;
      }
    </style>
  </defs>
  <g id="Group_413" data-name="Group 413" transform="translate(-1365 -5211)">
    <g id="Group_400" data-name="Group 400">
      <g id="Rectangle_46" data-name="Rectangle 46" class="cls-2" transform="translate(1365 5211)">
        <rect class="cls-3" width="404.898" height="245.764"/>
        <rect class="cls-4" x="0.5" y="0.5" width="403.898" height="244.764"/>
      </g>
      <path id="Subtraction_3" data-name="Subtraction 3" class="cls-1" d="M127.14,90.8H0V0H127.14V90.8ZM53.729,22.834a2.193,2.193,0,0,0-2.191,2.189V58.9a2.178,2.178,0,0,0,.642,1.544l6.271,6.276a2.172,2.172,0,0,0,1.543.642l10.044,0a2.183,2.183,0,0,0,1.549-.645l6.271-6.276A2.2,2.2,0,0,0,78.5,58.9V25.023a2.193,2.193,0,0,0-2.188-2.189H68.783a2.193,2.193,0,0,0-2.188,2.189V56.21H63.44V25.023a2.193,2.193,0,0,0-2.188-2.189ZM31.347,60.588h5.212l.967,5a2.187,2.187,0,0,0,2.145,1.775l7.535,0a2.2,2.2,0,0,0,2.133-2.669L40.3,24.544a2.171,2.171,0,0,0-2.13-1.711H30.041a2.171,2.171,0,0,0-2.133,1.711L18.87,64.693A2.188,2.188,0,0,0,21,67.359h7.234a2.2,2.2,0,0,0,2.15-1.775l.963-5Zm52.187-37.75a2.186,2.186,0,0,0-2.188,2.185V31.8a2.193,2.193,0,0,0,2.188,2.188h5.344V65.174a2.191,2.191,0,0,0,2.185,2.185h7.532a2.2,2.2,0,0,0,2.188-2.185V33.985h5.334a2.2,2.2,0,0,0,2.188-2.184V25.023a2.191,2.191,0,0,0-2.188-2.185Zm15.06,42.336H91.063V31.8H83.535V25.023h22.583V31.8H98.595V65.174Zm-28.557,0H60l-6.274-6.28V25.023h7.529V58.4h7.529V25.023h7.526V58.894l-6.269,6.279Zm-41.8,0H21l9.036-40.148h8.127L47.2,65.169l-7.526,0L38.368,58.4H29.54l-1.3,6.772ZM33.9,35.261,30.741,52.171H37.17L34,35.261Zm.63,14.726H33.373l.579-3.1.58,3.1Z" transform="translate(1504 5289)"/>
    </g>
  </g>
</svg>
