<svg xmlns="http://www.w3.org/2000/svg" width="539.876" height="327.692" viewBox="0 0 539.876 327.692"><defs><style>.a,.d{fill:none;}.a{stroke:#fff;opacity:0;}.b{fill:#fff;}.c{stroke:none;}</style></defs><g transform="translate(-690.011 -4488)"><g class="a" transform="translate(690.011 4488)"><rect class="c" width="539.876" height="327.692"/><rect class="d" x="0.5" y="0.5" width="538.876" height="326.692"/></g><g transform="translate(831.348 4593.335)"><path class="b" d="M201.352,208.912a24.085,24.085,0,0,1-4.5-1.377c-5.063-2.633-7.776-6.885-7.371-12.6.4-5.589,1.458-11.138,2.268-16.727.324-2.147.77-4.212,1.094-6.359a2.156,2.156,0,0,0-.446-1.539c-1.823-2.471-4.374-2.633-7.088-2.025-4.131.972-7.047,3.24-7.9,7.655-1.053,5.468-2.187,10.976-3.24,16.444-.891,4.5-1.742,8.991-2.552,13.528a2.008,2.008,0,0,1-1.9,1.863c-1.3.162-2.552.243-3.807.365.527.122,1.134.2,1.742.324v.081h-6.035c.283-.121.405-.162.81-.324-1.053-.081-1.782-.122-2.511-.162a36.337,36.337,0,0,1-4.172-.405c-2.025-.365-2.795-1.337-2.592-3.4.284-2.714.648-5.427,1.134-8.1,2.511-13.487,5.1-26.975,7.655-40.462.324-1.742-.04-1.58,1.863-1.539,2.957.04,5.954.121,8.91.121a8.881,8.881,0,0,1,6.075,2.633c1.782,1.661,1.823,1.661,3.848.283,5.994-4.172,12.434-4.658,19.2-2.471,6.035,1.985,9.4,6.764,9.64,13.123a84.4,84.4,0,0,1-1.418,15.634c-.486,3-.972,6.035-1.256,9.032a6.907,6.907,0,0,0,.689,3.038c.284.689,1.094.729,1.863.932,2.916.729,4.739-1.053,6.642-2.633a27.331,27.331,0,0,0,3.362-3.483,148.211,148.211,0,0,1,14.9-15.35c1.782-1.661,3.443-3.4,5.184-5.1-.04-.122-.081-.283-.121-.405-1.256-.162-2.471-.405-3.726-.446-5.225-.122-10.49-.162-15.715-.2h-1.458c.527-2.592.932-5.063,1.539-7.452a40.222,40.222,0,0,1,1.62-4.86,3.252,3.252,0,0,1,3-2.106c3.281-.2,6.6-.527,9.883-.527,11.5-.081,23.005-.081,34.508-.081a4.251,4.251,0,0,1,.527.081c.162,2.795.446,5.67-1.175,8.1a50.568,50.568,0,0,1-5.67,7.412c-7.412,7.614-14.986,15.026-22.519,22.56a8.211,8.211,0,0,1-.932.729,1.972,1.972,0,0,1,.122.284l2.916.243c4.739.284,9.437.648,14.176.77,2.795.04,5.508.608,8.3.689.891.04,1.175.446,1.053,1.3A36.886,36.886,0,0,1,264.7,206.36a4.219,4.219,0,0,1-3.686,2.43,9.42,9.42,0,0,0-1.134.2h-16.16a9.318,9.318,0,0,0-1.053-.122c-9.194-.162-18.429-.445-27.623-.486-3.645-.04-7.29.4-10.936.608C203.215,208.912,202.283,208.912,201.352,208.912Z" transform="translate(-91.104 -91.253)"/><path class="b" d="M0,168.665l1.7-8.87q5.407-28.372,10.774-56.7c.324-1.742.932-3.443,1.377-5.184a3.351,3.351,0,0,1,3-2.714c2.43-.324,4.9-.608,7.371-.77,2.673-.162,5.387-.2,8.06-.324h1.175c-1.661,9.518-3.321,18.874-4.941,28.23.081.041.2.122.284.162,1.094-.527,2.228-1.053,3.321-1.62a20.755,20.755,0,0,1,11.3-2.471,22.2,22.2,0,0,1,13.244,5.063,12.7,12.7,0,0,1,4.82,8.586A48.262,48.262,0,0,1,60.227,150.4c-2.673,9.275-8.668,15.715-17.294,19.927a32,32,0,0,1-11.1,2.795c-1.418.162-2.835.284-4.253.405H19.846a9.451,9.451,0,0,0-1.053-.162,66.025,66.025,0,0,1-7.533-.972c-3.767-.891-7.493-2.106-11.219-3.159A2.318,2.318,0,0,1,0,168.665ZM41.677,140.84c-.041-.77-.041-1.5-.122-2.268a5.925,5.925,0,0,0-6.075-5.63,12.709,12.709,0,0,0-7.493,2.309,4.52,4.52,0,0,0-1.661,2.228c-.891,2.876-1.661,5.792-2.349,8.708-.81,3.564-1.458,7.169-2.147,10.733-.405,2.187-.324,2.309,1.9,2.268,1.175-.041,2.349-.162,3.524-.243,5.225-.284,8.951-2.916,11.543-7.331A22.207,22.207,0,0,0,41.677,140.84Z" transform="translate(0 -55.947)"/><path class="b" d="M491.1,157.6a7.535,7.535,0,0,1,.405-1.256c1.013-2.228,2.066-4.415,3.159-6.6a1.164,1.164,0,0,0-.364-1.7c-2.025-1.58-4.01-3.281-6.2-5.1,2.025-.162,3.767-.324,5.549-.486,1.013-.081,1.985-.2,3-.365a4.355,4.355,0,0,0,3.281-2.187c.729-1.256,1.458-2.552,2.309-3.726A5.577,5.577,0,0,1,503.9,135a12.217,12.217,0,0,1,.729,1.9,13.426,13.426,0,0,1,.081,1.823c.162,2.147.932,3.2,3.078,3.524,2.228.365,4.5.446,6.723.648.324.041.688.041,1.336.081-1.742,1.134-3.281,2.106-4.779,3.078-1.215.77-2.39,1.58-3.645,2.309a1.365,1.365,0,0,0-.729,1.58q.425,3.1.729,6.2a4.317,4.317,0,0,1-.243,1.215c-.4-.081-.891-.041-1.175-.284a19.189,19.189,0,0,1-3-2.43,3.46,3.46,0,0,0-4.293-.891c-1.7.851-3.281,1.9-4.941,2.835-.77.446-1.539.851-2.309,1.3A.883.883,0,0,1,491.1,157.6Z" transform="translate(-290.408 -80.281)"/><path class="b" d="M443.574,49.6c2.916,0,5.792-.04,8.708,0a1.771,1.771,0,0,0,1.823-1.134c1.174-2.43,2.471-4.779,3.686-7.169a9.327,9.327,0,0,1,.648-1.094c.567,2.633,1.175,5.022,1.62,7.412.2,1.215.769,1.58,1.985,1.661,2.552.122,5.1.446,8.019.729l-1.134.81c-2.147,1.337-4.334,2.714-6.48,4.01a1.426,1.426,0,0,0-.81,1.661c.284,2.147.527,4.334.729,6.521a5.167,5.167,0,0,1-.243,1.337,3.8,3.8,0,0,1-1.256-.365,16.04,16.04,0,0,1-2.552-2.106,3.787,3.787,0,0,0-4.5-1.094,37.108,37.108,0,0,0-4.334,2.309c-1.094.608-2.187,1.256-3.281,1.9l-.284-.284c.405-.932.729-1.9,1.175-2.795.851-1.661,1.7-3.321,2.633-4.941a1.221,1.221,0,0,0-.284-1.863c-2.025-1.661-3.929-3.443-5.873-5.184A.864.864,0,0,1,443.574,49.6Z" transform="translate(-263.905 -23.878)"/><path class="b" d="M518.221,22.136a6.9,6.9,0,0,1,.405-1.3c.932-1.823,1.823-3.645,2.876-5.427a1.285,1.285,0,0,0-.364-1.944c-2.025-1.661-4.01-3.362-6.237-5.265,1.62,0,2.956.041,4.293,0,1.094-.041,2.228-.081,3.321-.162a4.735,4.735,0,0,0,3.969-2.592c.81-1.418,1.5-2.835,2.39-4.212A6.876,6.876,0,0,1,530.534-.1a12.007,12.007,0,0,1,.81,1.985,13.817,13.817,0,0,1,.2,2.228,3.409,3.409,0,0,0,2.795,3.6,31.068,31.068,0,0,0,4.334.648,18.147,18.147,0,0,1,2.795.446c-1.256.77-2.552,1.539-3.807,2.309-1.094.648-2.187,1.377-3.321,1.944a1.582,1.582,0,0,0-.931,1.985c.324,2.309.526,4.617.769,6.926.041.365,0,.77,0,1.377-.526-.324-.891-.527-1.215-.77-1.782-1.337-3.6-2.633-5.346-3.969a1.35,1.35,0,0,0-1.742-.122c-1.9,1.134-3.848,2.187-5.832,3.24a11.807,11.807,0,0,1-1.539.567C518.383,22.338,518.3,22.257,518.221,22.136Z" transform="translate(-306.354 0.1)"/><path class="b" d="M574.478,64.675c.162-.405.324-.851.486-1.256.972-2.066,1.9-4.172,2.957-6.2a1.3,1.3,0,0,0-.4-1.9c-1.742-1.418-3.443-2.916-5.144-4.374-.243-.2-.486-.446-.972-.932h2.835c2.065,0,4.172-.04,6.237,0a1.689,1.689,0,0,0,1.7-1.013c1.3-2.349,2.633-4.7,3.969-7.007.162-.284.365-.608.648-1.094.486,2.592.972,4.941,1.336,7.331.162,1.013.567,1.337,1.579,1.418,2.714.162,5.387.446,8.425.729-.526.405-.81.648-1.134.851-2.187,1.539-4.334,3.078-6.561,4.536a1.64,1.64,0,0,0-.77,1.9c.324,2.066.607,4.131.77,6.2.121,1.134-.243,1.377-1.215.77a15.55,15.55,0,0,1-3-2.39,3.421,3.421,0,0,0-4.091-1.013c-1.823.77-3.524,1.742-5.306,2.633-.729.365-1.5.729-2.268,1.094C574.64,64.837,574.559,64.756,574.478,64.675Z" transform="translate(-339.97 -24.294)"/></g></g></svg>