<svg xmlns="http://www.w3.org/2000/svg" width="404.898" height="245.764" viewBox="0 0 404.898 245.764">
  <defs>
    <style>
      .cls-1, .cls-4 {
        fill: none;
      }

      .cls-1 {
        stroke: #fff;
        opacity: 0;
      }

      .cls-2 {
        fill: #fff;
      }

      .cls-3 {
        stroke: none;
      }
    </style>
  </defs>
  <g id="Group_399" data-name="Group 399" transform="translate(-1365 -4965)">
    <g id="Rectangle_46" data-name="Rectangle 46" class="cls-1" transform="translate(1365 4965)">
      <rect class="cls-3" width="404.898" height="245.764"/>
      <rect class="cls-4" x="0.5" y="0.5" width="403.898" height="244.764"/>
    </g>
    <g id="Group_342" data-name="Group 342" transform="translate(1439 5046)">
      <path id="Path_1323" data-name="Path 1323" class="cls-2" d="M47.9,29.788H62.14c.5,0,.621.124.7.621a39.627,39.627,0,0,1,.331,7,36.486,36.486,0,0,1-.455,3.643c-.083.58-.166,1.2-.29,1.78-.248,1.035-.5,2.029-.828,3.064a24.024,24.024,0,0,1-2.9,6.169,28.552,28.552,0,0,1-5.921,6.5,28.936,28.936,0,0,1-5.755,3.685,32.185,32.185,0,0,1-3.312,1.283,31.007,31.007,0,0,1-3.726.994,37.78,37.78,0,0,1-4.347.538,20.09,20.09,0,0,1-2.733.083,37.719,37.719,0,0,1-4.347-.248,34.494,34.494,0,0,1-7.121-1.78,33.153,33.153,0,0,1-5.051-2.4,38.836,38.836,0,0,1-3.436-2.36c-.58-.414-1.118-.869-1.656-1.325a22.6,22.6,0,0,1-3.147-3.147c-.994-1.242-2.029-2.443-2.9-3.768A29.567,29.567,0,0,1,2.23,44.2,28.531,28.531,0,0,1,.7,39.021,40.689,40.689,0,0,1,.16,34.508a15.526,15.526,0,0,1-.083-2.4c.124-1.615.207-3.229.455-4.844a26.749,26.749,0,0,1,1.7-6.169,34.1,34.1,0,0,1,2.443-4.927A34.764,34.764,0,0,1,7.737,11.9a31.174,31.174,0,0,1,5.217-4.968,29.846,29.846,0,0,1,5.714-3.519,32.135,32.135,0,0,1,5.01-1.946,30.618,30.618,0,0,1,7-1.242A35.1,35.1,0,0,1,38.457.64a24.7,24.7,0,0,1,5.631,1.532,42.208,42.208,0,0,1,3.933,1.78,39.513,39.513,0,0,1,3.561,2.236c.994.7,1.9,1.49,2.815,2.277.083.041.124.124.207.207.373.414.373.414,0,.787-1.7,1.78-3.436,3.519-5.134,5.3-.5.5-.5.455-1.035.041-.911-.745-1.822-1.449-2.774-2.112a17.964,17.964,0,0,0-2.733-1.573A22.98,22.98,0,0,0,39.244,9.79a21.3,21.3,0,0,0-6.459-.828,27.454,27.454,0,0,0-5.465.7,22.326,22.326,0,0,0-6,2.443,21.362,21.362,0,0,0-3.85,2.815c-.745.745-1.532,1.449-2.236,2.277a30.242,30.242,0,0,0-2.153,2.981,18.533,18.533,0,0,0-2.07,4.389c-.29.952-.538,1.9-.787,2.857a22.567,22.567,0,0,0-.58,6,19.171,19.171,0,0,0,.745,5.838A27.458,27.458,0,0,0,12.7,44.858a28.388,28.388,0,0,0,2.981,4.057,22.05,22.05,0,0,0,4.389,3.726,18.567,18.567,0,0,0,5.879,2.733,35.137,35.137,0,0,0,4.14.911,29.931,29.931,0,0,0,4.306.124,16.712,16.712,0,0,0,2.857-.29,28.46,28.46,0,0,0,3.6-.869,17.842,17.842,0,0,0,5.258-2.608,17.962,17.962,0,0,0,4.389-4.1,27.545,27.545,0,0,0,1.78-3.022A22.2,22.2,0,0,0,53.9,40.677a8.729,8.729,0,0,0,.207-1.449c.083-.621,0-.7-.662-.7H33.406c-.455,0-.5-.041-.455-.5.041-.5,0-1.035,0-1.532,0-.538.041-1.035.041-1.573v-4.43c0-.662,0-.662.7-.662,4.761-.041,9.481-.041,14.2-.041Z" transform="translate(-0.061 -0.174)"/>
      <path id="Path_1324" data-name="Path 1324" class="cls-2" d="M420.683,77.474c0,6.417.041,12.793-.041,19.211a31.647,31.647,0,0,1-.5,4.389,20.416,20.416,0,0,1-1.325,4.637,18.18,18.18,0,0,1-4.306,6.252,17,17,0,0,1-3.809,2.65,14.667,14.667,0,0,1-2.36.911c-.952.29-1.9.58-2.857.787a21.835,21.835,0,0,1-6.956.29,19.5,19.5,0,0,1-7.867-2.65,19.015,19.015,0,0,1-4.886-4.223,25.755,25.755,0,0,1-2.857-4.389c-.414-.787-.414-.828.414-1.159,1.739-.745,3.478-1.449,5.217-2.194.5-.207.994-.414,1.532-.662.207-.083.331-.041.414.166a12.454,12.454,0,0,0,3.147,4.306,9.8,9.8,0,0,0,4.6,2.484,11.871,11.871,0,0,0,9.647-1.615,9.448,9.448,0,0,0,2.691-3.022,11.72,11.72,0,0,0,1.408-3.975,21.817,21.817,0,0,0,.29-3.271c.041-.952,0-1.9,0-2.857a1.866,1.866,0,0,0-.124-.455.919.919,0,0,0-.455.207c-.662.58-1.242,1.2-1.946,1.739a13.054,13.054,0,0,1-4.223,2.112,16.677,16.677,0,0,1-7.825.414,18.193,18.193,0,0,1-8.446-3.768A23.879,23.879,0,0,1,386.4,91.22a15.124,15.124,0,0,1-2.608-3.6,35.8,35.8,0,0,1-1.78-3.85,27.877,27.877,0,0,1-.952-4.182,14.053,14.053,0,0,1-.166-2.277,22.632,22.632,0,0,1,.745-5.755,21.062,21.062,0,0,1,2.981-6.583,19.03,19.03,0,0,1,4.43-4.679,20.131,20.131,0,0,1,6.459-3.4,16.866,16.866,0,0,1,7.038-.745,15.008,15.008,0,0,1,6.707,2.36c.745.5,1.408,1.159,2.153,1.739.207.166.414.58.745.373.166-.124.207-.5.207-.745,0-.662-.041-1.325-.041-1.987,0-.373.124-.538.5-.5h7.535c.455,0,.5.248.5.621V73.458c-.124,1.325-.124,2.691-.166,4.016Zm-7.825-.5a16.6,16.6,0,0,0-1.035-5.465,12.721,12.721,0,0,0-2.691-4.182,10.414,10.414,0,0,0-5.714-3.022,10.772,10.772,0,0,0-4.6.166,11.393,11.393,0,0,0-6.335,4.264,11.508,11.508,0,0,0-1.863,3.519A13.575,13.575,0,0,0,390,74.369a15.127,15.127,0,0,0-.041,4.927,13.051,13.051,0,0,0,2.443,5.838,12.058,12.058,0,0,0,2.981,2.815,10.528,10.528,0,0,0,6.21,1.863,10.341,10.341,0,0,0,5.672-1.7,11.708,11.708,0,0,0,4.761-6.169A12.08,12.08,0,0,0,412.858,76.977Z" transform="translate(-223.217 -32.914)"/>
      <path id="Path_1325" data-name="Path 1325" class="cls-2" d="M180.821,55.7a21.411,21.411,0,0,1,10.1,2.567,20.071,20.071,0,0,1,6.335,5.3,20.5,20.5,0,0,1,4.347,11.1,23.105,23.105,0,0,1-.538,7.535,21.358,21.358,0,0,1-2.733,6.21,19.8,19.8,0,0,1-6.542,6.293,21.35,21.35,0,0,1-8.488,2.9,21.871,21.871,0,0,1-7.7-.455A20.462,20.462,0,0,1,160.45,82.57a21.842,21.842,0,0,1,.414-13.125,19.694,19.694,0,0,1,6.252-8.943,20.366,20.366,0,0,1,10.641-4.6C178.792,55.824,179.785,55.783,180.821,55.7Zm-.248,33.743a11.01,11.01,0,0,0,7.66-2.857,12.2,12.2,0,0,0,4.016-7.494,13.694,13.694,0,0,0-1.408-8.86,11.492,11.492,0,0,0-6.873-5.714,11.531,11.531,0,0,0-12.752,4.43,13.833,13.833,0,0,0,.58,16.271A11.288,11.288,0,0,0,180.572,89.443Z" transform="translate(-93.569 -32.711)"/>
      <path id="Path_1326" data-name="Path 1326" class="cls-2" d="M543.879,55.9a17.213,17.213,0,0,1,10.972,3.768,21.693,21.693,0,0,1,6.376,8.446c.455.994.828,1.987,1.242,2.981.207.5.166.58-.29.787-1.78.745-3.6,1.491-5.424,2.236-2.029.828-4.016,1.7-6.045,2.526-1.822.745-3.643,1.449-5.424,2.194-2.194.911-4.347,1.822-6.542,2.733-1.159.5-2.319.952-3.478,1.449-.5.207-.538.331-.248.828a11.02,11.02,0,0,0,4.8,4.72,11.256,11.256,0,0,0,3.85.994,12.27,12.27,0,0,0,5.465-.745,9.914,9.914,0,0,0,3.478-2.194,29.772,29.772,0,0,0,2.111-2.443c.207-.248.414-.373.7-.166,2.112,1.408,4.223,2.815,6.376,4.223.455.29.5.373.166.787a23.8,23.8,0,0,1-5.8,5.548,20.52,20.52,0,0,1-7.949,3.064,21.261,21.261,0,0,1-9.4-.58,19.578,19.578,0,0,1-8.073-4.554,19.979,19.979,0,0,1-4.761-6.79,21.208,21.208,0,0,1-1.615-6.169,23.946,23.946,0,0,1,.166-6.666,22.178,22.178,0,0,1,2.9-7.949,18.968,18.968,0,0,1,7.908-7.2A19.8,19.8,0,0,1,543.879,55.9ZM533.2,75.318v.248c0,.538.124.621.621.414,2.608-1.076,5.217-2.194,7.784-3.271,2.112-.869,4.264-1.78,6.417-2.65,1.118-.455,2.236-.911,3.354-1.408.455-.207.5-.331.207-.7a8.071,8.071,0,0,0-7.287-3.892,10.489,10.489,0,0,0-7.121,2.733A11.355,11.355,0,0,0,533.2,75.318Z" transform="translate(-307.205 -32.828)"/>
      <path id="Path_1327" data-name="Path 1327" class="cls-2" d="M291.247,55.9c1.366.166,2.733.248,4.1.5a17.419,17.419,0,0,1,2.526.662,18.608,18.608,0,0,1,4.927,2.36,20.158,20.158,0,0,1,4.8,4.389,19.921,19.921,0,0,1,2.774,4.679,16.259,16.259,0,0,1,1.408,5.217c.083,1.325.207,2.691.207,4.016a18.516,18.516,0,0,1-.745,4.968,21.783,21.783,0,0,1-2.65,5.921,27.988,27.988,0,0,1-2.236,2.733,17.155,17.155,0,0,1-2.4,2.194,26.2,26.2,0,0,1-2.9,1.822,20.2,20.2,0,0,1-6.749,2.194,22.188,22.188,0,0,1-8.57-.414,20.168,20.168,0,0,1-5.755-2.4,19.507,19.507,0,0,1-4.1-3.271,20.626,20.626,0,0,1-5.631-12.421,26.8,26.8,0,0,1,.083-5.465,13.937,13.937,0,0,1,.5-2.277,18.474,18.474,0,0,1,2.36-5.589,17.1,17.1,0,0,1,3.892-4.554,19.155,19.155,0,0,1,2.319-1.78,20.755,20.755,0,0,1,6.831-2.9,19.854,19.854,0,0,1,4.968-.5C291.247,55.941,291.247,55.941,291.247,55.9ZM279.24,76.436a15.122,15.122,0,0,0,.5,4.057,12.2,12.2,0,0,0,2.94,5.424,11.062,11.062,0,0,0,7.867,3.685,12.16,12.16,0,0,0,5.01-.828,11.985,11.985,0,0,0,5.921-5.424,12.839,12.839,0,0,0,1.49-4.72,14.637,14.637,0,0,0-.041-3.561,12.568,12.568,0,0,0-2.981-6.956,11.545,11.545,0,0,0-14.284-2.65,11.024,11.024,0,0,0-3.188,2.526,11.976,11.976,0,0,0-2.236,3.561A12.121,12.121,0,0,0,279.24,76.436Z" transform="translate(-158.327 -32.828)"/>
      <path id="Path_1328" data-name="Path 1328" class="cls-2" d="M492.4,36V5.738c0-.414.124-.538.538-.538h7.991c.414,0,.538.166.538.538V66.145c0,.621-.041.662-.662.662h-7.784c-.621,0-.621,0-.621-.621V36Z" transform="translate(-288.558 -3.119)"/>
    </g>
  </g>
</svg>
