<svg xmlns="http://www.w3.org/2000/svg" width="404.898" height="245.764" viewBox="0 0 404.898 245.764">
  <defs>
    <style>
      .cls-1, .cls-4 {
        fill: none;
      }

      .cls-1 {
        stroke: #fff;
        opacity: 0;
      }

      .cls-2 {
        fill: #fff;
      }

      .cls-3 {
        stroke: none;
      }
    </style>
  </defs>
  <g id="Group_396" data-name="Group 396" transform="translate(-150 -4965)">
    <g id="Rectangle_69" data-name="Rectangle 69" class="cls-1" transform="translate(150 4965)">
      <rect class="cls-3" width="404.898" height="245.764"/>
      <rect class="cls-4" x="0.5" y="0.5" width="403.898" height="244.764"/>
    </g>
    <g id="Group_346" data-name="Group 346" transform="translate(225 5050)">
      <path id="Path_1371" data-name="Path 1371" class="cls-2" d="M96.1,104.581V71.676a.773.773,0,0,1,.462-.786c9.1-5.222,18.209-10.491,27.267-15.713a3.077,3.077,0,0,1,.555-.277c0,.185.046.324.046.462V87.9a.619.619,0,0,1-.37.647c-9.2,5.269-18.348,10.583-27.5,15.852A1.931,1.931,0,0,0,96.1,104.581Zm16.638-12.987c0,.046,0,.092.046.092a15.276,15.276,0,0,0,2.08-.555,12.437,12.437,0,0,0,6.285-6.193,6.436,6.436,0,0,0,.739-3.6,2.415,2.415,0,0,0-2.126-2.218,4.728,4.728,0,0,0-2.126.231,11.471,11.471,0,0,0-5.5,4.159,8.815,8.815,0,0,0-2.126,5.037C109.965,90.44,110.981,91.641,112.738,91.595ZM98.6,85.541a1.884,1.884,0,0,0,2.4,2.08,5.5,5.5,0,0,0,1.479-.462,9.143,9.143,0,0,0,4.529-5.037,5.49,5.49,0,0,0,.277-1.941,1.647,1.647,0,0,0-1.571-1.71,3.6,3.6,0,0,0-2.265.462,9.266,9.266,0,0,0-4.206,4.206A5.326,5.326,0,0,0,98.6,85.541Zm14.188-17.516c0,1.294.508,1.756,1.525,1.71A3.821,3.821,0,0,0,116.157,69a6.041,6.041,0,0,0,2.588-3.7c.277-1.34-.508-2.126-1.849-1.8a5.378,5.378,0,0,0-3.05,2.172A4.7,4.7,0,0,0,112.784,68.025Z" transform="translate(-51.687 -29.516)"/>
      <path id="Path_1372" data-name="Path 1372" class="cls-2" d="M6.008,52.857c-.37-.185-.647-.37-.924-.508-1.571-.924-3.143-1.8-4.714-2.727a.619.619,0,0,1-.37-.6V16.763a.6.6,0,0,1,.37-.6q9.775-5.615,19.6-11.277C22.738,3.268,25.511,1.7,28.284.079a.628.628,0,0,1,.693,0c1.756,1.063,3.559,2.08,5.361,3.1a1.01,1.01,0,0,0,.231.139c-.092.046-.139.139-.231.185C25.973,8.352,17.562,13.158,9.2,18.011c-.924.508-1.8,1.063-2.727,1.571a.813.813,0,0,0-.462.786V52.857Z" transform="translate(0 0.025)"/>
      <path id="Path_1373" data-name="Path 1373" class="cls-2" d="M82.616,97.024a1.663,1.663,0,0,1-.416-.231c-1.71-1.017-3.466-1.987-5.176-2.958a.56.56,0,0,1-.324-.555V61.022a.6.6,0,0,1,.37-.6c7.764-4.483,15.528-8.92,23.293-13.4,1.525-.878,3.05-1.756,4.575-2.68a.626.626,0,0,1,.786,0c1.71,1.017,3.466,2.033,5.222,3a.967.967,0,0,1,.277.185.811.811,0,0,1-.231.185c-6.285,3.6-12.571,7.256-18.856,10.861l-9.151,5.269a.714.714,0,0,0-.37.739V97.024Z" transform="translate(-41.253 -23.761)"/>
      <path id="Path_1374" data-name="Path 1374" class="cls-2" d="M72.923,25.439c-.924.508-1.756,1.017-2.634,1.525Q57.6,34.313,44.824,41.661a.808.808,0,0,0-.508.832v32.4a2.253,2.253,0,0,1-.324-.139L38.724,71.7a.627.627,0,0,1-.324-.6V38.888a.675.675,0,0,1,.416-.647l15.112-8.735c4.252-2.449,8.457-4.9,12.709-7.348a.624.624,0,0,1,.739,0l5.269,3.05A1.76,1.76,0,0,0,72.923,25.439Z" transform="translate(-20.653 -11.841)"/>
      <path id="Path_1375" data-name="Path 1375" class="cls-2" d="M86.03,32.7v6.563a.5.5,0,0,1-.277.508c-3.651,2.08-7.3,4.206-10.953,6.332a2.253,2.253,0,0,1-.324.139c0-.046-.046-.092-.046-.139a1.936,1.936,0,0,0-2.449-1.849A6.671,6.671,0,0,0,69.254,45.5a9.114,9.114,0,0,0-3.42,4.668,2.822,2.822,0,0,0-.139.6c.046.508-.231.739-.647.971-.462.231-.878.508-1.34.739a.619.619,0,0,0-.37.647V68.84a.793.793,0,0,1-.37.739,7.826,7.826,0,0,0-3.281,4.3,5.328,5.328,0,0,0-.139,1.2,1.534,1.534,0,0,0,1.8,1.525,8.856,8.856,0,0,0,1.479-.416,4.274,4.274,0,0,0,.462-.231v2.958a.586.586,0,0,1-.185.416l-5.269,3.05a.17.17,0,0,0-.139.046v-33a.56.56,0,0,1,.37-.6c9.151-5.269,18.255-10.537,27.406-15.806A2.185,2.185,0,0,1,86.03,32.7Z" transform="translate(-31.034 -17.576)"/>
      <path id="Path_1376" data-name="Path 1376" class="cls-2" d="M19.5,60.381V27.43a.676.676,0,0,1,.416-.693c9.151-5.269,18.348-10.583,27.5-15.852l.37-.185c0,.139.046.277.046.37v6.193a.56.56,0,0,1-.324.555c-4.529,2.634-9.1,5.222-13.634,7.857a.5.5,0,0,1-.416.092,4.594,4.594,0,0,0-3.328-.046,11.369,11.369,0,0,0-4.39,2.727,13.863,13.863,0,0,0-3.651,5.361,7.005,7.005,0,0,0-.462,2.773,2.816,2.816,0,0,0,2.912,2.912h.647v4.021a1.245,1.245,0,0,1-.231.693,7.633,7.633,0,0,0-1.571,3.466,3.243,3.243,0,0,0,.046,1.155,1.621,1.621,0,0,0,1.433,1.34c.185.046.324.092.324.324v6.516a.571.571,0,0,1-.185.37c-1.756,1.017-3.559,2.033-5.315,3.05C19.639,60.381,19.592,60.335,19.5,60.381Z" transform="translate(-10.488 -5.743)"/>
      <path id="Path_1377" data-name="Path 1377" class="cls-2" d="M489.961,104.422a2.578,2.578,0,0,0,0-.6c-.185-.508-.416-1.017-.6-1.571a.445.445,0,0,0-.462-.324H487a.4.4,0,0,0-.462.324c-.185.462-.37.878-.555,1.34-.139.462-.092.555.416.647.092,0,.139.046.231.046a47.265,47.265,0,0,1-8.088,0c.046-.046.092-.046.139-.092.647-.139.739-.185.739-.832V97.628a.562.562,0,0,0-.555-.647.871.871,0,0,1-.37-.092V96.8h3.374v.092a1.643,1.643,0,0,1-.462.092.462.462,0,0,0-.508.508v5.592a.585.585,0,0,0,.647.647c.462,0,.971.046,1.433.046a.907.907,0,0,0,.971-.786c0-.092.092-.139.092-.231h.139c-.046.416-.046.878-.092,1.294.462.092.739-.092.971-.647.462-1.063.924-2.126,1.386-3.143.462-1.109.971-2.265,1.433-3.374.046-.092.046-.139.092-.231.185-.277.37-.277.508,0,.231.508.462,1.063.693,1.571.647,1.525,1.294,3,1.941,4.529l.277.555a1.232,1.232,0,0,0,1.433.786c.508-.046.647-.185.647-.693.046-1.155.046-2.357.092-3.512,0-.924,0-1.895.046-2.819a1.314,1.314,0,0,1,.185-.555,2.02,2.02,0,0,1,.462.277l5.13,5.13.37.37v-1.248c0-1.063-.046-2.126-.092-3.189,0-.739-.092-.832-.786-.924-.092,0-.139-.046-.185-.185h2.819v.092c-.092.046-.139.092-.231.092-.555.092-.6.185-.647.786-.046,1.664-.046,3.281-.092,4.945a12.991,12.991,0,0,1-.046,1.34,1.137,1.137,0,0,1-.185.508.739.739,0,0,1-.462-.231c-.97-.878-1.941-1.8-2.865-2.727-.878-.832-1.71-1.664-2.588-2.5l-.046.046c.046,1.386.046,2.773.139,4.159.046.739.092.739.832.878.046,0,.139.046.185.046C495.322,104.515,490.516,104.561,489.961,104.422Zm-1.987-5.684h-.092c-.324.832-.647,1.664-1.017,2.542h2.08C488.621,100.448,488.3,99.616,487.974,98.738Z" transform="translate(-257.359 -51.864)"/>
      <path id="Path_1378" data-name="Path 1378" class="cls-2" d="M293.341,76.041a10.424,10.424,0,0,0,1.017.508,19.9,19.9,0,0,0,4.575,1.895,7.355,7.355,0,0,0,3.882-.185.786.786,0,0,1,.323-.046c0,.046.046.092.046.139a1.873,1.873,0,0,1-.416.231,8.282,8.282,0,0,1-7.579-.277c-.878-.462-1.71-.971-2.588-1.479a1.063,1.063,0,0,0-.647-.092,5.648,5.648,0,0,1-4.067-.416,4.766,4.766,0,0,1-2.265-4.991,4.617,4.617,0,0,1,3.79-3.743,5.482,5.482,0,0,1,4.067.739,3.926,3.926,0,0,1,1.8,3.143,4.727,4.727,0,0,1-1.849,4.39C293.387,75.949,293.387,75.995,293.341,76.041Zm.324-3.512a4.9,4.9,0,0,0-1.294-3.466,2.876,2.876,0,0,0-4.9,1.386,8.46,8.46,0,0,0-.139,2.172,3.753,3.753,0,0,0,1.941,3.281c1.433.786,3.651.693,4.206-1.895C293.572,73.5,293.618,73.037,293.664,72.529Z" transform="translate(-153.586 -36.284)"/>
      <path id="Path_1379" data-name="Path 1379" class="cls-2" d="M180.714,77.018h-3.79v-.092a.657.657,0,0,1,.277-.092c.462,0,.6-.231.647-.647.046-.555.046-1.155.092-1.71V72.813c0-.092-.139-.324-.231-.324h-4.39c0,.139-.046.231-.046.324,0,.971-.046,1.895,0,2.865.046,1.017.139,1.109,1.017,1.155.092,0,.139.046.231.092v.092h-3.79v-.092c.092-.046.139-.092.231-.092.555-.092.693-.185.693-.786.046-.786.046-1.525.046-2.311,0-1.479,0-3-.046-4.483,0-.832-.092-.924-.924-1.017-.092,0-.139-.046-.231-.092v-.092h3.7v.139c-.139.046-.277.046-.37.092-.37.046-.6.231-.6.6v2.68c0,.092.185.231.277.231h4.067c.231,0,.324-.092.324-.324,0-.832,0-1.664-.046-2.5,0-.555-.185-.693-.739-.739-.139,0-.277-.046-.462-.046a11.838,11.838,0,0,1,3.836-.046,2.034,2.034,0,0,1-.462.092c-.37.046-.6.231-.6.6,0,.416-.046.832-.046,1.248v5.222a3.5,3.5,0,0,0,.046.693c.092.647.185.739.832.786.139,0,.277.046.416.046A.349.349,0,0,1,180.714,77.018Z" transform="translate(-91.703 -36.568)"/>
      <path id="Path_1380" data-name="Path 1380" class="cls-2" d="M374.5,78.518h-3.42v-.092a.35.35,0,0,1,.185-.092c.555.046.647-.277.647-.739.046-.878.046-1.756.046-2.634V72c0-.37-.139-.462-.462-.462-.462.046-.924.046-1.386.046a.906.906,0,0,0-.878.555,2.729,2.729,0,0,0-.185.277,3.555,3.555,0,0,1,.185-1.618c3.189.185,6.378,0,9.567.139-.6.277-.277.6-.092.924.508.878,1.017,1.71,1.571,2.68.185-.323.324-.555.508-.832l.971-1.664c.323-.6.323-.647-.185-1.109h2.5a.045.045,0,0,0,.046.046.35.35,0,0,1-.185.092,1.294,1.294,0,0,0-1.017.647l-1.941,3.05a1.2,1.2,0,0,0-.185.693v2.218a.537.537,0,0,0,.6.6c.139,0,.324.046.462.046v.139h-3.42v-.092c.092-.046.231-.046.323-.092.277,0,.462-.139.462-.416.092-1.294.277-2.588-.6-3.743-.555-.739-1.017-1.525-1.525-2.265-.231-.324-.416-.647-.878-.693a11.258,11.258,0,0,0-.046,1.248h-.092a.24.24,0,0,1-.092-.185c-.046-.462-.37-.6-.786-.647-.462-.046-.971-.046-1.479-.092-.231,0-.323.092-.323.277,0,1.941,0,3.836.046,5.777,0,.555.139.693.739.693.139,0,.231.046.37.046A.619.619,0,0,0,374.5,78.518Z" transform="translate(-198.469 -38.068)"/>
      <path id="Path_1381" data-name="Path 1381" class="cls-2" d="M497.946,72.453a1.3,1.3,0,0,1-.046-.37c0-.139.046-.277.046-.37.046-.277.046-.647.185-.786s.508,0,.739,0h8.365a2.033,2.033,0,0,1,.462.092c-.555.231-.323.508-.139.832.508.878,1.063,1.8,1.618,2.773.555-1.017,1.109-1.987,1.618-2.912.231-.37-.092-.508-.416-.693h2.681c-.139.092-.139.139-.185.139a1.7,1.7,0,0,0-1.294.924c-.555.878-1.109,1.71-1.618,2.634a3.315,3.315,0,0,0-.324,1.155,11.744,11.744,0,0,0,.046,1.8c0,.555.139.647.693.693.139,0,.277.046.416.046v.139h-3.42v-.092a.857.857,0,0,1,.324-.092.475.475,0,0,0,.508-.462c0-.786.046-1.618,0-2.4a1.3,1.3,0,0,0-.277-.693c-.6-.971-1.248-1.941-1.895-2.912-.231-.324-.416-.647-.878-.693-.046.416-.046.832-.092,1.294a.358.358,0,0,0-.139-.046c-.231-.693-.416-.786-1.155-.832a8.906,8.906,0,0,1-1.109-.046c-.231,0-.324.046-.324.324,0,1.895,0,3.836.046,5.731,0,.6.139.693.739.739.139,0,.231.046.37.046v.139h-3.42v-.092a.657.657,0,0,1,.277-.092.443.443,0,0,0,.508-.508,6.827,6.827,0,0,0,.046-.971V72.037c0-.37-.139-.508-.462-.462a11.262,11.262,0,0,1-1.248.046.907.907,0,0,0-.971.6A.616.616,0,0,0,497.946,72.453Z" transform="translate(-267.794 -38.104)"/>
      <path id="Path_1382" data-name="Path 1382" class="cls-2" d="M411.394,71.563a12.958,12.958,0,0,1-.416-1.433,1.77,1.77,0,0,1,1.017-1.895A3.9,3.9,0,0,1,415.276,68c.092.046.277.185.231.277l-.139,1.664c0,.046-.046.092-.139.185-.046-.231-.092-.416-.139-.6a1.5,1.5,0,0,0-1.849-1.155,1.263,1.263,0,0,0-.971,1.664,2.3,2.3,0,0,0,.555,1.109,24.672,24.672,0,0,0,1.8,2.033c.508.555,1.063,1.017,1.664,1.571a3.323,3.323,0,0,0,.555-1.895.555.555,0,0,0-.508-.555c-.139-.046-.277-.046-.416-.092a.161.161,0,0,0-.046-.092c.046,0,.092-.046.139-.046.6.046,1.2.046,1.756.139.092,0,.185.277.185.416a4.188,4.188,0,0,1-.739,2.033,3.859,3.859,0,0,1-.37.555,7.365,7.365,0,0,0,3.05,1.71,11.079,11.079,0,0,1-2.126.092,3.55,3.55,0,0,1-1.941-.878,3.691,3.691,0,0,1-2.08,1.017,4.129,4.129,0,0,1-2.68-.37,2.481,2.481,0,0,1-1.017-3.559A6.833,6.833,0,0,1,411.394,71.563Zm3.836,4.113c-1.155-1.155-2.265-2.311-3.42-3.512a2.132,2.132,0,0,0-.739,1.941,2.24,2.24,0,0,0,1.479,2.08A2.959,2.959,0,0,0,415.23,75.677Z" transform="translate(-220.34 -36.428)"/>
      <path id="Path_1383" data-name="Path 1383" class="cls-2" d="M365.634,100.64V97.913c0-.924-.046-1.849-.092-2.773-.046-.693-.185-.832-.832-.878a.857.857,0,0,1-.323-.092v-.092h3.143c0,.046,0,.046.046.092a.657.657,0,0,1-.277.092c-.555.092-.693.231-.693.786-.046,1.2-.046,2.449-.092,3.651-.046,1.34-.046,2.68-.092,4.021a1.761,1.761,0,0,1-.139.462c-.139-.092-.37-.139-.462-.231-2.033-2.08-4.067-4.159-6.147-6.239l-.139-.139a.045.045,0,0,0-.046.046c.046,1.756.046,3.559.139,5.315.046.786.139.832.971.924.092,0,.139.046.231.046a8.065,8.065,0,0,1-3.328,0c.185-.046.277-.046.416-.092.555-.092.647-.185.693-.786.046-1.017.046-2.033.092-3.05.046-1.571.046-3.189.092-4.76a1.469,1.469,0,0,1,.139-.416,2.578,2.578,0,0,1,.37.231c2.033,2.126,4.113,4.252,6.147,6.331C365.449,100.5,365.541,100.547,365.634,100.64Z" transform="translate(-192.28 -50.438)"/>
      <path id="Path_1384" data-name="Path 1384" class="cls-2" d="M245.914,104.464a6.013,6.013,0,0,1-2.727,0c.277-.416.092-.832.046-1.294-.139-1.109-.277-2.172-.416-3.281a1.176,1.176,0,0,0-.092-.324,2.506,2.506,0,0,1-.277.508l-2.08,4.159c-.092.139-.231.231-.324.37-.139-.139-.277-.231-.323-.37-.693-1.34-1.386-2.727-2.08-4.113a.969.969,0,0,0-.277-.37c-.092.555-.139,1.063-.231,1.618l-.277,2.218c-.092.6-.046.6.555.739a.657.657,0,0,1,.277.092,5.424,5.424,0,0,1-2.588.046c.046-.046.092-.092.139-.092.6.046.693-.37.786-.832l.971-6.239a5.183,5.183,0,0,1,.231-.6c.139.139.37.277.462.508.832,1.664,1.664,3.327,2.5,4.945.046.139.139.231.231.462.37-.786.739-1.479,1.063-2.172.555-1.109,1.063-2.218,1.618-3.281a2.99,2.99,0,0,1,.37-.416,2.761,2.761,0,0,1,.277.508c.324,1.987.6,3.975.924,5.962.139.832.139,1.155,1.109,1.2C245.822,104.372,245.822,104.418,245.914,104.464Z" transform="translate(-126.448 -51.998)"/>
      <path id="Path_1385" data-name="Path 1385" class="cls-2" d="M218.772,99.619c-.37.739-.693,1.34-.971,1.941-.462.924-.924,1.8-1.386,2.727a.728.728,0,0,1-.324.324,1.246,1.246,0,0,1-.37-.324c-.739-1.386-1.433-2.773-2.126-4.159l-.185-.37a2.079,2.079,0,0,0-.092.37c-.139,1.248-.324,2.449-.462,3.7-.046.324.046.508.416.555a1.35,1.35,0,0,1,.416.092,4.92,4.92,0,0,1-2.588.046c.046-.046.046-.046.092-.046.647,0,.739-.416.832-.924l.971-6.239a.586.586,0,0,1,.046-.277.461.461,0,0,1,.185-.231.254.254,0,0,1,.231.139c.092.139.185.324.277.462.786,1.618,1.618,3.235,2.4,4.806.046.139.139.231.231.462.416-.878.832-1.664,1.248-2.5.508-1.017.971-2.033,1.479-3a2.788,2.788,0,0,1,.37-.37c.092.185.231.324.231.508.323,1.941.6,3.836.878,5.777,0,.139.046.277.046.37.139.786.185.832.971.971a.254.254,0,0,1,.231.139,11.134,11.134,0,0,1-2.773,0c.37-.508.139-.971.092-1.386l-.416-3.189C218.864,99.9,218.818,99.8,218.772,99.619Z" transform="translate(-113.539 -52.052)"/>
      <path id="Path_1386" data-name="Path 1386" class="cls-2" d="M397.5,97.292c-.046.092-.046.092-.046.139-.508.277-.508.277-.37.832.416,1.386.832,2.819,1.294,4.206,0,.092.046.139.139.277a2.915,2.915,0,0,0,.185-.416c.6-1.525,1.2-3.1,1.8-4.622.046-.046.046-.139.092-.185.092-.092.185-.277.277-.231.092,0,.231.139.277.277.277.647.555,1.34.832,1.987.37.924.786,1.8,1.155,2.727l.185.37c.092-.231.139-.416.185-.555.37-1.248.786-2.5,1.155-3.743.046-.092.046-.231.092-.324.092-.324,0-.508-.37-.555a.334.334,0,0,1-.277-.185h2.449c-.092.092-.185.185-.231.185-.508,0-.647.324-.786.693l-2.08,5.962c-.092.231-.139.416-.231.647-.046.092-.185.277-.277.277s-.231-.139-.277-.277c-.231-.508-.462-1.017-.693-1.571-.508-1.155-1.017-2.311-1.525-3.6-.092.231-.185.37-.231.508-.6,1.433-1.155,2.865-1.756,4.3-.046.092-.092.231-.139.324a2.134,2.134,0,0,0-.324.324,1.727,1.727,0,0,1-.277-.324L396.21,100.3c-.231-.693-.508-1.433-.739-2.126-.139-.37-.277-.647-.739-.647-.046,0-.092-.046-.231-.185C395.609,97.292,396.533,97.292,397.5,97.292Z" transform="translate(-212.18 -52.312)"/>
      <path id="Path_1387" data-name="Path 1387" class="cls-2" d="M258.042,74.866v3.05c0,.324.277.416.555.462.185,0,.324.046.508.046v.139h-3.42v-.092a.657.657,0,0,1,.277-.092.462.462,0,0,0,.508-.508c0-.462.046-.878.046-1.34V72.093c0-.739-.092-.832-.786-.924-.092,0-.139-.046-.231-.185h3.328v.092c-.092.046-.139.046-.231.092-.508.092-.6.139-.647.693-.046.693,0,1.386-.046,2.08,0,.231.092.277.324.277h3.466c.231,0,.324-.092.324-.324,0-.739,0-1.479-.046-2.218,0-.37-.231-.508-.555-.555a.745.745,0,0,1-.416-.139,26.676,26.676,0,0,1,3.327-.092v.139a.857.857,0,0,1-.324.092c-.324.046-.508.185-.508.555v5.962c0,.462.185.6.647.647.139,0,.277.046.416.046v.139h-3.42v-.092a.657.657,0,0,1,.277-.092c.416,0,.555-.231.6-.6,0-.878.046-1.756.046-2.634,0-.092-.139-.277-.231-.277C260.538,74.866,259.29,74.866,258.042,74.866Z" transform="translate(-137.42 -38.113)"/>
      <path id="Path_1388" data-name="Path 1388" class="cls-2" d="M530.939,97.246c.092,0,.231-.046.323-.046,1.479,0,2.912,0,4.391.046a3.978,3.978,0,0,1,3.05,1.248,3.924,3.924,0,0,1-1.618,6.147,6.08,6.08,0,0,1-2.588.37c-1.017-.046-2.08-.046-3.143-.092a.615.615,0,0,1-.37-.139.35.35,0,0,1,.185-.092c.6-.139.647-.185.647-.786.046-.739,0-1.433,0-2.172V98.263c0-.647-.092-.739-.739-.832a.657.657,0,0,1-.277-.092A.573.573,0,0,0,530.939,97.246Zm2.449,3.1h0c-.046.508-.046,1.017-.046,1.525s.046,1.063.046,1.571c.046.555.185.739.739.832a4.1,4.1,0,0,0,1.063.046c1.479-.092,2.4-.739,2.634-1.941a6.454,6.454,0,0,0,.092-1.895,2.787,2.787,0,0,0-1.294-2.172,4.585,4.585,0,0,0-3-.647.405.405,0,0,0-.277.324C533.388,98.864,533.388,99.6,533.388,100.343Z" transform="translate(-285.489 -52.267)"/>
      <path id="Path_1389" data-name="Path 1389" class="cls-2" d="M195.107,104.782a3.959,3.959,0,1,1-.416-7.9,7.867,7.867,0,0,1,1.8.092,3.669,3.669,0,0,1,2.773,5.13,3.992,3.992,0,0,1-3.559,2.68A2.612,2.612,0,0,1,195.107,104.782Zm-2.727-4.39a3.506,3.506,0,0,0,.046.739A3.292,3.292,0,0,0,194.275,104a2.385,2.385,0,0,0,3.559-1.8,6.894,6.894,0,0,0,.092-.971,4.025,4.025,0,0,0-1.063-3,2.689,2.689,0,0,0-2.773-.647,2.346,2.346,0,0,0-1.618,2.033C192.427,99.883,192.427,100.16,192.381,100.391Z" transform="translate(-102.63 -52.085)"/>
      <path id="Path_1390" data-name="Path 1390" class="cls-2" d="M312.116,104.728a3.981,3.981,0,1,1-.416-7.949,7.342,7.342,0,0,1,1.756.092,3.692,3.692,0,0,1,2.958,4.76,3.994,3.994,0,0,1-3.651,3.05A1.484,1.484,0,0,1,312.116,104.728Zm2.865-3.512a4.1,4.1,0,0,0-1.017-3,2.768,2.768,0,0,0-2.865-.739,2.336,2.336,0,0,0-1.617,2.126,5.642,5.642,0,0,0-.046,1.248,3.475,3.475,0,0,0,1.571,2.912,2.391,2.391,0,0,0,3.743-1.386A7.232,7.232,0,0,0,314.981,101.216Z" transform="translate(-165.567 -52.031)"/>
      <path id="Path_1391" data-name="Path 1391" class="cls-2" d="M331.258,104.557H328.3v-.139a2.944,2.944,0,0,1,.324-.092c.508-.092.6-.139.6-.693.046-.647.046-1.294.046-1.941,0-1.479.046-2.958.046-4.437a1.017,1.017,0,0,1,.046-.37c.046-.185.185-.231.37-.139l.277.277,5.176,5.176c.092.092.185.139.324.277v-2.126c0-.739-.046-1.479-.046-2.218,0-.832-.046-.878-.878-1.063-.046,0-.139-.046-.185-.185h2.819v.092a.657.657,0,0,1-.277.092c-.462,0-.6.277-.6.693,0,1.34-.046,2.634-.092,3.975,0,.832-.046,1.618-.046,2.449a1.761,1.761,0,0,1-.139.462,1.656,1.656,0,0,1-.508-.185c-.832-.739-1.664-1.525-2.449-2.311l-2.773-2.773-.231-.231c0,.139-.046.231-.046.324.046,1.248.046,2.5.092,3.743,0,.139.046.277.046.416.046.416.231.693.693.693.092,0,.231.046.324.046A.35.35,0,0,1,331.258,104.557Z" transform="translate(-176.575 -51.998)"/>
      <path id="Path_1392" data-name="Path 1392" class="cls-2" d="M435.894,94.277c-1.756,2.68-3.466,5.361-5.222,8.088.139,0,.185.046.277.046,1.017,0,2.033,0,3.05-.046a1.4,1.4,0,0,0,1.571-1.2c0-.046.092-.139.139-.231.046.092.139.185.092.231-.092.555-.139,1.155-.277,1.71,0,.092-.231.231-.37.231-2.126,0-4.252-.046-6.378-.046a1.817,1.817,0,0,1-.277-.092c1.71-2.773,3.512-5.407,5.268-8.18-.139,0-.231-.046-.323-.046-.878,0-1.8.046-2.68.046a1.445,1.445,0,0,0-1.618,1.2c0,.046-.092.092-.139.185a.782.782,0,0,1-.092-.231c.092-.6.139-1.155.231-1.756,0-.092.185-.185.277-.185,1.987,0,3.975.046,5.916.092a1.28,1.28,0,0,1,.416.046Q435.825,94.277,435.894,94.277Z" transform="translate(-230.467 -50.546)"/>
      <path id="Path_1393" data-name="Path 1393" class="cls-2" d="M178.289,96.475c-.046-.139-.046-.231-.092-.37a1.655,1.655,0,0,0-.971-1.34,4.483,4.483,0,0,0-3.189-.185A2.427,2.427,0,0,0,172.42,96.1a5.028,5.028,0,0,0,.092,4.159A3.894,3.894,0,0,0,177,102.3a1.878,1.878,0,0,0,1.294-1.2c.046-.139.092-.231.139-.37h.139c0,.139.046.231.046.37a11.561,11.561,0,0,1-.231,1.34.625.625,0,0,1-.416.416,7,7,0,0,1-5.684-.693,4.58,4.58,0,0,1-1.895-4.806,4.374,4.374,0,0,1,3.6-3.512,11.438,11.438,0,0,1,4.344.185c.092,0,.231.185.231.231,0,.6-.046,1.248-.092,1.849a.657.657,0,0,1-.092.277C178.382,96.475,178.336,96.475,178.289,96.475Z" transform="translate(-91.589 -50.386)"/>
      <path id="Path_1394" data-name="Path 1394" class="cls-2" d="M314.338,71.025H317.2v.092a.35.35,0,0,1-.185.092c-.6.092-.647.139-.647.786,0,1.248,0,2.5-.046,3.743a2.924,2.924,0,0,1-3.189,3.05,9.729,9.729,0,0,1-1.155-.092,2.7,2.7,0,0,1-2.265-2.865c-.046-1.2,0-2.449,0-3.651,0-.786-.046-.832-.832-.971-.046,0-.092-.046-.185-.092a9.683,9.683,0,0,1,3.466,0,2.033,2.033,0,0,1-.462.092c-.277.046-.462.185-.462.462,0,1.618-.046,3.235.092,4.806a1.977,1.977,0,0,0,3,1.433,1.806,1.806,0,0,0,.924-1.664c.046-1.525,0-3,0-4.529,0-.416-.277-.508-.6-.555-.139,0-.231-.046-.37-.046C314.338,71.118,314.338,71.072,314.338,71.025Z" transform="translate(-166.033 -38.155)"/>
      <path id="Path_1395" data-name="Path 1395" class="cls-2" d="M439.877,74.587a1.965,1.965,0,0,1,.092.508,1.755,1.755,0,0,0,2.311,1.433,1.368,1.368,0,0,0,.832-2.08,6.316,6.316,0,0,0-1.063-1.155,18,18,0,0,1-1.664-1.571,2.256,2.256,0,0,1,.324-3.328,3.164,3.164,0,0,1,1.386-.508,13.651,13.651,0,0,1,1.941.092c.277,0,.37.139.324.416-.046.416,0,.786-.046,1.2,0,.139-.046.231-.046.37h-.092l-.139-.277a1.619,1.619,0,0,0-2.311-1.155,1.161,1.161,0,0,0-.37,1.849,11.571,11.571,0,0,0,1.109,1.017c.508.462,1.063.878,1.479,1.34a2.623,2.623,0,0,1,.462,2.912,2.491,2.491,0,0,1-2.449,1.479,14.55,14.55,0,0,1-1.987-.231c-.277-.046-.37-.231-.37-.508.046-.462,0-.971.046-1.433a1.469,1.469,0,0,1,.139-.416A.143.143,0,0,1,439.877,74.587Z" transform="translate(-236.437 -36.494)"/>
      <path id="Path_1396" data-name="Path 1396" class="cls-2" d="M467.781,104.5a12.539,12.539,0,0,1-2.634,0,3.217,3.217,0,0,0-.092-.739c-.185-.508-.37-.971-.555-1.433-.092-.231-.185-.324-.416-.324H462.05a.389.389,0,0,0-.324.185,14.118,14.118,0,0,0-.6,1.479c-.185.508-.092.555.416.647.092,0,.139.046.231.046a6.932,6.932,0,0,1-2.773.046.781.781,0,0,1,.231-.092c.6,0,.878-.37,1.063-.878.647-1.525,1.294-3.05,1.987-4.575.277-.6.508-1.248.786-1.849.092-.139.231-.277.324-.416.139.139.277.231.323.37.878,1.987,1.71,3.928,2.542,5.916.092.231.231.462.324.693a1.126,1.126,0,0,0,.924.693c.092,0,.139.046.231.092A.17.17,0,0,1,467.781,104.5Zm-3.651-3.1c-.324-.878-.647-1.71-.971-2.542h-.092c-.324.832-.647,1.664-1.017,2.542Z" transform="translate(-246.871 -51.944)"/>
      <path id="Path_1397" data-name="Path 1397" class="cls-2" d="M328.827,78.3H326.1V78.21a.35.35,0,0,1,.185-.092,1.048,1.048,0,0,0,1.063-.832L329.7,71.74a9.884,9.884,0,0,1,.462-1.017.728.728,0,0,1,.324-.324,2.134,2.134,0,0,1,.324.324l1.8,4.159c.324.786.647,1.571,1.017,2.311a1.192,1.192,0,0,0,1.155.878c.046,0,.092.046.139.092a7.11,7.11,0,0,1-2.634.092c-.046-.277-.046-.555-.092-.739-.185-.508-.37-.971-.555-1.433-.092-.231-.185-.323-.416-.323h-1.987a.4.4,0,0,0-.416.277l-.555,1.386c-.185.462-.092.555.416.647.092,0,.139.046.231.092C328.827,78.257,328.827,78.257,328.827,78.3Zm2.357-3.143c-.324-.878-.647-1.71-1.017-2.634-.37.924-.693,1.756-1.063,2.634Z" transform="translate(-175.392 -37.853)"/>
      <path id="Path_1398" data-name="Path 1398" class="cls-2" d="M459.635,78.21A7.188,7.188,0,0,1,457,78.3a2.577,2.577,0,0,0,0-.6c-.185-.508-.416-1.017-.6-1.571-.092-.231-.185-.324-.416-.324H454a.52.52,0,0,0-.37.231,6.824,6.824,0,0,0-.555,1.34c-.185.508-.092.6.416.693a.17.17,0,0,1,.139.046c.046,0,.046.046.046.139h-2.727c0-.046,0-.046-.046-.092a.35.35,0,0,1,.185-.092,1.083,1.083,0,0,0,1.017-.832c.786-1.849,1.618-3.743,2.4-5.592.139-.324.277-.647.416-.924a.728.728,0,0,1,.324-.324,2.135,2.135,0,0,1,.323.324c.508,1.155,1.017,2.357,1.525,3.512.416.924.786,1.849,1.2,2.819.231.555.555,1.063,1.294,1.063A.143.143,0,0,0,459.635,78.21Zm-4.622-5.546h-.092c-.323.832-.647,1.664-.971,2.542h2.033C455.66,74.282,455.337,73.45,455.013,72.665Z" transform="translate(-242.515 -37.853)"/>
      <path id="Path_1399" data-name="Path 1399" class="cls-2" d="M215.627,78.357h-2.634a3.06,3.06,0,0,0-.046-.693c-.185-.508-.416-1.017-.6-1.525a.4.4,0,0,0-.416-.277H209.9a.471.471,0,0,0-.37.231,8.225,8.225,0,0,0-.555,1.34c-.185.555-.139.647.416.739.046,0,.139.046.139.185h-2.68c0-.046,0-.046-.046-.092a.35.35,0,0,1,.185-.092c.555,0,.832-.324,1.063-.832.555-1.294,1.109-2.634,1.71-3.928.37-.832.693-1.664,1.063-2.449a1.809,1.809,0,0,1,.37-.462,4.023,4.023,0,0,1,.416.508c.832,1.895,1.664,3.836,2.449,5.731.092.185.185.416.277.6.231.462.508.878,1.155.832.046,0,.092.046.139.046Zm-3.651-3.143c-.324-.878-.647-1.71-1.017-2.68-.37.971-.693,1.8-1.063,2.68Z" transform="translate(-111.227 -37.907)"/>
      <path id="Path_1400" data-name="Path 1400" class="cls-2" d="M452.592,103.354c-.046.462-.092.924-.185,1.386,0,.092-.277.231-.416.231-.878,0-1.8-.046-2.681-.046-.555,0-1.155.046-1.71.046a3.017,3.017,0,0,1-.508-.092c.139-.092.185-.139.231-.139.647-.139.693-.231.739-.878V98.409c0-.739-.046-.786-.786-.878a.657.657,0,0,1-.277-.092V97.3h5.269c-.046.462-.092.971-.139,1.479h-.139c-.046-.046-.092-.092-.092-.139-.139-.6-.277-.693-.878-.693-.416,0-.832-.046-1.248-.046-.231,0-.37.046-.324.277v2.08a.417.417,0,0,0,.277.277c.508,0,1.063.046,1.571,0a3.544,3.544,0,0,0,.786-.231c-.046.6-.092,1.155-.139,1.71h-.139a.657.657,0,0,1-.092-.277c0-.37-.231-.555-.6-.555-.462-.046-.878,0-1.34-.046-.231,0-.323.092-.323.324v2.08c0,.508.185.739.693.786a6.057,6.057,0,0,0,1.294,0,.837.837,0,0,0,.786-.693.668.668,0,0,0,.092-.324C452.453,103.308,452.5,103.354,452.592,103.354Z" transform="translate(-240.417 -52.321)"/>
      <path id="Path_1401" data-name="Path 1401" class="cls-2" d="M484.339,78.433c.092-.046.185-.046.277-.092.37,0,.508-.185.555-.555,0-.416.046-.832.046-1.248V71.963c0-.693-.092-.786-.739-.832a.657.657,0,0,1-.277-.092V70.9h5.269c-.046.462-.092.971-.185,1.479-.046,0-.092.046-.139.046-.046-1.017-.739-.924-1.386-.924h-.832c-.185,0-.277.046-.277.277v2.08c0,.231.092.277.277.277.555,0,1.109,0,1.664-.046a2.437,2.437,0,0,0,.693-.231c-.046.6-.092,1.155-.185,1.756h-.139a.35.35,0,0,1-.092-.185c0-.462-.277-.647-.693-.647H486.6v2.634c0,.324.277.462.555.462a8.4,8.4,0,0,0,1.525,0c.324,0,.508-.231.6-.555a.945.945,0,0,1,.231-.416,2.045,2.045,0,0,1-.139,1.479.36.36,0,0,1-.324.139h-4.622c-.092,0-.139-.046-.231-.092C484.339,78.526,484.339,78.479,484.339,78.433Z" transform="translate(-260.425 -38.122)"/>
      <path id="Path_1402" data-name="Path 1402" class="cls-2" d="M200.13,74.165c-.046.6-.139,1.2-.185,1.8a.572.572,0,0,1-.139-.092c-.092-.647-.092-.739-.971-.786a12.955,12.955,0,0,0-1.34,0v2.588a.562.562,0,0,0,.555.555,9.454,9.454,0,0,0,1.618,0c.231-.046.416-.324.555-.508.092-.092.092-.277.231-.37.046.092.092.139.092.231.092,1.155-.139,1.386-1.248,1.386h-3.743c-.139,0-.231-.046-.37-.046v-.139a.657.657,0,0,1,.277-.092.462.462,0,0,0,.508-.508c.046-.786.046-1.618.046-2.4V72.455c0-.786-.092-.832-.832-.924a.35.35,0,0,1-.185-.092V71.3h5.269c-.046.462-.092.971-.139,1.479a.358.358,0,0,0-.139-.046c-.231-.739-.324-.832-1.155-.832h-1.063c-.185,0-.277.046-.277.277v2.08c0,.231.092.324.277.324.555,0,1.155,0,1.71-.046A2.162,2.162,0,0,1,200.13,74.165Z" transform="translate(-104.88 -38.337)"/>
      <path id="Path_1403" data-name="Path 1403" class="cls-2" d="M387.246,103.308v.6c-.139,1.248-.139,1.017-1.2,1.063h-3.836c-.139,0-.231-.046-.37-.046v-.139a2.945,2.945,0,0,1,.323-.092.5.5,0,0,0,.508-.555c0-.832.046-1.618.046-2.449V98.455c0-.786-.046-.832-.786-.924-.092,0-.139-.046-.231-.092V97.3h5.269c-.046.462-.092.971-.185,1.525-.092-.092-.185-.092-.185-.139-.185-.693-.277-.786-1.017-.786-.37,0-.786-.046-1.155-.046-.185,0-.323,0-.323.277v2.4a5.2,5.2,0,0,0,2.634-.324c-.046.6-.092,1.2-.185,1.756h-.139a.657.657,0,0,1-.092-.277.546.546,0,0,0-.6-.555c-.462-.046-.971,0-1.433-.046-.231,0-.277.092-.277.277v2.08c0,.508.185.739.693.786a6.95,6.95,0,0,0,1.387,0,.835.835,0,0,0,.739-.647c0-.092.092-.185.139-.324A.99.99,0,0,0,387.246,103.308Z" transform="translate(-205.296 -52.321)"/>
      <path id="Path_1404" data-name="Path 1404" class="cls-2" d="M245.1,72.41c-.092-.878-.739-.878-1.34-.924a6.825,6.825,0,0,1-.971-.046c-.231,0-.324.046-.324.324.046,1.941.046,3.882.092,5.823,0,.508.185.6.647.647.139,0,.277.046.416.046v.139H240.2v-.092c.046-.046.092-.092.139-.092.647-.139.693-.185.693-.878V71.671a.245.245,0,0,0-.277-.277c-.6.046-1.155.046-1.756.092a.685.685,0,0,0-.647.555.361.361,0,0,1-.185.185,3.194,3.194,0,0,1,.185-1.479c0-.046.185-.046.277-.046.231,0,.462.092.693.092h5.222c.739,0,.739,0,.739.739,0,.277-.046.508-.046.786C245.19,72.41,245.144,72.41,245.1,72.41Z" transform="translate(-128.08 -38.014)"/>
      <path id="Path_1405" data-name="Path 1405" class="cls-2" d="M271.267,102.6l.139.555a1.6,1.6,0,0,0,1.8,1.109,1.232,1.232,0,0,0,1.294-1.109,1.17,1.17,0,0,0-.462-1.2c-.416-.324-.924-.6-1.34-.878a2.664,2.664,0,0,1-1.386-1.756,1.783,1.783,0,0,1,.739-1.895,4.091,4.091,0,0,1,3.374-.416c.092,0,.185.139.185.185,0,.462-.046.924-.092,1.433,0,.046-.046.046-.139.139a3.189,3.189,0,0,0-.139-.37,1.18,1.18,0,0,0-1.063-.924,1.576,1.576,0,0,0-1.618.555.969.969,0,0,0,.231,1.294,9.892,9.892,0,0,0,.878.6c.416.277.832.508,1.2.786a2.194,2.194,0,0,1,.786,2.449,2.108,2.108,0,0,1-1.849,1.618,14.119,14.119,0,0,1-2.4-.092.472.472,0,0,1-.416-.6c.046-.416.046-.786.092-1.2a.657.657,0,0,1,.092-.277Z" transform="translate(-145.746 -52.073)"/>
      <path id="Path_1406" data-name="Path 1406" class="cls-2" d="M285.213,102.616c.046.139.046.277.092.416a1.325,1.325,0,0,0,1.063,1.155,1.636,1.636,0,0,0,1.756-.324,1.265,1.265,0,0,0-.185-1.895c-.37-.277-.739-.462-1.109-.739a9.916,9.916,0,0,1-1.109-.832,1.956,1.956,0,0,1,.6-3.189,4.5,4.5,0,0,1,2.912-.185.206.206,0,0,1,.185.139c0,.508-.046,1.017-.046,1.525h-.185a.857.857,0,0,1-.092-.324,1.235,1.235,0,0,0-1.017-.924,1.551,1.551,0,0,0-1.618.508A.932.932,0,0,0,286.6,99.2a4.17,4.17,0,0,0,.924.647,13.753,13.753,0,0,1,1.34.924,2.206,2.206,0,0,1,.693,2.357,2.231,2.231,0,0,1-1.849,1.618,5.288,5.288,0,0,1-2.4-.092.514.514,0,0,1-.416-.647,7.485,7.485,0,0,0,.046-1.017,1.35,1.35,0,0,1,.092-.416A.349.349,0,0,0,285.213,102.616Z" transform="translate(-153.222 -52.091)"/>
      <path id="Path_1407" data-name="Path 1407" class="cls-2" d="M475.184,73.95c-.046.6-.092,1.109-.139,1.664-.555-.786-.555-.786-1.525-.832-.97,0-.97,0-.97.971,0,.647,0,1.34.046,1.987.046.508.139.6.693.647.139,0,.277.046.37.046v.139h-3.42v-.092a.657.657,0,0,1,.277-.092c.37,0,.555-.231.555-.6,0-.786.046-1.618.046-2.4V72.148c0-.786-.046-.878-.832-.971-.046,0-.092-.046-.185-.185a1.28,1.28,0,0,1,.416-.046h4.344c.185,0,.37-.046.647-.046-.046.555-.092,1.063-.185,1.571h-.139c-.046-.046-.092-.092-.092-.139,0-.555-.37-.647-.786-.693-.508,0-.971,0-1.479-.046-.231,0-.324.092-.324.277v2.08a.245.245,0,0,0,.277.277c.6,0,1.155,0,1.756-.046A1.822,1.822,0,0,0,475.184,73.95Z" transform="translate(-252.841 -38.122)"/>
      <path id="Path_1408" data-name="Path 1408" class="cls-2" d="M404.7,129.076c-.185.786-.37,1.525-.555,2.311h1.8c.832,0,.693.139.878-.739a12.923,12.923,0,0,1,.277-1.294c.046-.092.139-.277.231-.277a8.157,8.157,0,0,1,1.063,0c-.231,1.017-.462,1.987-.693,3-.139.693-.277,1.386-.37,2.08-.046.37-.185.555-.555.508a4.45,4.45,0,0,0-.786,0c.231-.924.416-1.756.6-2.634a1.426,1.426,0,0,0-.416-.046h-1.8a.368.368,0,0,0-.416.324c-.092.647-.231,1.294-.37,1.941-.046.324-.185.462-.508.462a5.559,5.559,0,0,0-.878,0c.185-.739.37-1.34.508-2.033.231-1.063.462-2.172.647-3.281.046-.231.139-.324.37-.324A6.793,6.793,0,0,0,404.7,129.076Z" transform="translate(-216.322 -69.401)"/>
      <path id="Path_1409" data-name="Path 1409" class="cls-2" d="M345.392,71.1h3.374v.092a1.088,1.088,0,0,1-.37.092c-.462.046-.6.139-.6.6v5.407c0,.555.139.739.693.786a7.9,7.9,0,0,0,1.479,0,.807.807,0,0,0,.832-.693c.046-.092.046-.185.139-.37.092.139.139.185.139.277a5.025,5.025,0,0,1-.185,1.2.627.627,0,0,1-.508.277h-4.575a1.28,1.28,0,0,1-.416-.046v-.139a.781.781,0,0,1,.231-.092c.416,0,.555-.231.6-.6a11.265,11.265,0,0,0,.046-1.248V72.071c0-.647-.092-.693-.739-.786-.092,0-.139-.046-.231-.046C345.392,71.192,345.392,71.146,345.392,71.1Z" transform="translate(-185.718 -38.229)"/>
      <path id="Path_1410" data-name="Path 1410" class="cls-2" d="M229.72,71.085c-.092,0-.231.046-.324.046-.555.046-.647.139-.647.693v5.269c.046.693.231.878.924.878h1.017c.647,0,.878-.185,1.109-.832a.715.715,0,0,1,.139-.277c.046.092.139.185.139.231a3.712,3.712,0,0,1-.185,1.248c-.231.462-.739.231-1.109.231h-3.975c-.139,0-.277-.046-.416-.046v-.139a2.948,2.948,0,0,1,.323-.092.462.462,0,0,0,.508-.508c0-.693.046-1.433.046-2.126V72.009c0-.739-.046-.786-.786-.924-.046,0-.139-.046-.185-.185h3.374A.27.27,0,0,0,229.72,71.085Z" transform="translate(-121.715 -38.122)"/>
      <path id="Path_1411" data-name="Path 1411" class="cls-2" d="M288.451,132.165c-.046.324-.139.647-.185.971l-.139.693c-.185.878.046.739-.971.786-.323,0-.416-.092-.37-.462.323-1.294.6-2.588.878-3.882a7.834,7.834,0,0,0,.185-1.017c.046-.092.139-.277.231-.277a8.125,8.125,0,0,1,1.063,0c-.185.832-.37,1.571-.508,2.311.046,0,.046.046.092.046.092-.092.231-.139.324-.231.555-.555,1.155-1.109,1.664-1.71a1.311,1.311,0,0,1,1.294-.37c-.6.555-1.155,1.109-1.71,1.618-.739.693-.739.693-.324,1.664.324.693.6,1.433.924,2.126v.139h-1.063c-.092,0-.231-.185-.277-.324-.231-.6-.508-1.155-.739-1.756-.046-.139-.139-.231-.185-.37A.349.349,0,0,1,288.451,132.165Z" transform="translate(-154.241 -69.347)"/>
      <path id="Path_1412" data-name="Path 1412" class="cls-2" d="M363.32,78.626H359.9v-.092a.657.657,0,0,1,.277-.092c.37,0,.555-.231.555-.6,0-.416.046-.832.046-1.248V72.155c0-.786,0-.786-.786-.971-.046,0-.092-.046-.092-.185h3.189v.092c-.092.046-.231.046-.324.092-.324.046-.508.185-.508.555v6.054c0,.416.185.555.6.6.139,0,.323.046.462.046C363.32,78.533,363.32,78.579,363.32,78.626Z" transform="translate(-193.571 -38.176)"/>
      <path id="Path_1413" data-name="Path 1413" class="cls-2" d="M301.559,104.687a10.218,10.218,0,0,1-3.559,0,1.715,1.715,0,0,1,.416-.092c.324-.046.462-.185.462-.508V97.893a.475.475,0,0,0-.462-.508,1.349,1.349,0,0,1-.416-.092V97.2h3.189v.092a.857.857,0,0,1-.324.092c-.37,0-.508.231-.508.555v5.638c0,.832.046.878.878.971A.614.614,0,0,0,301.559,104.687Z" transform="translate(-160.278 -52.267)"/>
      <path id="Path_1414" data-name="Path 1414" class="cls-2" d="M263.666,104.879h-3.42v-.092a.657.657,0,0,1,.277-.092c.416,0,.555-.277.555-.647,0-.786.046-1.618.046-2.4V98.455c0-.786,0-.786-.786-1.017q-.069,0-.139-.139h3.189v.092a1.088,1.088,0,0,1-.37.092c-.324.046-.462.185-.462.508s-.046.647-.046.971v4.853c.046.739.092.786.786.878.092,0,.185.046.323.046A.17.17,0,0,1,263.666,104.879Z" transform="translate(-139.948 -52.321)"/>
      <path id="Path_1415" data-name="Path 1415" class="cls-2" d="M307.125,136.066l-.277,1.248a1.966,1.966,0,0,0-.092.508c-.139.832-.277.924-1.155.693.092-.555.231-1.109.324-1.664.277-1.294.508-2.634.786-3.928.046-.231.139-.37.416-.37h.647c0,.092.046.185.046.324.046,0,.092,0,.092-.046a1.343,1.343,0,0,1,1.618-.231,1.307,1.307,0,0,1,.739,1.34,5.284,5.284,0,0,1-.324,1.479C309.343,136.667,308.327,136.852,307.125,136.066Zm2.08-2.172a.161.161,0,0,1-.092-.046c0-.416-.139-.693-.462-.786a.746.746,0,0,0-.832.37,3.288,3.288,0,0,0-.508,1.849.719.719,0,0,0,.508.786.609.609,0,0,0,.739-.416A11.387,11.387,0,0,0,309.2,133.894Z" transform="translate(-164.366 -71.215)"/>
      <path id="Path_1416" data-name="Path 1416" class="cls-2" d="M386.575,132.852c.046.462-.416.139-.555.324a3.681,3.681,0,0,1,.139.693c.046.786-.6,1.34-1.479,1.433h-.739c-.231,0-.416.092-.416.37-.046.277.185.324.416.37.323.046.693.046,1.017.092a.916.916,0,0,1,.878,1.248,1.846,1.846,0,0,1-1.386,1.386,2.708,2.708,0,0,1-1.71-.046A.935.935,0,0,1,382,137.8a1.154,1.154,0,0,1,.693-1.017.46.46,0,0,1,.185-.046c-.046-.324-.231-.647-.139-.924s.416-.462.647-.693h0a1.043,1.043,0,0,1-.555-1.294,1.424,1.424,0,0,1,1.248-1.063,3.094,3.094,0,0,1,.924,0A6.334,6.334,0,0,1,386.575,132.852Zm-2.865,3.882c-.878-.046-1.155.6-1.017,1.063.092.508.647.739,1.386.647a1.034,1.034,0,0,0,.924-1.017.555.555,0,0,0-.508-.555A3.968,3.968,0,0,0,383.71,136.734Zm1.479-3.1c-.092-.324-.092-.6-.416-.693a.554.554,0,0,0-.693.37,2.742,2.742,0,0,0-.231,1.063.758.758,0,0,0,.324.555.865.865,0,0,0,.647-.231C384.958,134.377,385.05,134.007,385.189,133.638Z" transform="translate(-205.457 -71.374)"/>
      <path id="Path_1417" data-name="Path 1417" class="cls-2" d="M484.13,134.719h-1.155c-.046,0-.139-.139-.185-.231a8.369,8.369,0,0,1-.139-1.063c-.046-.324-.185-.416-.462-.37a6.8,6.8,0,0,1-.971,0,.8.8,0,0,0-.971.6,6.456,6.456,0,0,1-.416.786c-.185.416-.462.416-.832.324a2.257,2.257,0,0,1,.139-.324c.971-1.664,1.941-3.327,2.912-5.037.139-.277.324-.277.555-.231.139.046.231.231.277.324.416,1.664.786,3.327,1.155,4.991C484.13,134.488,484.13,134.581,484.13,134.719Zm-1.618-2.172q-.208-.971-.416-1.8h-.139c-.37.6-.693,1.155-1.109,1.849C481.5,132.547,481.958,132.547,482.512,132.547Z" transform="translate(-257.628 -69.452)"/>
      <path id="Path_1418" data-name="Path 1418" class="cls-2" d="M427.6,136.655c.046-.231.046-.324.092-.508a2.744,2.744,0,0,0-.277.185,1.906,1.906,0,0,1-1.386.416.725.725,0,0,1-.739-.878,5.78,5.78,0,0,1,.139-.878c.139-.647.277-1.34.416-1.987.046-.092.139-.231.231-.231a6.769,6.769,0,0,1,.971,0,6.749,6.749,0,0,0-.231.924c-.139.6-.324,1.2-.416,1.8a.782.782,0,0,0,.139.6.732.732,0,0,0,.693-.046,2.274,2.274,0,0,0,.6-.832,10.3,10.3,0,0,0,.462-1.987c.046-.37.185-.555.555-.462a2.993,2.993,0,0,0,.647,0c-.139.693-.324,1.386-.462,2.033-.092.508-.231,1.017-.277,1.525-.046.277-.139.37-.416.37A3.737,3.737,0,0,0,427.6,136.655Z" transform="translate(-228.74 -71.387)"/>
      <path id="Path_1419" data-name="Path 1419" class="cls-2" d="M318.523,132.733c-.185.786-.37,1.479-.555,2.218l-.139.693c0,.37.231.6.6.508a1.27,1.27,0,0,0,.878-.924c.185-.693.37-1.433.508-2.172.046-.324.185-.416.462-.37a3.476,3.476,0,0,0,.693,0c-.139.693-.324,1.386-.462,2.033-.092.508-.231,1.017-.277,1.525-.046.277-.139.37-.416.37h-.693c0-.185.046-.323.046-.555a2.153,2.153,0,0,1-1.479.647c-.693-.046-1.063-.37-.924-1.063.139-.924.37-1.849.555-2.773,0-.046.139-.139.185-.139Z" transform="translate(-170.356 -71.348)"/>
      <path id="Path_1420" data-name="Path 1420" class="cls-2" d="M349.3,132.787c-.185.647-.324,1.248-.462,1.849a6.556,6.556,0,0,0-.231,1.017c-.046.462.231.693.693.555a1.166,1.166,0,0,0,.786-.878c.185-.739.37-1.525.555-2.265,0-.092.046-.139.046-.231H351.8c-.092.324-.139.647-.231.971-.185.878-.37,1.71-.508,2.588-.046.231-.139.324-.37.324h-.739c.046-.185.046-.324.092-.555a1.759,1.759,0,0,0-.277.231,1.842,1.842,0,0,1-1.618.37.639.639,0,0,1-.555-.739c.046-.324.092-.693.139-1.017l.416-1.941c.046-.092.185-.231.277-.231A2.735,2.735,0,0,1,349.3,132.787Z" transform="translate(-186.948 -71.401)"/>
      <path id="Path_1421" data-name="Path 1421" class="cls-2" d="M301.1,132.776c-.185.878-.37,1.71-.555,2.542a7.839,7.839,0,0,0-.185,1.017c-.046.231-.139.324-.37.324H299.3V136.2a.967.967,0,0,1-.277.185,1.692,1.692,0,0,1-1.386.37.725.725,0,0,1-.739-.878c.046-.37.139-.786.185-1.155.092-.555.231-1.155.37-1.71a.3.3,0,0,1,.231-.231,7.458,7.458,0,0,1,1.017,0c-.092.37-.185.647-.277.971-.139.6-.324,1.155-.416,1.756-.046.185.046.555.185.6a.732.732,0,0,0,.693-.046,1.881,1.881,0,0,0,.6-.878,9.993,9.993,0,0,0,.462-2.033c.046-.277.139-.37.416-.324A3.735,3.735,0,0,1,301.1,132.776Z" transform="translate(-159.681 -71.391)"/>
      <path id="Path_1422" data-name="Path 1422" class="cls-2" d="M374.6,132.707c0,.185-.046.324-.046.555.139-.139.277-.185.37-.277a1.666,1.666,0,0,1,1.386-.323.772.772,0,0,1,.693.924c-.185.971-.37,1.895-.6,2.865,0,.092-.139.185-.231.185a6.136,6.136,0,0,1-.924,0c.046-.231.092-.416.139-.6.185-.693.37-1.386.555-2.126a.666.666,0,0,0-.139-.6.9.9,0,0,0-.693,0,1.939,1.939,0,0,0-.647.832,15.029,15.029,0,0,0-.508,1.941.715.715,0,0,1-1.063.462.5.5,0,0,1-.092-.277c.231-1.109.508-2.265.739-3.374,0-.092.185-.231.277-.231C374.048,132.66,374.325,132.707,374.6,132.707Z" transform="translate(-200.509 -71.321)"/>
      <path id="Path_1423" data-name="Path 1423" class="cls-2" d="M335.749,129.176c.046.462-.092.555-.508.555-.878-.092-.878-.046-1.063.786-.324,1.248-.6,2.542-.832,3.836-.046.324-.185.462-.462.416h-.878c.37-1.71.739-3.328,1.109-5.037H331.59c-.046-.416.092-.555.462-.555h3.42C335.565,129.13,335.657,129.176,335.749,129.176Z" transform="translate(-178.34 -69.454)"/>
      <path id="Path_1424" data-name="Path 1424" class="cls-2" d="M467.926,132.6a1.732,1.732,0,0,1,1.664,2.5,2.384,2.384,0,0,1-2.958,1.479,1.719,1.719,0,0,1-1.063-1.987A2.308,2.308,0,0,1,467.926,132.6Zm-1.386,2.773c.139.416.092.832.555,1.017a.7.7,0,0,0,.878-.324,3.422,3.422,0,0,0,.555-2.68.6.6,0,0,0-1.017-.37.994.994,0,0,0-.416.555C466.863,134.171,466.725,134.772,466.54,135.373Z" transform="translate(-250.39 -71.307)"/>
      <path id="Path_1425" data-name="Path 1425" class="cls-2" d="M534.8,132.6c1.756-.046,2.033,1.571,1.571,2.68a2.42,2.42,0,0,1-2.634,1.386,1.724,1.724,0,0,1-1.248-2.357A2.371,2.371,0,0,1,534.8,132.6Zm-1.34,2.634a.045.045,0,0,1,.046.046.8.8,0,0,0,.046.462,1.567,1.567,0,0,0,.416.647.564.564,0,0,0,.786-.231,3.243,3.243,0,0,0,.6-2.727.619.619,0,0,0-1.017-.37,1.744,1.744,0,0,0-.462.555C533.735,134.124,533.643,134.679,533.458,135.233Z" transform="translate(-286.344 -71.306)"/>
      <path id="Path_1426" data-name="Path 1426" class="cls-2" d="M434.9,134.861a2.4,2.4,0,0,1,2.865-2.311,1.609,1.609,0,0,1,1.248,2.08,2.414,2.414,0,0,1-2.819,1.941A1.589,1.589,0,0,1,434.9,134.861Zm3.143-.878H438v-.37c-.046-.324-.092-.647-.462-.739a.813.813,0,0,0-.878.324,3.246,3.246,0,0,0-.555,2.588.649.649,0,0,0,1.109.37,1.758,1.758,0,0,0,.416-.6C437.765,135.046,437.9,134.491,438.043,133.983Z" transform="translate(-233.909 -71.257)"/>
      <path id="Path_1427" data-name="Path 1427" class="cls-2" d="M494.052,132.6a1.709,1.709,0,0,1,1.71,2.357,2.412,2.412,0,0,1-2.727,1.71,1.68,1.68,0,0,1-1.248-2.311A2.235,2.235,0,0,1,494.052,132.6Zm.786,1.386c-.046,0-.046,0-.092-.046v-.277c0-.37-.092-.693-.462-.786a.746.746,0,0,0-.832.37,3.653,3.653,0,0,0-.555,2.588.6.6,0,0,0,1.017.37,1.5,1.5,0,0,0,.462-.6C494.514,135.142,494.653,134.541,494.838,133.986Z" transform="translate(-264.454 -71.307)"/>
      <path id="Path_1428" data-name="Path 1428" class="cls-2" d="M545.812,136.416a.856.856,0,0,1-1.34-.139,5.059,5.059,0,0,1-1.063.416.98.98,0,0,1-1.155-.693,1.2,1.2,0,0,1,.555-1.386,6.739,6.739,0,0,1,1.386-.324c.324-.046.555-.139.555-.508s-.185-.647-.555-.647c-.323,0-.693.092-1.109.139.092-.139.139-.37.277-.416a2.578,2.578,0,0,1,1.756-.231.87.87,0,0,1,.739.971c-.046.6-.231,1.2-.323,1.8,0,.092-.046.185-.046.324C545.442,136.138,545.489,136.184,545.812,136.416Zm-1.109-1.849c-.832-.046-1.248.277-1.294.924,0,.277,0,.555.324.647a.516.516,0,0,0,.647-.324A12.393,12.393,0,0,1,544.7,134.567Z" transform="translate(-291.627 -71.287)"/>
      <path id="Path_1429" data-name="Path 1429" class="cls-2" d="M341.911,136.393a.873.873,0,0,1-1.433-.185,3.526,3.526,0,0,1-.508.37,1.2,1.2,0,0,1-1.294-.092,1.013,1.013,0,0,1-.324-1.109,1.2,1.2,0,0,1,.878-.924,9.253,9.253,0,0,1,1.109-.185c.324-.046.508-.139.508-.462s-.139-.647-.508-.647-.693.092-1.155.139c.092-.139.139-.324.277-.416a2.69,2.69,0,0,1,1.71-.231,1,1,0,0,1,.786,1.248c-.092.508-.231,1.017-.324,1.525a1.148,1.148,0,0,0-.046.37C341.449,136.07,341.449,136.347,341.911,136.393Zm-1.2-1.8c-.832-.046-1.294.324-1.294.971,0,.277.046.508.323.6a.516.516,0,0,0,.647-.324A12.384,12.384,0,0,1,340.709,134.591Z" transform="translate(-181.959 -71.31)"/>
      <path id="Path_1430" data-name="Path 1430" class="cls-2" d="M518.735,136.193a5.563,5.563,0,0,1-.971.416.943.943,0,0,1-1.2-.739,1.208,1.208,0,0,1,.786-1.433,5.032,5.032,0,0,1,1.2-.231c.324-.046.555-.139.555-.508a.616.616,0,0,0-.555-.647h-.508a1.508,1.508,0,0,1-.555.092c.092-.139.139-.324.231-.37a2.689,2.689,0,0,1,1.895-.185.8.8,0,0,1,.6.832c-.092.6-.185,1.2-.323,1.849,0,.139-.046.231-.046.37-.046.324-.092.6.37.693A.991.991,0,0,1,518.735,136.193Zm.185-1.664c-.832-.046-1.294.324-1.34.971a.559.559,0,0,0,.324.6.453.453,0,0,0,.6-.324A7.893,7.893,0,0,0,518.92,134.529Z" transform="translate(-277.814 -71.249)"/>
      <path id="Path_1431" data-name="Path 1431" class="cls-2" d="M452.386,133.173c.092-.139.139-.324.277-.416a2.451,2.451,0,0,1,1.71-.231.871.871,0,0,1,.739,1.063c-.092.647-.231,1.248-.37,1.895-.092.508-.092.555.324.786a.807.807,0,0,1-1.294-.139,5.059,5.059,0,0,1-1.063.416.953.953,0,0,1-1.155-.647,1.255,1.255,0,0,1,.647-1.479,6.475,6.475,0,0,1,1.294-.277c.323-.046.508-.139.508-.508a.581.581,0,0,0-.508-.647C453.172,133.034,452.8,133.127,452.386,133.173Zm1.571,1.34c-.832-.046-1.294.277-1.294.971,0,.277,0,.508.324.6a.506.506,0,0,0,.647-.37C453.773,135.3,453.819,134.929,453.957,134.513Z" transform="translate(-242.846 -71.233)"/>
      <path id="Path_1432" data-name="Path 1432" class="cls-2" d="M367.432,136.439a.908.908,0,0,1-1.386-.231,5.076,5.076,0,0,1-.647.416,1.111,1.111,0,0,1-1.479-.555,1.205,1.205,0,0,1,.786-1.571,9.258,9.258,0,0,1,1.109-.185c.323-.046.555-.139.508-.508,0-.37-.185-.647-.555-.647-.324,0-.647.092-1.109.139.092-.139.139-.323.277-.416a2.552,2.552,0,0,1,1.664-.231.921.921,0,0,1,.832,1.155c-.092.647-.231,1.248-.37,1.895C367.016,136.116,367.062,136.208,367.432,136.439Zm-1.155-1.849c-.832-.139-1.294.277-1.294,1.017,0,.231.046.508.324.555a.486.486,0,0,0,.6-.324A6.385,6.385,0,0,0,366.277,134.591Z" transform="translate(-195.695 -71.31)"/>
      <path id="Path_1433" data-name="Path 1433" class="cls-2" d="M419.51,136.379a.94.94,0,0,1-1.433-.139,5.907,5.907,0,0,1-1.017.416,1,1,0,0,1-1.2-.739,1.2,1.2,0,0,1,.693-1.433,5.034,5.034,0,0,1,1.2-.231c.324-.046.6-.139.6-.555a.632.632,0,0,0-.647-.647,6.545,6.545,0,0,0-.924.185c-.046-.231,0-.416.277-.462a5.741,5.741,0,0,1,1.525-.185c.693.046,1.017.555.878,1.294-.092.508-.231,1.017-.324,1.525a1.017,1.017,0,0,0-.046.37C419.048,136.055,419.048,136.333,419.51,136.379Zm-1.2-1.8c-.832-.046-1.294.277-1.294.924,0,.277,0,.555.324.647a.517.517,0,0,0,.647-.324A12.377,12.377,0,0,1,418.308,134.577Z" transform="translate(-223.649 -71.296)"/>
      <path id="Path_1434" data-name="Path 1434" class="cls-2" d="M511.064,135.789a2.078,2.078,0,0,1-.277.555,1.986,1.986,0,0,1-2.819-.878,2.161,2.161,0,0,1,2.449-2.912,1.421,1.421,0,0,1,1.063,1.849.468.468,0,0,1-.324.185H509.4c-.324,0-.462.092-.462.416a1.084,1.084,0,0,0,.462,1.017,1.3,1.3,0,0,0,1.294-.092c.092-.046.185-.139.277-.185A.161.161,0,0,1,511.064,135.789Zm-2.033-1.664c.046.046.092.092.092.139.231,0,.462.046.693.046.647,0,.878-.277.693-.924a.762.762,0,0,0-.37-.462.594.594,0,0,0-.555.185A2.724,2.724,0,0,0,509.03,134.125Z" transform="translate(-273.147 -71.261)"/>
      <path id="Path_1435" data-name="Path 1435" class="cls-2" d="M503.937,134.876a1.023,1.023,0,0,1-1.155.139.853.853,0,0,1-.508-1.017c.139-.647.277-1.294.416-1.987.046-.185.046-.323.092-.508a1.572,1.572,0,0,0-.462-.046c-.046-.231-.046-.37.231-.324.231,0,.37-.092.37-.324a.745.745,0,0,1,.693-.832c.185-.046.37-.185.647-.277a12.176,12.176,0,0,1-.324,1.386,3.052,3.052,0,0,0,.647.046c.046.277-.046.37-.277.324-.37-.046-.462.139-.555.462-.092.647-.277,1.248-.416,1.895C503.2,134.6,503.243,134.645,503.937,134.876Z" transform="translate(-270.133 -69.747)"/>
      <path id="Path_1436" data-name="Path 1436" class="cls-2" d="M446.642,132.639c-.046.231-.046.416-.092.647a4.02,4.02,0,0,1,.693-.6,2.207,2.207,0,0,1,.832-.185c-.139.462-.185.786-.277,1.063-1.017-.046-1.248.139-1.479,1.109-.092.462-.231.924-.277,1.386-.046.37-.185.462-.555.462-.693,0-.693,0-.508-.647.231-.971.416-1.895.6-2.865.046-.324.185-.462.508-.37Z" transform="translate(-239.274 -71.253)"/>
      <path id="Path_1437" data-name="Path 1437" class="cls-2" d="M357.1,136.549c.277-1.294.508-2.5.786-3.651,0-.092.139-.185.231-.185a4.452,4.452,0,0,1,.786,0,4.589,4.589,0,0,1-.139.693c.462-.416.786-.971,1.479-.693l-.277.971a.417.417,0,0,1-.231-.046.877.877,0,0,0-1.109.647,14.549,14.549,0,0,0-.416,1.941c-.046.277-.185.416-.462.37A3.779,3.779,0,0,1,357.1,136.549Z" transform="translate(-192.065 -71.328)"/>
      <path id="Path_1438" data-name="Path 1438" class="cls-2" d="M528.535,132.633c-.092.37-.185.647-.277.971-.185,0-.37-.046-.555-.046a.933.933,0,0,0-.832.786c-.139.6-.277,1.2-.37,1.756-.046.324-.185.462-.508.416H525.3a2.947,2.947,0,0,1,.092-.416c.231-1.017.462-2.033.693-3.1.046-.324.185-.416.462-.37a2.6,2.6,0,0,0,.6,0c-.046.231-.046.416-.092.693C527.472,132.91,527.842,132.4,528.535,132.633Z" transform="translate(-282.531 -71.293)"/>
      <path id="Path_1439" data-name="Path 1439" class="cls-2" d="M394.141,132.8c-.231.924-.416,1.8-.6,2.727a3.649,3.649,0,0,1-.139.6c-.046.185-.092.508-.185.555a3.031,3.031,0,0,1-.924.046c-.046,0-.092-.185-.092-.277.231-1.109.508-2.218.739-3.328a.306.306,0,0,1,.323-.277A5.308,5.308,0,0,1,394.141,132.8Z" transform="translate(-210.943 -71.414)"/>
      <path id="Path_1440" data-name="Path 1440" class="cls-2" d="M395.595,128.693a.552.552,0,0,1-.647.508.58.58,0,0,1-.555-.647.605.605,0,1,1,1.2.139Z" transform="translate(-212.12 -68.833)"/>
    </g>
  </g>
</svg>
