<svg xmlns="http://www.w3.org/2000/svg" width="404.898" height="245.764" viewBox="0 0 404.898 245.764">
  <defs>
    <style>
      .cls-1, .cls-4 {
        fill: none;
      }

      .cls-1 {
        stroke: #fff;
        opacity: 0;
      }

      .cls-2 {
        fill: #fff;
      }

      .cls-3 {
        stroke: none;
      }
    </style>
  </defs>
  <g id="Group_395" data-name="Group 395" transform="translate(-1365 -5410)">
    <g id="Rectangle_46" data-name="Rectangle 46" class="cls-1" transform="translate(1365 5410)">
      <rect class="cls-3" width="404.898" height="245.764"/>
      <rect class="cls-4" x="0.5" y="0.5" width="403.898" height="244.764"/>
    </g>
    <g id="Group_131" data-name="Group 131" transform="translate(1439 5488)">
      <path id="Subtraction_1" data-name="Subtraction 1" class="cls-2" d="M45.4,90.8A45.414,45.414,0,0,1,27.729,3.568,45.413,45.413,0,0,1,63.072,87.236,45.117,45.117,0,0,1,45.4,90.8ZM39.136,51.09c.39,6.85,5.423,11.277,12.821,11.277a12.5,12.5,0,0,0,8.675-3.024,9.634,9.634,0,0,0,2.36-3.361,10.8,10.8,0,0,0,.822-4.218A8.538,8.538,0,0,0,62.6,47.307a8.115,8.115,0,0,0-3.6-3.156c2.536-1.171,4.241-4.193,4.241-7.52,0-6.147-4.427-10.12-11.278-10.12a12.05,12.05,0,0,0-8.422,3.132A11.524,11.524,0,0,0,41.017,33.1a13.227,13.227,0,0,0-1.206,4.3h7.036a5.542,5.542,0,0,1,1.469-3.335,4.9,4.9,0,0,1,3.64-1.386,4.561,4.561,0,0,1,3.314,1.265,4.292,4.292,0,0,1,1.217,3.072,3.936,3.936,0,0,1-1.518,3.252,5.994,5.994,0,0,1-3.688,1.085H49.257v5.59h2.217a6.046,6.046,0,0,1,3.978,1.278,4.372,4.372,0,0,1,1.519,3.448,4.32,4.32,0,0,1-1.422,3.277A5.362,5.362,0,0,1,51.957,56.2c-3.257,0-5.276-1.814-5.687-5.109Zm-10.6-14.557V61.79H35.57V36.533ZM32,25.16A4.192,4.192,0,0,0,29.1,26.316a4.031,4.031,0,0,0,0,5.82,4.322,4.322,0,0,0,5.807,0,4.033,4.033,0,0,0,0-5.82A4.186,4.186,0,0,0,32,25.16Z" transform="translate(0 0)"/>
      <g id="Group_328" data-name="Group 328" transform="translate(103.045 12.918)">
        <g id="Group_327" data-name="Group 327">
          <path id="Path_1185" data-name="Path 1185" class="cls-2" d="M108.732,17.77a2.3,2.3,0,0,1-1.35-.482,1.6,1.6,0,0,1-.482-1.253,1.832,1.832,0,0,1,.482-1.253,2.09,2.09,0,0,1,1.35-.482,2.3,2.3,0,0,1,1.35.482,1.48,1.48,0,0,1,.482,1.253,1.832,1.832,0,0,1-.482,1.253A2.09,2.09,0,0,1,108.732,17.77Zm-1.542,2.217h3.085V31.169h-3.085Z" transform="translate(-106.9 -13.432)"/>
          <path id="Path_1186" data-name="Path 1186" class="cls-2" d="M114.4,20.186h2.988v1.35a2.843,2.843,0,0,1,1.35-1.253,4.481,4.481,0,0,1,2.024-.482,3.485,3.485,0,0,1,2.988,1.253,5.427,5.427,0,0,1,1.06,3.567v6.748h-3.085V25.1q0-2.6-2.024-2.6a2.257,2.257,0,0,0-1.735.771,3.276,3.276,0,0,0-.578,2.121v5.976H114.3V20.186Z" transform="translate(-107.167 -13.631)"/>
          <path id="Path_1187" data-name="Path 1187" class="cls-2" d="M132.545,31.753a9.711,9.711,0,0,1-2.41-.289,4.884,4.884,0,0,1-1.735-.771l.386-2.506a7.166,7.166,0,0,0,3.663,1.06c1.253,0,1.831-.289,1.831-.964a.877.877,0,0,0-.386-.771,4.98,4.98,0,0,0-1.639-.578,7.5,7.5,0,0,1-2.8-1.35,3.127,3.127,0,0,1-.868-2.313,2.825,2.825,0,0,1,1.253-2.506,5.514,5.514,0,0,1,3.277-.964,7.338,7.338,0,0,1,2.024.289,7.239,7.239,0,0,1,1.735.675l-.386,2.41a7.461,7.461,0,0,0-1.542-.675,5.337,5.337,0,0,0-1.735-.193c-1.06,0-1.639.289-1.639.868a.877.877,0,0,0,.386.771,5.153,5.153,0,0,0,1.542.578,6.605,6.605,0,0,1,2.988,1.446,3.127,3.127,0,0,1,.868,2.313,2.825,2.825,0,0,1-1.253,2.506A5.606,5.606,0,0,1,132.545,31.753Z" transform="translate(-107.675 -13.631)"/>
          <path id="Path_1188" data-name="Path 1188" class="cls-2" d="M145.866,31.656a4.261,4.261,0,0,1-3.085-1.06,4.6,4.6,0,0,1-.964-3.277V22.594H139.6V20.088h2.217V17.1H144.9v2.988h3.47v2.506h-3.567v4.145a2.411,2.411,0,0,0,.386,1.639,1.748,1.748,0,0,0,1.35.482,5.181,5.181,0,0,0,2.024-.482l.289,2.506a3.619,3.619,0,0,1-1.35.482A3.116,3.116,0,0,1,145.866,31.656Z" transform="translate(-108.079 -13.533)"/>
          <path id="Path_1189" data-name="Path 1189" class="cls-2" d="M153.632,17.77a2.3,2.3,0,0,1-1.35-.482,1.6,1.6,0,0,1-.482-1.253,1.832,1.832,0,0,1,.482-1.253,2.09,2.09,0,0,1,1.35-.482,2.3,2.3,0,0,1,1.35.482,1.48,1.48,0,0,1,.482,1.253,1.832,1.832,0,0,1-.482,1.253A2.3,2.3,0,0,1,153.632,17.77Zm-1.542,2.217h3.085V31.169h-3.085Z" transform="translate(-108.519 -13.432)"/>
          <path id="Path_1190" data-name="Path 1190" class="cls-2" d="M164.166,31.656a4.261,4.261,0,0,1-3.085-1.06,4.6,4.6,0,0,1-.964-3.277V22.594H157.9V20.088h2.217V17.1H163.2v2.988h3.47v2.506H163.2v4.145a2.411,2.411,0,0,0,.386,1.639,1.748,1.748,0,0,0,1.35.482,5.181,5.181,0,0,0,2.024-.482l.289,2.506a3.619,3.619,0,0,1-1.35.482A3.668,3.668,0,0,1,164.166,31.656Z" transform="translate(-108.739 -13.533)"/>
          <path id="Path_1191" data-name="Path 1191" class="cls-2" d="M174.449,31.767a3.485,3.485,0,0,1-2.988-1.253,5.427,5.427,0,0,1-1.06-3.567V20.2h3.085v6.266q0,2.6,2.024,2.6a2.257,2.257,0,0,0,1.735-.771,3.276,3.276,0,0,0,.578-2.121V20.2h3.085V31.382h-2.988v-1.35a2.843,2.843,0,0,1-1.35,1.253A4.26,4.26,0,0,1,174.449,31.767Z" transform="translate(-109.189 -13.645)"/>
          <path id="Path_1192" data-name="Path 1192" class="cls-2" d="M189.966,31.656a4.261,4.261,0,0,1-3.085-1.06,4.6,4.6,0,0,1-.964-3.277V22.594H183.7V20.088h2.217V17.1H189v2.988h3.47v2.506H189v4.145a2.411,2.411,0,0,0,.386,1.639,1.748,1.748,0,0,0,1.35.482,5.18,5.18,0,0,0,2.024-.482l.289,2.506a3.619,3.619,0,0,1-1.35.482A3.668,3.668,0,0,1,189.966,31.656Z" transform="translate(-109.669 -13.533)"/>
          <path id="Path_1193" data-name="Path 1193" class="cls-2" d="M202.058,31.757a7.274,7.274,0,0,1-3.374-.675,5.891,5.891,0,0,1-2.313-2.024,5.576,5.576,0,0,1-.771-3.181,6.584,6.584,0,0,1,.675-3.085,5.358,5.358,0,0,1,2.024-2.121,5.983,5.983,0,0,1,2.988-.771,5.23,5.23,0,0,1,2.8.675,4.426,4.426,0,0,1,1.831,1.928,5.95,5.95,0,0,1,.675,2.988,5.927,5.927,0,0,1-.1,1.35h-7.9c.386,1.639,1.639,2.506,3.759,2.506a11.867,11.867,0,0,0,1.928-.193,7.316,7.316,0,0,0,1.735-.578l.289,2.41a7.433,7.433,0,0,1-1.928.675C203.7,31.66,202.926,31.757,202.058,31.757Zm1.639-7.133a2.9,2.9,0,0,0-.771-1.831,2.357,2.357,0,0,0-1.735-.578,2.691,2.691,0,0,0-1.735.578,2.751,2.751,0,0,0-.868,1.831Z" transform="translate(-110.098 -13.634)"/>
          <path id="Path_1194" data-name="Path 1194" class="cls-2" d="M217.124,22.557H215.1V20.051h2.024V18.7a5.567,5.567,0,0,1,1.253-3.952,4.373,4.373,0,0,1,3.47-1.35,6.364,6.364,0,0,1,1.35.1,3.252,3.252,0,0,1,1.157.386l-.289,2.506a5.932,5.932,0,0,0-1.735-.289,1.87,1.87,0,0,0-1.639.675,3.615,3.615,0,0,0-.482,2.217v1.157H223.2v2.506h-2.988v8.675h-3.085Z" transform="translate(-110.801 -13.4)"/>
          <path id="Path_1195" data-name="Path 1195" class="cls-2" d="M231.876,31.757a6.261,6.261,0,0,1-2.988-.771,5.218,5.218,0,0,1-2.217-2.121,5.451,5.451,0,0,1-.771-3.085,6.561,6.561,0,0,1,.771-2.988,5.6,5.6,0,0,1,2.121-2.121,5.657,5.657,0,0,1,3.085-.771,6.261,6.261,0,0,1,2.988.771,5.821,5.821,0,0,1,2.217,2.121,5.451,5.451,0,0,1,.771,3.085,6.261,6.261,0,0,1-.771,2.988,5.6,5.6,0,0,1-2.121,2.121A6.359,6.359,0,0,1,231.876,31.757Zm0-2.7A2.834,2.834,0,0,0,234,28.19a3.127,3.127,0,0,0,.868-2.313A3.127,3.127,0,0,0,234,23.563a2.834,2.834,0,0,0-2.121-.868,2.692,2.692,0,0,0-2.121.868,3.127,3.127,0,0,0-.868,2.313,3.127,3.127,0,0,0,.868,2.313A2.834,2.834,0,0,0,231.876,29.057Z" transform="translate(-111.191 -13.634)"/>
          <path id="Path_1196" data-name="Path 1196" class="cls-2" d="M241.7,20.193h2.988v1.831a3.311,3.311,0,0,1,1.253-1.542A2.909,2.909,0,0,1,247.773,20a2.668,2.668,0,0,1,1.253.289l-.289,2.892a3.4,3.4,0,0,0-1.35-.289,2.3,2.3,0,0,0-1.928.868,3.878,3.878,0,0,0-.675,2.506v5.109H241.7V20.193Z" transform="translate(-111.76 -13.638)"/>
          <path id="Path_1197" data-name="Path 1197" class="cls-2" d="M108.732,41.27a2.3,2.3,0,0,1-1.35-.482,1.6,1.6,0,0,1-.482-1.253,1.832,1.832,0,0,1,.482-1.253,2.09,2.09,0,0,1,1.35-.482,2.3,2.3,0,0,1,1.35.482,1.48,1.48,0,0,1,.482,1.253,1.832,1.832,0,0,1-.482,1.253A2.09,2.09,0,0,1,108.732,41.27Zm-1.542,2.217h3.085V54.669h-3.085Z" transform="translate(-106.9 -14.28)"/>
          <path id="Path_1198" data-name="Path 1198" class="cls-2" d="M114.4,43.686h2.988v1.35a2.843,2.843,0,0,1,1.35-1.253,4.481,4.481,0,0,1,2.024-.482,3.485,3.485,0,0,1,2.988,1.253,5.427,5.427,0,0,1,1.06,3.567v6.748h-3.085V48.6q0-2.6-2.024-2.6a2.257,2.257,0,0,0-1.735.771,3.276,3.276,0,0,0-.578,2.121v5.976H114.3V43.686Z" transform="translate(-107.167 -14.478)"/>
          <path id="Path_1199" data-name="Path 1199" class="cls-2" d="M129.1,43.686h2.988v1.35a2.843,2.843,0,0,1,1.35-1.253,4.481,4.481,0,0,1,2.024-.482,3.485,3.485,0,0,1,2.988,1.253,5.427,5.427,0,0,1,1.06,3.567v6.748h-3.085V48.6q0-2.6-2.024-2.6a2.257,2.257,0,0,0-1.735.771,3.276,3.276,0,0,0-.578,2.121v5.976H129V43.686Z" transform="translate(-107.697 -14.478)"/>
          <path id="Path_1200" data-name="Path 1200" class="cls-2" d="M149.276,55.257a6.261,6.261,0,0,1-2.988-.771,5.218,5.218,0,0,1-2.217-2.121,5.451,5.451,0,0,1-.771-3.085,6.561,6.561,0,0,1,.771-2.988,5.6,5.6,0,0,1,2.121-2.121,5.657,5.657,0,0,1,3.085-.771,6.261,6.261,0,0,1,2.988.771,5.821,5.821,0,0,1,2.217,2.121,5.451,5.451,0,0,1,.771,3.085,6.261,6.261,0,0,1-.771,2.988,5.6,5.6,0,0,1-2.121,2.121A6.647,6.647,0,0,1,149.276,55.257Zm0-2.7a2.834,2.834,0,0,0,2.121-.868,3.518,3.518,0,0,0,0-4.627,2.834,2.834,0,0,0-2.121-.868,2.692,2.692,0,0,0-2.121.868,3.518,3.518,0,0,0,0,4.627A2.692,2.692,0,0,0,149.276,52.557Z" transform="translate(-108.212 -14.482)"/>
          <path id="Path_1201" data-name="Path 1201" class="cls-2" d="M157.7,43.7h3.374l2.6,8,2.7-8h3.181l-4.338,11.182h-3.181Z" transform="translate(-108.732 -14.492)"/>
          <path id="Path_1202" data-name="Path 1202" class="cls-2" d="M175.952,55.249a3.894,3.894,0,0,1-2.892-.964,3.407,3.407,0,0,1-1.06-2.6,3.473,3.473,0,0,1,1.253-2.8,5.139,5.139,0,0,1,3.277-1.06,7.3,7.3,0,0,1,1.446.1,5.526,5.526,0,0,1,1.35.386q0-2.6-2.892-2.6a5.775,5.775,0,0,0-3.47,1.157l-.289-2.506a4.63,4.63,0,0,1,1.831-.868,9.507,9.507,0,0,1,2.313-.289,5.6,5.6,0,0,1,3.952,1.35,5.109,5.109,0,0,1,1.35,3.759v6.458h-2.8v-1.06A3.914,3.914,0,0,1,175.952,55.249Zm.675-2.217a2.267,2.267,0,0,0,1.831-.675,3.219,3.219,0,0,0,.771-2.024,5.656,5.656,0,0,0-2.217-.386,2.446,2.446,0,0,0-1.542.386,1.374,1.374,0,0,0-.578,1.157,1.6,1.6,0,0,0,.482,1.157A1.636,1.636,0,0,0,176.627,53.032Z" transform="translate(-109.247 -14.474)"/>
          <path id="Path_1203" data-name="Path 1203" class="cls-2" d="M191.166,55.156a4.261,4.261,0,0,1-3.085-1.06,4.6,4.6,0,0,1-.964-3.277V46.094H184.9V43.588h2.217V40.6H190.2v2.988h3.47v2.506H190.2v4.145a2.411,2.411,0,0,0,.386,1.639,1.748,1.748,0,0,0,1.35.482,5.181,5.181,0,0,0,2.024-.482l.289,2.506a3.619,3.619,0,0,1-1.35.482A5.458,5.458,0,0,1,191.166,55.156Z" transform="translate(-109.712 -14.381)"/>
          <path id="Path_1204" data-name="Path 1204" class="cls-2" d="M198.932,41.27a2.3,2.3,0,0,1-1.35-.482,1.6,1.6,0,0,1-.482-1.253,1.832,1.832,0,0,1,.482-1.253,2.09,2.09,0,0,1,1.35-.482,2.3,2.3,0,0,1,1.35.482,1.48,1.48,0,0,1,.482,1.253,1.833,1.833,0,0,1-.482,1.253A2.09,2.09,0,0,1,198.932,41.27Zm-1.542,2.217h3.085V54.669h-3.085Z" transform="translate(-110.152 -14.28)"/>
          <path id="Path_1205" data-name="Path 1205" class="cls-2" d="M209.976,55.257a6.261,6.261,0,0,1-2.988-.771,5.218,5.218,0,0,1-2.217-2.121A5.451,5.451,0,0,1,204,49.28a6.561,6.561,0,0,1,.771-2.988,5.6,5.6,0,0,1,2.121-2.121,5.657,5.657,0,0,1,3.085-.771,6.261,6.261,0,0,1,2.988.771,5.821,5.821,0,0,1,2.217,2.121,5.451,5.451,0,0,1,.771,3.085,6.261,6.261,0,0,1-.771,2.988,5.6,5.6,0,0,1-2.121,2.121A6.359,6.359,0,0,1,209.976,55.257Zm0-2.7a2.834,2.834,0,0,0,2.121-.868,3.518,3.518,0,0,0,0-4.627,2.834,2.834,0,0,0-2.121-.868,2.692,2.692,0,0,0-2.121.868,3.518,3.518,0,0,0,0,4.627A2.692,2.692,0,0,0,209.976,52.557Z" transform="translate(-110.401 -14.482)"/>
          <path id="Path_1206" data-name="Path 1206" class="cls-2" d="M219.8,43.686h2.988v1.35a2.843,2.843,0,0,1,1.35-1.253,4.481,4.481,0,0,1,2.024-.482,3.485,3.485,0,0,1,2.988,1.253,5.614,5.614,0,0,1,1.06,3.567v6.748h-3.085V48.6q0-2.6-2.024-2.6a2.257,2.257,0,0,0-1.735.771,3.276,3.276,0,0,0-.578,2.121v5.976H219.7V43.686Z" transform="translate(-110.967 -14.478)"/>
          <path id="Path_1207" data-name="Path 1207" class="cls-2" d="M241.659,48.755H237.9V46.249h3.759V42.2h2.7v4.049h3.759v2.506h-3.759V52.8h-2.7Z" transform="translate(-111.623 -14.438)"/>
          <path id="Path_1208" data-name="Path 1208" class="cls-2" d="M108.732,64.67a2.3,2.3,0,0,1-1.35-.482,1.6,1.6,0,0,1-.482-1.253,1.832,1.832,0,0,1,.482-1.253,2.09,2.09,0,0,1,1.35-.482,2.3,2.3,0,0,1,1.35.482,1.48,1.48,0,0,1,.482,1.253,1.832,1.832,0,0,1-.482,1.253A1.679,1.679,0,0,1,108.732,64.67Zm-1.542,2.313h3.085V78.165h-3.085Z" transform="translate(-106.9 -15.123)"/>
          <path id="Path_1209" data-name="Path 1209" class="cls-2" d="M114.393,67.186h2.988v1.35a2.843,2.843,0,0,1,1.35-1.253,4.481,4.481,0,0,1,2.024-.482,3.565,3.565,0,0,1,3.47,2.024,3.477,3.477,0,0,1,1.446-1.446,4.128,4.128,0,0,1,2.121-.578,3.8,3.8,0,0,1,3.085,1.253,5.427,5.427,0,0,1,1.06,3.567v6.748h-3.085V72.1a3.917,3.917,0,0,0-.482-2.024,1.942,1.942,0,0,0-1.542-.675,2.059,2.059,0,0,0-1.639.771,3.163,3.163,0,0,0-.578,2.024v5.976h-3.085V71.909a3.918,3.918,0,0,0-.482-2.024,1.806,1.806,0,0,0-1.542-.675,2.059,2.059,0,0,0-1.639.771,3.163,3.163,0,0,0-.578,2.024v6.073H114.2V67.186Z" transform="translate(-107.163 -15.325)"/>
          <path id="Path_1210" data-name="Path 1210" class="cls-2" d="M136.493,67.186h2.892v1.446a4.247,4.247,0,0,1,3.759-1.831,4.848,4.848,0,0,1,2.6.771,4.423,4.423,0,0,1,1.831,2.121,6.328,6.328,0,0,1,.675,3.085,6.2,6.2,0,0,1-.675,2.988,6.076,6.076,0,0,1-1.928,2.217,4.8,4.8,0,0,1-2.8.868,4.471,4.471,0,0,1-2.024-.386,3.6,3.6,0,0,1-1.446-1.253v6.651H136.3V67.186Zm5.784,8.772a2.692,2.692,0,0,0,2.121-.868,3.518,3.518,0,0,0,0-4.627,3.026,3.026,0,0,0-4.241,0,3.518,3.518,0,0,0,0,4.627A2.834,2.834,0,0,0,142.276,75.957Z" transform="translate(-107.96 -15.325)"/>
          <path id="Path_1211" data-name="Path 1211" class="cls-2" d="M152.1,67.193h2.988v1.831a3.311,3.311,0,0,1,1.253-1.542A2.909,2.909,0,0,1,158.173,67a2.668,2.668,0,0,1,1.253.289l-.289,2.892a3.4,3.4,0,0,0-1.35-.289,2.3,2.3,0,0,0-1.928.868,3.878,3.878,0,0,0-.675,2.506v5.109H152.1V67.193Z" transform="translate(-108.53 -15.333)"/>
          <path id="Path_1212" data-name="Path 1212" class="cls-2" d="M167.976,78.757a6.261,6.261,0,0,1-2.988-.771,5.218,5.218,0,0,1-2.217-2.121A5.451,5.451,0,0,1,162,72.78a6.561,6.561,0,0,1,.771-2.988,5.6,5.6,0,0,1,2.121-2.121,5.657,5.657,0,0,1,3.085-.771,6.261,6.261,0,0,1,2.988.771,5.821,5.821,0,0,1,2.217,2.121,5.451,5.451,0,0,1,.771,3.085,6.261,6.261,0,0,1-.771,2.988,5.6,5.6,0,0,1-2.121,2.121A6.359,6.359,0,0,1,167.976,78.757Zm0-2.8a2.834,2.834,0,0,0,2.121-.868,3.518,3.518,0,0,0,0-4.627,2.834,2.834,0,0,0-2.121-.868,2.692,2.692,0,0,0-2.121.868,3.518,3.518,0,0,0,0,4.627A2.834,2.834,0,0,0,167.976,75.961Z" transform="translate(-108.887 -15.329)"/>
          <path id="Path_1213" data-name="Path 1213" class="cls-2" d="M176.5,67.2h3.374l2.6,8,2.7-8h3.181l-4.338,11.182h-3.181Z" transform="translate(-109.409 -15.34)"/>
          <path id="Path_1214" data-name="Path 1214" class="cls-2" d="M197.258,78.757a7.274,7.274,0,0,1-3.374-.675,5.891,5.891,0,0,1-2.313-2.024,5.576,5.576,0,0,1-.771-3.181,6.584,6.584,0,0,1,.675-3.085,5.358,5.358,0,0,1,2.024-2.121,5.983,5.983,0,0,1,2.988-.771,5.23,5.23,0,0,1,2.8.675,4.426,4.426,0,0,1,1.831,1.928,7.566,7.566,0,0,1,.578,4.338h-7.9c.386,1.639,1.639,2.506,3.759,2.506a11.867,11.867,0,0,0,1.928-.193,7.317,7.317,0,0,0,1.735-.578l.289,2.41a7.432,7.432,0,0,1-1.928.675C198.9,78.66,198.126,78.757,197.258,78.757Zm1.639-7.133a2.9,2.9,0,0,0-.771-1.831,2.357,2.357,0,0,0-1.735-.578,2.691,2.691,0,0,0-1.735.578,2.751,2.751,0,0,0-.868,1.831Z" transform="translate(-109.925 -15.329)"/>
          <path id="Path_1215" data-name="Path 1215" class="cls-2" d="M205.693,67.186h2.988v1.35a2.843,2.843,0,0,1,1.35-1.253,4.481,4.481,0,0,1,2.024-.482,3.565,3.565,0,0,1,3.47,2.024,3.477,3.477,0,0,1,1.446-1.446,4.128,4.128,0,0,1,2.121-.578,3.8,3.8,0,0,1,3.085,1.253,5.427,5.427,0,0,1,1.06,3.567v6.748h-3.085V72.1a3.918,3.918,0,0,0-.482-2.024,1.942,1.942,0,0,0-1.542-.675,2.059,2.059,0,0,0-1.639.771,3.163,3.163,0,0,0-.578,2.024v5.976h-3.085V71.909a3.918,3.918,0,0,0-.482-2.024,1.806,1.806,0,0,0-1.542-.675,2.059,2.059,0,0,0-1.639.771,3.163,3.163,0,0,0-.578,2.024v6.073H205.5V67.186Z" transform="translate(-110.455 -15.325)"/>
          <path id="Path_1216" data-name="Path 1216" class="cls-2" d="M233.658,78.757a7.274,7.274,0,0,1-3.374-.675,5.891,5.891,0,0,1-2.313-2.024,5.576,5.576,0,0,1-.771-3.181,6.584,6.584,0,0,1,.675-3.085,5.358,5.358,0,0,1,2.024-2.121,5.983,5.983,0,0,1,2.988-.771,5.23,5.23,0,0,1,2.8.675,4.426,4.426,0,0,1,1.831,1.928,7.566,7.566,0,0,1,.578,4.338h-7.9c.386,1.639,1.639,2.506,3.759,2.506a11.867,11.867,0,0,0,1.928-.193,7.316,7.316,0,0,0,1.735-.578l.289,2.41a7.433,7.433,0,0,1-1.928.675C235.3,78.66,234.43,78.757,233.658,78.757Zm1.542-7.133a2.9,2.9,0,0,0-.771-1.831,2.357,2.357,0,0,0-1.735-.578,2.691,2.691,0,0,0-1.735.578,2.751,2.751,0,0,0-.868,1.831Z" transform="translate(-111.237 -15.329)"/>
          <path id="Path_1217" data-name="Path 1217" class="cls-2" d="M242.1,67.186h2.988v1.35a2.843,2.843,0,0,1,1.35-1.253,4.481,4.481,0,0,1,2.024-.482,3.485,3.485,0,0,1,2.988,1.253,5.428,5.428,0,0,1,1.06,3.567v6.748h-3.085V72.1q0-2.6-2.024-2.6a2.257,2.257,0,0,0-1.735.771,3.276,3.276,0,0,0-.578,2.121v5.976H242V67.186Z" transform="translate(-111.771 -15.325)"/>
          <path id="Path_1218" data-name="Path 1218" class="cls-2" d="M261.666,78.656a4.261,4.261,0,0,1-3.085-1.06,4.6,4.6,0,0,1-.964-3.277V69.594H255.4V67.088h2.217V64.1H260.7v2.988h3.47v2.506H260.7v4.145a2.411,2.411,0,0,0,.386,1.639,1.748,1.748,0,0,0,1.35.482,5.181,5.181,0,0,0,2.024-.482l.289,2.506a3.619,3.619,0,0,1-1.349.482A5.458,5.458,0,0,1,261.666,78.656Z" transform="translate(-112.254 -15.228)"/>
        </g>
      </g>
    </g>
  </g>
</svg>
