<svg xmlns="http://www.w3.org/2000/svg" width="404.898" height="245.764" viewBox="0 0 404.898 245.764">
  <defs>
    <style>
      .cls-1, .cls-4 {
        fill: none;
      }

      .cls-1 {
        stroke: #fff;
        opacity: 0;
      }

      .cls-2 {
        fill: #fff;
      }

      .cls-3 {
        stroke: none;
      }
    </style>
  </defs>
  <g id="Group_412" data-name="Group 412" transform="translate(-960 -5211)">
    <g id="Group_401" data-name="Group 401">
      <g id="Rectangle_47" data-name="Rectangle 47" class="cls-1" transform="translate(960 5211)">
        <rect class="cls-3" width="404.898" height="245.764"/>
        <rect class="cls-4" x="0.5" y="0.5" width="403.898" height="244.764"/>
      </g>
      <path id="Path_1329" data-name="Path 1329" class="cls-2" d="M340.285,17.713c-.215.3-.516.558-.687.859-1.5,2.749-3.007,5.542-4.511,8.334a13.476,13.476,0,0,1-.773,1.332,1.7,1.7,0,0,1-2.105.773c-.687-.215-.988-.773-.988-1.761V18.271a.839.839,0,0,1-.3.043c-1.117.387-2.191.816-3.351,1.16-.43.129-.516.258-.473.687a8.889,8.889,0,0,1-1.16,5.628,6.755,6.755,0,0,1-7.088,3.222,6.56,6.56,0,0,1-5.069-5.585,10.673,10.673,0,0,1,.3-4.9c-.387.258-.687.43-.945.644-1.289,1.2-2.578,2.406-3.823,3.609a1.056,1.056,0,0,0-.215.73c0,2.921.215,5.885,0,8.807a22.737,22.737,0,0,1-2.921,9.795,12.538,12.538,0,0,1-2.062,2.706,4.958,4.958,0,0,1-1.933,1.16,2.433,2.433,0,0,1-3.308-1.675,11.113,11.113,0,0,1-.473-4.468,26.684,26.684,0,0,1,4-11.169,5.483,5.483,0,0,1,.3-.516c-.988-1.117-1.933-2.234-2.921-3.265-.215-.215-.644-.215-.945-.258a12.418,12.418,0,0,0-5.026.516.719.719,0,0,0-.387.473c-.172.773-.258,1.5-.387,2.277a1.258,1.258,0,0,1-.3.687.96.96,0,0,1-.73.387c-.215-.043-.43-.387-.473-.644-.086-.687-.086-1.375-.129-2.062a2.465,2.465,0,0,0-.043-.516c-.215.043-.387.043-.559.086a12.778,12.778,0,0,1-6.358-.473,6.321,6.321,0,0,1-1.675-.9,2.46,2.46,0,0,1-.945-2.578,2.3,2.3,0,0,1,1.89-1.718,7.739,7.739,0,0,1,6.659,1.5,3.869,3.869,0,0,1,.43.387h.215a9.553,9.553,0,0,0-.516-1.675,11.921,11.921,0,0,0-.945-1.589c-.258-.387-.215-.644.172-.816.516-.258,1.031-.516,1.547-.73s.988-.086,1.117.473a34.067,34.067,0,0,1,.9,3.609,22.645,22.645,0,0,1,.172,2.406c1.632-.172,3.265-.344,4.768-.516a37.561,37.561,0,0,1-1.332-3.523,16.284,16.284,0,0,1,7.99-18.6A12.469,12.469,0,0,1,307.635.057c1.246-.3,1.5,0,1.289,1.246-.258,1.5-.558,3.05-.773,4.554a37.023,37.023,0,0,0-.043,8.721c.172,1.89.387,3.78.6,5.714a2.8,2.8,0,0,0,.086.473l.6-.6a34.59,34.59,0,0,1,6.7-5.284,14.391,14.391,0,0,1,2.663-1.074c.215-.086.559.086.816.172a1.919,1.919,0,0,1-.344.73,8,8,0,0,0-1.89,3.695,7.748,7.748,0,0,0,.473,5.112,3.728,3.728,0,0,0,4.511,2.148,3.776,3.776,0,0,0,2.578-3.007c.172-.9.172-1.847.258-2.792-.859-.086-1.59-.129-2.277-.258a3.47,3.47,0,0,1-2.964-2.706,2.407,2.407,0,0,1,3.093-2.878,5.148,5.148,0,0,1,3.05,2.792,5.257,5.257,0,0,1,.43.988,11.454,11.454,0,0,0,4.3-1.547,1.01,1.01,0,0,0,.258-.73c.043-1.976,0-4,.129-5.971a13.42,13.42,0,0,1,2.234-7.088A6.137,6.137,0,0,1,335.344.744a2.579,2.579,0,0,1,3.866,1.675,9.66,9.66,0,0,1,.086,4.3,17.674,17.674,0,0,1-4.081,8.678,2.249,2.249,0,0,0-.43,1.16c-.043,1.976,0,3.952,0,5.928a1.325,1.325,0,0,0,.215.773c.215-.3.387-.644.6-.945,1.2-2.062,2.32-4.081,3.566-6.1a7.258,7.258,0,0,1,1.461-1.761,2.083,2.083,0,0,1,3.566,1.375,5.671,5.671,0,0,1,.086,1.2v7.9c.043.043.129.043.172.086a5.444,5.444,0,0,0,.473-.558c1.847-2.921,3.737-5.885,5.542-8.807a3.11,3.11,0,0,1,2.749-1.718,1.686,1.686,0,0,1,1.761,1.2,5.62,5.62,0,0,1,.3,1.89c.043,1.8,0,3.652,0,5.456v.73c.043,0,.129.043.172.043.129-.215.3-.43.43-.644,1.375-2.363,2.749-4.768,4.167-7.131a2.928,2.928,0,0,1,2.578-1.632,1.653,1.653,0,0,1,1.8,1.246,9.971,9.971,0,0,1,.3,1.976c.043,2.492,0,4.983,0,7.475,0,.258.043.516.086.945.387-.473.644-.73.9-1.074A57.038,57.038,0,0,0,371.6,14.1c.086-.215.344-.387.516-.6a3.464,3.464,0,0,1,.516.6c.859,1.718,1.675,3.437,2.535,5.2a7.338,7.338,0,0,0,.6-.473,22.892,22.892,0,0,1,7-4.382,14.6,14.6,0,0,1,3.093-.6c.558-.086.687.215.387.73a1.846,1.846,0,0,1-.387.43,8.033,8.033,0,0,0-1.5,7.862,5.168,5.168,0,0,0,1.074,1.8,3.558,3.558,0,0,0,5.714-.558,6.623,6.623,0,0,0,.73-4.339c-.73-.043-1.418-.043-2.062-.129a3.262,3.262,0,0,1-3.05-2.835,2.4,2.4,0,0,1,3.136-2.749,4.327,4.327,0,0,1,2.535,1.976,15.514,15.514,0,0,1,.859,1.547c.988-.687,1.976-1.375,2.964-2.019.473-.344.945-.73,1.461-1.074a5.614,5.614,0,0,1,1.16-.516c1.718-.43,2.792.258,3.05,1.976a17.252,17.252,0,0,1,.086,2.105v4.511c0,.215.043.43.043.644a.325.325,0,0,1,.172.043c.129-.258.3-.516.43-.73,1.246-2.234,2.449-4.468,3.737-6.659a6.57,6.57,0,0,1,1.117-1.332,2.483,2.483,0,0,1,2.535-.516,2.153,2.153,0,0,1,1.375,2.019c.043.43.086.859.086,1.289V24.8a2.121,2.121,0,0,0,.215.687,2.592,2.592,0,0,0,.816-.258c.558-.516,1.031-1.117,1.547-1.632.172-.172.3-.43.516-.473a1.073,1.073,0,0,1,.816,0,.691.691,0,0,1,.172.687,15.651,15.651,0,0,1-3.179,4.64,2.944,2.944,0,0,1-3.265.43,2.632,2.632,0,0,1-1.547-2.663c-.043-2.449,0-4.94-.043-7.389a6.408,6.408,0,0,0-.086-.9c-.086-.043-.129-.043-.215-.086-.215.3-.473.558-.644.859-1.2,2.234-2.363,4.468-3.566,6.7-.43.816-.773,1.632-1.2,2.406a2.319,2.319,0,0,1-2.234,1.375,1.3,1.3,0,0,1-1.332-1.074,6.992,6.992,0,0,1-.129-1.332c0-2.835,0-5.714-.043-8.549,0-.344-.129-.9-.387-1.031s-.773.086-1.117.258c-.9.558-1.761,1.16-2.621,1.761a.635.635,0,0,0-.172.558,11.432,11.432,0,0,1-.73,5.37,6.764,6.764,0,0,1-8.334,3.78c-2.621-.9-3.823-2.921-4.3-5.5A8.651,8.651,0,0,1,381.7,16.94c-.473.172-.773.258-1.074.387a17.841,17.841,0,0,0-4.511,3.48.85.85,0,0,0-.043.73,7.961,7.961,0,0,1,.387,4.253,4.537,4.537,0,0,1-2.148,3.007,2.639,2.639,0,0,1-4.038-3.007,7.588,7.588,0,0,1,1.761-3.265.793.793,0,0,0,.129-1.031c-.387-.644-.73-1.332-1.117-2.062-.172.258-.3.473-.43.644-1.5,2.32-2.964,4.6-4.511,6.873a8.345,8.345,0,0,1-1.418,1.589,2.376,2.376,0,0,1-2.621.516,2.107,2.107,0,0,1-1.16-2.148c-.043-2.621,0-5.284-.043-7.9a9.817,9.817,0,0,0-.086-1.074c-.086-.043-.129-.043-.215-.086a4.06,4.06,0,0,0-.687.988c-1.418,2.706-2.835,5.37-4.253,8.076a10.866,10.866,0,0,1-.516.988,3.186,3.186,0,0,1-.687.859,1.907,1.907,0,0,1-2.105.387c-.687-.258-.816-.945-.816-1.632,0-2.792,0-5.585-.043-8.377,0-.344-.086-.644-.086-.988-.086-.043-.129-.086-.215-.086a6.283,6.283,0,0,0-.687.816L344.8,27.637a4.985,4.985,0,0,1-.859,1.031,2,2,0,0,1-3.437-1.074,5.333,5.333,0,0,1-.129-1.16v-7.6a7.714,7.714,0,0,0-.086-.945C340.414,17.8,340.328,17.756,340.285,17.713Zm-36.473,8.85a19.81,19.81,0,0,0,1.2-1.632,1.291,1.291,0,0,0,.215-.859c-.129-1.2-.344-2.363-.558-3.566a29.631,29.631,0,0,1,.043-10.482,38.325,38.325,0,0,1,2.406-7.518,4.516,4.516,0,0,0,.258-.9,3.065,3.065,0,0,0-2.363.945A13.583,13.583,0,0,0,301.492,7.4a19.681,19.681,0,0,0-1.375,10.783A16.067,16.067,0,0,0,303.812,26.563Zm1.933.473c-.129.086-.215.086-.215.129a21.65,21.65,0,0,0-4.983,12.63,5.876,5.876,0,0,0,.344,2.277,1.667,1.667,0,0,0,2.792.73,6,6,0,0,0,1.2-1.547,14.859,14.859,0,0,0,1.418-5.241A35.1,35.1,0,0,0,305.745,27.035Zm29.3-13.79c.086-.129.215-.258.3-.387.558-1.332,1.16-2.621,1.632-3.952a13.427,13.427,0,0,0,.473-5.842,1.425,1.425,0,0,0-.558-.9c-.473-.215-.73.215-.9.6a4.385,4.385,0,0,0-.473,1.246C334.743,7.059,334.958,10.152,335.044,13.245Zm-44.678,11.3c.043-.086.043-.172.086-.258a6.779,6.779,0,0,0-2.964-2.406,2.014,2.014,0,0,0-1.117-.129,1.464,1.464,0,0,0-.945.6,1.378,1.378,0,0,0,.215,1.16,2.742,2.742,0,0,0,1.375.773C288.132,24.458,289.249,24.458,290.366,24.544Zm82.869-.773a4.879,4.879,0,0,0-.516.816,10.92,10.92,0,0,0-.558,1.933c-.043.258.43.558.644.816.258-.215.6-.43.687-.687A4.233,4.233,0,0,0,373.234,23.77Zm18.344-5.8a3.221,3.221,0,0,0-1.375-1.718c-.387-.215-.859-.43-1.2.043-.3.473-.086.9.344,1.246A2.441,2.441,0,0,0,391.578,17.971Zm-66.845.172a3.082,3.082,0,0,0-1.718-1.976.875.875,0,0,0-.816.129,1,1,0,0,0-.086.859.933.933,0,0,0,.644.558C323.359,17.885,323.96,17.971,324.733,18.143Z" transform="translate(874.281 5311.051)"/>
      <path id="Path_1330" data-name="Path 1330" class="cls-2" d="M48.25,25.07a6.146,6.146,0,0,0,.473-.644c1.847-2.921,3.652-5.8,5.5-8.721a3.165,3.165,0,0,1,2.792-1.761,1.734,1.734,0,0,1,1.761,1.16,5.909,5.909,0,0,1,.344,1.933c.043,1.8,0,3.652,0,5.456v.73c.043,0,.129.043.172.043.129-.215.3-.43.43-.644,1.375-2.363,2.749-4.768,4.167-7.088A2.928,2.928,0,0,1,66.464,13.9a1.722,1.722,0,0,1,1.8,1.2,5.871,5.871,0,0,1,.3,1.933c.043,2.492,0,5.026,0,7.518a1.413,1.413,0,0,0,.215.773c.258-.344.558-.644.773-.988A57.59,57.59,0,0,0,75.4,14.072c.086-.215.344-.387.516-.6a6.415,6.415,0,0,1,.516.6c.859,1.718,1.675,3.437,2.535,5.241.387-.3.687-.6,1.031-.859A20.711,20.711,0,0,1,87.343,14.2a12.74,12.74,0,0,1,2.234-.344c.172,0,.516.086.558.172.043.129-.086.387-.172.6-.043.129-.172.215-.3.344a7.947,7.947,0,0,0-1.547,7.862,3.847,3.847,0,0,0,3.737,3.007,3.45,3.45,0,0,0,3.222-1.976,6.545,6.545,0,0,0,.558-4.124c-.644-.043-1.332-.043-1.976-.129a3.308,3.308,0,0,1-3.093-2.792A2.4,2.4,0,0,1,93.7,14.029a4.643,4.643,0,0,1,2.663,2.191c.258.387.43.773.73,1.332,1.031-.687,1.976-1.375,2.964-2.062a12.011,12.011,0,0,1,1.5-1.074,5.677,5.677,0,0,1,2.019-.558,1.825,1.825,0,0,1,2.062,1.675,7.909,7.909,0,0,1,.129,1.418v5.542c0,.215.043.473.043.687.043,0,.129.043.172.043l.387-.644c1.289-2.277,2.535-4.6,3.823-6.831a5.41,5.41,0,0,1,1.332-1.461,2.215,2.215,0,0,1,3.609,1.589,6.939,6.939,0,0,1,.086,1.332V24.6a5.723,5.723,0,0,0,.215.816,2.864,2.864,0,0,0,.9-.387c.6-.558,1.117-1.2,1.675-1.8.3-.344.644-.558,1.074-.258.473.3.3.73.086,1.074-.73,1.16-1.461,2.363-2.277,3.523a3.349,3.349,0,0,1-2.105,1.461,2.787,2.787,0,0,1-3.48-2.964c-.043-2.449,0-4.9,0-7.346,0-.3-.086-.6-.086-.9-.086-.043-.172-.043-.215-.086-.215.3-.473.6-.687.945-1.418,2.663-2.792,5.327-4.167,7.99a5.1,5.1,0,0,1-.558,1.074,4.022,4.022,0,0,1-1.246,1.16,1.522,1.522,0,0,1-2.363-1.246,6.96,6.96,0,0,1-.043-.945V18.068c0-.344-.129-.9-.344-.988a1.549,1.549,0,0,0-1.117.215c-.9.558-1.8,1.16-2.663,1.8a.685.685,0,0,0-.172.516,10.781,10.781,0,0,1-.988,6.014c-2.406,4.339-8.592,4.768-11.169.687a8.552,8.552,0,0,1-.344-8.764c.086-.172.215-.387.387-.687-.344.129-.558.172-.73.258a16.785,16.785,0,0,0-4.854,3.652.757.757,0,0,0-.043.687,7.961,7.961,0,0,1,.387,4.253,4.541,4.541,0,0,1-2.191,3.05,2.644,2.644,0,0,1-3.093-.043,2.767,2.767,0,0,1-.945-2.964,7.58,7.58,0,0,1,1.8-3.308.68.68,0,0,0,.086-.945c-.387-.644-.73-1.332-1.16-2.105a7.926,7.926,0,0,0-.43.687c-1.5,2.32-2.964,4.6-4.511,6.873a8.344,8.344,0,0,1-1.418,1.589,2.3,2.3,0,0,1-2.578.473,2.082,2.082,0,0,1-1.16-2.105c-.043-2.663,0-5.327-.043-7.99,0-.344-.086-.687-.086-1.031-.086,0-.129-.043-.215-.043a7.6,7.6,0,0,0-.687.945c-1.5,2.878-3.007,5.714-4.554,8.592a6.019,6.019,0,0,1-.945,1.375,1.86,1.86,0,0,1-2.019.387,1.528,1.528,0,0,1-.859-1.589c0-2.792,0-5.585-.043-8.377a7.67,7.67,0,0,0-.086-.988.939.939,0,0,1-.215-.129c-.258.3-.516.558-.73.859L48.55,27.691a4.984,4.984,0,0,1-.859,1.031A1.994,1.994,0,0,1,44.3,27.648a5.332,5.332,0,0,1-.129-1.16v-7.6a7.716,7.716,0,0,0-.086-.945c-.086-.043-.129-.043-.215-.086-.215.3-.516.558-.687.859-1.547,2.792-3.05,5.628-4.554,8.42a14.482,14.482,0,0,1-.816,1.375,1.713,1.713,0,0,1-2.019.644,1.5,1.5,0,0,1-.988-1.632V18.454c-1.332.387-2.578.773-3.823,1.2-.129.043-.258.387-.258.6a9.413,9.413,0,0,1-1.074,5.5,6.755,6.755,0,0,1-7.561,3.308,5.9,5.9,0,0,1-4.038-3.437,8.822,8.822,0,0,1-.6-6.014c.043-.258.086-.516.129-.73,0,0,0-.043-.086-.129-.43.344-.9.687-1.289,1.031q-1.611,1.482-3.222,3.093a1.348,1.348,0,0,0-.3.9c0,2.921.172,5.842,0,8.764A23.342,23.342,0,0,1,9.758,42.34a17.351,17.351,0,0,1-1.632,2.32,7.288,7.288,0,0,1-1.547,1.246c-1.933,1.117-3.695.43-4.3-1.761A14.009,14.009,0,0,1,2.5,36.97a30.307,30.307,0,0,1,3.523-8.076c.129-.172.215-.387.344-.558-.816-.9-1.632-1.761-2.449-2.663C-2.442,18.669-1.24,6.3,9.028.97A9.713,9.713,0,0,1,11.777.154c.73-.129.988.086.859.859-.172,1.418-.473,2.792-.687,4.167a39.686,39.686,0,0,0-.172,9.58c.172,1.89.387,3.737.6,5.628a4.512,4.512,0,0,0,.086.558c.258-.215.43-.387.6-.558a34.591,34.591,0,0,1,6.7-5.284,11.47,11.47,0,0,1,2.621-1.031c.258-.086.6.086.9.129a2.612,2.612,0,0,1-.387.773,7.455,7.455,0,0,0-1.847,3.609,7.613,7.613,0,0,0,.6,5.327,3.685,3.685,0,0,0,4.382,1.933,3.4,3.4,0,0,0,2.406-2.406,16.932,16.932,0,0,0,.344-2.964c.043-.387-.172-.558-.6-.558a5.715,5.715,0,0,1-2.921-.644,3.057,3.057,0,0,1-1.632-2.191A2.417,2.417,0,0,1,26.727,14.2a4.89,4.89,0,0,1,3.136,3.093c.258.644.6.73,1.117.516,1.117-.43,2.191-.859,3.308-1.246A.808.808,0,0,0,34.8,15.7c0-1.976-.043-3.952.086-5.928a13.525,13.525,0,0,1,2.277-7.217A6.341,6.341,0,0,1,38.927.927a2.6,2.6,0,0,1,4,1.675,9.291,9.291,0,0,1,.043,4.21,16.72,16.72,0,0,1-3.952,8.721,2.248,2.248,0,0,0-.43,1.16c-.043,1.976,0,3.952,0,5.928a1.325,1.325,0,0,0,.215.773c.215-.3.387-.644.6-.945,1.2-2.019,2.363-4.081,3.566-6.1A6.934,6.934,0,0,1,44.3,14.717a2.209,2.209,0,0,1,2.363-.558,2.047,2.047,0,0,1,1.332,1.89,11.32,11.32,0,0,1,.086,1.2V25.07C48.121,25.027,48.207,25.07,48.25,25.07ZM11.09,1.657A3.693,3.693,0,0,0,8.684,2.6,12.07,12.07,0,0,0,5.419,6.941a19.873,19.873,0,0,0-1.332,12.8A15.383,15.383,0,0,0,7.481,26.66a19.822,19.822,0,0,0,1.2-1.632,1.291,1.291,0,0,0,.215-.859c-.172-1.2-.344-2.363-.558-3.566a29.461,29.461,0,0,1-.086-9.709,39.021,39.021,0,0,1,2.535-8.248C10.918,2.3,10.961,2.044,11.09,1.657ZM9.243,27.089a1.077,1.077,0,0,1-.172.3,24.24,24.24,0,0,0-4.038,7.561,14.979,14.979,0,0,0-.773,6.444,2.026,2.026,0,0,0,1.418,1.89,1.859,1.859,0,0,0,2.148-.9,13.284,13.284,0,0,0,1.461-3.05C10.574,35.337,10.059,31.256,9.243,27.089Zm29.47-13.747c.086-.129.215-.215.258-.344.473-.988.988-1.933,1.375-2.964a14.57,14.57,0,0,0,.773-6.916,1.191,1.191,0,0,0-.558-.9c-.473-.215-.773.215-.9.558a8.728,8.728,0,0,0-.6,1.675A36.311,36.311,0,0,0,38.713,13.342ZM76.861,23.867a4.157,4.157,0,0,0-.473.773,10.085,10.085,0,0,0-.6,1.933,1.086,1.086,0,0,0,.644.859c.43.172.644-.3.73-.687A4.258,4.258,0,0,0,76.861,23.867Zm18.387-5.757a3.071,3.071,0,0,0-1.375-1.718c-.387-.215-.859-.43-1.2.086-.3.473-.086.9.344,1.246A2.87,2.87,0,0,0,95.247,18.111Zm-67.06.086c.043-.086.043-.129.086-.215a2.88,2.88,0,0,0-1.632-1.761.833.833,0,0,0-.773.129.92.92,0,0,0-.129.816,1.52,1.52,0,0,0,.687.687C27.028,18.025,27.629,18.068,28.188,18.2Z" transform="translate(1034.989 5310.954)"/>
    </g>
  </g>
</svg>
