<svg xmlns="http://www.w3.org/2000/svg" width="404.898" height="245.764" viewBox="0 0 404.898 245.764">
  <defs>
    <style>
      .cls-1 {
        fill: #fff;
      }

      .cls-2, .cls-4 {
        fill: none;
      }

      .cls-2 {
        stroke: #fff;
        opacity: 0;
      }

      .cls-3 {
        stroke: none;
      }
    </style>
  </defs>
  <g id="Group_407" data-name="Group 407" transform="translate(-960 -5455)">
    <path id="Path_1507" data-name="Path 1507" class="cls-1" d="M69.73,101.039v15.667H62.6V80h7.13V94.311c0,.4.1.5.5.5H86.351V80h7.08v36.706h-7.08V101.039Z" transform="translate(1047.834 5493.221)"/>
    <path id="Path_1508" data-name="Path 1508" class="cls-1" d="M297.249,43.378h-7.13V25.7a2.126,2.126,0,0,0-.352.251L279.322,36.4c-2.26,2.26-4.469,4.519-6.729,6.779a.806.806,0,0,1-.552.251H262.3l22.8-22.8c0-.05-.05-.1-.05-.151H269.782c-.452,0-.552-.1-.552-.552V13.3h28.019C297.249,23.343,297.249,33.335,297.249,43.378Z" transform="translate(948.41 5526.429)"/>
    <path id="Path_1509" data-name="Path 1509" class="cls-1" d="M52.45.05h7.13V18.428a18.69,18.69,0,0,0,1.054,6.829,7.654,7.654,0,0,0,5.072,5.072,8.622,8.622,0,0,0,7.783-1.1A8.741,8.741,0,0,0,76.7,24.354a17.276,17.276,0,0,0,.753-5.323V0h7.08V.452c0,6.277.05,12.6,0,18.88a22.432,22.432,0,0,1-2.26,10.043,13.405,13.405,0,0,1-9.792,7.281,19.744,19.744,0,0,1-8.737-.151,13.414,13.414,0,0,1-9.39-7.884A21.3,21.3,0,0,1,52.5,21.14c-.05-.854-.1-1.707-.1-2.561V.6A2.059,2.059,0,0,0,52.45.05Z" transform="translate(1052.912 5533.05)"/>
    <path id="Path_1510" data-name="Path 1510" class="cls-1" d="M0,112.027l1.356-1.356c1.1-1.1,2.209-2.159,3.264-3.264.2-.2.351-.251.653-.05a22.757,22.757,0,0,0,8.235,2.912,12.356,12.356,0,0,0,5.072-.2,3.65,3.65,0,0,0,2.712-2.109,3.468,3.468,0,0,0-1.707-4.469,19.929,19.929,0,0,0-4.72-1.808c-2.159-.653-4.318-1.255-6.478-1.958a12.223,12.223,0,0,1-3.967-2.159,7.621,7.621,0,0,1-2.762-5.624,10.686,10.686,0,0,1,2.159-7.934,11.475,11.475,0,0,1,5.925-3.866,20.266,20.266,0,0,1,13.005.7,26.462,26.462,0,0,1,4.62,2.31c.151.1.3.2.552.351-.653.6-1.255,1.155-1.858,1.757-.9.9-1.808,1.757-2.661,2.661a.377.377,0,0,1-.5.1,17.741,17.741,0,0,0-6.528-2.26,9.125,9.125,0,0,0-5.172.552,3.7,3.7,0,0,0-2.009,4.82,3.964,3.964,0,0,0,2.26,2.059,34.922,34.922,0,0,0,6.026,1.858A30.482,30.482,0,0,1,23.7,97.214a9.476,9.476,0,0,1,3.967,3.314,7.812,7.812,0,0,1,1.255,3.465,13.025,13.025,0,0,1-.4,5.574,9.109,9.109,0,0,1-4.369,5.272,14.341,14.341,0,0,1-5.373,1.707,27.392,27.392,0,0,1-15.466-2.561c-1.054-.5-2.009-1.155-3.063-1.757A1.813,1.813,0,0,0,0,112.027Z" transform="translate(1079 5493.531)"/>
    <path id="Path_1512" data-name="Path 1512" class="cls-1" d="M0,34.9c.552-.5,1.1-.954,1.607-1.456l2.712-2.712a.548.548,0,0,1,.653-.151,12.3,12.3,0,0,0,3.615.4c2.963-.1,4.62-1.406,5.373-4.218a19.4,19.4,0,0,0,.6-5.373V0h7.13V.4c0,7.03,0,14.06-.05,21.09a28.487,28.487,0,0,1-1.054,7.934A9.992,9.992,0,0,1,12.4,36.907a18.418,18.418,0,0,1-8.436-.1A12.132,12.132,0,0,1,.351,35.25C.251,35.2.2,35.149.1,35.1c-.05,0-.05-.05-.05-.1A.156.156,0,0,0,0,34.9Z" transform="translate(1079 5533.05)"/>
    <path id="Path_1513" data-name="Path 1513" class="cls-1" d="M142.38,116.656H135.3V80h7.08Z" transform="translate(1011.639 5493.221)"/>
    <path id="Path_1514" data-name="Path 1514" class="cls-1" d="M112.42,170.33c-.251.4-.5.854-.7,1.255-.251.452-.5.9-.7,1.356-.251.452-.6.452-.854,0q-.678-1.28-1.506-2.561V174.2H107.7v-5.674a4.294,4.294,0,0,1,.8,0,.607.607,0,0,1,.351.351c.552,1,1.1,2.009,1.707,3.063a5.017,5.017,0,0,0,.4-.7c.4-.7.753-1.406,1.1-2.109.4-.753.4-.753,1.356-.6v5.624h-.9V170.33C112.52,170.38,112.47,170.33,112.42,170.33Z" transform="translate(1025.38 5449.188)"/>
    <path id="Path_1515" data-name="Path 1515" class="cls-1" d="M10.7,168.55a.983.983,0,0,1,1.155.452c.854,1.155,1.808,2.31,2.812,3.465V168.55h.9v5.624a.894.894,0,0,1-1.1-.4c-.8-1.055-1.657-2.109-2.46-3.113l-.351-.352v3.917h-.9C10.7,172.316,10.7,170.459,10.7,168.55Z" transform="translate(1073.673 5449.16)"/>
    <path id="Path_1516" data-name="Path 1516" class="cls-1" d="M236.6,168.556a.884.884,0,0,1,1.055.351c.8,1.1,1.707,2.159,2.561,3.264a.64.64,0,0,0,.351.251v-3.866h.854v5.624a.884.884,0,0,1-1.054-.351c-.854-1.1-1.757-2.209-2.661-3.314a1.373,1.373,0,0,1-.2-.251v3.917h-.9Z" transform="translate(961.205 5449.154)"/>
    <path id="Path_1517" data-name="Path 1517" class="cls-1" d="M64.819,174.142c-.9.151-.954.151-1.356-.552a8.735,8.735,0,0,1-.552-.9.813.813,0,0,0-.854-.5c-.854.05-.753-.1-.753.753v1.205h-.9v-5.674a18.164,18.164,0,0,1,2.862.05,1.6,1.6,0,0,1,1.306,1.406,1.777,1.777,0,0,1-.653,1.858c-.1.1-.251.151-.351.251C63.965,172.786,64.417,173.439,64.819,174.142ZM61.3,170.325v.8c0,.2.05.3.3.3H62.81a.859.859,0,0,0,.8-.6,1.116,1.116,0,0,0-1.054-1.607C61.3,169.321,61.3,169.271,61.3,170.325Z" transform="translate(1048.929 5449.192)"/>
    <path id="Path_1518" data-name="Path 1518" class="cls-1" d="M140,172.344v1.908h-.9v-5.674c.954,0,1.908-.05,2.862,0a1.613,1.613,0,0,1,1.356,1.506,1.789,1.789,0,0,1-.653,1.808c-.1.1-.251.151-.351.251.452.7.854,1.356,1.255,2.059-.854.2-.954.151-1.356-.552-.151-.2-.251-.4-.4-.6C141.259,172.193,141.159,172.143,140,172.344Zm0-.854h1.607a1.042,1.042,0,0,0,.854-1.054,1.1,1.1,0,0,0-.753-1.1c-.552-.05-1.1,0-1.657,0,0,.151-.05.2-.05.3Z" transform="translate(1009.747 5449.132)"/>
    <path id="Path_1520" data-name="Path 1520" class="cls-1" d="M93.8,173.366c.151-.3.251-.5.351-.753a6.973,6.973,0,0,0,1.306.5,2.864,2.864,0,0,0,1.306,0,.947.947,0,0,0,.552-.6.9.9,0,0,0-.452-.6,9.77,9.77,0,0,0-1.1-.4,2.829,2.829,0,0,1-.6-.2A1.273,1.273,0,0,1,94.1,170a1.548,1.548,0,0,1,1.054-1.607,3.123,3.123,0,0,1,3.013.452l-.452.753a2.417,2.417,0,0,0-2.009-.5.665.665,0,0,0-.653.653c-.05.4.2.6.552.753.552.151,1.1.3,1.607.452.9.3,1.155.653,1.1,1.557a1.375,1.375,0,0,1-1.205,1.456A3.7,3.7,0,0,1,93.8,173.366Z" transform="translate(1032.3 5449.315)"/>
    <path id="Path_1521" data-name="Path 1521" class="cls-1" d="M25.6,173.334c.151-.251.251-.5.351-.7a6.549,6.549,0,0,0,1.255.5,3.09,3.09,0,0,0,.954.1.815.815,0,0,0,.9-.653c.05-.352-.2-.6-.753-.8-.5-.151-.954-.3-1.456-.452-.8-.251-1.1-.653-1.054-1.406a1.569,1.569,0,0,1,1.155-1.557,3.271,3.271,0,0,1,2.862.5c-.151.251-.251.5-.452.8a2.634,2.634,0,0,0-2.009-.552.7.7,0,0,0-.653.653c-.05.4.2.6.552.753.5.151,1.054.3,1.557.452.954.3,1.205.7,1.155,1.607a1.5,1.5,0,0,1-1.306,1.456A3.342,3.342,0,0,1,25.6,173.334Z" transform="translate(1066.255 5449.297)"/>
    <path id="Path_1522" data-name="Path 1522" class="cls-1" d="M324.66,83.311c.452-1,.9-1.908,1.306-2.812.3-.7.351-.7,1.155-.552v4.921h-.653V81.252c-.05,0-.05,0-.1-.05-.05.151-.151.251-.2.4l-1.055,2.26a.447.447,0,0,1-.4.251.527.527,0,0,1-.452-.251c-.452-.854-.854-1.757-1.406-2.661v3.615H322.2V79.9c.7-.2.854-.151,1.155.5C323.757,81.4,324.158,82.307,324.66,83.311Z" transform="translate(918.588 5493.324)"/>
    <path id="Path_1523" data-name="Path 1523" class="cls-1" d="M39.45,168.578c.954,0,1.858-.05,2.712,0a1.853,1.853,0,0,1,1.406,2.26,1.812,1.812,0,0,1-1.858,1.506,13.126,13.126,0,0,0-1.406,0v2.009h-.9C39.45,172.444,39.45,170.536,39.45,168.578Zm.9,1.858v.653c0,.3.05.4.351.4h.954a.91.91,0,0,0,1-.653,1.073,1.073,0,0,0-.4-1.255,1.623,1.623,0,0,0-.854-.151C40.354,169.381,40.354,169.431,40.354,170.436Z" transform="translate(1059.384 5449.132)"/>
    <path id="Path_1524" data-name="Path 1524" class="cls-1" d="M74.4,168.6h3.816v.753H75.354v1.607h2.511v.8H75.354v1.707h2.963v.8H74.45C74.4,172.366,74.4,170.508,74.4,168.6Z" transform="translate(1041.959 5449.11)"/>
    <path id="Path_1526" data-name="Path 1526" class="cls-1" d="M129.123,174.274c-.9.1-.9.1-1.255-.7-.3-.8-.3-.8-1.205-.8a3.423,3.423,0,0,0-1.255.05c-.3.2-.4.7-.5,1.1-.2.653-.7.3-1.1.4a4.741,4.741,0,0,1,.151-.452c.653-1.657,1.356-3.314,2.009-4.971.1-.3.3-.3.5-.3s.4,0,.5.251l2.109,5.272C129.123,174.123,129.123,174.174,129.123,174.274Zm-3.515-2.209h1.808c-.3-.8-.6-1.557-.9-2.41C126.16,170.508,125.909,171.211,125.608,172.065Z" transform="translate(1017.364 5449.11)"/>
    <path id="Path_1529" data-name="Path 1529" class="cls-1" d="M151.9,169.3v-.8h4.72v.8h-1.456c-.352,0-.452.1-.452.452v4.519h-.9v-4.469c0-.351-.1-.452-.4-.452C152.9,169.3,152.4,169.3,151.9,169.3Z" transform="translate(1003.374 5449.16)"/>
    <path id="Path_1530" data-name="Path 1530" class="cls-1" d="M312.5,80.653V80h3.967v.653h-1.155c-.351,0-.452.1-.452.452v3.917h-.7V80.7C313.555,80.653,313.052,80.653,312.5,80.653Z" transform="translate(923.417 5493.221)"/>
    <g id="Group_406" data-name="Group 406">
      <g id="Rectangle_49" data-name="Rectangle 49" class="cls-2" transform="translate(960 5455)">
        <rect class="cls-3" width="404.898" height="245.764"/>
        <rect class="cls-4" x="0.5" y="0.5" width="403.898" height="244.764"/>
      </g>
      <path id="Path_1505" data-name="Path 1505" class="cls-1" d="M161.558,36.706h-7.08V12.654c-.05,0-.05,0-.1-.05-.151.3-.351.552-.5.854l-7.08,13.558-1.657,3.163a.445.445,0,0,1-.5.3h-3.113a.672.672,0,0,1-.7-.4c-1.155-2.209-2.26-4.369-3.415-6.578-1.858-3.515-3.666-7.03-5.523-10.545a1.332,1.332,0,0,0-.251-.3V36.706H124.5V-.05h7.13a.779.779,0,0,1,.753.452c1.607,3.163,3.264,6.277,4.871,9.39l5.574,10.7a.818.818,0,0,1,.151.3c.151-.2.251-.4.351-.552,1.456-2.762,2.862-5.473,4.318-8.235,2.059-3.917,4.118-7.833,6.226-11.8a.5.5,0,0,1,.4-.3h7.231c.05,0,.05,0,.1.05Q161.532,18.328,161.558,36.706Z" transform="translate(1017.016 5533.1)"/>
      <path id="Path_1506" data-name="Path 1506" class="cls-1" d="M218.494,79.9c-.954.954-1.858,1.908-2.762,2.862-1.055,1.054-2.109,2.109-3.163,3.113a.926.926,0,0,1-.6.251h-7.833v30.48h-7.181V86.177H168.03v8.988c0,.4.151.5.5.5h13.256a1.911,1.911,0,0,1-.251.3c-1.757,1.757-3.515,3.515-5.272,5.222a.926.926,0,0,1-.6.251H168.13v7.582a.686.686,0,0,1-.2.552L161.2,116.3c-.05.05-.1.05-.2.151V79.9Z" transform="translate(998.844 5493.271)"/>
      <path id="Path_1511" data-name="Path 1511" class="cls-1" d="M214.381,36.756H207.2V0h15.416a11.179,11.179,0,0,1,9.038,4.419,12.116,12.116,0,0,1,2.711,6.126,12.411,12.411,0,0,1-2.661,9.741,10.772,10.772,0,0,1-6.879,4.067,9.806,9.806,0,0,1-1.707.151h-8.185c-.552,0-.552,0-.552.552v11.2C214.381,36.4,214.381,36.555,214.381,36.756Zm0-18.579c.1,0,.2.05.3.05h8.034a4.046,4.046,0,0,0,3.615-2.159,7.492,7.492,0,0,0,.6-6.126,4.84,4.84,0,0,0-4.921-3.615c-2.36.05-4.67,0-7.03,0h-.5C214.381,10.294,214.381,14.21,214.381,18.177Z" transform="translate(975.843 5533.05)"/>
      <path id="Path_1519" data-name="Path 1519" class="cls-1" d="M220.778,171.307a2.715,2.715,0,0,1,2.912-2.912A2.456,2.456,0,0,1,225.7,169.6a3.259,3.259,0,0,1-.151,3.666,2.58,2.58,0,0,1-2.862.854,2.83,2.83,0,0,1-1.908-2.36A1.365,1.365,0,0,1,220.778,171.307Zm4.419-.251a1.979,1.979,0,0,0-.552-1.356,1.612,1.612,0,0,0-2.109-.251,2.3,2.3,0,0,0-.352,3.364,1.509,1.509,0,0,0,2.109.251A2.111,2.111,0,0,0,225.2,171.056Z" transform="translate(969.094 5449.215)"/>
      <path id="Path_1525" data-name="Path 1525" class="cls-1" d="M176.472,174.257c-.9.151-.954.1-1.255-.7s-.3-.8-1.155-.8h-.552c-.8,0-.8,0-1.1.753v.05c-.3.753-.3.753-1.205.7a.453.453,0,0,1,.05-.251c.7-1.707,1.406-3.465,2.059-5.172a.375.375,0,0,1,.5-.251c.2,0,.4,0,.5.251.7,1.757,1.406,3.465,2.109,5.222C176.472,174.106,176.472,174.156,176.472,174.257Zm-1.707-2.209c-.3-.8-.6-1.557-.854-2.31h-.1c-.3.753-.552,1.506-.854,2.26C173.61,172.047,174.163,172.047,174.765,172.047Z" transform="translate(993.766 5449.127)"/>
      <path id="Path_1527" data-name="Path 1527" class="cls-1" d="M190.756,169.666a6.1,6.1,0,0,0-.7.5,1.782,1.782,0,0,0-1.456-.9,1.7,1.7,0,0,0-1.456.753,2.328,2.328,0,0,0,.854,3.314,1.594,1.594,0,0,0,1.808-.4c.3-.4.5-.352.854-.1a.537.537,0,0,0,.251.151,2.252,2.252,0,0,1-.5.653,2.589,2.589,0,0,1-3.917-.452,2.876,2.876,0,0,1,.2-4.017,2.638,2.638,0,0,1,3.766.1A2.786,2.786,0,0,1,190.756,169.666Z" transform="translate(986.512 5449.199)"/>
      <path id="Path_1528" data-name="Path 1528" class="cls-1" d="M201.458,169.3H199.6v-.8h4.72v.8h-1.456c-.351,0-.452.1-.4.452v4.469h-.9C201.458,172.618,201.458,170.96,201.458,169.3Z" transform="translate(979.626 5449.16)"/>
      <path id="Path_1531" data-name="Path 1531" class="cls-1" d="M214.6,174.324h-.9V168.7h.9Z" transform="translate(972.606 5449.06)"/>
    </g>
    <path id="Path_1532" data-name="Path 1532" class="cls-1" d="M3.954,174.274H3.1V168.6h.854Z" transform="translate(1077.457 5449.11)"/>
    <path id="Path_1533" data-name="Path 1533" class="cls-1" d="M53.6,174.274h-.8V168.6h.8Z" transform="translate(1052.713 5449.11)"/>
  </g>
</svg>
