<svg xmlns="http://www.w3.org/2000/svg" width="404.898" height="245.764" viewBox="0 0 404.898 245.764">
  <defs>
    <style>
      .cls-1, .cls-4 {
        fill: none;
      }

      .cls-1 {
        stroke: #fff;
        opacity: 0;
      }

      .cls-2 {
        fill: #fff;
      }

      .cls-3 {
        stroke: none;
      }
    </style>
  </defs>
  <g id="Group_410" data-name="Group 410" transform="translate(-150 -5211)">
    <g id="Group_403" data-name="Group 403">
      <g id="Rectangle_44" data-name="Rectangle 44" class="cls-1" transform="translate(150 5211)">
        <rect class="cls-3" width="404.898" height="245.764"/>
        <rect class="cls-4" x="0.5" y="0.5" width="403.898" height="244.764"/>
      </g>
      <g id="Group_347" data-name="Group 347" transform="translate(225 5318)">
        <path id="Path_1441" data-name="Path 1441" class="cls-2" d="M231.8,0c3.662,0,6.959.046,10.3-.046,1.648-.046,2.472.549,2.655,2.243.412,3.846.916,7.691,1.373,11.491a5.149,5.149,0,0,0,.916,2.7c.732-1.831,1.511-3.662,2.2-5.494,1.1-2.93,2.06-5.951,3.3-8.836A3.572,3.572,0,0,1,254.923.043c3.662-.229,7.371-.092,11.216-.092-1.465,10.53-2.884,20.83-4.3,31.268h-8.653c.87-6.272,1.74-12.407,2.564-18.587l-.412-.137c-1.831,4.715-3.662,9.431-5.494,14.1-2.2,5.539-2.243,5.539-8.7,4.487-.732-6.043-1.419-12.178-2.152-18.312-.183-.046-.32-.046-.5-.092-.87,6.089-1.74,12.223-2.655,18.5H227.5C228.965,20.828,230.338,10.573,231.8,0Z" transform="translate(-123.356 0.089)"/>
        <path id="Path_1442" data-name="Path 1442" class="cls-2" d="M89.049,23.8c-.275,1.282-.458,2.289-.778,3.708h23.211c-.366,2.609-.687,4.853-1.053,7.279H83.693c-3.022,0-3.983-.916-3.662-3.846.6-4.9,1.282-9.8,1.969-14.7.275-2.152.549-4.258.87-6.409.412-2.747,1.694-4.029,4.441-4.074q12.017-.069,24.035,0c2.426,0,3.159,1.007,2.793,3.434-.5,3.571-1.053,7.1-1.511,10.667-.412,3.022-1.328,3.891-4.349,3.891-5.4.046-10.8,0-16.206,0C91.109,23.8,90.148,23.8,89.049,23.8Zm1.1-7.142h12.269c3.342,0,3.388-.046,2.976-3.754H93.124C89.782,12.9,89.782,12.9,90.148,16.655Z" transform="translate(-43.367 -3.063)"/>
        <path id="Path_1443" data-name="Path 1443" class="cls-2" d="M505.781,23.8H486.965c-3.113-.046-3.754-.687-3.434-3.662.412-3.662,1.007-7.279,1.557-10.942.275-1.923,1.373-3.2,3.342-3.25,9.248-.046,18.5-.046,28.109-.046-.275,2.335-.549,4.532-.824,7.1h-9.431c-3.708,0-7.371.183-11.079-.046-2.793-.183-3.571.961-2.976,3.846h13.6c1.969,0,3.983-.046,5.952,0,2.106.046,3.2,1.19,2.93,3.3-.5,3.937-1.1,7.828-1.694,11.72a3.035,3.035,0,0,1-3.3,2.884c-9.019,0-17.992,0-27.011-.046a3.894,3.894,0,0,1-1.007-.32,48.51,48.51,0,0,1,.778-5.768c.137-.5,1.328-1.007,2.06-1.007,6.043-.092,12.086-.183,18.083,0C505.323,27.646,506.193,26.639,505.781,23.8Z" transform="translate(-261.181 -3.158)"/>
        <path id="Path_1444" data-name="Path 1444" class="cls-2" d="M163.884,16.756h18.45c3.708,0,4.395.824,3.891,4.487-.458,3.388-.687,6.821-1.419,10.118-.275,1.19-1.648,3.067-2.564,3.113-9.522.229-19.045.137-28.842.137.275-2.426.549-4.624.87-7.1,6.821,0,13.551-.092,20.281.046,2.518.046,3.434-.824,3.159-3.571-1.1-.046-2.2-.137-3.3-.137H159.306c-3.891,0-4.395-.732-3.8-4.487.549-3.2.87-6.409,1.328-9.614.275-2.06,1.236-3.8,3.479-3.8,9.156-.092,18.4,0,28.018,0a38.609,38.609,0,0,1-.916,5.951c-.137.549-1.465,1.053-2.289,1.053-6.043.092-12.04.046-18.083.046C163.884,13,163.884,13,163.884,16.756Z" transform="translate(-83.179 -3.164)"/>
        <path id="Path_1445" data-name="Path 1445" class="cls-2" d="M9.073,24.41H34.3c-.32,2.564-.549,4.761-.824,7a5.867,5.867,0,0,1-1.373.32H3.762c-2.335,0-4.029-.87-3.708-3.479C1.2,18.916,2.48,9.577,3.716.1H12.14C11.133,8.2,10.126,16.123,9.073,24.41Z" transform="translate(-0.015 -0.013)"/>
        <path id="Path_1446" data-name="Path 1446" class="cls-2" d="M419.951,6.1c-.916,7.188-1.831,14.192-2.747,21.517h22.982c-.275,2.243-.412,4.166-.824,6.043-.092.5-1.145,1.1-1.74,1.1-8.653.092-17.259.092-25.912.046-2.518,0-3.342-1.282-2.93-4.3.732-5.86,1.557-11.72,2.381-17.626.32-2.2.641-4.395.961-6.776Z" transform="translate(-221.59 -3.267)"/>
        <path id="Path_1447" data-name="Path 1447" class="cls-2" d="M365.99,27.543c-.32,2.426-.549,4.532-.824,6.867a23.375,23.375,0,0,1-2.426.183H338.43c-3.2,0-4.212-1.145-3.754-4.3,1.007-7.554,1.969-15.108,3.113-22.661a2.536,2.536,0,0,1,1.6-1.785,59.287,59.287,0,0,1,6.455-.092c-.6,4.761-1.19,9.248-1.74,13.78-.229,1.877-.412,3.754-.778,5.585-.412,1.969.32,2.518,2.2,2.518,5.768-.092,11.537-.046,17.259-.046C363.747,27.543,364.708,27.543,365.99,27.543Z" transform="translate(-181.409 -3.055)"/>
        <path id="Path_1448" data-name="Path 1448" class="cls-2" d="M317.086,34.776H308.8c1.282-9.568,2.564-18.953,3.846-28.476h8.286C319.7,15.731,318.414,25.116,317.086,34.776Z" transform="translate(-167.436 -3.375)"/>
      </g>
    </g>
  </g>
</svg>
