<svg xmlns="http://www.w3.org/2000/svg" width="404.898" height="245.764" viewBox="0 0 404.898 245.764">
  <defs>
    <style>
      .cls-1 {
        fill: #fff;
      }

      .cls-2, .cls-4 {
        fill: none;
      }

      .cls-2 {
        stroke: #fff;
        opacity: 0;
      }

      .cls-3 {
        stroke: none;
      }
    </style>
  </defs>
  <g id="Group_409" data-name="Group 409" transform="translate(-150 -5455)">
    <path id="Path_1335" data-name="Path 1335" class="cls-1" d="M437.632,29c.5,1.269.952,2.4,1.359,3.579a3.952,3.952,0,0,1,.136,1.45A17.585,17.585,0,0,0,440.849,44a15.36,15.36,0,0,0,11.418,8.2,17.943,17.943,0,0,0,11.916-2.084c.091-.045.227-.136.317-.181h.136a2.043,2.043,0,0,1-.725,3.217,7.922,7.922,0,0,1-4.078.77,10.067,10.067,0,0,0-4.168.816,16.072,16.072,0,0,1-7.612,1.223,7.429,7.429,0,0,1-6.706-5.528,4.973,4.973,0,0,1-.091-1.178,5.393,5.393,0,0,0-2.356-4.576,15.683,15.683,0,0,1-3.715-3.625,7.518,7.518,0,0,1-.68-7.657A13.2,13.2,0,0,1,437.632,29Z" transform="translate(-3.267 5517.223)"/>
    <path id="Path_1336" data-name="Path 1336" class="cls-1" d="M499.087,164.448h-1.994a.714.714,0,0,1-.816-.589c-1.314-4.576-2.673-9.107-4.033-13.683a2.213,2.213,0,0,1-.045-.589c1.314,0,2.583-.045,3.806.045.227,0,.453.544.544.861.906,3.579,1.722,7.2,2.583,10.829a2.255,2.255,0,0,0,.408.906c.091-.272.181-.5.272-.77,1-3.67,1.994-7.295,2.945-10.965.181-.634.453-.951,1.133-.906.725.045,1.5,0,2.22,0,.816,0,.861.091.634.906-1.133,3.715-2.22,7.385-3.353,11.1-.634,2.084-1.223,4.168-1.9,6.207a10.3,10.3,0,0,1-.725,1.767,3.4,3.4,0,0,1-2.764,1.9,28.374,28.374,0,0,1-3.4-.091.586.586,0,0,1-.634-.725,2.585,2.585,0,0,1,.045-.589c.181-1.5.317-1.586,1.722-1.45a2.214,2.214,0,0,0,2.537-1.541A22.265,22.265,0,0,0,499.087,164.448Z" transform="translate(-35.226 5451.279)"/>
    <path id="Path_1337" data-name="Path 1337" class="cls-1" d="M467.8,34c0,2.809.77,5.165,3.217,6.706a9.675,9.675,0,0,0,7.431.951c.045.045.091.136.136.181a13.529,13.529,0,0,1-1.45,1.314,16.744,16.744,0,0,1-6.932,2.583,18.407,18.407,0,0,1-8.881-.227,6.852,6.852,0,0,1-2.265-1.223c-2.22-1.812-2.4-4.35-.317-6.343a11.671,11.671,0,0,1,3.036-2.084A17.359,17.359,0,0,1,467.8,34Z" transform="translate(-16.126 5514.488)"/>
    <path id="Path_1339" data-name="Path 1339" class="cls-1" d="M443.837,158.528c0,1.5.045,2.99,0,4.486a1.117,1.117,0,0,1-.453.77,15.866,15.866,0,0,1-7.974.453,4.339,4.339,0,0,1-3.715-4.486,4.185,4.185,0,0,1,3.217-4.4,16.848,16.848,0,0,1,4.259-.5c.816-.045,1-.136.816-.952a2.029,2.029,0,0,0-2.175-1.586,24.561,24.561,0,0,0-3.625.362c-.544.091-.816,0-.952-.5a.044.044,0,0,0-.045-.045c-.77-1.858-.589-2.265,1.359-2.673a11.83,11.83,0,0,1,5.347-.091,4.827,4.827,0,0,1,3.987,4.848c0,1.4-.045,2.855-.045,4.3Zm-3.851.77h0a7.289,7.289,0,0,0-.045-1.4c-.045-.227-.272-.544-.408-.544a11.956,11.956,0,0,0-2.854.227,1.7,1.7,0,0,0-1.223,2.039,1.658,1.658,0,0,0,1.5,1.631,6.618,6.618,0,0,0,1.631.136c1.359,0,1.45-.091,1.45-1.45A2.787,2.787,0,0,1,439.986,159.3Z" transform="translate(-2.132 5451.536)"/>
    <path id="Path_1340" data-name="Path 1340" class="cls-1" d="M471.327,164.509c-4.576-.045-7.385-2.809-7.431-7.431a8.351,8.351,0,0,1,1.767-5.8,6.811,6.811,0,0,1,6.117-2.22,18.568,18.568,0,0,1,2.764.5.641.641,0,0,1,.589.861v.227a5.737,5.737,0,0,1-.544,1.767c-.453.634-1.087-.045-1.631-.045-.5,0-1.042-.136-1.541-.091-1.9.136-2.99,1-3.262,2.854a10.685,10.685,0,0,0,0,3.4,3.152,3.152,0,0,0,3.353,2.719,12.664,12.664,0,0,0,2.583-.362c.408-.091.68-.045.816.362,0,.045.045.091.045.136.861,2.084.544,2.719-1.676,2.945C472.641,164.418,472.006,164.463,471.327,164.509Z" transform="translate(-19.744 5451.581)"/>
    <path id="Path_1342" data-name="Path 1342" class="cls-1" d="M467.847,8.049c-1.5-.362-2.764-.725-4.078-.951a17.059,17.059,0,0,0-10.512.951c-4.35,1.994-6.887,5.573-8.428,9.968a3.992,3.992,0,0,0-.227.68c-.091,0-.136.045-.227.045-.453-1.269-1-2.537-1.314-3.806a13.707,13.707,0,0,1-.362-3.308,3.6,3.6,0,0,1,2.265-3.353,40.556,40.556,0,0,1,5.211-1.541c2.265-.589,4.576-1.042,6.8-1.631a10.224,10.224,0,0,1,10.285,2.311C467.439,7.5,467.575,7.731,467.847,8.049Z" transform="translate(-8.154 5530.562)"/>
    <g id="Group_404" data-name="Group 404">
      <g id="Rectangle_48" data-name="Rectangle 48" class="cls-2" transform="translate(150 5455)">
        <rect class="cls-3" width="404.898" height="245.764"/>
        <rect class="cls-4" x="0.5" y="0.5" width="403.898" height="244.764"/>
      </g>
      <path id="Path_1331" data-name="Path 1331" class="cls-1" d="M79.384,79.962a30.438,30.438,0,0,1,2.13-10.376c1.676-4.531,3.489-8.971,5.165-13.5.725-1.994,1.223-4.033,1.812-6.071,0-.091.045-.136.045-.227.227-1.858-.453-2.492-2.13-1.722-2.9,1.359-5.754,2.809-8.563,4.4-5.528,3.126-10.965,6.343-16.493,9.515a21.909,21.909,0,0,1-9.923,2.9,7.349,7.349,0,0,1-2.809-.5c-1.45-.544-1.948-1.812-2.039-3.308a14.355,14.355,0,0,1,1.133-5.528c.634-1.858,1.359-3.67,2.039-5.528.136-.453.272-.906.362-1.359.181-.861-.181-1.223-.951-.906a20.786,20.786,0,0,0-3.489,1.722c-4.259,2.854-8.428,5.845-12.687,8.7a102.617,102.617,0,0,1-15.9,9.152A27,27,0,0,1,9.2,69.767a12.762,12.762,0,0,1-3.715,0C1.769,69.133-.27,66.1.138,62.2A43.729,43.729,0,0,1,3.853,49.332a179.114,179.114,0,0,1,14.318-28,56.536,56.536,0,0,1,8.473-10.874A16.8,16.8,0,0,1,30.5,7.648c2.9-1.45,5.392.181,5.482,3.4a13.4,13.4,0,0,1-1.586,6.162A52.152,52.152,0,0,1,28,26.723c-3.489,4.259-6.932,8.473-10.557,12.46A42.857,42.857,0,0,0,9.2,52.912a46.081,46.081,0,0,0-2.628,8.382,8.558,8.558,0,0,0-.136,2.13A2.19,2.19,0,0,0,8.792,65.6a16.535,16.535,0,0,0,3.942-.544,47.832,47.832,0,0,0,12.007-5.936c6.479-4.168,12.913-8.473,19.347-12.732a69.376,69.376,0,0,1,10.693-6.117,14.294,14.294,0,0,1,3.353-1c1.359-.227,2.13.544,2.311,1.948a5.926,5.926,0,0,1-.68,3.534c-1.269,2.311-2.673,4.531-3.987,6.842-.861,1.45-1.631,2.945-2.447,4.44a5.458,5.458,0,0,0-.362,1.223c-.5,2.356.725,3.761,3.081,3.353a21.609,21.609,0,0,0,5.075-1.4c3.579-1.631,7.114-3.353,10.557-5.256,4.667-2.583,9.243-5.392,13.91-8.02A26.149,26.149,0,0,0,97.372,32.3c1.269-3.217,2.583-6.389,3.9-9.606A56.583,56.583,0,0,1,112.46,5.926a24.6,24.6,0,0,1,5.754-4.848,9.319,9.319,0,0,1,2.673-1.133c2.22-.544,3.806.68,4.033,2.945a13.258,13.258,0,0,1-1.087,6.479,29.932,29.932,0,0,1-6.207,9.606c-4.123,4.4-8.292,8.745-12.415,13.14a38.53,38.53,0,0,0-6.3,8.292,10.073,10.073,0,0,0-1.45,4.8A4.418,4.418,0,0,0,99.547,49.2a12.7,12.7,0,0,0,5.709,1.858c5.664.68,10.784-1.087,15.586-3.9,4.123-2.4,8.065-4.984,12.1-7.521,4.576-2.854,9.334-5.347,14.68-6.434a17.386,17.386,0,0,1,3.761-.408,3.843,3.843,0,0,1,4.123,3.9,4.433,4.433,0,0,1-2.13,4.3,22.7,22.7,0,0,1-6.026,2.311c-1.676.5-3.308,1-4.939,1.631a6.728,6.728,0,0,0-1.948,1.223c-1.45,1.223-1.541,2.854-1.042,4.531a3.285,3.285,0,0,0,3.217,2.039,19.429,19.429,0,0,0,6.8-1.269A89.39,89.39,0,0,0,162.3,45.526c6.026-3.217,11.962-6.57,18.033-9.7a44.377,44.377,0,0,1,13.049-4.4,18.3,18.3,0,0,1,4.168-.045,4.23,4.23,0,0,1,1.541.68c.181.091.408.453.362.589a.92.92,0,0,1-.589.5,21.321,21.321,0,0,1-2.265.362,46.981,46.981,0,0,0-18.305,6.207q-9.311,5.369-18.849,10.331A66.016,66.016,0,0,1,144.675,55.9a17.75,17.75,0,0,1-5.347.544c-3.353-.181-5.3-2.492-4.848-5.8.181-1.223.408-2.447.589-3.67a8.2,8.2,0,0,0,.136-1.042c0-.589.272-1.359-.408-1.586a2.541,2.541,0,0,0-1.676.317c-3.806,1.812-7.567,3.761-11.418,5.528a63.891,63.891,0,0,1-14.726,4.3h-.091c-2.084.453-2.265.816-2.537,2.945a42.293,42.293,0,0,1-1.4,8.292,49.688,49.688,0,0,1-9.832,17.943,13.2,13.2,0,0,1-4.168,3.217A6.529,6.529,0,0,1,79.656,82,15.951,15.951,0,0,1,79.384,79.962Zm21.069-21.069a10.205,10.205,0,0,0-.816-4.757,2.663,2.663,0,0,0-1.9-1.631,4.648,4.648,0,0,0-4.35,2.265A139.443,139.443,0,0,0,86,74.026a21.835,21.835,0,0,0-1.087,6.842c.091,2.537,1.994,3.851,4.44,3.036a6.916,6.916,0,0,0,3.262-2.537,32.934,32.934,0,0,0,4.893-9.243A39.847,39.847,0,0,0,100.453,58.893ZM122.7,4.114c-.136-.77-.453-1-1.133-.77a3.663,3.663,0,0,0-1.359.77,37.248,37.248,0,0,0-2.99,2.99,127.578,127.578,0,0,0-10.285,14.363,48.977,48.977,0,0,0-2.583,4.8,4.044,4.044,0,0,0-.136,1.314,3.733,3.733,0,0,0,1.314-.317,15.6,15.6,0,0,0,2.945-2.492c2.583-2.99,5.165-6.071,7.612-9.2a40.175,40.175,0,0,0,5.482-8.518C122.02,6.107,122.292,5.11,122.7,4.114ZM15.543,36.963c.091.045.181.136.272.181a26.625,26.625,0,0,0,2.9-2.628c2.854-3.579,5.709-7.159,8.382-10.874,1.858-2.583,3.534-5.3,5.165-8.02a10.834,10.834,0,0,0,.951-3.4,1.285,1.285,0,0,0-.453-1c-.136-.091-.589.181-.906.317a3.421,3.421,0,0,0-.634.5c-1.178,1.359-2.4,2.673-3.444,4.078-1.541,2.13-3.081,4.259-4.486,6.525-2.265,3.715-4.486,7.521-6.615,11.327A16.946,16.946,0,0,0,15.543,36.963Zm124.556,4.8v.091c1.223-.181,2.4-.317,3.625-.544a22.275,22.275,0,0,0,6.615-1.948,9.917,9.917,0,0,0,2.265-1.858c.5-.544.272-1.087-.5-1.133a6.124,6.124,0,0,0-2.039.181A61.682,61.682,0,0,0,139.6,40.407a1.706,1.706,0,0,0-.68.408,3.215,3.215,0,0,0-.453.634,4.142,4.142,0,0,0,.634.317A3.655,3.655,0,0,1,140.1,41.766Z" transform="translate(233.913 5533.183)"/>
      <path id="Path_1332" data-name="Path 1332" class="cls-1" d="M382.961,151.131c3.172-3.036,5.981-2.945,8.609.272a6.093,6.093,0,0,0,.5-.634c1.722-2.356,4.984-2.13,6.66-1.087a4.581,4.581,0,0,1,1.858,3.987c.091,3.262,0,6.525.045,9.787,0,.453-.136.68-.589.68h-2.673c-.589,0-.725-.272-.725-.861.045-2.583,0-5.12,0-7.7a6.152,6.152,0,0,0-.136-1.314c-.227-1.178-.589-1.631-1.5-1.767a2.348,2.348,0,0,0-2.492,1.133,5.732,5.732,0,0,0-.544,2.265c-.091,2.447-.045,4.939,0,7.385,0,.544-.091.861-.725.816-.861-.045-1.722,0-2.583,0-.589,0-.68-.317-.68-.816v-7.249a11.025,11.025,0,0,0-.136-1.722c-.136-1.178-.589-1.676-1.5-1.858a2.344,2.344,0,0,0-2.537,1.178,5.392,5.392,0,0,0-.5,1.858c-.045,2.583-.045,5.12-.045,7.7,0,.634-.136.951-.816.951-.906,0-1.767-.045-2.673-.045-.453,0-.589-.227-.589-.634V149.863c0-.5.227-.68.68-.68H381.6c.77-.045,1.087.272,1.178,1A3.89,3.89,0,0,0,382.961,151.131Z" transform="translate(26.574 5451.637)"/>
      <path id="Path_1333" data-name="Path 1333" class="cls-1" d="M251.891,146.855v-9.107c0-1.178,0-1.178,1.133-1.223,1.812-.045,3.625-.181,5.437-.136a7.4,7.4,0,0,1,5.029,1.812,6.625,6.625,0,0,1,1.994,5.437c-.045,2.4-.77,4.486-2.9,5.8a10.426,10.426,0,0,1-5.12,1.223c-1.5.045-1.5,0-1.5,1.54v4.35c0,.5-.136.77-.68.725h-2.764c-.544,0-.725-.227-.725-.77v-6.525C251.891,148.94,251.891,147.9,251.891,146.855Zm4.123-3.4v3.081c0,.5.227.77.725.725.5,0,1.042-.045,1.541-.091a3.236,3.236,0,0,0,2.99-3.534c0-2.084-1.042-3.489-2.945-3.806a9.815,9.815,0,0,0-1.631-.045c-.5,0-.725.227-.68.725C256.059,141.464,256.014,142.46,256.014,143.457Z" transform="translate(96.25 5458.496)"/>
      <path id="Path_1334" data-name="Path 1334" class="cls-1" d="M291.335,143.787a2.481,2.481,0,0,0,.453-.362,5.067,5.067,0,0,1,5.075-1.4,4.129,4.129,0,0,1,3.444,3.987c.136,2.039.091,4.123.136,6.207v4.033c0,.544-.136.861-.725.861h-2.628c-.544,0-.77-.272-.725-.861.045-2.537,0-5.029,0-7.567a9.469,9.469,0,0,0-.045-1.133,2.106,2.106,0,0,0-1.5-2.084,2.384,2.384,0,0,0-2.719.906,5.287,5.287,0,0,0-.725,2.447c-.091,2.447-.045,4.939,0,7.385,0,.589-.181.906-.77.906h-2.447c-.589,0-.816-.317-.77-.906.045-1.541,0-3.036,0-4.576V136.99c0-1,0-1,1-1,.68,0,1.4.045,2.084,0s.906.181.906.906c-.045,1.948,0,3.942,0,5.89A6.1,6.1,0,0,0,291.335,143.787Z" transform="translate(76.787 5458.71)"/>
      <path id="Path_1338" data-name="Path 1338" class="cls-1" d="M333.462,158.84v4.168c0,.408-.091.68-.544.816a16.413,16.413,0,0,1-7.974.408,4.322,4.322,0,0,1-3.67-3.987c-.181-2.492.77-4.078,3.036-4.893a9.663,9.663,0,0,1,4.4-.544c.77.045.861-.045.77-.816a1.689,1.689,0,0,0-1.4-1.541,7.976,7.976,0,0,0-4.259.181c-.634.181-.861,0-1.087-.544-.77-1.9-.634-2.311,1.359-2.628a19.4,19.4,0,0,1,4.576-.227c3.036.272,4.712,2.311,4.8,5.573C333.507,156.167,333.462,157.481,333.462,158.84Zm-3.942.5h0a7.289,7.289,0,0,0-.045-1.4.746.746,0,0,0-.408-.544,4.247,4.247,0,0,0-2.9.227,1.866,1.866,0,0,0-1.178,1.948,1.78,1.78,0,0,0,1.45,1.676,7.8,7.8,0,0,0,1.767.181c1.269,0,1.359-.091,1.359-1.359A3.664,3.664,0,0,1,329.52,159.339Z" transform="translate(58.266 5451.496)"/>
      <path id="Path_1341" data-name="Path 1341" class="cls-1" d="M132.947,58.558a17.842,17.842,0,0,1-2.13-.453,2.091,2.091,0,0,1-1.4-2.628c.544-2.537,4.35-5.981,6.932-6.3,1.9-.227,4.8,1.812,5.165,3.67a2.627,2.627,0,0,1-.77,2.4,9.593,9.593,0,0,1-5.075,2.809A17,17,0,0,1,132.947,58.558Z" transform="translate(163.224 5506.196)"/>
      <path id="Path_1343" data-name="Path 1343" class="cls-1" d="M359.161,151.416a6.982,6.982,0,0,1,.544-.589,4.351,4.351,0,0,1,3.9-1.5c.408.045.589.181.589.589v2.22c0,.5-.227.77-.725.68h-.091c-3.081-.317-3.987,1.858-3.987,4.078,0,2.13-.045,4.3,0,6.434,0,.68-.272.952-.861.952-.861,0-1.676,0-2.537-.045-.408,0-.589-.227-.589-.68V149.966c0-.453.181-.68.68-.68h.544c1.9-.045,1.9-.045,2.447,1.767C358.979,151.234,359.07,151.28,359.161,151.416Z" transform="translate(39.591 5451.444)"/>
    </g>
    <path id="Path_1344" data-name="Path 1344" class="cls-1" d="M484.435,32.6a14.476,14.476,0,0,1,6.117,1.223,7.76,7.76,0,0,1,2.311,1.676,3.168,3.168,0,0,1,.544,3.625,2.675,2.675,0,0,1-2.855,1.541,9.4,9.4,0,0,1-7.521-3.987,3.813,3.813,0,0,1-.725-3.126c.136-.589.362-.951,1.042-.906A4.19,4.19,0,0,0,484.435,32.6Z" transform="translate(-29.772 5515.254)"/>
    <path id="Path_1345" data-name="Path 1345" class="cls-1" d="M456.222,55.7a25.2,25.2,0,0,0,14.952,7.023c-1.767,2.084-6.57,3.715-10.557,1.948C456.992,63.085,455.588,59.008,456.222,55.7Z" transform="translate(-15.469 5502.62)"/>
    <path id="Path_1346" data-name="Path 1346" class="cls-1" d="M502.5,54.364c5.709-4.168,7.431-9.787,6.117-16.764.589.453,1.087.725,1.5,1.087A5.367,5.367,0,0,1,511.743,42a2.53,2.53,0,0,1-.181,1.45,5.621,5.621,0,0,0-.589,3.308,29.281,29.281,0,0,1-.227,4.893,4.184,4.184,0,0,1-4.984,3.534c-1.087-.136-2.13-.408-3.172-.589A.249.249,0,0,1,502.5,54.364Z" transform="translate(-40.859 5512.519)"/>
    <path id="Path_1347" data-name="Path 1347" class="cls-1" d="M452.214,32.113c-2.4-1.541-3.217-6.389-1.722-9.288,1.631-3.126,5.754-4.531,9.47-3.579A25.7,25.7,0,0,0,452.214,32.113Z" transform="translate(-12.004 5522.718)"/>
    <path id="Path_1348" data-name="Path 1348" class="cls-1" d="M497.623,26.7a20.543,20.543,0,0,0-9.923-8.473c.589-2.854,3.172-4.123,5.664-2.719a9.31,9.31,0,0,1,4.486,6.162A8.042,8.042,0,0,1,497.623,26.7Z" transform="translate(-32.765 5524.917)"/>
    <path id="Path_1349" data-name="Path 1349" class="cls-1" d="M470.535,21.614c-.589,1.087-1.087,2.13-1.676,3.126a1.278,1.278,0,0,1-.725.408c-1.676.589-3.4,1.042-4.984,1.722a10.384,10.384,0,0,0-4.168,3.625c-.045-.045-.136-.045-.181-.091.227-.816.362-1.676.634-2.447,1.178-3.081,3.4-5.347,5.845-7.431a1.724,1.724,0,0,1,.68-.227A9.708,9.708,0,0,1,470.535,21.614Z" transform="translate(-16.959 5521.981)"/>
    <path id="Path_1350" data-name="Path 1350" class="cls-1" d="M471.8,56.362c10.285-1.223,11.871-1.812,16.13-6.162a2.044,2.044,0,0,1-.045.589,4.731,4.731,0,0,1-.5,1.087c-1.586,1.994-3.126,4.078-4.848,5.936-1.314,1.4-3.081,1.359-4.8.906a17.659,17.659,0,0,1-2.583-.951C474.02,57.359,472.978,56.86,471.8,56.362Z" transform="translate(-24.069 5505.628)"/>
    <path id="Path_1351" data-name="Path 1351" class="cls-1" d="M500.6,12.94c1.994-.181,3.942-.317,5.754.589a4.216,4.216,0,0,1,2.4,3.715,11.525,11.525,0,0,1-1.45,5.936C506.128,19.057,504.361,15.342,500.6,12.94Z" transform="translate(-39.82 5526.078)"/>
    <path id="Path_1352" data-name="Path 1352" class="cls-1" d="M495.5,59.182c1.087-1.314,2.13-2.4,2.945-3.625,1.178-1.676,2.175-3.489,3.262-5.211.136-.227.408-.5.634-.453.181,0,.453.362.5.589a6.6,6.6,0,0,1-5.573,8.563A14.222,14.222,0,0,0,495.5,59.182Z" transform="translate(-37.031 5505.798)"/>
    <path id="Path_1353" data-name="Path 1353" class="cls-1" d="M459.2,14.062c4.078-3.4,8.654-4.078,13.638-3.308.045.091.091.136.091.227a6.486,6.486,0,0,1-.952.544,34.942,34.942,0,0,0-3.806,1.5,7.514,7.514,0,0,1-3.942.77C462.6,13.835,460.967,13.971,459.2,14.062Z" transform="translate(-17.178 5527.358)"/>
    <path id="Path_1354" data-name="Path 1354" class="cls-1" d="M450.428,51.751c-2.537-1.812-4.667-8.79-3.579-12.551.272.544.453,1,.634,1.45.816,1.586,1.676,3.217,2.537,4.8A2.554,2.554,0,0,1,450.2,46C450.292,47.945,450.383,49.893,450.428,51.751Z" transform="translate(-10.264 5511.644)"/>
    <path id="Path_1355" data-name="Path 1355" class="cls-1" d="M480.7,73.593c1.087-.725,2.356-1.45,3.489-2.265a7.987,7.987,0,0,1,4.893-1.767,8.5,8.5,0,0,0,2.265-.634c.181-.045.362-.136.634-.227C491.529,70.875,484.415,73.865,480.7,73.593Z" transform="translate(-28.936 5495.511)"/>
    <path id="Path_1356" data-name="Path 1356" class="cls-1" d="M483.3,26.655c0-1.087.725-1.858,1.178-2.719.045-.091.408-.045.544,0a23.561,23.561,0,0,1,2.4,1.178,10.951,10.951,0,0,1,2.311,1.858C487.6,26.882,485.475,26.791,483.3,26.655Z" transform="translate(-30.358 5520.021)"/>
    <path id="Path_1357" data-name="Path 1357" class="cls-1" d="M481.433,17.492c-1.314-.453-2.628-.861-4.033-1.359.408-.317.725-.68,1.133-.951a7.033,7.033,0,0,1,3.534-1.087c.77-.045,1,.227.77,1a4.107,4.107,0,0,1-.5,1A14.252,14.252,0,0,1,481.433,17.492Z" transform="translate(-27.132 5525.377)"/>
    <path id="Path_1358" data-name="Path 1358" class="cls-1" d="M512.671,41.932c-1.541-3.217-.725-6.525-.68-9.832C513.35,33.731,513.894,39.531,512.671,41.932Z" transform="translate(-45.91 5515.527)"/>
  </g>
</svg>
