<svg xmlns="http://www.w3.org/2000/svg" width="365.23" height="198.105" viewBox="0 0 365.23 198.105"><g transform="translate(-53.981 -70.468)"><path d="M0,118.085,60.395,57.736v4.09L0,122.133ZM0,98.827,60.395,38.519v4.045L0,102.914ZM0,79.611,60.395,19.258v4.048L0,83.656ZM0,60.349,60.395,0V4.045L0,64.395Z" transform="translate(129.896 70.524)" fill="#fff"/><path d="M41,77.087l60.393-60.35v4.088L41,81.132Zm0-19.26L101.394-2.481V1.564L41,61.915Zm0-19.218,60.393-60.35v4.046L41,42.655Zm0-19.26L101.394-41v4.045L41,23.4Z" transform="translate(12.98 187.441)" fill="#fff"/><g transform="translate(202.296 70.468)"><path d="M32.883,13.7H30.437L28.131,5.549c-.112-.366-.225-.872-.366-1.546s-.225-1.125-.281-1.406c-.056.394-.169.928-.309,1.546-.141.647-.253,1.1-.337,1.406l-2.249,8.126H22.171L20.4,6.842,18.6.01h2.277l1.94,7.957a30.138,30.138,0,0,1,.647,3.374,16.873,16.873,0,0,1,.309-1.771c.141-.647.281-1.153.394-1.546L26.388.038h2.221l2.277,8.013a30.155,30.155,0,0,1,.7,3.318,21.689,21.689,0,0,1,.675-3.4L34.2.01h2.249Z" transform="translate(-18.6 0.018)" fill="#fff"/><path d="M35.859,13.721l-1.378-3.8h-5.23l-1.35,3.8H25.54L30.685,0H33.1L38.22,13.721ZM33.89,8.013,32.6,4.3c-.084-.253-.225-.647-.394-1.181s-.281-.928-.337-1.181a23.675,23.675,0,0,1-.731,2.5L29.926,8.013Z" transform="translate(-6.027)" fill="#fff"/><path d="M31.25,13.684V.02h2.221V13.684Z" transform="translate(4.317 0.036)" fill="#fff"/><path d="M39.592,13.684H37.371V1.932H33.35V.02H43.612V1.932H39.592Z" transform="translate(8.121 0.036)" fill="#fff"/><path d="M46.032,13.684H38.3V.02h7.732V1.9H40.549V5.615h5.145V7.5H40.549v4.3h5.483Z" transform="translate(17.089 0.036)" fill="#fff"/><path d="M48.564,13.684,44.6,2.269h-.084c.112,1.687.169,3.29.169,4.78v6.635H42.66V.02h3.149L49.6,10.9h.056L53.569.02h3.149V13.684H54.581V6.937c0-.675.028-1.574.056-2.643.028-1.1.056-1.743.084-2h-.084l-4.1,11.387Z" transform="translate(24.987 0.036)" fill="#fff"/><path d="M59.15,13.721l-1.378-3.8h-5.23l-1.321,3.8H48.86L53.977,0H56.4l5.117,13.721ZM57.182,8.013,55.889,4.3c-.084-.253-.225-.647-.394-1.181s-.281-.928-.337-1.181a23.676,23.676,0,0,1-.731,2.5L53.19,8.013Z" transform="translate(36.219)" fill="#fff"/><path d="M60.262,13.684H58.041V1.932H54.02V.02H64.282V1.932H60.262Z" transform="translate(45.567 0.036)" fill="#fff"/><path d="M68.639,13.721l-1.378-3.8h-5.23l-1.35,3.8H58.32L63.465,0h2.418L71,13.721ZM66.67,8.013,65.377,4.3c-.084-.281-.2-.675-.366-1.209s-.281-.928-.337-1.181a23.673,23.673,0,0,1-.731,2.5L62.706,7.985H66.67Z" transform="translate(53.357)" fill="#fff"/></g><g transform="translate(204.151 95.097)"><path d="M30.028,22.494H27.779V16.337h-6.3v6.157H19.26V8.83h2.221v5.6h6.3V8.83h2.249Z" transform="translate(-19.26 -8.633)" fill="#fff"/><path d="M32.652,22.494H24.92V8.83h7.732v1.884H27.169v3.711h5.145v1.884H27.169v4.3h5.483Z" transform="translate(-9.006 -8.633)" fill="#fff"/><path d="M38.949,22.531l-1.378-3.8h-5.23l-1.35,3.8H28.63L33.747,8.81h2.418l5.117,13.721ZM36.98,16.823l-1.293-3.711c-.084-.253-.225-.647-.394-1.181s-.281-.928-.337-1.181a23.674,23.674,0,0,1-.731,2.5l-1.237,3.571Z" transform="translate(-2.285 -8.669)" fill="#fff"/><path d="M34.34,22.494V8.83h2.221V20.583h5.792v1.912H34.34Z" transform="translate(8.059 -8.633)" fill="#fff"/><path d="M44.292,22.494H42.071V10.742H38.05V8.83H48.312v1.912H44.292Z" transform="translate(14.78 -8.633)" fill="#fff"/><path d="M53.8,22.494H51.547V16.337h-6.3v6.157H43V8.83h2.221v5.6h6.3V8.83h2.249V22.494Z" transform="translate(23.747 -8.633)" fill="#fff"/><path d="M58.732,22.494H51V8.83h7.732v1.884H53.249v3.711h5.145v1.884H53.249v4.3h5.483Z" transform="translate(38.24 -8.633)" fill="#fff"/><path d="M66.585,22.494H64l-3.43-5.6-3.458,5.6H54.72l4.527-7.085L55,8.83h2.474L60.624,14,63.773,8.83h2.418l-4.274,6.607Z" transform="translate(44.979 -8.633)" fill="#fff"/><path d="M66.4,10.672a3.64,3.64,0,0,0-3.037,1.378,5.838,5.838,0,0,0-1.1,3.768,5.82,5.82,0,0,0,1.068,3.8A3.722,3.722,0,0,0,66.4,20.906a8.173,8.173,0,0,0,1.687-.169,15.157,15.157,0,0,0,1.687-.45V22.2a10.476,10.476,0,0,1-3.655.619,5.849,5.849,0,0,1-4.611-1.828,7.627,7.627,0,0,1-1.6-5.2A8.315,8.315,0,0,1,60.7,12.05,5.589,5.589,0,0,1,62.947,9.6,6.851,6.851,0,0,1,66.4,8.76a8.544,8.544,0,0,1,3.88.872l-.815,1.856a11.332,11.332,0,0,0-1.462-.59A5.807,5.807,0,0,0,66.4,10.672Z" transform="translate(54.382 -8.76)" fill="#fff"/><path d="M72.762,22.494H65.03V8.83h7.732v1.884H67.279v3.711h5.145v1.884H67.279v4.3h5.483Z" transform="translate(63.657 -8.633)" fill="#fff"/><path d="M69.39,22.494V8.83h2.221V20.583H77.4v1.912H69.39Z" transform="translate(71.556 -8.633)" fill="#fff"/><path d="M73.63,22.494V8.83h2.221V20.583h5.792v1.912H73.63Z" transform="translate(79.237 -8.633)" fill="#fff"/><path d="M85.612,22.494H77.88V8.83h7.732v1.884H80.129v3.711h5.145v1.884H80.129v4.3h5.483Z" transform="translate(86.936 -8.633)" fill="#fff"/><path d="M93.609,22.494H90.882l-6.72-10.881h-.084l.056.619c.084,1.153.141,2.221.141,3.177v7.113H82.25V8.83h2.7l6.692,10.825H91.7c0-.141-.028-.675-.084-1.574-.028-.9-.056-1.6-.056-2.109V8.83h2.052Z" transform="translate(94.853 -8.633)" fill="#fff"/><path d="M94.385,10.672a3.64,3.64,0,0,0-3.037,1.378,5.838,5.838,0,0,0-1.1,3.768,5.82,5.82,0,0,0,1.068,3.8,3.722,3.722,0,0,0,3.065,1.293,8.173,8.173,0,0,0,1.687-.169,15.158,15.158,0,0,0,1.687-.45V22.2a10.476,10.476,0,0,1-3.655.619,5.849,5.849,0,0,1-4.611-1.828,7.627,7.627,0,0,1-1.6-5.2,8.315,8.315,0,0,1,.787-3.739A5.589,5.589,0,0,1,90.927,9.6a6.851,6.851,0,0,1,3.458-.843,8.544,8.544,0,0,1,3.88.872l-.787,1.884a11.334,11.334,0,0,0-1.462-.59A5.341,5.341,0,0,0,94.385,10.672Z" transform="translate(105.07 -8.76)" fill="#fff"/><path d="M100.732,22.494H93V8.83h7.732v1.884H95.249v3.711h5.145v1.884H95.249v4.3h5.483Z" transform="translate(114.328 -8.633)" fill="#fff"/></g><g transform="translate(202.24 119.867)"><path d="M28.9,31.341l-1.378-3.8h-5.23l-1.35,3.8H18.58L23.7,17.62h2.418l5.117,13.721Zm-1.94-5.708-1.293-3.711c-.084-.253-.225-.647-.394-1.181s-.281-.928-.337-1.181a23.675,23.675,0,0,1-.731,2.5l-1.237,3.571Z" transform="translate(-18.58 -17.479)" fill="#fff"/><path d="M37.983,31.359H35.537l-2.306-8.154c-.112-.366-.225-.872-.366-1.546s-.225-1.125-.281-1.406c-.056.394-.169.928-.309,1.546-.141.647-.253,1.1-.337,1.406l-2.249,8.126H27.271L25.5,24.5l-1.8-6.832h2.277l1.94,7.957A30.139,30.139,0,0,1,28.564,29a16.871,16.871,0,0,1,.309-1.771c.141-.647.253-1.181.366-1.6l2.221-7.985h2.221l2.277,8.013a30.153,30.153,0,0,1,.7,3.318,21.69,21.69,0,0,1,.675-3.4l1.94-7.957h2.249Z" transform="translate(-9.305 -17.498)" fill="#fff"/><path d="M40.959,31.341l-1.378-3.8h-5.23L33,31.341H30.64L35.757,17.62h2.418l5.117,13.721ZM38.99,25.633,37.7,21.922c-.084-.253-.225-.647-.394-1.181s-.281-.928-.337-1.181a23.68,23.68,0,0,1-.731,2.5L35,25.633Z" transform="translate(3.268 -17.479)" fill="#fff"/><path d="M38.581,25.85V31.3H36.36V17.64h3.852a6.387,6.387,0,0,1,3.908.984,3.541,3.541,0,0,1,1.265,2.98,3.687,3.687,0,0,1-2.643,3.627L46.594,31.3h-2.53L40.8,25.85Zm0-1.856h1.546a3.423,3.423,0,0,0,2.249-.59,2.073,2.073,0,0,0,.7-1.715,1.857,1.857,0,0,0-.759-1.659,4.141,4.141,0,0,0-2.277-.506h-1.49v4.47Z" transform="translate(13.63 -17.443)" fill="#fff"/><path d="M52.394,24.332A6.756,6.756,0,0,1,50.51,29.5a7.653,7.653,0,0,1-5.426,1.8H41.26V17.64h4.217a7,7,0,0,1,5.061,1.743A6.53,6.53,0,0,1,52.394,24.332Zm-2.362.084c0-3.261-1.518-4.92-4.583-4.92h-1.94v9.925h1.574C48.373,29.421,50.032,27.762,50.032,24.416Z" transform="translate(22.507 -17.443)" fill="#fff"/><path d="M55.254,27.72a3.5,3.5,0,0,1-1.321,2.868,5.627,5.627,0,0,1-3.627,1.04,8.306,8.306,0,0,1-3.8-.731V28.788a11.157,11.157,0,0,0,2,.7,8.4,8.4,0,0,0,1.968.253,3.169,3.169,0,0,0,1.968-.506,1.629,1.629,0,0,0,.619-1.35,1.654,1.654,0,0,0-.59-1.293,8.3,8.3,0,0,0-2.39-1.265,6.162,6.162,0,0,1-2.643-1.743,3.69,3.69,0,0,1-.759-2.334,3.278,3.278,0,0,1,1.209-2.7,5.068,5.068,0,0,1,3.261-.984,9.283,9.283,0,0,1,3.908.872l-.7,1.828a8.608,8.608,0,0,0-3.261-.759,2.591,2.591,0,0,0-1.659.478,1.563,1.563,0,0,0-.562,1.237,1.776,1.776,0,0,0,.225.9,2.2,2.2,0,0,0,.731.7,11.447,11.447,0,0,0,1.856.9,9.334,9.334,0,0,1,2.193,1.181,3.338,3.338,0,0,1,1.378,2.812Z" transform="translate(32.018 -17.57)" fill="#fff"/></g><path d="M0,118.085,60.395,57.736v4.09L0,122.133ZM0,98.827,60.395,38.519v4.045L0,102.914ZM0,79.611,60.395,19.258v4.048L0,83.656ZM0,60.349,60.395,0V4.045L0,64.395Z" transform="translate(71.438 128.983)" fill="#fff"/></g></svg>