<svg xmlns="http://www.w3.org/2000/svg" width="404.898" height="245.764" viewBox="0 0 404.898 245.764">
  <defs>
    <style>
      .cls-1 {
        fill: #fff;
      }

      .cls-2, .cls-4 {
        fill: none;
      }

      .cls-2 {
        stroke: #fff;
        opacity: 0;
      }

      .cls-3 {
        stroke: none;
      }
    </style>
  </defs>
  <g id="Group_408" data-name="Group 408" transform="translate(-555 -5455)">
    <path id="Path_1487" data-name="Path 1487" class="cls-1" d="M309.768,72.1c4.666.091,8.652,1.132,11.551,4.485,3.669,4.258,4.122,9.241,2.446,14.36-1.585,4.938-5.345,7.52-10.328,8.426a17.134,17.134,0,0,1-10.917-1.314c-4.349-2.174-6.478-5.844-6.931-10.6a15.317,15.317,0,0,1,.68-6.568c1.812-5.119,5.662-7.746,10.872-8.562C308.183,72.191,309.134,72.145,309.768,72.1Zm8.879,14.45c0-6.568-4.892-10.691-10.419-9.422a8.14,8.14,0,0,0-6.523,6.7c-.77,3.805.181,7.2,3.488,9.513a8.108,8.108,0,0,0,8.879.544A8.239,8.239,0,0,0,318.647,86.55Z" transform="translate(514.302 5493.516)"/>
    <path id="Path_1490" data-name="Path 1490" class="cls-1" d="M6.5,64.583c0,4.983.045,9.921-.045,14.9,0,1.042.408,1.314,1.314,1.359a47.632,47.632,0,0,0,10.464-.634,1.61,1.61,0,0,1,.453-.091c1.359-.136,1.812.408,1.359,1.676a11.581,11.581,0,0,1-1.45,2.9,2.8,2.8,0,0,1-1.812,1c-2.9.181-5.8.272-8.652.317-1.857,0-3.669-.136-5.527-.272C1.249,85.647.751,85.1.705,83.7c-.045-1.45,0-2.944,0-4.394,0-8.516,0-17.078-.045-25.594a27.081,27.081,0,0,0-.453-3.85c-.226-1.268,0-1.767,1.314-1.9a26.692,26.692,0,0,1,3.805-.091c1,.045,1.223.453,1.268,1.631C6.5,54.526,6.5,59.554,6.5,64.583Z" transform="translate(675.87 5506.786)"/>
    <path id="Path_1494" data-name="Path 1494" class="cls-1" d="M45.35,157.46a22.991,22.991,0,0,1,3.443-1.4c3.85-.951,6.568,1.132,6.659,5.119.045,2.944,0,5.934,0,8.879,0,1.178-.226,1.4-1.268,1.4-1.54.045-1.812-.091-1.857-1.359-.045-1.767-.045-3.579-.045-5.345v-3.08a2.813,2.813,0,0,0-1.767-2.99,3.53,3.53,0,0,0-3.986,1,4.976,4.976,0,0,0-1.178,3.352V170.1c0,1.223-.136,1.314-1.631,1.314-1.268,0-1.4-.091-1.4-1.359V153.428a14.284,14.284,0,0,0-.272-2.763,1.26,1.26,0,0,1,.679-1.585c.725-.272,1.495-.453,2.22-.679a11.047,11.047,0,0,1,.317,2.084C45.395,152.839,45.35,155.15,45.35,157.46Z" transform="translate(652.969 5451.779)"/>
    <path id="Path_1498" data-name="Path 1498" class="cls-1" d="M11.967,162.857v8.516c0,.861-.317,1.178-1.178,1.178-2.038,0-2.038.045-2.038-2.038V154.568c0-1.314-.045-1.4-1.314-1.359-1.54.045-3.035.181-4.575.317-.815.091-1.042-.091-.906-.951.272-1.721.815-2.174,2.537-2.174H16.361a2.213,2.213,0,0,1,2.491,2.446c0,.725-.453.68-.951.634-1.631-.136-3.216-.226-4.847-.362-.815-.045-1.087.272-1.042,1.042C12.012,157.15,11.967,160,11.967,162.857Z" transform="translate(674.892 5450.685)"/>
    <path id="Path_1499" data-name="Path 1499" class="cls-1" d="M284.505,164.2c1.314.317,2.627.589,3.941.951.362.091.861.634.815.906a5.631,5.631,0,0,1-.725,1.812c-.045.091-.589-.045-.861-.136a21.691,21.691,0,0,0-2.9-.951,3.991,3.991,0,0,0-2.038.272,1.792,1.792,0,0,0-1,1.223,1.657,1.657,0,0,0,.725,1.359,41.246,41.246,0,0,0,3.805,1.767c.453.181.861.362,1.314.589a4.05,4.05,0,0,1,2.31,4.485,3.681,3.681,0,0,1-2.854,3.443,10.7,10.7,0,0,1-8.924-1.087c-.951-.589-1.042-1.132-.408-2.038.544-.861.951-.906,1.9-.272a7.49,7.49,0,0,0,4.756,1.45c1.223-.091,1.993-.634,2.174-1.495s-.272-1.585-1.4-2.129c-1.4-.679-2.854-1.223-4.213-1.993-2.22-1.268-2.944-2.718-2.446-4.621a4.537,4.537,0,0,1,4.394-3.352c.544-.045,1.087,0,1.631,0C284.505,164.381,284.505,164.291,284.505,164.2Z" transform="translate(524.253 5443.136)"/>
    <path id="Path_1500" data-name="Path 1500" class="cls-1" d="M334.043,164.4c1.178.227,2.491.453,3.715.77.408.136,1,.634,1,.951a4.527,4.527,0,0,1-.589,1.767c-.045.136-.589.091-.861,0a25.654,25.654,0,0,0-2.627-.906,4.975,4.975,0,0,0-2.31.181,2,2,0,0,0-1.132,1.223,1.942,1.942,0,0,0,.77,1.45c1.042.634,2.22,1.087,3.352,1.631.679.317,1.314.634,1.993.951a3.788,3.788,0,0,1,2.129,3.76,3.87,3.87,0,0,1-2.763,3.941,10.744,10.744,0,0,1-9.105-1.042c-.362-.227-.815-.77-.725-1.087a3.818,3.818,0,0,1,.951-1.585c.136-.136.77.045,1.087.272a7.446,7.446,0,0,0,4.756,1.495,8.367,8.367,0,0,0,1.042-.181,1.636,1.636,0,0,0,1.359-1.45,1.611,1.611,0,0,0-.951-1.721c-1.132-.589-2.31-1.087-3.443-1.631a18.9,18.9,0,0,1-2.084-1.178,3.608,3.608,0,0,1-1.721-3.669,3.828,3.828,0,0,1,2.809-3.4A23.566,23.566,0,0,1,334.043,164.4Z" transform="translate(497.139 5443.027)"/>
    <path id="Path_1501" data-name="Path 1501" class="cls-1" d="M314.828,172.452c.815,1.178.453,2.627-.77,2.944a9.418,9.418,0,0,1-3.171.272,2.122,2.122,0,0,1-2.038-2.038,37.329,37.329,0,0,1-.136-3.9v-6.206c0-.634-.045-1.132-.906-1.132-.634,0-.725-.453-.362-.815a4.861,4.861,0,0,0,1.268-4.032,2.312,2.312,0,0,1,2.537-1.812.8.8,0,0,1,.408.634,25.741,25.741,0,0,1,.136,2.673c0,.679.272,1,.951.951a7.99,7.99,0,0,0,1.042,0c.861-.091,1.223.408,1.223,1.178s-.272,1.268-1.178,1.223c-2.174-.045-2.038-.272-2.038,2.084,0,2.31-.045,4.666.045,6.976,0,.544.227,1.4.589,1.54.5.181,1.223-.136,1.857-.272A1.03,1.03,0,0,0,314.828,172.452Z" transform="translate(507.883 5447.794)"/>
    <g id="Group_405" data-name="Group 405">
      <g id="Rectangle_50" data-name="Rectangle 50" class="cls-2" transform="translate(555 5455)">
        <rect class="cls-3" width="404.898" height="245.764"/>
        <rect class="cls-4" x="0.5" y="0.5" width="403.898" height="244.764"/>
      </g>
      <path id="Path_1486" data-name="Path 1486" class="cls-1" d="M116.322,75.447a13.272,13.272,0,0,1,8.562-3.307,8.735,8.735,0,0,1,7.973,4.349c.136-.272.181-.589.408-.77a11.819,11.819,0,0,1,12.05-3.126,7.452,7.452,0,0,1,5.572,7.293c.136,5.889.045,11.778.045,17.667A1.277,1.277,0,0,1,149.617,99a26.307,26.307,0,0,1-2.673.045c-1.178-.091-1.495-.453-1.495-1.631-.045-1.042,0-2.084,0-3.171,0-3.669.045-7.338-.045-10.962a10.194,10.194,0,0,0-.5-3.08,3.932,3.932,0,0,0-3.624-2.809c-4.439-.453-7.474,2.4-7.565,7.293-.091,4.077-.045,8.154-.045,12.231,0,1.767-.317,2.129-2.084,2.22h-1.45c-1.676-.091-2.084-.453-2.084-2.129V82.695c-.091-4.258-2.718-5.979-6.795-5.074-2.763.589-4.621,3.08-4.756,6.3-.181,4.3-.136,8.652-.181,13,0,1.948-.317,2.265-2.265,2.265-3.08.045-3.216-.091-3.216-3.171,0-5.753.045-11.461,0-17.214a32.444,32.444,0,0,0-.408-4.168c-.181-1.132.045-1.721,1.178-1.9a17.071,17.071,0,0,1,3.4-.136,1.362,1.362,0,0,1,1.359,1.54A10.685,10.685,0,0,0,116.322,75.447Z" transform="translate(615.564 5493.521)"/>
      <path id="Path_1488" data-name="Path 1488" class="cls-1" d="M241.22,75.359c.317-.227.544-.362.725-.5A11.87,11.87,0,0,1,252.363,72.5c3.85.861,6.07,3.669,6.161,7.927.091,5.617.045,11.28,0,16.9,0,1.268-.362,1.676-1.631,1.767a8.731,8.731,0,0,1-2.174,0c-1.45-.091-1.767-.5-1.767-1.9V83.15a10.963,10.963,0,0,0-.091-1.721c-.362-2.491-1.495-3.805-3.579-4.3a6.383,6.383,0,0,0-6.568,2.31,9.268,9.268,0,0,0-1.54,5.436c-.045,4.032,0,8.018,0,12.05,0,1.812-.362,2.174-2.174,2.22a10.929,10.929,0,0,1-1.721-.045c-1.314-.136-1.631-.5-1.676-1.812-.045-1.631,0-3.262,0-4.892,0-5.3,0-10.555-.045-15.855a11.047,11.047,0,0,0-.317-2.084c-.181-.861.136-1.54.951-1.676A21.423,21.423,0,0,1,240,72.6a1.224,1.224,0,0,1,1.178,1.45A6.484,6.484,0,0,0,241.22,75.359Z" transform="translate(547.29 5493.473)"/>
      <path id="Path_1489" data-name="Path 1489" class="cls-1" d="M65.335,95.959a11.966,11.966,0,0,1-7.293,3.262,10.654,10.654,0,0,1-5.572-.861c-3.262-1.54-4.394-4.394-4.439-7.746-.045-3.986,0-7.973-.045-11.959a19.427,19.427,0,0,0-.362-3.216,1.685,1.685,0,0,1,.861-2.084c1.178-.544,2.356-1.042,3.579-1.54.815-.317,1.314.045,1.4.861a11.107,11.107,0,0,1,.091,1.223V88.213a9.619,9.619,0,0,0,.136,1.993c.544,2.854,2.356,4.258,5.3,4.077a5.98,5.98,0,0,0,6.07-5.934c.317-3.941.091-7.927.136-11.914a1.447,1.447,0,0,0-.136-.634c-.408-1.631-.317-1.948,1.178-2.718a33.193,33.193,0,0,1,3.171-1.314c.815-.317,1.223.091,1.359.861.045.453.045.906.045,1.314,0,5.889-.045,11.778.045,17.667a41.989,41.989,0,0,0,.634,5.345c.136.951-.091,1.495-1.042,1.631a26,26,0,0,1-3.216.181,1.642,1.642,0,0,1-1.676-1.54C65.516,96.956,65.471,96.548,65.335,95.959Z" transform="translate(649.926 5493.755)"/>
      <path id="Path_1491" data-name="Path 1491" class="cls-1" d="M183.881,12.829a5.445,5.445,0,0,1,1.268.136,88.577,88.577,0,0,0,17.35,4.077c3.262.408,6.523.725,9.785.861,3.216.136,6.432.181,9.6,0,9.15-.544,18.074-2.084,26.319-6.387a20.416,20.416,0,0,0,8.244-7.067A38.924,38.924,0,0,0,258.217.779,2.982,2.982,0,0,1,258.852.1a2.141,2.141,0,0,1,.317,1,17.545,17.545,0,0,1-3.035,6.84c-3.4,5.074-8.2,8.244-13.816,10.328a53.975,53.975,0,0,1-15.13,2.944,90.353,90.353,0,0,1-26.772-2.718c-4.621-1.087-9.2-2.537-13.771-3.9a18.989,18.989,0,0,1-2.22-.906,6.915,6.915,0,0,1-.725-.5A.892.892,0,0,0,183.881,12.829Z" transform="translate(575.456 5532.9)"/>
      <path id="Path_1492" data-name="Path 1492" class="cls-1" d="M134.924,172.573c-1.178-.091-2.31-.181-3.443-.272-1.223-.136-1.585-.544-1.585-1.767V154.5a14.973,14.973,0,0,0-.272-2.446c-.181-1,0-1.4.951-1.585a20.648,20.648,0,0,1,10.374.453,8.747,8.747,0,0,1,5.662,5.934c1.4,4.485.906,8.7-2.22,12.367a9.782,9.782,0,0,1-6.3,3.126C137.053,172.437,135.966,172.482,134.924,172.573Zm8.879-11.461v-.951a6.966,6.966,0,0,0-5.164-6.885,17.968,17.968,0,0,0-4.122-.453c-1.132-.045-1.268.181-1.314,1.359v13.091c0,2.491-.453,2.446,2.491,2.446a7.7,7.7,0,0,0,6.206-2.627A8.626,8.626,0,0,0,143.8,161.112Z" transform="translate(605.07 5450.89)"/>
      <path id="Path_1493" data-name="Path 1493" class="cls-1" d="M216.929,85.794V97.254c-.091,1.54-.408,1.9-1.948,1.993a20.475,20.475,0,0,1-2.356-.091c-.861-.045-1.223-.589-1.223-1.4v-.861c0-5.708.045-11.415,0-17.078a22.833,22.833,0,0,0-.453-3.941,1.549,1.549,0,0,1,.77-1.857c1.223-.589,2.491-1.132,3.76-1.631a.921.921,0,0,1,1.359.861,9.9,9.9,0,0,1,.136,1.631C216.929,78.455,216.929,82.124,216.929,85.794Z" transform="translate(560.573 5493.412)"/>
      <path id="Path_1495" data-name="Path 1495" class="cls-1" d="M84.98,173.365H80.224c-.77,0-1,.317-.815,1.042a5.081,5.081,0,0,0,5.617,3.85,24.941,24.941,0,0,0,3.941-1.268c.272-.091.77-.272.861-.136a1.365,1.365,0,0,1,.227.951,2.517,2.517,0,0,1-1.9,2.446c-3.216,1.132-7.656.77-10.147-1.9a8.615,8.615,0,0,1-.544-10.283,7.762,7.762,0,0,1,9.377-2.537A7.423,7.423,0,0,1,90.96,172.5c-.045.725-.453.906-1.087.906-1.631-.045-3.262-.045-4.892-.045Zm-5.255-2.22c2.491,0,4.983,0,7.474-.045.136,0,.362-.453.362-.68-.227-1.857-1.993-3.08-4.168-2.99A3.815,3.815,0,0,0,79.725,171.145Z" transform="translate(634.358 5442.759)"/>
      <path id="Path_1496" data-name="Path 1496" class="cls-1" d="M182.089,173.282h-4.756c-.815,0-1.042.317-.861,1.087a5.082,5.082,0,0,0,5.662,3.805,23.741,23.741,0,0,0,3.85-1.223c.906-.317,1.042-.272,1.087.68a2.267,2.267,0,0,1-1.042,2.129c-4.485,2.99-11.551.226-12.729-4.938a7.953,7.953,0,0,1,6.025-9.921,7.26,7.26,0,0,1,8.7,7.248c-.045.861-.408,1.178-1.223,1.178-1.585-.045-3.171-.045-4.711-.045Zm-1.54-2.22h3.035c1,0,1.132-.226.815-1.178a3.74,3.74,0,0,0-4.122-2.537,4.076,4.076,0,0,0-3.624,3.035c-.091.544.181.679.634.679Z" transform="translate(581.28 5442.842)"/>
      <path id="Path_1497" data-name="Path 1497" class="cls-1" d="M214.232,166.329a24.074,24.074,0,0,1,3.805-1.4,5.307,5.307,0,0,1,5.028,1.314,4.134,4.134,0,0,1,1.223,3.035c.045,3.352,0,6.75.045,10.1,0,.725-.272,1.087-1.042,1.042H222.7c-1.314,0-1.4-.091-1.4-1.4,0-2.718.045-5.391,0-8.109-.091-2.99-2.491-4.394-5.119-2.99a3.722,3.722,0,0,0-1.948,3.216c-.136,2.129-.136,4.258-.181,6.387v1.359c0,1.54-.045,1.585-1.631,1.585-1.268,0-1.4-.136-1.4-1.45V167.824a7.317,7.317,0,0,0-.091-1.4c-.226-.861.181-1.223,1-1.359C213.281,164.789,213.552,164.97,214.232,166.329Z" transform="translate(560.598 5442.819)"/>
      <path id="Path_1502" data-name="Path 1502" class="cls-1" d="M244.3,162.006a5.575,5.575,0,0,0,1.857-5.028c-.045-.589,2.084-1.631,2.582-1.268.227.136.317.544.362.815.045.679.045,1.4.045,2.084,0,1.268.045,1.314,1.359,1.314h.589c.861-.045,1.359.227,1.314,1.178s-.272,1.223-1.359,1.223c-1.993,0-1.9-.136-1.9,1.948,0,2.4-.045,4.756.045,7.157a2.029,2.029,0,0,0,.634,1.54,2.376,2.376,0,0,0,1.721-.272c.815-.362,1-.362,1.042.544.091,1.495-.181,1.948-1.676,2.265a8.281,8.281,0,0,1-2.356.181,2.343,2.343,0,0,1-2.4-2.537c-.045-2.854,0-5.662,0-8.516C246.112,162.822,246.112,162.822,244.3,162.006Z" transform="translate(542.307 5447.821)"/>
    </g>
    <path id="Path_1503" data-name="Path 1503" class="cls-1" d="M269.5,172.713v6.478c0,1.132-.136,1.223-1.585,1.223-1.268,0-1.4-.091-1.4-1.223v-9.332a10.156,10.156,0,0,0-.272-2.627,1.44,1.44,0,0,1,.861-1.767c2.084-1.042,2.4-.861,2.4,1.45C269.5,168.818,269.5,170.765,269.5,172.713Z" transform="translate(530.334 5442.777)"/>
    <path id="Path_1504" data-name="Path 1504" class="cls-1" d="M267.51,153.315a1.878,1.878,0,0,1-1.812-1.948,1.819,1.819,0,0,1,1.857-1.767,1.857,1.857,0,0,1,1.857,1.812A2.01,2.01,0,0,1,267.51,153.315Z" transform="translate(530.604 5451.123)"/>
  </g>
</svg>
