<svg xmlns="http://www.w3.org/2000/svg" width="69.461" height="118.061" viewBox="0 0 69.461 118.061"><defs><style>.a{fill:none;stroke:#fff;stroke-linecap:round;stroke-linejoin:round;stroke-miterlimit:10;stroke-width:2px;}</style></defs><g transform="translate(-6.5 -6.5)"><path class="a" d="M56.877,92.788h0A24.606,24.606,0,0,1,32.27,68.18V32.107A24.606,24.606,0,0,1,56.877,7.5h0A24.606,24.606,0,0,1,81.485,32.107V68.18A24.606,24.606,0,0,1,56.877,92.788Z" transform="translate(-15.647)"/><path class="a" d="M74.961,172.4a33.73,33.73,0,0,1-33.73,33.73h0A33.73,33.73,0,0,1,7.5,172.4" transform="translate(0 -104.164)"/><line class="a" y2="21.594" transform="translate(41.23 101.966)"/><line class="a" x2="31.034" transform="translate(25.713 123.56)"/><line class="a" x2="13.996" transform="translate(16.623 36.159)"/><line class="a" x2="13.996" transform="translate(16.623 46.218)"/><line class="a" x2="13.996" transform="translate(16.623 56.276)"/><line class="a" x2="13.996" transform="translate(16.623 66.335)"/><line class="a" x2="13.996" transform="translate(51.842 36.159)"/><line class="a" x2="13.996" transform="translate(51.842 46.218)"/><line class="a" x2="13.996" transform="translate(51.842 56.276)"/><line class="a" x2="13.996" transform="translate(51.842 66.335)"/></g></svg>