<svg xmlns="http://www.w3.org/2000/svg" width="404.898" height="245.764" viewBox="0 0 404.898 245.764">
  <defs>
    <style>
      .cls-1, .cls-4 {
        fill: none;
      }

      .cls-1 {
        stroke: #fff;
        opacity: 0;
      }

      .cls-2 {
        fill: #fff;
      }

      .cls-3 {
        stroke: none;
      }
    </style>
  </defs>
  <g id="Group_398" data-name="Group 398" transform="translate(-960 -4965)">
    <g id="Rectangle_47" data-name="Rectangle 47" class="cls-1" transform="translate(960 4965)">
      <rect class="cls-3" width="404.898" height="245.764"/>
      <rect class="cls-4" x="0.5" y="0.5" width="403.898" height="244.764"/>
    </g>
    <g id="Group_348" data-name="Group 348" transform="translate(1035 5061)">
      <path id="Path_1449" data-name="Path 1449" class="cls-2" d="M0,.044C7.78.044,15.6.088,23.385,0c1.9,0,2.7.442,2.7,2.52-.133,7.117-.088,14.235-.044,21.352,0,1.591-.442,2.255-2.166,2.255C15.914,26.038,7.957,26.038,0,25.993Z"/>
      <path id="Path_1450" data-name="Path 1450" class="cls-2" d="M77.42,26.105c-3.581,0-7.117-.044-10.7,0-1.5.044-2.122-.486-2.122-2.078q.066-10.941,0-21.882C64.6.73,65.219.2,66.589.2Q77.53.266,88.472.2c1.37,0,1.989.53,1.989,1.945q-.066,10.941,0,21.882c0,1.547-.619,2.078-2.122,2.034C84.714,26.061,81.045,26.105,77.42,26.105Z" transform="translate(-36.042 -0.112)"/>
      <path id="Path_1451" data-name="Path 1451" class="cls-2" d="M64.54,77.708c0-3.492.044-6.94-.044-10.433-.044-1.68.4-2.476,2.255-2.476,7.117.088,14.235.044,21.352,0,1.591,0,2.3.53,2.255,2.21q-.066,10.809,0,21.617c0,1.547-.619,2.034-2.122,2.034q-10.809-.066-21.617,0c-1.724,0-2.166-.752-2.122-2.3C64.585,84.826,64.54,81.289,64.54,77.708Z" transform="translate(-35.983 -36.154)"/>
      <path id="Path_1452" data-name="Path 1452" class="cls-2" d="M177.471,49.05c.619-1.547,1.017-2.608,1.459-3.669,2.431-5.968,4.951-11.892,7.25-17.9.8-2.078,1.857-2.873,4.067-2.785,5.658.177,4.73-.354,4.774,4.774.044,8.488-.088,16.975.088,25.463.044,2.431-1.017,2.7-3.05,2.741-2.122.044-2.785-.707-2.741-2.785.133-6.277.044-12.555.044-18.832a4.685,4.685,0,0,0-.486-2.476l-6.5,15.914a61.365,61.365,0,0,1-2.564,6.1,4.573,4.573,0,0,1-2.476,1.945c-1.459.486-2.255-.53-2.785-1.857-2.873-7.073-5.791-14.146-8.665-21.175a2.715,2.715,0,0,0-.928-1.282c0,7.25-.044,14.5.044,21.75,0,1.9-.486,2.7-2.564,2.7-2.122,0-2.741-.707-2.741-2.785.088-9.151.088-18.346,0-27.5,0-1.945.575-2.7,2.564-2.652,6.675.133,5.084-.619,7.294,4.774C172.255,35.743,174.73,42.153,177.471,49.05Z" transform="translate(-89.102 -13.773)"/>
      <path id="Path_1453" data-name="Path 1453" class="cls-2" d="M26.088,78.731c0,3.4-.044,6.808,0,10.168,0,1.591-.619,2.3-2.255,2.3-6.808-.044-13.571-.044-20.379,0-1.636,0-2.255-.663-2.255-2.255.044-6.852.044-13.748,0-20.6C1.2,66.53,2.04,66,3.72,66c6.631.044,13.218.044,19.849,0,1.9,0,2.564.752,2.52,2.608C26.044,71.924,26.088,75.328,26.088,78.731Z" transform="translate(-0.67 -36.824)"/>
      <path id="Path_1454" data-name="Path 1454" class="cls-2" d="M525.84,24.05a6.808,6.808,0,0,0-2.7.088c-1.017.4-2.3,1.105-2.608,1.989-.486,1.37-.221,2.962-.177,4.465,0,.177.884.442,1.326.442a29.233,29.233,0,0,0,4.819-.044,2.369,2.369,0,0,0,1.591-1.636c.575-4.2.973-4.642,5.7-4.907a26.576,26.576,0,0,1-.044,3.758c-.265,2.255.663,3.139,2.873,2.829,1.768-.221,2.918.221,2.785,2.431-.088,1.547-.663,2.166-2.122,2.078-3.979-.177-3.448.354-3.492,3.758v5.835c0,4.774.707,5.393,5.216,4.907.884,4.023.133,4.951-3.8,4.951-4.288,0-6.719-2.21-6.94-6.719-.177-3.4-.133-6.764-.044-10.168.044-1.768-.442-2.652-2.387-2.608-6.985.133-5.658-.619-5.747,5.57-.088,3.713-.133,7.471,0,11.184.089,2.476-1.459,2.122-3.006,2.21-1.636.088-2.741-.177-2.7-2.3.133-4.642,0-9.328.044-14.014.044-1.68-.221-2.829-2.255-2.7-1.591.088-1.68-1.061-1.68-2.255,0-1.149.044-2.387,1.68-2.21,2.387.221,2.255-1.282,2.3-2.918.044-5.084,2.829-8.355,7.338-8.753C526.105,19.011,526.68,19.718,525.84,24.05Z" transform="translate(-284.825 -10.744)"/>
      <path id="Path_1455" data-name="Path 1455" class="cls-2" d="M354.5,56.889c.044-7.78,4.6-12.289,12.378-12.289,7.382,0,11.715,4.465,11.671,12.024-.044,7.692-4.863,12.6-12.245,12.555C358.965,69.179,354.5,64.449,354.5,56.889Zm18.257.088c0-5-2.122-7.648-6.189-7.648-3.934,0-6.322,2.873-6.322,7.6,0,4.642,2.564,7.648,6.41,7.6S372.757,61.664,372.757,56.978Z" transform="translate(-197.787 -24.884)"/>
      <path id="Path_1456" data-name="Path 1456" class="cls-2" d="M479.148,56.4c0,7.913-4.686,12.82-12.245,12.776-7.117-.044-11.8-4.819-11.8-12.113-.044-7.825,4.686-12.51,12.51-12.466C474.9,44.644,479.148,48.976,479.148,56.4Zm-18.125,1.37c.044,2.255.707,5.04,3.846,6.277a5.565,5.565,0,0,0,6.41-1.061c2.7-2.829,2.476-6.366,1.5-9.814a4.958,4.958,0,0,0-4.6-3.8C463.587,48.843,461.023,51.584,461.023,57.773Z" transform="translate(-253.915 -24.883)"/>
      <path id="Path_1457" data-name="Path 1457" class="cls-2" d="M414.54,63.263a52.347,52.347,0,0,0,6.985,1.37,3.243,3.243,0,0,0,2.608-1.68c.177-.752-.707-2.166-1.5-2.741A32.824,32.824,0,0,0,418.3,58.09a6.475,6.475,0,0,1-3.8-6.631,6.38,6.38,0,0,1,4.73-5.968,14.834,14.834,0,0,1,5.216-.619c4.332.133,4.819.884,4.023,5.437-1.547-.4-3.094-1.105-4.6-1.017a4.734,4.734,0,0,0-3.492,1.68c-.84,1.547.619,2.564,1.989,3.227s2.785,1.238,4.111,1.989a6.293,6.293,0,0,1,3.536,6.012,6.707,6.707,0,0,1-4.244,6.145,12.826,12.826,0,0,1-9.9.177C413.169,67.418,414.938,64.987,414.54,63.263Z" transform="translate(-231.17 -25.024)"/>
      <path id="Path_1458" data-name="Path 1458" class="cls-2" d="M290.55,50.527c-5.261-2.078-8.4-1.768-10.565,1.061-2.078,2.652-2.3,7.338-.221,10.035,3.095,4.067,6.94,2.829,10.7,1.105,1.37,3.979.707,5.172-3.139,5.968-5.482,1.105-10.477-.707-12.953-4.774-2.7-4.376-2.255-11.361.973-15.34,3.006-3.713,9.151-5.3,13.969-3.625C291.125,45.62,291.434,46.858,290.55,50.527Z" transform="translate(-152.095 -24.71)"/>
      <path id="Path_1459" data-name="Path 1459" class="cls-2" d="M328.34,45.37c.221.884.4,1.591.663,2.564,1.945-2.21,4.2-4.155,6.94-2.741.928.486.751,3.094,1.149,5.04-1.017-.088-1.37-.088-1.768-.133-3.8-.53-5.88.84-6.277,4.686-.4,3.625-.265,7.25-.309,10.919-.044,2.741-1.945,4.023-4.465,2.829a2.361,2.361,0,0,1-.928-1.812c-.088-6.454,0-12.864-.044-19.318,0-1.68.707-2.3,2.3-2.166C326.483,45.326,327.411,45.326,328.34,45.37Z" transform="translate(-180.38 -24.946)"/>
      <path id="Path_1460" data-name="Path 1460" class="cls-2" d="M256.925,57.639c0,3.227-.088,6.41.044,9.637.044,2.034-1.105,2.122-2.608,2.078-1.415-.044-3.006.265-2.962-1.989.044-6.5.044-13.041,0-19.539,0-2.343,1.636-1.857,3.006-1.945,1.5-.088,2.652.133,2.564,2.122C256.836,51.229,256.925,54.412,256.925,57.639Z" transform="translate(-140.263 -25.589)"/>
      <path id="Path_1461" data-name="Path 1461" class="cls-2" d="M254.106,23.388c1.768.354,3.05,1.326,2.918,3.4s-1.591,2.918-3.492,2.918a3.031,3.031,0,0,1-3.05-3.36A3.3,3.3,0,0,1,254.106,23.388Z" transform="translate(-139.743 -13.044)"/>
    </g>
  </g>
</svg>
