<svg id="Group_345" data-name="Group 345" xmlns="http://www.w3.org/2000/svg" width="326.568" height="120.732" viewBox="0 0 326.568 120.732">
  <defs>
    <style>
      .cls-1 {
        fill: #fff;
      }
    </style>
  </defs>
  <path id="Path_1359" data-name="Path 1359" class="cls-1" d="M430.162,106.381V70.346h9.249v49.908a38.966,38.966,0,0,0-5.132.056c-2.763.338-4.512-.733-6.316-2.763-10.32-11.279-20.753-22.388-31.129-33.554a7.74,7.74,0,0,1-.733-1.128c-.169.113-.282.169-.451.282v36.994H386.4V70.289c3.271,0,6.542-.056,9.756.056.451,0,.9.508,1.3.9q15.4,16.58,30.847,33.272C428.752,105.028,429.372,105.592,430.162,106.381Z" transform="translate(-168.503 -30.701)"/>
  <path id="Path_1360" data-name="Path 1360" class="cls-1" d="M29.895,68A38.942,38.942,0,0,1,44.67,70.651c8.459,3.5,13.14,9.925,14.55,18.835a28.5,28.5,0,0,1-.846,13.422,22.867,22.867,0,0,1-14.211,15.17,40.121,40.121,0,0,1-28.084.169C3.446,113.735-.727,102.118.119,92.08c.508-6.316,2.538-12.012,7.218-16.523,4.511-4.342,10.094-6.316,16.185-7.106C25.609,68.169,27.752,68.113,29.895,68Zm-.169,44.269c1.523-.113,3.1-.226,4.624-.395C43.486,110.8,48.9,105.333,49.915,96.2c1.015-8.967-3.609-16.3-11.786-18.723a29.334,29.334,0,0,0-15.452-.282c-6.485,1.692-11,5.527-12.407,12.294a26.1,26.1,0,0,0-.395,6.936c.564,6.824,3.891,11.673,10.433,14.1A25.811,25.811,0,0,0,29.726,112.269Z" transform="translate(-0.014 -29.709)"/>
  <path id="Path_1361" data-name="Path 1361" class="cls-1" d="M294.676,68a38.711,38.711,0,0,1,15.17,2.763c8.8,3.778,13.309,10.658,14.437,19.963a27.512,27.512,0,0,1-2.087,14.888,23.209,23.209,0,0,1-15.565,13.253,41.575,41.575,0,0,1-24.87-.282c-10.546-3.384-16.918-12.632-16.862-24.249.056-7.726,2.312-14.55,8.29-19.738,4.342-3.778,9.531-5.47,15.17-6.2C290.5,68.169,292.589,68.113,294.676,68Zm-.564,44.438c2.707-.338,4.85-.451,6.88-.9,6.542-1.353,11.392-4.85,13.083-11.561a25.524,25.524,0,0,0,.62-8.008c-.451-6.2-3.44-11-9.3-13.478a31.6,31.6,0,0,0-8.177-2.03,24.637,24.637,0,0,0-12.407,1.635c-7.782,3.158-10.715,9.982-10.094,17.933.564,7.331,4.173,12.519,11.279,14.775A64.671,64.671,0,0,0,294.112,112.438Z" transform="translate(-115.521 -29.709)"/>
  <path id="Path_1362" data-name="Path 1362" class="cls-1" d="M157.874,99.952c5.075,6.767,10.094,13.365,15.283,20.3h-6.429c-1.8,0-3.948.508-5.414-.226s-2.312-2.763-3.384-4.23c-5.3-7.275-10.658-14.55-15.959-21.881-.282-.395-.564-.79-.959-1.41,2.312,0,4.342.056,6.429,0a72.954,72.954,0,0,0,9.3-.564c4.793-.79,6.936-5.752,4.624-10.094a5.314,5.314,0,0,0-4-2.82,37.954,37.954,0,0,0-6.654-.62c-6.147-.113-12.294-.056-18.384-.056-.338,0-.733.056-1.241.113V120.2H121.5V70.345c.338,0,.733-.056,1.128-.056,10.094,0,20.133-.056,30.227.056a41.251,41.251,0,0,1,7.9.846c7.218,1.41,10.884,5.865,11.11,13.2.282,8.4-4.624,14.211-12.971,15.452C158.663,99.839,158.382,99.9,157.874,99.952Z" transform="translate(-52.989 -30.701)"/>
  <path id="Path_1363" data-name="Path 1363" class="cls-1" d="M481.083,77.19c-.113-1.579-.282-3.158-.338-4.737-.395-8.854-.789-17.651-1.184-26.505-.113-3.214-.226-6.429-.338-9.587A10.5,10.5,0,0,0,472,26.323c-4.793-1.8-9.869-2.2-15-2.369-2.763-.113-5.583,0-8.346,0,0-.226-.056-.395-.056-.62,2.143-.451,4.342-.9,6.485-1.3,7.049-1.184,14.1-2.369,21.091-3.553a22.231,22.231,0,0,0,2.763-.79,4.575,4.575,0,0,0,3.384-3.44c.9-3.835,1.8-7.67,2.763-11.448A16.428,16.428,0,0,1,486.271.1c.169.056.338.056.564.113.282,2.03.62,4,.9,6.034.338,2.425.564,4.793.846,7.218.226,1.974.959,2.82,2.989,2.82,2.651,0,5.3-.169,7.951-.395,6.824-.62,13.647-1.353,20.471-2.087a1.433,1.433,0,0,1,.9.226c-.789.282-1.523.564-2.312.846-5.527,1.974-11.166,3.835-16.636,6.034a17.59,17.59,0,0,0-5.245,3.44c-2.256,1.974-2.481,4.117-.564,6.429,2.763,3.44,5.7,6.711,8.572,9.982q8.713,9.982,17.482,19.963c-.056.113-.169.169-.226.282-.338-.282-.733-.508-1.072-.79-7.388-5.527-14.775-11.11-22.275-16.523a46.461,46.461,0,0,0-6.936-3.891c-2.707-1.241-3.722-.79-4.4,2.03q-1.353,5.5-2.2,11.166c-1.241,8.064-2.425,16.185-3.609,24.306A.608.608,0,0,0,481.083,77.19Z" transform="translate(-195.626 -0.1)"/>
  <path id="Path_1364" data-name="Path 1364" class="cls-1" d="M240.843,70.4v49.8H231.2V70.4Z" transform="translate(-100.826 -30.755)"/>
  <path id="Path_1365" data-name="Path 1365" class="cls-1" d="M295.613,191.158H284.222v5.132h13.534v3.045H280.5V180.5h16.975v2.989H284.166v4.624h11.392C295.613,189.128,295.613,190.031,295.613,191.158Z" transform="translate(-122.323 -78.766)"/>
  <path id="Path_1366" data-name="Path 1366" class="cls-1" d="M234.822,190.958v8.121a18.076,18.076,0,0,1-3.045-.056c-.282-.056-.62-.789-.62-1.241-.056-4.737-.056-9.418-.056-14.155v-.677c0-3.271.226-3.384,3.666-2.707v7.275h12.971V180.13h3.609v18.835h-3.553V190.9C243.507,190.958,239.277,190.958,234.822,190.958Z" transform="translate(-100.782 -78.509)"/>
  <path id="Path_1367" data-name="Path 1367" class="cls-1" d="M461.28,199.126v-8.064H448.253v5.245c0,3.271-.169,3.384-3.553,2.707V180.177a25.2,25.2,0,0,1,2.933.056c.282.056.564.733.62,1.128.056,2.03,0,4.117,0,6.26H461.28c0-1.974.056-3.891,0-5.752-.056-1.3.282-1.861,1.635-1.692.564.056,1.184,0,1.861,0v18.948Z" transform="translate(-193.925 -78.612)"/>
  <path id="Path_1368" data-name="Path 1368" class="cls-1" d="M341.227,199.175c-1.184,0-2.143.056-3.1,0-.338,0-.677-.338-.959-.564-.113-.056-.113-.226-.169-.395-.677-2.932-2.481-3.948-5.47-3.5a35.883,35.883,0,0,1-6.034.056c-.846,0-1.41.169-1.692,1.015a2.916,2.916,0,0,1-.338.733c-1.353,2.989-1.41,2.989-4.963,2.481.169-.395.282-.789.451-1.128,2.707-5.527,5.47-11.053,8.177-16.636.395-.9.959-1.071,1.861-1.184,2.256-.282,3.384.508,4.286,2.65,2.2,5.019,4.737,9.925,7.106,14.832A14.488,14.488,0,0,1,341.227,199.175Zm-7.275-7.5c-1.41-2.932-2.651-5.639-4.06-8.628-1.41,3.045-2.707,5.752-4.06,8.628Z" transform="translate(-138.894 -78.549)"/>
  <path id="Path_1369" data-name="Path 1369" class="cls-1" d="M397.6,183.3v-3.1h18.836c1.974,0,2.03,0,1.917,2.03a9.159,9.159,0,0,1-.113,1.015h-6.711c-1.8,0-1.8,0-1.8,1.8v14.1h-3.553c0-.451-.056-.959-.056-1.466,0-4.342-.056-8.685,0-13.027,0-1.128-.338-1.41-1.41-1.41C402.45,183.358,400.081,183.3,397.6,183.3Z" transform="translate(-173.386 -78.635)"/>
  <path id="Path_1370" data-name="Path 1370" class="cls-1" d="M385.969,196.177v3.1H368.6V180.5h3.609v15.677Z" transform="translate(-160.741 -78.766)"/>
</svg>
