<svg xmlns="http://www.w3.org/2000/svg" width="85.216" height="118.475" viewBox="0 0 85.216 118.475"><defs><style>.a{fill:none;stroke:#fff;stroke-linecap:round;stroke-linejoin:round;stroke-miterlimit:10;stroke-width:2px;}</style></defs><g transform="translate(-2.5 -2.086)"><path class="a" d="M86.3,119.56H3.5V3.5H71.709V18.012H86.3Z"/><line class="a" x2="14.593" y2="14.512" transform="translate(71.709 3.5)"/><path class="a" d="M136.925,95.55a22.543,22.543,0,1,1,.169-34.007" transform="translate(-60.749 -33.119)"/><path class="a" d="M29.076,143.667a13.171,13.171,0,1,1-.346,23.057" transform="translate(-15.937 -87.564)"/><path class="a" d="M93.136,70.4a7.341,7.341,0,1,1,8.416-10.309" transform="translate(-53.125 -33.125)"/><path class="a" d="M156.94,293.151a9.346,9.346,0,1,1,17.083-.324" transform="translate(-96.37 -174.559)"/><g transform="translate(12.793 12.557)"><path class="a" d="M92.578,33.545v71.641H28.73V28.09H86.836" transform="translate(-28.73 -28.09)"/><line class="a" x2="59.428" transform="translate(2.21 85.501)"/><line class="a" x2="35.266" transform="translate(2.21 92.031)"/></g></g></svg>