<svg xmlns="http://www.w3.org/2000/svg" width="404.898" height="245.764" viewBox="0 0 404.898 245.764">
  <defs>
    <style>
      .cls-1 {
        fill: #fff;
      }

      .cls-2, .cls-4 {
        fill: none;
      }

      .cls-2 {
        stroke: #fff;
        opacity: 0;
      }

      .cls-3 {
        stroke: none;
      }
    </style>
  </defs>
  <g id="Group_411" data-name="Group 411" transform="translate(-555 -5211)">
    <path id="Path_1464" data-name="Path 1464" class="cls-1" d="M472.965,47.96c.871,1.651,1.926,3.577,2.935,5.548a.981.981,0,0,1-.321.963c-4.4,2.66-9.079,3.806-14.123,2.43a10.03,10.03,0,0,1-6.6-5.64,21.733,21.733,0,0,1-.183-18.846c2.155-4.861,6.282-6.832,11.51-6.466,4.586.321,7.566,2.843,9.263,6.97A24.716,24.716,0,0,1,477,43.237c-.046,1.009-.5,1.238-1.376,1.238-4.356-.046-8.712,0-13.023,0-1.513,0-1.651.183-1.284,1.651a4.5,4.5,0,0,0,5.227,3.531C468.609,49.29,470.627,48.6,472.965,47.96Zm-7.933-9.675c1.055,0,2.063.046,3.118-.046a1.008,1.008,0,0,0,.78-.55c.367-1.742-1.559-4.127-3.347-4.265a3.83,3.83,0,0,0-4.4,3.989,1.135,1.135,0,0,0,.734.78A23.846,23.846,0,0,0,465.033,38.284Z" transform="translate(384.931 5297.974)"/>
    <path id="Path_1465" data-name="Path 1465" class="cls-1" d="M509.113,47.691c2.889.78,5.594,1.559,8.346,2.2a4.871,4.871,0,0,0,2.43-.138,1.851,1.851,0,0,0,1.1-1.238A2.056,2.056,0,0,0,520.21,47a11.156,11.156,0,0,0-2.155-.871c-2.018-.78-4.127-1.513-6.1-2.43a7.293,7.293,0,0,1-4.264-7.016,18.126,18.126,0,0,1,.367-4.173c.917-3.852,4.035-6.236,8.483-6.6a25.1,25.1,0,0,1,11.189,1.6c.825.321,1.192.642.917,1.6-.55,1.834-1.009,3.668-1.422,5.548-.229.963-.6,1.1-1.467.688a16.193,16.193,0,0,0-7.887-1.926c-.871.046-1.742.138-1.926,1.146s.458,1.559,1.284,1.88c1.559.6,3.118,1.1,4.677,1.651.642.229,1.33.5,1.972.78a9.907,9.907,0,0,1,2.568,16.049,9.573,9.573,0,0,1-5.5,2.339A26.289,26.289,0,0,1,508.2,55.487c-.871-.321-1.1-.734-.825-1.651C508.058,51.727,508.608,49.617,509.113,47.691Z" transform="translate(355.341 5298.013)"/>
    <path id="Path_1466" data-name="Path 1466" class="cls-1" d="M66.552,44.364c.413,0,.688-.046.963-.046,2.155-.046,2.568-.275,2.568-2.384.046-5.457.092-10.914-.092-16.37-.138-3.668-3.118-5.457-6.19-4.127a4.811,4.811,0,0,0-2.843,3.393,30.194,30.194,0,0,0-.963,6.1c-.138,3.439-.046,6.878-.046,10.317a8.836,8.836,0,0,0,.046,1.1c.229,1.788.459,1.972,2.293,1.972h1.33v1.651H51.1v-1.7h2.293a1.314,1.314,0,0,0,1.467-1.33c.046-.6.092-1.238.092-1.88V10.752c-.138-3.072-.138-3.118-3.164-3.347-1.284-.092-.734-.917-.78-1.6h8.8V22.537l.275.138c.321-.413.642-.871.963-1.284,2.843-3.668,9.079-4.219,12.152-1.009a7.105,7.105,0,0,1,1.88,4.861c.046,4.677,0,9.354.046,14.032,0,1.146.138,2.293.138,3.485.046,1.1.55,1.559,1.651,1.513.6-.046,1.238,0,1.926,0v1.742H66.552Z" transform="translate(602.421 5308.86)"/>
    <path id="Path_1467" data-name="Path 1467" class="cls-1" d="M21.052,8.027v9.584h-1.6c-.183-.917-.321-1.926-.6-2.843A7.6,7.6,0,0,0,6.929,10.825a6.369,6.369,0,0,0,.138,10.363,46.722,46.722,0,0,0,5.869,2.935c2.384,1.1,4.815,2.155,6.741,4.081,3.347,3.347,3.806,7.429,2.614,11.739-1.146,4.219-4.173,6.649-8.391,7.566a17.406,17.406,0,0,1-8.8-.6c-1.1-.321-2.247-.963-3.21.459-.183.275-1.009.092-1.651.138V36.733H1.793a49.635,49.635,0,0,0,1.742,4.815A8.271,8.271,0,0,0,14.587,45.4c4.631-2.155,5.5-9.125,1.422-12.152A46.791,46.791,0,0,0,9.5,29.717c-1.33-.688-2.705-1.284-3.989-1.972C.326,24.856-1.1,20.546.83,14.722,2.618,9.311,8.717,6.468,14.4,8.073c1.146.321,2.293.78,3.439,1.009.413.092,1.238-.092,1.376-.413C19.585,7.752,20.273,7.982,21.052,8.027Z" transform="translate(629.991 5307.871)"/>
    <path id="Path_1474" data-name="Path 1474" class="cls-1" d="M94.4,14.317c.321-4.631.229-5.136-1.238-5.824H95.5a16.3,16.3,0,0,0-.413,2.247c-.092,1.834-.046,3.623-.046,5.457,0,.046-.092.138-.321.459a11.2,11.2,0,0,1-1.055-1.009c-1.284-1.88-2.522-3.76-3.944-5.594.138,2.063-.688,4.173.459,6.19H88.438c.963-1.238.871-6.924-.138-7.7,1.559-.55,1.972-.413,2.843.871C92.152,10.97,93.206,12.529,94.4,14.317Z" transform="translate(582.186 5307.542)"/>
    <path id="Path_1475" data-name="Path 1475" class="cls-1" d="M109.373,16.425c0,1.834-.963,2.935-2.614,2.935a2.706,2.706,0,0,1-2.66-2.935,2.753,2.753,0,0,1,2.751-3.026C108.365,13.4,109.373,14.591,109.373,16.425Zm-3.9-.092a4.042,4.042,0,0,0,.183,1.513,1.675,1.675,0,0,0,1.055.963,1.3,1.3,0,0,0,1.1-.825,12.894,12.894,0,0,0,0-3.256,1.268,1.268,0,0,0-1.009-.78,1.607,1.607,0,0,0-1.1.871A5.766,5.766,0,0,0,105.476,16.333Z" transform="translate(573.631 5304.747)"/>
    <g id="Group_402" data-name="Group 402">
      <g id="Rectangle_45" data-name="Rectangle 45" class="cls-2" transform="translate(555 5211)">
        <rect class="cls-3" width="404.898" height="245.764"/>
        <rect class="cls-4" x="0.5" y="0.5" width="403.898" height="244.764"/>
      </g>
      <path id="Path_1462" data-name="Path 1462" class="cls-1" d="M370.963,28.2a6.3,6.3,0,0,0,.917-.6,9.33,9.33,0,0,1,12.152.825c.688.688,1.1.55,1.742,0a10.22,10.22,0,0,1,8.391-2.568,6.68,6.68,0,0,1,5.869,4.54,19.443,19.443,0,0,1,1.238,5.778c.138,6.42.046,12.839.092,19.259,0,1.055-.413,1.33-1.376,1.33-2.018-.046-4.081-.092-6.1,0-1.238.046-1.651-.275-1.651-1.559.092-5.227.046-10.455,0-15.637a12.271,12.271,0,0,0-.459-3.164,2.48,2.48,0,0,0-2.66-1.972,2.549,2.549,0,0,0-2.705,2.109A15.564,15.564,0,0,0,386,40.122c-.046,4.952,0,9.951,0,14.9,0,1.788,0,1.788-1.88,1.788-1.972,0-3.989-.046-5.961,0-1.009.046-1.284-.367-1.238-1.284q.069-8.254,0-16.508a8.5,8.5,0,0,0-.413-2.66,2.813,2.813,0,0,0-5.273-.092,8.137,8.137,0,0,0-.413,2.568q-.069,8.323,0,16.645c0,1.009-.229,1.422-1.33,1.376q-3.233-.138-6.466,0c-1.1.046-1.33-.413-1.33-1.376.046-9.217.046-18.388,0-27.6,0-1.192.413-1.513,1.513-1.467,1.788.092,3.577,0,5.365,0C370.5,26.365,370.5,26.365,370.963,28.2Z" transform="translate(434.154 5298.063)"/>
      <path id="Path_1463" data-name="Path 1463" class="cls-1" d="M274.322,29.966c0-4.631-.046-9.263,0-13.94,0-1.146-.275-1.6-1.513-1.559-2.476.092-4.952,0-7.474.046-.871,0-1.284-.229-1.238-1.192.046-2.476.046-4.952,0-7.474,0-.871.321-1.146,1.192-1.146h27.834c.871,0,1.146.275,1.146,1.146-.046,2.476-.046,4.952,0,7.474,0,.871-.275,1.192-1.146,1.146-2.522-.046-5.044.046-7.566-.046-1.146-.046-1.467.367-1.467,1.513.046,9.217,0,18.388,0,27.6,0,1.788,0,1.788-1.742,1.788-2.293,0-4.54-.046-6.832,0-.917,0-1.192-.321-1.192-1.238C274.367,39.412,274.322,34.689,274.322,29.966Z" transform="translate(487.004 5309.456)"/>
      <path id="Path_1468" data-name="Path 1468" class="cls-1" d="M335.2,42.136c0-4.586.046-9.171,0-13.757,0-.963.275-1.33,1.284-1.284,2.2.046,4.4.046,6.557,0,.917,0,1.238.275,1.238,1.192V56.351c0,.871-.275,1.192-1.146,1.146-2.2-.046-4.4-.046-6.557,0-1.009.046-1.376-.275-1.376-1.33C335.246,51.49,335.2,46.813,335.2,42.136Z" transform="translate(448.502 5297.332)"/>
      <path id="Path_1469" data-name="Path 1469" class="cls-1" d="M131.095,47.5c-.046,3.714-.688,7.245-2.981,10.272a10.3,10.3,0,0,1-16.737-.55,14.733,14.733,0,0,1-2.384-6.832,19.662,19.662,0,0,1,1.6-11.234,9.911,9.911,0,0,1,9.9-5.869c4.356.183,7.245,2.476,9.033,6.282A18.045,18.045,0,0,1,131.095,47.5Zm-5.319.138a.582.582,0,0,1-.275-.046,29.462,29.462,0,0,0-.046-3.485,43.736,43.736,0,0,0-1.009-5.961,3.922,3.922,0,0,0-3.072-3.072c-3.118-.78-5.411.6-6.236,3.852-1.1,4.31-.917,8.712-.642,13.069a23.2,23.2,0,0,0,.871,4.723,4.206,4.206,0,0,0,3.164,3.164c3.164.688,5.457-.6,6.145-3.806A84.826,84.826,0,0,0,125.775,47.639Z" transform="translate(571.078 5293.984)"/>
      <path id="Path_1470" data-name="Path 1470" class="cls-1" d="M218.9,47.545H202.991a82.346,82.346,0,0,0,1.146,8.575c.78,3.393,3.439,4.677,6.924,3.623,3.439-1.055,4.815-3.668,5.273-6.97a2.614,2.614,0,0,0,.046-.6,3.388,3.388,0,0,1,.092-.55h1.834c.825,4.677-3.21,9.675-8.162,10.042-5.182.413-9.171-1.972-11.051-6.787a19.556,19.556,0,0,1,.138-15.086c2.063-5,7.153-7.7,11.968-6.19a9.562,9.562,0,0,1,4.035,2.522C218.123,39.2,218.765,43.143,218.9,47.545Zm-5.64-1.742c-.092-3.072-.138-6.1-1.651-8.8a3.646,3.646,0,0,0-6.649-.046c-1.559,2.751-1.559,5.824-1.7,8.9C206.66,45.8,209.915,45.8,213.263,45.8Z" transform="translate(522.98 5294.032)"/>
      <path id="Path_1471" data-name="Path 1471" class="cls-1" d="M168.827,59.215v1.742H156.675c-1.467,0-1.513-.046-1.192-1.742H157.5a1.434,1.434,0,0,0,1.7-1.513c.046-.642.092-1.33.092-1.972,0-5.732-.046-11.51-.092-17.242a8.908,8.908,0,0,0-.092-1.1c-.138-1.055-.642-1.651-1.834-1.513a10.48,10.48,0,0,1-1.7,0c-.5-1.559-.413-1.7,1.1-1.742,2.384-.092,4.815-.229,7.291-.321V39.36c.367-.5.5-.78.642-.963a42.366,42.366,0,0,1,2.8-3.623,5.2,5.2,0,0,1,4.723-1.376,4.241,4.241,0,0,1,2.8,6.466,3.209,3.209,0,0,1-3.76,1.1c-1.33-.459-1.742-1.238-1.6-2.8.092-1.055-.229-1.33-1.284-1.1a3.191,3.191,0,0,0-2.568,2.43,27.869,27.869,0,0,0-1.192,5.411c-.229,3.9-.229,7.75-.275,11.647,0,.367.092.734.092,1.1a1.59,1.59,0,0,0,1.88,1.651A16.026,16.026,0,0,1,168.827,59.215Z" transform="translate(545.909 5293.964)"/>
      <path id="Path_1472" data-name="Path 1472" class="cls-1" d="M344.362,5.043c0,3.072-2.018,4.952-5.227,4.952-3.164,0-5.182-1.972-5.136-5.044A4.829,4.829,0,0,1,339.181,0C342.345.045,344.408,2.017,344.362,5.043Z" transform="translate(449.153 5312.001)"/>
      <path id="Path_1473" data-name="Path 1473" class="cls-1" d="M136.571,16.162h-2.2a10.021,10.021,0,0,0,.459-1.559,8.962,8.962,0,0,0-.046-2.476,1.235,1.235,0,0,0-.688-.871,1.485,1.485,0,0,0-1.146.413c-.642.734-.367,3.806.275,4.448-1.284.092-2.522.229-3.806.321-.963.092-1.376-.459-1.422-1.33-.046-1.009.046-1.972-.046-2.981a5.128,5.128,0,0,0-.55-1.33c.459-.5,1.009-1.146,1.7-1.926.046.55.092,1.055.138,1.651.367.046.734.138,1.467.275-.642.229-1.009.321-1.284.413V15.7c.138,0,.229.046.367.046.183-.367.367-.734.642-1.422.138.642.229,1.009.321,1.376.963-.734.734-7.016-.5-7.7h2.293v2.935c.459-.183.734-.321,1.055-.413a1.681,1.681,0,0,1,2.43,1.7c.046.825-.046,1.651.046,2.476A7.917,7.917,0,0,0,136.571,16.162Z" transform="translate(561.016 5307.669)"/>
      <path id="Path_1476" data-name="Path 1476" class="cls-1" d="M118.618,19.027h-2.843c1.009-.917.917-4.494-.275-5.594.917.092,1.651.183,2.339.275.688-.138,1.467-.917,2.293.092.183.183-.046.734-.138,1.1-.5-.092-1.009-.229-1.7-.367C117.38,15.4,117.38,18.339,118.618,19.027Z" transform="translate(567.459 5304.805)"/>
    </g>
  </g>
</svg>
