<svg xmlns="http://www.w3.org/2000/svg" width="404.898" height="245.764" viewBox="0 0 404.898 245.764">
  <defs>
    <style>
      .cls-1, .cls-4 {
        fill: none;
      }

      .cls-1 {
        stroke: #fff;
        opacity: 0;
      }

      .cls-2 {
        fill: #fff;
      }

      .cls-3 {
        stroke: none;
      }
    </style>
  </defs>
  <g id="Group_397" data-name="Group 397" transform="translate(-555 -4965)">
    <g id="Rectangle_45" data-name="Rectangle 45" class="cls-1" transform="translate(555 4965)">
      <rect class="cls-3" width="404.898" height="245.764"/>
      <rect class="cls-4" x="0.5" y="0.5" width="403.898" height="244.764"/>
    </g>
    <g id="Group_350" data-name="Group 350" transform="translate(630 5057)">
      <path id="Path_1477" data-name="Path 1477" class="cls-2" d="M43.8,2.649a28.857,28.857,0,0,0-11,1.967C23.728,8.059,17.291,14.183,14.743,23.7c-2.012,7.555-.8,14.573,4.962,20.206,4.828,4.739,10.729,6.258,17.211,4.157,6.393-2.012,10.237-6.616,11.355-13.187,1.3-7.555-1.743-14.8-10.818-18.015-.492-.179-1.028-.313-1.52-.492-1.386-.4-1.386-.4-1.252-1.922A12.959,12.959,0,0,1,43.8,3.32a2.144,2.144,0,0,1,1.878.179c9.611,5.275,15.378,13.232,16.764,24.184A31.342,31.342,0,1,1,24.891.727,30.666,30.666,0,0,1,43.219,2.381C43.4,2.471,43.577,2.56,43.8,2.649Z" transform="translate(0.016 -0.022)"/>
      <path id="Path_1478" data-name="Path 1478" class="cls-2" d="M289.95,37.351V28.5c1.833,0,3.532,0,5.23.045.179,0,.447.313.536.536a1.81,1.81,0,0,1,.045.715V60.15h-5.275c-.089-.492-.224-.983-.358-1.52-.134.045-.268.045-.313.134-3.04,3.085-8.941,2.459-11.98-1.475-3.4-4.426-3.576-12.025-.179-16.5,2.727-3.532,6.393-4.56,10.639-3.755A9.529,9.529,0,0,1,289.95,37.351Zm0,10.729V43.073c0-.313-.179-.8-.4-.894-2.19-.849-5.543-1.073-7.421,1.833a9.728,9.728,0,0,0,.045,9.566,4.6,4.6,0,0,0,7.063.894,2.541,2.541,0,0,0,.715-1.52C289.995,51.3,289.95,49.689,289.95,48.08Z" transform="translate(-152.168 -15.769)"/>
      <path id="Path_1479" data-name="Path 1479" class="cls-2" d="M543.845,60.259H529.093c-.089,3.487,2.5,5.722,6.214,5.543a11.141,11.141,0,0,0,6.035-1.967c.492,1.475.983,2.861,1.386,4.292.045.179-.268.626-.536.76a15.56,15.56,0,0,1-8.136,1.833c-6.348-.134-10.505-4.2-10.908-10.639a14.293,14.293,0,0,1,1.609-8.136c3.219-5.722,11.668-6.929,16-2.28,2.1,2.28,2.772,5.141,2.95,8.136A10.733,10.733,0,0,1,543.845,60.259Zm-6.035-4.2a4.261,4.261,0,0,0-4.2-4.56,4.541,4.541,0,0,0-4.381,4.56Z" transform="translate(-289.253 -25.892)"/>
      <path id="Path_1480" data-name="Path 1480" class="cls-2" d="M475.322,70.315H469.6V47.561h5.186c.134.536.223,1.028.358,1.7.268-.179.536-.313.76-.492a10.411,10.411,0,0,1,7.868-1.609c3.263.581,5.454,3,5.9,6.705a42,42,0,0,1,.224,5.32c.045,3.666,0,7.376,0,11.131h-5.811V57.44a10.405,10.405,0,0,0-.268-2.369,3.967,3.967,0,0,0-5.767-2.816,8.855,8.855,0,0,0-2.325,1.565,1.912,1.912,0,0,0-.4,1.252c-.045,4.694,0,9.388,0,14.081Z" transform="translate(-259.667 -25.979)"/>
      <path id="Path_1481" data-name="Path 1481" class="cls-2" d="M231.092,70.846c-6.482,0-10.818-4.023-11.578-9.879a14.035,14.035,0,0,1,.939-7.555,10.272,10.272,0,0,1,10.371-6.437,10.4,10.4,0,0,1,9.745,7.644,14.073,14.073,0,0,1-.581,10.1C238.066,68.745,234.8,70.8,231.092,70.846Zm4.694-12.025a25.272,25.272,0,0,0-1.162-4.2,4.376,4.376,0,0,0-4.247-2.816,4.525,4.525,0,0,0-4.336,2.727,9.443,9.443,0,0,0,.134,8.807,4.636,4.636,0,0,0,8.136.268A12.225,12.225,0,0,0,235.786,58.821Z" transform="translate(-121.294 -25.974)"/>
      <path id="Path_1482" data-name="Path 1482" class="cls-2" d="M423,70.8c-5.454,0-9.611-3.621-10.639-9.209a13.828,13.828,0,0,1,1.3-9.254c2.146-3.934,5.588-5.633,9.969-5.454a10.027,10.027,0,0,1,9.3,6.661,13.506,13.506,0,0,1-.268,11.086A10.059,10.059,0,0,1,423,70.8Zm5.5-11.891a27.157,27.157,0,0,0-1.162-4.291A4.43,4.43,0,0,0,423,51.757a4.49,4.49,0,0,0-4.336,2.861,9.566,9.566,0,0,0,.134,8.538,4.414,4.414,0,0,0,4.068,2.637,4.294,4.294,0,0,0,4.247-2.459A33.636,33.636,0,0,0,428.5,58.909Z" transform="translate(-227.866 -25.928)"/>
      <path id="Path_1483" data-name="Path 1483" class="cls-2" d="M347.918,70.229h-5.141c-.089-.492-.179-.939-.268-1.3a26.716,26.716,0,0,1-3.889,1.654,7.491,7.491,0,0,1-9.209-5.23,6.566,6.566,0,0,1,3-7.465c2.325-1.475,4.962-1.878,7.644-2.19.671-.089,1.341-.134,1.967-.179a2.981,2.981,0,0,0-2.816-3.889,8.469,8.469,0,0,0-5.186,1.252,14.449,14.449,0,0,0-1.252.8c-.626-1.341-1.252-2.593-1.967-4.157,1.386-.626,2.727-1.386,4.157-1.878a12.941,12.941,0,0,1,7.018-.492,6.978,6.978,0,0,1,5.9,6.705C348.1,59.277,347.918,64.686,347.918,70.229Zm-5.677-10.863a54.065,54.065,0,0,0-5.409,1.207,2.981,2.981,0,0,0-1.922,3.129,2.576,2.576,0,0,0,2.369,2.235,5.613,5.613,0,0,0,4.56-1.3,1.023,1.023,0,0,0,.358-.76C342.241,62.451,342.241,61.11,342.241,59.367Z" transform="translate(-182.017 -25.938)"/>
      <path id="Path_1484" data-name="Path 1484" class="cls-2" d="M387.362,41.279v18.1H381.6V41.323h-3V36.63h2.861c.089-1.118.089-2.1.224-3.085.581-3.979,2.682-6.08,6.705-6.258a28.836,28.836,0,0,1,5.141.626c.536.089.715.4.626.939-.223,1.341-.4,2.637-.581,4.023-1.878-.447-3.71-1.162-5.409.268-.76.626-.939,1.788-.671,3.442h4.828c0,1.475.045,2.861-.045,4.247,0,.179-.536.4-.8.4C390.133,41.279,388.837,41.279,387.362,41.279Z" transform="translate(-209.347 -15.092)"/>
      <path id="Path_1485" data-name="Path 1485" class="cls-2" d="M170.68,48.145c.983,2.548,2.012,5.051,3,7.555.983,2.459,1.967,4.962,3,7.644a9.839,9.839,0,0,0,.492-1.207c1.654-4.381,3.353-8.717,5.007-13.1a1.137,1.137,0,0,1,1.252-.939c1.609.089,3.219,0,4.917,0-.134.358-.223.671-.358.983-2.861,7.018-5.677,13.992-8.494,21.01a1.171,1.171,0,0,1-1.386.894c-1.118-.089-2.28,0-3.4-.045a.981.981,0,0,1-.8-.492l-9.254-21.994a.663.663,0,0,1-.045-.313Z" transform="translate(-91.011 -26.607)"/>
    </g>
  </g>
</svg>
