<svg xmlns="http://www.w3.org/2000/svg" width="539.876" height="327.692" viewBox="0 0 539.876 327.692"><defs><style>.a,.d{fill:none;}.a{stroke:#fff;opacity:0;}.b{fill:#fff;}.c{stroke:none;}</style></defs><g transform="translate(-150 -4488)"><g class="a" transform="translate(150 4488)"><rect class="c" width="539.876" height="327.692"/><rect class="d" x="0.5" y="0.5" width="538.876" height="326.692"/></g><g transform="translate(268.669 4592.002)"><path class="b" d="M101.877,39.1C96.765,52.952,85.662,59.328,67.138,66.2A30.963,30.963,0,0,0,46.8,92.308C56.364,82.854,73.459,80.38,79.56,77.8,106.494,66.419,101.877,39.1,101.877,39.1Z" transform="translate(-21.075 -17.608)"/><ellipse class="b" cx="7.915" cy="7.915" rx="7.915" ry="7.915" transform="translate(43.149 22.591)"/><path class="b" d="M67.09,133.932c20.668-8.3,22.1-29.132,22.1-29.132-1.814,2.419-2.144,8.355-25.065,15.061-28.253,8.3-26.054,26.384-26.054,26.384C49.006,136.351,60.714,136.516,67.09,133.932Z" transform="translate(-17.125 -47.195)"/><path class="b" d="M428.059,183.7a1.755,1.755,0,0,0-.769.165,2.152,2.152,0,0,0-.55.44,1.5,1.5,0,0,0-.33.66,4.24,4.24,0,0,0-.11.825h3.518a2.452,2.452,0,0,0-.385-1.539A1.857,1.857,0,0,0,428.059,183.7Z" transform="translate(-191.976 -82.726)"/><path class="b" d="M438.859,101.6a9.167,9.167,0,0,0-1.759.11v5.167a11.123,11.123,0,0,0,2.364.275c1.814,0,3.848-.715,3.848-2.638C443.256,102.2,440.948,101.6,438.859,101.6Z" transform="translate(-196.84 -45.754)"/><path class="b" d="M203.2,181.768a4.847,4.847,0,0,0,.55-.33,2.583,2.583,0,0,0,.33-.495,2.338,2.338,0,0,0,.11-.6,2.759,2.759,0,0,0-.11-.66.989.989,0,0,0-.33-.495,1.721,1.721,0,0,0-.55-.275,3.948,3.948,0,0,0-.934-.11H201v3.133h1.374A1.836,1.836,0,0,0,203.2,181.768Z" transform="translate(-90.517 -80.519)"/><path class="b" d="M204.2,188.24a1.439,1.439,0,0,0-.715-.33,5.67,5.67,0,0,0-1.1-.11H200.9v3.463h1.759a3.824,3.824,0,0,0,.879-.11,1.311,1.311,0,0,0,.6-.33,1.257,1.257,0,0,0,.385-.55,1.521,1.521,0,0,0,.165-.715,1.755,1.755,0,0,0-.165-.77A.837.837,0,0,0,204.2,188.24Z" transform="translate(-90.472 -84.572)"/><path class="b" d="M358.283,184.924a2.11,2.11,0,0,0-.6-.6,1.882,1.882,0,0,0-.989-.22,1.807,1.807,0,0,0-.934.22,1.617,1.617,0,0,0-.66.55,4.26,4.26,0,0,0-.385.879,4.12,4.12,0,0,0-.11,1.209,7.472,7.472,0,0,0,.11,1.154,2.119,2.119,0,0,0,.934,1.484,1.884,1.884,0,0,0,.99.22,1.685,1.685,0,0,0,.934-.22,1.617,1.617,0,0,0,.66-.55,3.259,3.259,0,0,0,.385-.879,7.581,7.581,0,0,0,.11-1.209,7.487,7.487,0,0,0-.11-1.154A2.1,2.1,0,0,0,358.283,184.924Z" transform="translate(-159.687 -82.906)"/><path class="b" d="M442.772,93.693c0-1.979-2.089-2.693-3.958-2.693a6.827,6.827,0,0,0-1.814.22v4.837a13.713,13.713,0,0,0,2.309.11C442.387,96.167,442.772,94.408,442.772,93.693Z" transform="translate(-196.795 -40.98)"/><path class="b" d="M202.089,91.1a8.7,8.7,0,0,0-2.089.275v10.719a10.032,10.032,0,0,0,2.2.275,5.288,5.288,0,0,0,5.552-5.607C207.7,93.574,205.772,91.1,202.089,91.1Z" transform="translate(-90.066 -41.025)"/><path class="b" d="M369.718,103.7c-1.429.495-3.518,1.209-3.518,2.638a1.488,1.488,0,0,0,1.484,1.539,4.069,4.069,0,0,0,2.034-.934Z" transform="translate(-164.911 -46.699)"/><path class="b" d="M320.359,183.7a1.756,1.756,0,0,0-.77.165,2.152,2.152,0,0,0-.55.44,1.5,1.5,0,0,0-.33.66,4.245,4.245,0,0,0-.11.825h3.518a2.452,2.452,0,0,0-.385-1.539A1.857,1.857,0,0,0,320.359,183.7Z" transform="translate(-143.475 -82.726)"/><path class="b" d="M290.154,190.465a1.835,1.835,0,0,0-.66.275,2.539,2.539,0,0,0-.385.385,1.627,1.627,0,0,0-.11.55,1.119,1.119,0,0,0,.33.825,1.27,1.27,0,0,0,.934.275,1.852,1.852,0,0,0,.934-.275,3.52,3.52,0,0,0,.825-.77V190.3h-.879A9.044,9.044,0,0,0,290.154,190.465Z" transform="translate(-130.146 -85.698)"/><path class="b" d="M253.993,55.905c1.759,0,3.683-1.154,5.772-3.408a14.036,14.036,0,0,0,3.683-9.289,3.623,3.623,0,0,0-.77-2.583,2.692,2.692,0,0,0-2.089-.824,5.5,5.5,0,0,0-3.188,1.264,15.27,15.27,0,0,0-4.232,5.332,13.8,13.8,0,0,0-1.869,6.431,3.074,3.074,0,0,0,.825,2.254A2.547,2.547,0,0,0,253.993,55.905Z" transform="translate(-113.168 -17.923)"/><path class="b" d="M221.259,183.7a1.756,1.756,0,0,0-.77.165,2.152,2.152,0,0,0-.55.44,1.5,1.5,0,0,0-.33.66,4.238,4.238,0,0,0-.11.825h3.518a2.452,2.452,0,0,0-.385-1.539A1.857,1.857,0,0,0,221.259,183.7Z" transform="translate(-98.848 -82.726)"/><path class="b" d="M346.644,44.367a5.22,5.22,0,0,0,1.374-3.133,2.03,2.03,0,0,0-.6-1.484,2.22,2.22,0,0,0-1.649-.55c-1.484,0-3.078.77-4.782,2.364a13.445,13.445,0,0,0-3.683,6.926,17.272,17.272,0,0,0,5.277-1.264A11.336,11.336,0,0,0,346.644,44.367Z" transform="translate(-151.897 -17.653)"/><path class="b" d="M511.129,97.8c-.77,0-2.529.6-2.529,3.628,0,2.309,1.264,3.848,2.913,3.848a2.6,2.6,0,0,0,1.814-.879v-4.177A2.317,2.317,0,0,0,511.129,97.8Z" transform="translate(-229.038 -44.042)"/><path class="b" d="M0,0V120.378H302.978V0ZM256.311,34.849,260.1,22.372h-3.3l.22-.879a11.849,11.849,0,0,0,4.013-1.924,18.411,18.411,0,0,0,3.738-4.452h.934l-1.759,5.826h2.913l-.33,1.374h-2.968l-3.9,12.7a10.99,10.99,0,0,0-.715,2.8.929.929,0,0,0,.165.55.5.5,0,0,0,.385.165,2.137,2.137,0,0,0,1.264-.715,19.39,19.39,0,0,0,2.034-2.638l.715.55a12.9,12.9,0,0,1-3.573,3.958,4.285,4.285,0,0,1-2.309.77,2.03,2.03,0,0,1-1.484-.6,1.99,1.99,0,0,1-.55-1.484A13.376,13.376,0,0,1,256.311,34.849Zm3.463,22.7a4.612,4.612,0,0,1-4.672,4.727,4.4,4.4,0,0,1-4.452-4.452,4.559,4.559,0,0,1,4.562-4.617A4.371,4.371,0,0,1,259.774,57.55ZM234.929,28.583a17.948,17.948,0,0,1,5.662-5.991,9.07,9.07,0,0,1,5.057-1.759,4,4,0,0,1,2.364.66,4.046,4.046,0,0,1,1.429,2.089l.66-2.2,3.353-.55-4.177,14.621-.495,1.979a1.606,1.606,0,0,0-.11.495.929.929,0,0,0,.165.55.332.332,0,0,0,.33.165.769.769,0,0,0,.495-.33,10.638,10.638,0,0,0,1.594-2.528l.715.495a11.725,11.725,0,0,1-2.583,3.243,3.978,3.978,0,0,1-2.474,1.044,1.711,1.711,0,0,1-1.209-.44,2.006,2.006,0,0,1-.44-1.319,10.047,10.047,0,0,1,.495-2.748l.495-1.649a22.336,22.336,0,0,1-5.717,5.167,7.373,7.373,0,0,1-3.683,1.044,4.074,4.074,0,0,1-2.968-1.264,4.92,4.92,0,0,1-1.264-3.518A14.587,14.587,0,0,1,234.929,28.583ZM225.8,54.362a3.325,3.325,0,0,0-2.364,1.209v4.837c0,1.1.495,1.264,1.484,1.264V62h-4.617v-.33c.989,0,1.484-.165,1.484-1.264V51.284c0-1.319-.44-1.319-.715-1.319a1.693,1.693,0,0,0-.715.165l-.165-.33,2.858-1.044h.44v6.266c1.209-1.209,2.034-1.814,3.188-1.814,1.7,0,2.364,1.429,2.364,2.858v4.287c0,1.1.495,1.264,1.484,1.264v.33h-4.617v-.33c.989,0,1.484-.165,1.484-1.264V56.4C227.343,54.527,226.464,54.362,225.8,54.362Zm-42.27-26.769a14.737,14.737,0,0,1,5-5.222,11.335,11.335,0,0,1,6.156-1.869,5.363,5.363,0,0,1,3.408.934,2.866,2.866,0,0,1,1.1,2.2,5.191,5.191,0,0,1-1.429,3.408,13.239,13.239,0,0,1-5.607,3.463,31.219,31.219,0,0,1-6.871,1.374,12.248,12.248,0,0,0-.165,1.814,4.282,4.282,0,0,0,1.374,3.243,4.741,4.741,0,0,0,3.353,1.374,7.129,7.129,0,0,0,3.023-.66,26.5,26.5,0,0,0,4.342-2.8l.44.6c-3.408,3.353-6.651,5.057-9.729,5.057a5.686,5.686,0,0,1-4.727-1.979,6.947,6.947,0,0,1-1.594-4.342A12.287,12.287,0,0,1,183.535,27.593Zm11.488,33.145a2.875,2.875,0,0,0,2.858-2.034l.33.165a4.008,4.008,0,0,1-3.848,3.353,4.121,4.121,0,0,1-4.123-4.4c0-2.474,1.374-4.672,4.4-4.672a3.377,3.377,0,0,1,3.628,3.518h-6.541C191.615,58.595,192.714,60.738,195.023,60.738Zm-24.57-25.889,3.793-12.477h-3.3l.22-.879a11.849,11.849,0,0,0,4.013-1.924,18.41,18.41,0,0,0,3.738-4.452h.934l-1.759,5.826h2.913l-.33,1.374h-2.968l-3.9,12.7a10.991,10.991,0,0,0-.715,2.8.929.929,0,0,0,.165.55.5.5,0,0,0,.385.165,2.137,2.137,0,0,0,1.264-.715,19.392,19.392,0,0,0,2.034-2.638l.715.55a12.9,12.9,0,0,1-3.573,3.958,4.285,4.285,0,0,1-2.309.77,2.03,2.03,0,0,1-1.484-.6,1.99,1.99,0,0,1-.55-1.484A13.375,13.375,0,0,1,170.452,34.849ZM165.4,13.137a2.089,2.089,0,0,1,3.573,1.484,2.226,2.226,0,0,1-.6,1.484,1.838,1.838,0,0,1-1.484.6,2.226,2.226,0,0,1-1.484-.6,1.838,1.838,0,0,1-.6-1.484A2.226,2.226,0,0,1,165.4,13.137ZM158.47,36l2.968-9.729a19.415,19.415,0,0,0,.715-2.968,1,1,0,0,0-.33-.77,1.293,1.293,0,0,0-.934-.33,13.6,13.6,0,0,0-1.979.22V21.6l7.476-1.209-4.562,15.281a8.234,8.234,0,0,0-.44,1.869.928.928,0,0,0,.165.55.5.5,0,0,0,.44.22,1.182,1.182,0,0,0,.715-.33,12.05,12.05,0,0,0,2.254-2.748l.77.495a14.252,14.252,0,0,1-3.3,3.683,4.494,4.494,0,0,1-2.693,1.1,1.916,1.916,0,0,1-1.374-.495,1.63,1.63,0,0,1-.55-1.319A25.353,25.353,0,0,1,158.47,36ZM106.8,11.488h10.664l-.11.77c-1.429,0-2.364.22-2.8.77s-.55,1.814-.385,3.848l1.264,15.336,7.7-16.655c-.055-.275-.055-.495-.11-.715a3.023,3.023,0,0,0-1.044-1.814,6.088,6.088,0,0,0-3.133-.77v-.77h11.433l-.11.77a6.861,6.861,0,0,0-2.638.33,1.408,1.408,0,0,0-.715.77,4.517,4.517,0,0,0-.22,1.759c0,.22.11,1.869.385,4.837.275,3.023.55,7.146.934,12.423l6.486-13.8a20.018,20.018,0,0,0,1.264-3.133,3.834,3.834,0,0,0,.11-1.539,1.806,1.806,0,0,0-.715-1.044,4.1,4.1,0,0,0-1.814-.6v-.77h8.41l-.055.77a3.935,3.935,0,0,0-1.869.55,6.509,6.509,0,0,0-1.7,1.759,33.7,33.7,0,0,0-2.034,4.013L125.874,40.566h-.77l-1.814-21.987L113.177,40.566h-.715l-1.979-23.691c-.055-.934-.165-1.594-.22-2.089a3.009,3.009,0,0,0-1.044-1.869,4.227,4.227,0,0,0-2.638-.66Zm15.446,42.929a1.693,1.693,0,0,0-.715.165l-.165-.33,2.858-1.044h.44v7.2c0,1.1.495,1.264,1.484,1.264V62h-4.617v-.33c.989,0,1.484-.165,1.484-1.264V55.736C122.961,54.417,122.521,54.417,122.246,54.417Zm.55-4.727a1.051,1.051,0,1,1,1.044.934A.957.957,0,0,1,122.8,49.69Zm-33.64,58.87H12.642V9.894H89.211V108.56Zm27.483-2.474a3.055,3.055,0,0,1-.495.934,3.212,3.212,0,0,1-.77.715,4.155,4.155,0,0,1-.989.495,6.429,6.429,0,0,1-1.1.275,9.12,9.12,0,0,1-1.319.11h-3.243a.672.672,0,0,1-.495-.165.685.685,0,0,1-.22-.6V97.236a.685.685,0,0,1,.22-.6.887.887,0,0,1,.495-.165H111.8a8.706,8.706,0,0,1,1.869.165,4.758,4.758,0,0,1,1.319.55,2.942,2.942,0,0,1,.825.989,3.394,3.394,0,0,1,.275,1.374,4.243,4.243,0,0,1-.11.824,1.7,1.7,0,0,1-.33.715,2.606,2.606,0,0,1-.55.55,2.961,2.961,0,0,1-.715.385,2.706,2.706,0,0,1,.934.33,4.15,4.15,0,0,1,.77.6,2.787,2.787,0,0,1,.495.879,3.544,3.544,0,0,1,.165,1.1A2.088,2.088,0,0,1,116.64,106.086ZM112.462,62h-6.486v-.33c1.979,0,1.979-.495,1.979-2.089V51.779c0-1.594,0-2.089-1.979-2.089v-.33h5.387c1.924,0,4.232.055,5.826,1.044a5.941,5.941,0,0,1,2.8,5.222C119.993,59.089,117.519,62,112.462,62Zm13.962,41.775a.876.876,0,0,1-.22.66.637.637,0,0,1-.55.22h-5.112a6.057,6.057,0,0,0,.11.989,3.358,3.358,0,0,0,.385.77,1.222,1.222,0,0,0,.715.44,2.975,2.975,0,0,0,1.044.165,6.182,6.182,0,0,0,1.1-.11,2.977,2.977,0,0,0,.825-.22,2.823,2.823,0,0,0,.55-.22,1.4,1.4,0,0,1,.385-.11.2.2,0,0,1,.165.055c.055,0,.055.055.11.11,0,.055.055.11.055.22v.715a.5.5,0,0,1-.055.275c0,.055-.055.11-.055.165a.118.118,0,0,1-.11.11.9.9,0,0,1-.33.165,5.706,5.706,0,0,1-.715.22q-.412.082-.989.165a8.117,8.117,0,0,1-1.154.055,7.167,7.167,0,0,1-1.979-.275,3.48,3.48,0,0,1-1.429-.879,3.376,3.376,0,0,1-.825-1.429,7.662,7.662,0,0,1,0-4.068,5.838,5.838,0,0,1,.825-1.539,3.4,3.4,0,0,1,1.374-.934,4.644,4.644,0,0,1,1.814-.33,4.457,4.457,0,0,1,1.814.33,3.277,3.277,0,0,1,1.209.879,3.838,3.838,0,0,1,.715,1.319,5.208,5.208,0,0,1,.22,1.649v.44Zm1.319-47.986a2.669,2.669,0,0,1,2.913-2.583,4.675,4.675,0,0,1,1.209.22,4.878,4.878,0,0,0,.77.165.425.425,0,0,0,.44-.385h.385v2.913h-.385c-.33-1.264-.879-2.364-2.528-2.364-.77,0-1.594.385-1.594,1.154,0,2.089,5.222,1.814,5.222,4.782,0,1.539-1.649,2.583-3.243,2.583A8.119,8.119,0,0,1,129.007,62a1.626,1.626,0,0,0-.55-.11.413.413,0,0,0-.385.275h-.385V59.089h.385a3.019,3.019,0,0,0,2.913,2.638c.879,0,1.649-.44,1.649-1.319C132.69,58.155,127.743,58.485,127.743,55.791Zm6.266,51.339a2.514,2.514,0,0,1-.77.934,3.743,3.743,0,0,1-1.154.55,5.992,5.992,0,0,1-1.429.165,4.442,4.442,0,0,1-.879-.055c-.275-.055-.55-.11-.77-.165a2.822,2.822,0,0,1-.55-.22.845.845,0,0,1-.33-.22.9.9,0,0,1-.165-.33,1.88,1.88,0,0,1-.055-.6v-.44a2.381,2.381,0,0,1,.055-.275.118.118,0,0,1,.11-.11c.055,0,.11-.055.165-.055a2.162,2.162,0,0,1,.33.11c.11.055.275.165.495.275s.44.165.715.275a4.272,4.272,0,0,0,.879.11,1.7,1.7,0,0,0,.55-.055,3.788,3.788,0,0,0,.44-.165.563.563,0,0,0,.275-.33,1.036,1.036,0,0,0,.11-.44.886.886,0,0,0-.165-.495,1.322,1.322,0,0,0-.44-.33,1.834,1.834,0,0,0-.66-.275c-.22-.11-.495-.165-.715-.275a5.025,5.025,0,0,1-.77-.385l-.66-.495a3.116,3.116,0,0,1-.44-.715,2.663,2.663,0,0,1-.165-.989,2.461,2.461,0,0,1,.22-1.1,3.353,3.353,0,0,1,.66-.879,2.949,2.949,0,0,1,1.1-.55,5.57,5.57,0,0,1,1.429-.22,3.628,3.628,0,0,1,.77.055,5.7,5.7,0,0,1,.66.165,2.557,2.557,0,0,1,.495.165.587.587,0,0,1,.275.165c.055.055.11.11.11.165s.055.11.055.165a.33.33,0,0,0,.055.22v.825a.5.5,0,0,1-.055.275.118.118,0,0,1-.11.11c-.055,0-.055.055-.11.055a.929.929,0,0,1-.275-.11,3.243,3.243,0,0,1-.44-.22c-.165-.055-.385-.165-.6-.22a3.327,3.327,0,0,0-.825-.11,1.694,1.694,0,0,0-.55.055,2.68,2.68,0,0,0-.385.165.549.549,0,0,0-.22.275.7.7,0,0,0-.055.33.767.767,0,0,0,.165.495,1.118,1.118,0,0,0,.495.33,3.363,3.363,0,0,0,.66.275c.275.11.495.165.77.275a5.023,5.023,0,0,1,.77.385,3.426,3.426,0,0,1,.66.495,3.306,3.306,0,0,1,.495.715,2.663,2.663,0,0,1,.165.989A6.875,6.875,0,0,1,134.009,107.131Zm2.8-78.548a17.948,17.948,0,0,1,5.662-5.991,9.07,9.07,0,0,1,5.057-1.759,4,4,0,0,1,2.364.66,4.045,4.045,0,0,1,1.429,2.089l.66-2.2,3.353-.55L151.159,35.4l-.495,1.979a1.605,1.605,0,0,0-.11.495.929.929,0,0,0,.165.55.332.332,0,0,0,.33.165.77.77,0,0,0,.495-.33,10.638,10.638,0,0,0,1.594-2.528l.715.495a11.724,11.724,0,0,1-2.583,3.243,3.978,3.978,0,0,1-2.473,1.044,1.711,1.711,0,0,1-1.209-.44,2.006,2.006,0,0,1-.44-1.319A10.047,10.047,0,0,1,147.641,36l.495-1.649a22.336,22.336,0,0,1-5.717,5.167,7.373,7.373,0,0,1-3.683,1.044,4.074,4.074,0,0,1-2.968-1.264,4.92,4.92,0,0,1-1.264-3.518A14.569,14.569,0,0,1,136.813,28.583Zm12.423,25.834a1.692,1.692,0,0,0-.715.165l-.165-.33,2.858-1.044h.44v7.2c0,1.1.495,1.264,1.484,1.264V62h-4.617v-.33c.989,0,1.484-.165,1.484-1.264V55.736C150,54.417,149.565,54.417,149.235,54.417Zm.55-4.727a.99.99,0,0,1,1.044-.934,1.027,1.027,0,0,1,1.044.934,1.051,1.051,0,0,1-2.089,0Zm-14.731,4.452v-.385a5.255,5.255,0,0,0,2.858-3.133h.33v2.8h2.2v.66h-2.2v5.222c0,.77,0,1.649.989,1.649a1.358,1.358,0,0,0,1.1-.77h.44A2.746,2.746,0,0,1,138.352,62a1.806,1.806,0,0,1-1.814-2.034V54.142Zm3.793,52.274a.856.856,0,0,0,.77.33.7.7,0,0,0,.33-.055c.11,0,.165-.055.275-.055a.33.33,0,0,1,.22-.055c.055,0,.11-.055.165-.055s.055,0,.11.055c.055,0,.055.055.055.11a2.38,2.38,0,0,1,.055.275v.44a2.265,2.265,0,0,1-.055.66c-.055.165-.055.275-.11.33a1.2,1.2,0,0,1-.275.165.794.794,0,0,1-.385.11,1.522,1.522,0,0,1-.495.055c-.165,0-.33.055-.495.055a3.778,3.778,0,0,1-1.209-.165,2.152,2.152,0,0,1-.879-.55,2.533,2.533,0,0,1-.495-.934,4.81,4.81,0,0,1-.165-1.319v-4.287h-1.044a.281.281,0,0,1-.275-.22,2.154,2.154,0,0,1-.11-.715v-.44a2.38,2.38,0,0,1,.055-.275c.055-.055.055-.11.11-.165a.2.2,0,0,1,.165-.055h.989V97.786a.2.2,0,0,1,.055-.165c.055-.055.11-.11.165-.11a.815.815,0,0,1,.385-.055h1.154c.165,0,.275.055.385.055.11.055.165.055.165.11a.2.2,0,0,1,.055.165v1.869h1.814a.2.2,0,0,1,.165.055c.055.055.11.11.11.165a.412.412,0,0,1,.055.275v.44a1.91,1.91,0,0,1-.11.715.28.28,0,0,1-.275.22h-1.814v3.958A5.361,5.361,0,0,0,138.846,106.416ZM145.937,62H140.99v-.33c.989,0,1.484-.165,1.484-1.264V55.736c0-1.319-.44-1.319-.715-1.319a1.693,1.693,0,0,0-.715.165l-.165-.33,2.858-1.044h.44v1.814h.055c.44-.66,1.264-1.814,2.364-1.814.66,0,1.319.44,1.319,1.044a.916.916,0,0,1-.934.879c-.66,0-1.044-.6-1.484-.6-.495,0-1.154,1.044-1.374,1.429v3.573c0,1.539,0,2.144,1.759,2.144V62Zm9.454,45.128a.412.412,0,0,1-.055.275c0,.055-.055.165-.055.22-.055.055-.055.11-.165.22a3.746,3.746,0,0,1-.385.275c-.22.11-.44.22-.715.33s-.6.165-.989.275a8.232,8.232,0,0,1-1.209.11,5.882,5.882,0,0,1-2.254-.385,4.679,4.679,0,0,1-1.7-1.154,5.053,5.053,0,0,1-1.1-1.924,7.961,7.961,0,0,1-.385-2.693,8.474,8.474,0,0,1,.44-2.748,5.628,5.628,0,0,1,1.154-2.034,5.743,5.743,0,0,1,1.759-1.264,6.169,6.169,0,0,1,2.309-.44,6.055,6.055,0,0,1,.989.11,4.118,4.118,0,0,1,.879.22c.275.11.495.22.715.33a1,1,0,0,1,.44.33c.11.11.165.165.165.22.055.055.055.11.055.22s.055.165.055.33v.934c0,.11-.055.22-.055.33-.055.055-.055.165-.11.165a.2.2,0,0,1-.165.055.475.475,0,0,1-.33-.165c-.165-.11-.33-.22-.55-.385a5.9,5.9,0,0,0-.825-.385,3.655,3.655,0,0,0-1.154-.165,3.321,3.321,0,0,0-1.319.275,3.095,3.095,0,0,0-1.594,2.144,5.7,5.7,0,0,0-.22,1.759,6.462,6.462,0,0,0,.22,1.869,3.388,3.388,0,0,0,.6,1.264,2.686,2.686,0,0,0,.989.77,3.321,3.321,0,0,0,1.319.275,3.654,3.654,0,0,0,1.154-.165,6.4,6.4,0,0,0,.825-.33,2.4,2.4,0,0,0,.55-.33.85.85,0,0,1,.33-.165.2.2,0,0,1,.165.055c.055,0,.055.055.11.165a1.944,1.944,0,0,1,.055.33v.55C155.392,106.856,155.392,107.021,155.392,107.131ZM154.4,57.715a4.422,4.422,0,0,1,4.507-4.507c1.264,0,3.188.77,3.188,2.089,0,.495-.385.77-.934.77-.879,0-1.1-.385-1.209-1.1-.055-.77-.55-1.1-1.374-1.1-1.814,0-2.528,1.649-2.528,3.078,0,1.649.934,3.9,3.078,3.9a3.031,3.031,0,0,0,2.913-2.2l.275.11a4.228,4.228,0,0,1-3.958,3.518C156.051,62.278,154.4,60.354,154.4,57.715Zm9.784,50.515a.286.286,0,0,1-.11.22.42.42,0,0,1-.275.11c-.11,0-.33.055-.6.055a1.709,1.709,0,0,1-.6-.055.42.42,0,0,1-.275-.11c-.055-.055-.055-.11-.055-.22v-.66a3.586,3.586,0,0,1-1.154.879,3.272,3.272,0,0,1-1.484.33,4.022,4.022,0,0,1-1.209-.165,2.79,2.79,0,0,1-.989-.495,2.434,2.434,0,0,1-.66-.824,2.646,2.646,0,0,1-.22-1.209,2.866,2.866,0,0,1,.275-1.264,1.945,1.945,0,0,1,.879-.879,4.339,4.339,0,0,1,1.429-.495,10.243,10.243,0,0,1,1.979-.165h.825v-.495a2.9,2.9,0,0,0-.055-.715,1.03,1.03,0,0,0-.77-.77,2.865,2.865,0,0,0-.77-.11,5.537,5.537,0,0,0-1.044.11,7.185,7.185,0,0,0-.825.275,5.355,5.355,0,0,1-.6.275.593.593,0,0,1-.385.11.2.2,0,0,1-.165-.055c-.055-.055-.11-.11-.11-.165a.412.412,0,0,1-.055-.275c0-.11-.055-.275-.055-.385a.945.945,0,0,1,.055-.44l.165-.33a1.521,1.521,0,0,1,.44-.275c.22-.11.495-.22.77-.33a4.41,4.41,0,0,1,.989-.22,6.768,6.768,0,0,1,1.1-.11,7.785,7.785,0,0,1,1.7.165,2.909,2.909,0,0,1,1.154.6,2.837,2.837,0,0,1,.66,1.044,4.212,4.212,0,0,1,.22,1.484v5.552Zm.55-48.151V54.142h-1.484v-.385a5.255,5.255,0,0,0,2.858-3.133h.33v2.8h2.2v.66h-2.2v5.222c0,.77,0,1.649.989,1.649a1.358,1.358,0,0,0,1.1-.77h.44A2.746,2.746,0,0,1,166.55,62C165.835,62.113,164.736,61.728,164.736,60.079Zm7.146,41.115a1.944,1.944,0,0,1-.055.33c0,.055-.055.165-.11.165a.275.275,0,0,1-.33,0c-.055,0-.11-.055-.22-.055a2.382,2.382,0,0,0-.275-.055c-.11,0-.22-.055-.33-.055a.935.935,0,0,0-.385.055.842.842,0,0,0-.385.275,3.316,3.316,0,0,0-.44.44,4.01,4.01,0,0,0-.495.715v5.222a.2.2,0,0,1-.055.165.286.286,0,0,1-.22.11.815.815,0,0,1-.385.055h-1.1c-.165,0-.275-.055-.385-.055-.11-.055-.165-.055-.22-.11a.2.2,0,0,1-.055-.165V99.875a.2.2,0,0,1,.055-.165c.055-.055.11-.11.165-.11.055-.055.165-.055.33-.055h.989c.11,0,.22.055.33.055.055.055.11.055.165.11a.2.2,0,0,1,.055.165v1.044c.22-.33.44-.55.6-.77a4.009,4.009,0,0,1,.55-.495,1.72,1.72,0,0,1,.55-.275,1.694,1.694,0,0,1,.55-.055h.275a.5.5,0,0,1,.275.055c.11,0,.165.055.275.055.055.055.11.055.165.11s.055.055.055.11.055.11.055.165a.6.6,0,0,0,.055.275v.55A1.7,1.7,0,0,1,171.882,101.194Zm9.015,2.583a1.172,1.172,0,0,1-.165.66.637.637,0,0,1-.55.22H175.07a6.051,6.051,0,0,0,.11.989,3.355,3.355,0,0,0,.385.77,1.222,1.222,0,0,0,.715.44,2.975,2.975,0,0,0,1.044.165,6.181,6.181,0,0,0,1.1-.11,2.976,2.976,0,0,0,.825-.22,2.824,2.824,0,0,0,.55-.22,1.4,1.4,0,0,1,.385-.11.2.2,0,0,1,.165.055c.055,0,.055.055.11.11,0,.055.055.11.055.22v.715a.5.5,0,0,1-.055.275c0,.055-.055.11-.055.165a.118.118,0,0,1-.11.11.9.9,0,0,1-.33.165,5.7,5.7,0,0,1-.715.22q-.412.082-.989.165a8.116,8.116,0,0,1-1.154.055,7.167,7.167,0,0,1-1.979-.275,3.481,3.481,0,0,1-1.429-.879,3.376,3.376,0,0,1-.825-1.429,7.662,7.662,0,0,1,0-4.068,5.839,5.839,0,0,1,.825-1.539,3.4,3.4,0,0,1,1.374-.934,4.644,4.644,0,0,1,1.814-.33,4.457,4.457,0,0,1,1.814.33,3.277,3.277,0,0,1,1.209.879,3.838,3.838,0,0,1,.715,1.319,5.209,5.209,0,0,1,.22,1.649v.44ZM178.588,55.9v3.683c0,1.594,0,2.089,1.979,2.089V62H174.63v-.33c1.979,0,1.979-.495,1.979-2.089V51.779c0-1.594,0-2.089-1.979-2.089v-.33h5.936v.33c-1.979,0-1.979.495-1.979,2.089v3.408h6.486V51.779c0-1.594,0-2.089-1.979-2.089v-.33h5.991v.33c-1.979,0-1.979.495-1.979,2.089v7.805c0,1.594,0,2.089,1.979,2.089V62H183.15v-.33c1.979,0,1.979-.495,1.979-2.089V55.9Zm13.632,41.17a2.381,2.381,0,0,1-.055.275.118.118,0,0,1-.11.11c-.055,0-.055.055-.11.055a.2.2,0,0,1-.165-.055c-.055,0-.11-.055-.22-.055a2.379,2.379,0,0,0-.275-.055c-.11,0-.22-.055-.385-.055a1.071,1.071,0,0,0-.44.055,1.458,1.458,0,0,0-.33.275,1.05,1.05,0,0,0-.165.44,2.464,2.464,0,0,0-.055.66v.77h1.539a.2.2,0,0,1,.165.055c.055.055.11.11.11.165a.412.412,0,0,1,.055.275v.44a1.91,1.91,0,0,1-.11.715.28.28,0,0,1-.275.22h-1.539v6.761a.2.2,0,0,1-.055.165c-.055.055-.11.11-.165.11a.815.815,0,0,1-.385.055h-1.1c-.165,0-.275-.055-.385-.055-.11-.055-.165-.055-.165-.11a.2.2,0,0,1-.055-.165v-6.761H186.5a.281.281,0,0,1-.275-.22,2.154,2.154,0,0,1-.11-.715v-.44a2.381,2.381,0,0,1,.055-.275c.055-.055.055-.11.11-.165a.2.2,0,0,1,.165-.055h1.044v-.715a6.13,6.13,0,0,1,.165-1.484,2.122,2.122,0,0,1,.55-1.044,2.388,2.388,0,0,1,.934-.66,3.326,3.326,0,0,1,1.319-.22,3.133,3.133,0,0,1,.715.055,2.789,2.789,0,0,0,.495.11.928.928,0,0,0,.275.11c.055.055.055.11.11.165a.412.412,0,0,1,.055.275v.44C192.274,96.852,192.274,96.962,192.219,97.072Zm8.96,8.85a3.891,3.891,0,0,1-.879,1.539,3.719,3.719,0,0,1-1.429.989,5.633,5.633,0,0,1-2.034.33,5.027,5.027,0,0,1-1.924-.33,3.936,3.936,0,0,1-1.374-.879,3.375,3.375,0,0,1-.825-1.429,6.872,6.872,0,0,1-.275-1.979,7.48,7.48,0,0,1,.275-1.979,3.891,3.891,0,0,1,.879-1.539,3.719,3.719,0,0,1,1.429-.989,5.633,5.633,0,0,1,2.034-.33,5.325,5.325,0,0,1,1.979.33,3.935,3.935,0,0,1,1.374.879,4.067,4.067,0,0,1,.825,1.429,6.873,6.873,0,0,1,.275,1.979A7.451,7.451,0,0,1,201.179,105.921Zm-1.594-45.9c0-2.144,3.518-2.913,5.222-3.573,0-1.429-.11-2.693-1.759-2.693-.715,0-1.429.385-1.429,1.1,0,.934-.22,1.374-.879,1.374a.85.85,0,0,1-.879-.934c0-.495.6-2.144,3.463-2.144,3.133,0,3.133,1.759,3.133,2.309v4.123c0,.879,0,1.484.55,1.484.33,0,.825-.495,1.1-.77v.55a3.47,3.47,0,0,1-2.2,1.374c-.934,0-1.154-.66-1.154-1.374-.934.6-1.7,1.374-2.968,1.374A2.049,2.049,0,0,1,199.585,60.024Zm9.124,41.17a1.945,1.945,0,0,1-.055.33c0,.055-.055.165-.11.165a.275.275,0,0,1-.33,0c-.055,0-.11-.055-.22-.055a2.382,2.382,0,0,0-.275-.055c-.11,0-.22-.055-.33-.055a.935.935,0,0,0-.385.055.841.841,0,0,0-.385.275,3.316,3.316,0,0,0-.44.44,4.013,4.013,0,0,0-.495.715v5.222a.2.2,0,0,1-.055.165c-.055.055-.11.11-.165.11a.815.815,0,0,1-.385.055h-1.1c-.165,0-.275-.055-.385-.055-.11-.055-.165-.055-.165-.11a.2.2,0,0,1-.055-.165V99.875a.2.2,0,0,1,.055-.165c.055-.055.11-.11.165-.11.055-.055.165-.055.33-.055h.989c.11,0,.22.055.33.055.055.055.11.055.165.11a.2.2,0,0,1,.055.165v1.044c.22-.33.44-.55.6-.77a4.009,4.009,0,0,1,.55-.495,1.719,1.719,0,0,1,.55-.275,1.694,1.694,0,0,1,.55-.055h.275a.5.5,0,0,1,.275.055c.11,0,.165.055.275.055.055.055.11.055.165.11s.055.055.055.11.055.11.055.165a.6.6,0,0,0,.055.275v.55A.787.787,0,0,0,208.709,101.194ZM213.6,62h-4.617v-.33c.989,0,1.484-.165,1.484-1.264V51.284c0-1.319-.44-1.319-.715-1.319a1.693,1.693,0,0,0-.715.165l-.165-.33,2.858-1.044h.44v11.6c0,1.1.495,1.264,1.484,1.264V62Zm-2.8-21.987,3.9-13.027a12.716,12.716,0,0,0,.66-2.8,1.4,1.4,0,0,0-.22-.879.883.883,0,0,0-.6-.275,2.973,2.973,0,0,0-1.539.495,15.319,15.319,0,0,0-3.408,3.573,27.962,27.962,0,0,0-3.243,5.277q-.577,1.154-2.638,7.585h-3.188L204.532,26l.495-1.814a2,2,0,0,0,.165-.6,1.239,1.239,0,0,0-.44-.879,1.5,1.5,0,0,0-1.1-.385c-.165,0-.715.11-1.539.275l-.165-.77,7.421-1.319-2.8,9.729a42.254,42.254,0,0,1,3.243-5.167,16.631,16.631,0,0,1,4.068-3.9,4.963,4.963,0,0,1,2.474-.715,2.362,2.362,0,0,1,1.814.715,2.444,2.444,0,0,1,.715,1.814,8.887,8.887,0,0,1-.55,2.748l-1.649,5.442c2.474-4.4,4.837-7.476,7.036-9.234a5.855,5.855,0,0,1,3.628-1.484,2.317,2.317,0,0,1,1.7.715,3.406,3.406,0,0,1,.66,2.309,9.455,9.455,0,0,1-.44,2.638l-2.693,8.3a20.451,20.451,0,0,0-.88,3.023.672.672,0,0,0,.165.495.332.332,0,0,0,.33.165,1.4,1.4,0,0,0,.66-.385,9.417,9.417,0,0,0,2.034-2.474l.715.44a14.419,14.419,0,0,1-1.814,2.309,9.355,9.355,0,0,1-2.254,1.979,3.7,3.7,0,0,1-1.7.495,1.616,1.616,0,0,1-1.209-.495,1.741,1.741,0,0,1-.495-1.264,16.066,16.066,0,0,1,1.044-4.177l2.254-6.926q.742-2.391.824-2.638a3.892,3.892,0,0,0,.055-.77,1.138,1.138,0,0,0-.275-.825.7.7,0,0,0-.6-.275,3.5,3.5,0,0,0-2.089.934,28.668,28.668,0,0,0-5.991,7.64,46.262,46.262,0,0,0-3.463,8.355Zm3.518,13.742a5.255,5.255,0,0,0,2.858-3.133h.33v2.8h2.2v.66h-2.2v5.222c0,.77,0,1.649.989,1.649a1.358,1.358,0,0,0,1.1-.77h.44A2.746,2.746,0,0,1,217.614,62a1.806,1.806,0,0,1-1.814-2.034V54.142h-1.484Zm7.53,54.252a2.38,2.38,0,0,1-.055.275c-.055.055-.055.11-.11.165a.2.2,0,0,1-.165.055h-6.1a.672.672,0,0,1-.495-.165.685.685,0,0,1-.22-.6V97.127a.685.685,0,0,1,.22-.6.887.887,0,0,1,.495-.165h6.046a.2.2,0,0,1,.165.055c.055.055.055.11.11.165a.412.412,0,0,1,.055.275v.879a2.381,2.381,0,0,1-.055.275c-.055.055-.055.11-.11.165a.2.2,0,0,1-.165.055h-4.342v2.968H220.8a.2.2,0,0,1,.165.055c.055.055.11.11.11.165a.412.412,0,0,1,.055.275v.879a2.38,2.38,0,0,1-.055.275c-.055.055-.055.11-.11.165a.2.2,0,0,1-.165.055h-3.683v3.408h4.4a.2.2,0,0,1,.165.055c.055.055.11.11.11.165a.412.412,0,0,1,.055.275v.44A2.063,2.063,0,0,1,221.847,108.01Zm9.289-8.08v.165a.2.2,0,0,1-.055.165c0,.055-.055.165-.055.22l-2.528,7.585c-.055.11-.055.22-.11.275a1.2,1.2,0,0,1-.275.165,1.22,1.22,0,0,1-.495.055h-1.649c-.22,0-.385-.055-.495-.055a1.2,1.2,0,0,1-.275-.165.42.42,0,0,1-.11-.275l-2.528-7.585c-.055-.11-.055-.22-.11-.33,0-.11-.055-.165-.055-.22v-.11a.2.2,0,0,1,.055-.165c.055-.055.11-.11.165-.11A.815.815,0,0,1,223,99.49h1.209c.165,0,.275.055.385.055.11.055.165.055.165.11.055.055.055.11.11.22l1.924,6.156.055.22.055-.22,1.869-6.156a.417.417,0,0,1,.11-.22.286.286,0,0,1,.22-.11.7.7,0,0,1,.33-.055h1.154a1.944,1.944,0,0,1,.33.055c.055.055.165.055.165.11a.2.2,0,0,1,.055.165Zm8.96,3.848a1.173,1.173,0,0,1-.165.66.637.637,0,0,1-.55.22h-5.112a6.054,6.054,0,0,0,.11.989,3.356,3.356,0,0,0,.385.77,1.222,1.222,0,0,0,.715.44,2.975,2.975,0,0,0,1.044.165,6.181,6.181,0,0,0,1.1-.11,2.977,2.977,0,0,0,.825-.22,2.823,2.823,0,0,0,.55-.22,1.4,1.4,0,0,1,.385-.11.2.2,0,0,1,.165.055c.055,0,.055.055.11.11,0,.055.055.11.055.22v.715a.5.5,0,0,1-.055.275c0,.055-.055.11-.055.165a.118.118,0,0,1-.11.11.9.9,0,0,1-.33.165,5.7,5.7,0,0,1-.715.22q-.412.082-.989.165a8.116,8.116,0,0,1-1.154.055,7.167,7.167,0,0,1-1.979-.275,3.481,3.481,0,0,1-1.429-.879,3.376,3.376,0,0,1-.824-1.429,7.662,7.662,0,0,1,0-4.068,5.839,5.839,0,0,1,.824-1.539,3.4,3.4,0,0,1,1.374-.934,4.644,4.644,0,0,1,1.814-.33,4.457,4.457,0,0,1,1.814.33,3.277,3.277,0,0,1,1.209.879,3.839,3.839,0,0,1,.715,1.319,5.209,5.209,0,0,1,.22,1.649v.44Zm7.311-2.583a1.945,1.945,0,0,1-.055.33c0,.055-.055.165-.11.165a.275.275,0,0,1-.33,0c-.055,0-.11-.055-.22-.055a2.381,2.381,0,0,0-.275-.055c-.11,0-.22-.055-.33-.055a.935.935,0,0,0-.385.055.842.842,0,0,0-.385.275,3.318,3.318,0,0,0-.44.44,4.012,4.012,0,0,0-.495.715v5.222a.2.2,0,0,1-.055.165c-.055.055-.11.11-.165.11a.815.815,0,0,1-.385.055h-1.1c-.165,0-.275-.055-.385-.055-.11-.055-.165-.055-.165-.11a.2.2,0,0,1-.055-.165V99.875a.2.2,0,0,1,.055-.165c.055-.055.11-.11.165-.11.055-.055.165-.055.33-.055h.989c.11,0,.22.055.33.055.055.055.11.055.165.11a.2.2,0,0,1,.055.165v1.044c.22-.33.44-.55.6-.77a4.009,4.009,0,0,1,.55-.495,1.72,1.72,0,0,1,.55-.275,1.694,1.694,0,0,1,.55-.055h.275a.5.5,0,0,1,.275.055c.11,0,.165.055.275.055.055.055.11.055.165.11s.055.055.055.11.055.11.055.165a.6.6,0,0,0,.055.275v.55A.787.787,0,0,0,247.406,101.194ZM243.394,62h-7.146v-.33c1.979,0,1.979-.495,1.979-2.089V51.779c0-1.594,0-2.089-1.979-2.089v-.33h6.486c3.958,0,5.442,1.649,5.442,3.408a2.97,2.97,0,0,1-2.474,2.748v.055a3.215,3.215,0,0,1,3.133,2.913C248.835,59.639,248.121,62,243.394,62Zm13.192,38.312-2.8,8.19-.989,2.968a.57.57,0,0,1-.44.33,5.217,5.217,0,0,1-1.1.11,1.88,1.88,0,0,1-.6-.055.465.465,0,0,1-.33-.11c-.055-.055-.11-.11-.11-.165a.6.6,0,0,1,.055-.275l1.1-2.8c-.055-.055-.165-.11-.22-.165a1.2,1.2,0,0,1-.165-.275l-2.858-7.7a2.791,2.791,0,0,1-.11-.495.42.42,0,0,1,.11-.275.641.641,0,0,1,.385-.11c.165,0,.44-.055.715-.055h.66c.165,0,.275.055.385.055a.759.759,0,0,1,.22.165.465.465,0,0,1,.11.33l1.979,5.607h.055l1.814-5.717a.9.9,0,0,1,.165-.33.42.42,0,0,1,.275-.11c.11,0,.385-.055.715-.055a2.265,2.265,0,0,1,.66.055.428.428,0,0,1,.385.165c.11.055.11.165.11.275A3.792,3.792,0,0,1,256.586,100.315Zm9.509,5.607a3.891,3.891,0,0,1-.879,1.539,3.719,3.719,0,0,1-1.429.989,5.633,5.633,0,0,1-2.034.33,5.027,5.027,0,0,1-1.924-.33,3.936,3.936,0,0,1-1.374-.879,3.376,3.376,0,0,1-.824-1.429,6.872,6.872,0,0,1-.275-1.979,7.48,7.48,0,0,1,.275-1.979,3.89,3.89,0,0,1,.879-1.539,3.718,3.718,0,0,1,1.429-.989,5.633,5.633,0,0,1,2.034-.33,5.325,5.325,0,0,1,1.979.33,3.936,3.936,0,0,1,1.374.879,4.067,4.067,0,0,1,.824,1.429,6.873,6.873,0,0,1,.275,1.979A10.616,10.616,0,0,1,266.095,105.921ZM266.48,60.9c-.934.6-1.7,1.374-2.968,1.374a2.105,2.105,0,0,1-2.254-2.254c0-2.144,3.518-2.913,5.222-3.573,0-1.429-.11-2.693-1.759-2.693-.715,0-1.429.385-1.429,1.1,0,.934-.22,1.374-.879,1.374a.85.85,0,0,1-.88-.934c0-.495.6-2.144,3.463-2.144,3.133,0,3.133,1.759,3.133,2.309v4.123c0,.879,0,1.484.55,1.484.33,0,.824-.495,1.1-.77v.55a3.47,3.47,0,0,1-2.2,1.374C266.7,62.278,266.48,61.563,266.48,60.9Zm9.729,47.327a.2.2,0,0,1-.055.165c-.055.055-.11.11-.165.11a.815.815,0,0,1-.385.055H274.45c-.165,0-.275-.055-.385-.055-.11-.055-.165-.055-.165-.11a.2.2,0,0,1-.055-.165v-4.782a3.947,3.947,0,0,0-.11-.934,2.031,2.031,0,0,0-.275-.6,1.482,1.482,0,0,0-.44-.385,1.087,1.087,0,0,0-.6-.11,1.752,1.752,0,0,0-.934.33,4.992,4.992,0,0,0-.934.934v5.552a.2.2,0,0,1-.055.165.285.285,0,0,1-.22.11.815.815,0,0,1-.385.055h-1.1c-.165,0-.275-.055-.385-.055-.11-.055-.165-.055-.165-.11a.2.2,0,0,1-.055-.165V99.875a.2.2,0,0,1,.055-.165c.055-.055.11-.11.165-.11.055-.055.165-.055.33-.055h.989c.11,0,.22.055.33.055.055.055.11.055.165.11a.2.2,0,0,1,.055.165v.989A5.5,5.5,0,0,1,271.7,99.71a2.992,2.992,0,0,1,1.484-.385,3.676,3.676,0,0,1,1.429.275,2.148,2.148,0,0,1,.934.77,2.733,2.733,0,0,1,.495,1.154,6.285,6.285,0,0,1,.165,1.539v5.167Zm-.055-53.1c-.66,0-1.044-.6-1.484-.6-.495,0-1.154,1.044-1.374,1.429v3.573c0,1.539,0,2.144,1.759,2.144V62h-4.947v-.33c.989,0,1.484-.165,1.484-1.264V55.736c0-1.319-.44-1.319-.715-1.319a1.692,1.692,0,0,0-.715.165l-.165-.33,2.858-1.044h.44v1.814h.055c.44-.66,1.264-1.814,2.364-1.814.66,0,1.319.44,1.319,1.044A.834.834,0,0,1,276.154,55.132Zm10.114,48.646a1.172,1.172,0,0,1-.165.66.637.637,0,0,1-.55.22h-5.112a6.054,6.054,0,0,0,.11.989,3.354,3.354,0,0,0,.385.77,1.222,1.222,0,0,0,.715.44,2.975,2.975,0,0,0,1.044.165,6.181,6.181,0,0,0,1.1-.11,2.977,2.977,0,0,0,.824-.22,2.824,2.824,0,0,0,.55-.22,1.4,1.4,0,0,1,.385-.11.2.2,0,0,1,.165.055c.055,0,.055.055.11.11,0,.055.055.11.055.22v.715a.5.5,0,0,1-.055.275c0,.055-.055.11-.055.165a.118.118,0,0,1-.11.11.9.9,0,0,1-.33.165,5.7,5.7,0,0,1-.715.22q-.412.082-.989.165a8.116,8.116,0,0,1-1.154.055,7.167,7.167,0,0,1-1.979-.275,3.481,3.481,0,0,1-1.429-.879,3.376,3.376,0,0,1-.824-1.429,7.662,7.662,0,0,1,0-4.068,5.838,5.838,0,0,1,.824-1.539,3.4,3.4,0,0,1,1.374-.934,4.644,4.644,0,0,1,1.814-.33,4.457,4.457,0,0,1,1.814.33,2.882,2.882,0,0,1,1.209.879,3.839,3.839,0,0,1,.715,1.319,5.209,5.209,0,0,1,.22,1.649v.44Zm-1.484-41.5h-.44V61.068a3.868,3.868,0,0,1-2.8,1.209,4.009,4.009,0,0,1-3.848-4.232,4.819,4.819,0,0,1,4.562-4.837,3.113,3.113,0,0,1,2.089.715V51.284c0-1.319-.44-1.319-.715-1.319a1.693,1.693,0,0,0-.715.165l-.165-.33,2.858-1.044h.44V59.749c0,1.319.44,1.319.715,1.319a1.693,1.693,0,0,0,.715-.165l.165.33Zm-1.1-26.879-.495,1.979a1.606,1.606,0,0,0-.11.495.929.929,0,0,0,.165.55.332.332,0,0,0,.33.165.77.77,0,0,0,.495-.33,10.639,10.639,0,0,0,1.594-2.528l.715.495a11.724,11.724,0,0,1-2.583,3.243,3.978,3.978,0,0,1-2.474,1.044,1.711,1.711,0,0,1-1.209-.44,2.006,2.006,0,0,1-.44-1.319A10.048,10.048,0,0,1,280.166,36l.495-1.649a22.336,22.336,0,0,1-5.717,5.167,7.373,7.373,0,0,1-3.683,1.044,4.074,4.074,0,0,1-2.968-1.264,4.92,4.92,0,0,1-1.264-3.518,13.7,13.7,0,0,1,2.254-7.146,17.948,17.948,0,0,1,5.662-5.991A9.07,9.07,0,0,1,280,20.887a4,4,0,0,1,2.364.66,4.046,4.046,0,0,1,1.429,2.089l.66-2.2,3.353-.55Z"/><path class="b" d="M512.059,183.7a1.756,1.756,0,0,0-.77.165,2.154,2.154,0,0,0-.55.44,1.5,1.5,0,0,0-.33.66,4.24,4.24,0,0,0-.11.825h3.518a2.452,2.452,0,0,0-.385-1.539A1.857,1.857,0,0,0,512.059,183.7Z" transform="translate(-229.804 -82.726)"/><path class="b" d="M462.566,105.705c1.924,0,2.309-1.924,2.309-3.3,0-1.649-.66-4.507-2.968-4.507-1.044,0-2.309.715-2.309,3.133C459.543,102.737,460.2,105.705,462.566,105.705Z" transform="translate(-206.97 -44.087)"/><path class="b" d="M432.493,55.905c1.759,0,3.683-1.154,5.771-3.408a14.035,14.035,0,0,0,3.683-9.289,3.623,3.623,0,0,0-.769-2.583,2.692,2.692,0,0,0-2.089-.824,5.5,5.5,0,0,0-3.188,1.264,15.272,15.272,0,0,0-4.233,5.332,13.8,13.8,0,0,0-1.869,6.431,3.074,3.074,0,0,0,.824,2.254A2.548,2.548,0,0,0,432.493,55.905Z" transform="translate(-193.552 -17.923)"/><path class="b" d="M501.589,39.8a5.5,5.5,0,0,0-3.188,1.264,15.27,15.27,0,0,0-4.232,5.332,13.8,13.8,0,0,0-1.869,6.431,3.074,3.074,0,0,0,.824,2.254,2.667,2.667,0,0,0,1.924.825c1.759,0,3.683-1.154,5.772-3.408a14.035,14.035,0,0,0,3.683-9.289,3.623,3.623,0,0,0-.769-2.583A2.7,2.7,0,0,0,501.589,39.8Z" transform="translate(-221.698 -17.923)"/><path class="b" d="M350.9,98.1a2.29,2.29,0,0,0-2.2,2.254h4.4A2.089,2.089,0,0,0,350.9,98.1Z" transform="translate(-157.03 -44.177)"/><path class="b" d="M478.4,106.338a1.488,1.488,0,0,0,1.484,1.539,4.068,4.068,0,0,0,2.034-.934V103.7C480.489,104.195,478.4,104.909,478.4,106.338Z" transform="translate(-215.438 -46.699)"/><path class="b" d="M476.383,184.924a2.107,2.107,0,0,0-.6-.6,1.882,1.882,0,0,0-.989-.22,1.807,1.807,0,0,0-.934.22,2.2,2.2,0,0,0-.66.55,4.255,4.255,0,0,0-.385.879,4.117,4.117,0,0,0-.11,1.209,7.464,7.464,0,0,0,.11,1.154,2.119,2.119,0,0,0,.934,1.484,1.883,1.883,0,0,0,.989.22,1.807,1.807,0,0,0,.934-.22,1.616,1.616,0,0,0,.66-.55,3.259,3.259,0,0,0,.385-.879,7.581,7.581,0,0,0,.11-1.209,7.487,7.487,0,0,0-.11-1.154A3.265,3.265,0,0,0,476.383,184.924Z" transform="translate(-212.871 -82.906)"/></g></g></svg>