<svg xmlns="http://www.w3.org/2000/svg" width="205.58" height="64.712" viewBox="0 0 205.58 64.712"><g transform="translate(-152 -1445)"><g transform="translate(152 1445)"><g transform="translate(0 0.045)"><path d="M0,52.466v2.149L31.976,22.669V20.52Z" transform="translate(0 10.053)" fill="#fff"/><path d="M0,47.784,31.976,15.839V13.69L0,45.636Z" transform="translate(0 6.692)" fill="#fff"/><path d="M0,40.954,31.976,9.009V6.86L0,38.806Z" transform="translate(0 3.331)" fill="#fff"/><path d="M31.976,2.179V.03L0,31.976v2.149Z" transform="translate(0 -0.03)" fill="#fff"/></g><g transform="translate(41.047)"><path d="M38.372,10.39h-1.85L34.762,4.213c-.075-.269-.164-.657-.283-1.164s-.179-.865-.209-1.059c-.045.3-.119.7-.224,1.179s-.194.836-.269,1.074L32.061,10.39h-1.85L28.868,5.2,27.51.02h1.731l1.477,6.043a19.964,19.964,0,0,1,.507,2.581c.045-.4.134-.85.239-1.343s.194-.9.283-1.209L33.434.035H35.12L36.85,6.123a22.156,22.156,0,0,1,.522,2.522,19.25,19.25,0,0,1,.507-2.581L39.357.035h1.716Z" transform="translate(-27.51 0.01)" fill="#fff"/><path d="M45.264,10.4l-1.03-2.88H40.265L39.251,10.4H37.46L41.339,0h1.85l3.879,10.4ZM43.772,6.073l-.97-2.82c-.075-.194-.164-.492-.3-.9s-.209-.7-.254-.9a16.407,16.407,0,0,1-.567,1.91l-.94,2.7Z" transform="translate(-22.614)" fill="#fff"/><path d="M45.61,10.385V.03h1.7V10.4h-1.7Z" transform="translate(-18.603 0.015)" fill="#fff"/><path d="M53.345,10.385H51.659V1.477H48.6V.03h7.789V1.477H53.345Z" transform="translate(-17.132 0.015)" fill="#fff"/><path d="M61.544,10.385H55.68V.03h5.864V1.462H57.381v2.82H61.29V5.7H57.381V8.953h4.163Z" transform="translate(-13.648 0.015)" fill="#fff"/><path d="M66.391,10.385,63.377,1.731h-.06c.075,1.283.119,2.492.119,3.611v5.043H61.9V.03h2.387l2.88,8.236h.045L70.181.03h2.4V10.4H70.957V5.267q0-.783.045-2.014c.03-.821.045-1.328.075-1.507H71l-3.1,8.639Z" transform="translate(-10.587 0.015)" fill="#fff"/><path d="M78.564,10.4l-1.03-2.865H73.565l-1.015,2.88H70.76L74.654,0H76.5l3.879,10.4ZM77.086,6.073l-.97-2.82c-.075-.194-.164-.492-.3-.9s-.209-.7-.254-.9A16.407,16.407,0,0,1,75,3.372l-.94,2.7Z" transform="translate(-6.227)" fill="#fff"/><path d="M82.87,10.385H81.184V1.477H78.14V.03h7.789V1.477H82.885v8.908Z" transform="translate(-2.595 0.015)" fill="#fff"/><path d="M92.1,10.4l-1.03-2.88H87.105L86.09,10.4H84.3L88.179,0h1.85l3.879,10.4ZM90.612,6.073l-.97-2.82c-.075-.194-.164-.492-.3-.9s-.209-.7-.254-.9a16.407,16.407,0,0,1-.567,1.91l-.94,2.7Z" transform="translate(0.436)" fill="#fff"/></g><g transform="translate(42.465 18.666)"><path d="M36.637,22.99h-1.7V18.32H30.161v4.67h-1.7V12.62h1.7v4.238h4.775V12.62h1.7Z" transform="translate(-28.46 -12.456)" fill="#fff"/><path d="M42.424,22.99H36.56V12.62h5.864v1.432H38.261v2.82H42.17V18.29H38.261v3.253h4.163Z" transform="translate(-24.474 -12.456)" fill="#fff"/><path d="M49.674,23l-1.03-2.88H44.675L43.661,23H41.87l3.879-10.4H47.6L51.479,23ZM48.2,18.658l-.97-2.82c-.075-.194-.164-.492-.3-.9s-.209-.7-.254-.9a16.407,16.407,0,0,1-.567,1.91l-.94,2.7H48.2Z" transform="translate(-21.861 -12.466)" fill="#fff"/><path d="M50.02,22.99V12.62h1.7v8.908h4.387v1.447H50.02Z" transform="translate(-17.85 -12.456)" fill="#fff"/><path d="M60.05,22.985H58.364V14.077H55.32V12.63h7.789v1.447H60.065v8.908Z" transform="translate(-15.242 -12.451)" fill="#fff"/><path d="M70.577,22.99h-1.7V18.32H64.1v4.67H62.4V12.62h1.7v4.238h4.775V12.62h1.7Z" transform="translate(-11.758 -12.456)" fill="#fff"/><path d="M79.694,22.99H73.83V12.62h5.864v1.432H75.531v2.82H79.44V18.29H75.531v3.253h4.163Z" transform="translate(-6.134 -12.456)" fill="#fff"/><path d="M88.132,22.985H86.178l-2.6-4.238L80.97,22.985H79.15l3.432-5.372L79.359,12.63h1.88l2.387,3.924,2.4-3.924h1.835l-3.238,5.013Z" transform="translate(-3.516 -12.451)" fill="#fff"/><path d="M91.484,13.972a2.8,2.8,0,0,0-2.3,1.03,4.44,4.44,0,0,0-.836,2.85,4.419,4.419,0,0,0,.806,2.88,2.834,2.834,0,0,0,2.328.985,5.9,5.9,0,0,0,1.268-.134,11.777,11.777,0,0,0,1.283-.343v1.447a7.652,7.652,0,0,1-2.76.463,4.421,4.421,0,0,1-3.492-1.373,5.817,5.817,0,0,1-1.224-3.939,6.339,6.339,0,0,1,.6-2.835,4.214,4.214,0,0,1,1.716-1.85A5.152,5.152,0,0,1,91.5,12.51a6.5,6.5,0,0,1,2.939.671L93.826,14.6a8.091,8.091,0,0,0-1.1-.433A4.218,4.218,0,0,0,91.484,13.972Z" transform="translate(0.131 -12.51)" fill="#fff"/><path d="M99.734,22.99H93.87V12.62h5.864v1.432H95.571v2.82H99.48V18.29H95.571v3.253h4.163Z" transform="translate(3.728 -12.456)" fill="#fff"/><path d="M100.1,22.99V12.62h1.7v8.908h4.387v1.447H100.1Z" transform="translate(6.793 -12.456)" fill="#fff"/><path d="M106.17,22.99V12.62h1.7v8.908h4.387v1.447H106.17Z" transform="translate(9.78 -12.456)" fill="#fff"/><path d="M118.1,22.99H112.24V12.62H118.1v1.432h-4.163v2.82h3.909V18.29h-3.909v3.253H118.1Z" transform="translate(12.767 -12.456)" fill="#fff"/><path d="M127.109,22.985h-2.074l-5.1-8.251h-.06l.03.463c.06.88.1,1.686.1,2.417V23H118.47V12.63h2.059l5.088,8.221h.045c-.015-.1-.03-.507-.06-1.194s-.045-1.209-.045-1.6V12.63h1.552Z" transform="translate(15.833 -12.451)" fill="#fff"/><path d="M131.474,13.972a2.8,2.8,0,0,0-2.3,1.03,4.44,4.44,0,0,0-.836,2.85,4.419,4.419,0,0,0,.806,2.88,2.834,2.834,0,0,0,2.328.985,5.9,5.9,0,0,0,1.268-.134,11.777,11.777,0,0,0,1.283-.343v1.447a7.652,7.652,0,0,1-2.76.463,4.421,4.421,0,0,1-3.491-1.373,5.817,5.817,0,0,1-1.224-3.939,6.339,6.339,0,0,1,.6-2.835,4.214,4.214,0,0,1,1.716-1.85,5.152,5.152,0,0,1,2.626-.642,6.5,6.5,0,0,1,2.939.671l-.612,1.417a8.088,8.088,0,0,0-1.1-.433A4.378,4.378,0,0,0,131.474,13.972Z" transform="translate(19.809 -12.51)" fill="#fff"/><path d="M139.714,22.99H133.85V12.62h5.864v1.432h-4.163v2.82h3.909V18.29h-3.909v3.253h4.163Z" transform="translate(23.402 -12.456)" fill="#fff"/></g><g transform="translate(41.062 37.452)"><path d="M35.309,35.58l-1.03-2.88H30.325l-1.015,2.88H27.52L31.4,25.18h1.85l3.879,10.4Zm-1.477-4.327-.97-2.82c-.075-.194-.164-.492-.3-.9s-.209-.7-.254-.9a16.408,16.408,0,0,1-.567,1.91l-.94,2.7Z" transform="translate(-27.52 -25.061)" fill="#fff"/><path d="M45.662,35.57h-1.85l-1.761-6.177c-.075-.269-.164-.657-.283-1.164s-.179-.865-.209-1.059c-.045.3-.119.7-.224,1.179s-.194.836-.269,1.074L39.351,35.57H37.5l-1.343-5.192L34.8,25.2h1.731l1.477,6.043a25.266,25.266,0,0,1,.492,2.566c.045-.4.134-.85.239-1.343s.194-.9.283-1.209L40.709,25.2h1.686l1.731,6.088a22.156,22.156,0,0,1,.522,2.522,19.249,19.249,0,0,1,.507-2.581L46.632,25.2h1.716Z" transform="translate(-23.938 -25.051)" fill="#fff"/><path d="M52.554,35.58l-1.03-2.88H47.555l-1.015,2.88H44.75l3.879-10.4h1.85l3.879,10.4Zm-1.492-4.327-.97-2.82c-.075-.194-.164-.492-.3-.9s-.209-.7-.254-.9a16.409,16.409,0,0,1-.567,1.91l-.94,2.7Z" transform="translate(-19.041 -25.061)" fill="#fff"/><path d="M54.586,31.437V35.57H52.9V25.2h2.924a4.854,4.854,0,0,1,2.969.746,2.688,2.688,0,0,1,.97,2.268,2.835,2.835,0,0,1-2.014,2.76l2.924,4.581H58.749l-2.477-4.133H54.586Zm0-1.4h1.179a2.756,2.756,0,0,0,1.716-.433,1.594,1.594,0,0,0,.537-1.3,1.429,1.429,0,0,0-.582-1.268,3.161,3.161,0,0,0-1.731-.388H54.586v3.387Z" transform="translate(-15.031 -25.051)" fill="#fff"/><path d="M68.335,30.3a5.2,5.2,0,0,1-1.417,3.924,5.7,5.7,0,0,1-4.1,1.358H59.92V25.21h3.208a5.337,5.337,0,0,1,3.85,1.328A5.067,5.067,0,0,1,68.335,30.3Zm-1.79.045c0-2.477-1.164-3.715-3.477-3.715H61.606v7.52h1.209C65.306,34.148,66.545,32.879,66.545,30.343Z" transform="translate(-11.576 -25.046)" fill="#fff"/><path d="M74.05,32.814a2.577,2.577,0,0,1-1,2.164,4.37,4.37,0,0,1-2.76.791,6.432,6.432,0,0,1-2.88-.552v-1.6a7.193,7.193,0,0,0,1.507.522,6.119,6.119,0,0,0,1.492.194,2.411,2.411,0,0,0,1.492-.388,1.261,1.261,0,0,0,.477-1.03,1.312,1.312,0,0,0-.433-.985,6.788,6.788,0,0,0-1.82-.955,4.883,4.883,0,0,1-2-1.313,2.762,2.762,0,0,1-.582-1.776,2.491,2.491,0,0,1,.925-2.044,3.831,3.831,0,0,1,2.477-.746,7.318,7.318,0,0,1,2.969.657l-.537,1.388a6.489,6.489,0,0,0-2.462-.582,1.9,1.9,0,0,0-1.253.358,1.163,1.163,0,0,0-.418.94,1.415,1.415,0,0,0,.164.686,1.648,1.648,0,0,0,.567.537,8.982,8.982,0,0,0,1.4.671,7.876,7.876,0,0,1,1.671.88,2.5,2.5,0,0,1,.776.925A3.61,3.61,0,0,1,74.05,32.814Z" transform="translate(-7.89 -25.1)" fill="#fff"/></g></g></g></svg>