<svg id="Group_443" data-name="Group 443" xmlns="http://www.w3.org/2000/svg" viewBox="0 0 838.32 311.26">
  <defs>
    <style>
      .cls-1 {
        fill: #fff;
      }
    </style>
  </defs>
  <g id="Group_441" data-name="Group 441">
    <path id="Path_1666" data-name="Path 1666" class="cls-1" d="M0,0V300.653H233.343V0ZM117.079,38.754A24.069,24.069,0,1,1,93.011,62.823,24.112,24.112,0,0,1,117.079,38.754Zm-3.264,195.4c-19.581,7.751-55.072,7.343-88.523,37.531,0,0-6.527-55.072,79.549-80.365,69.758-20.4,70.982-38.754,76.285-46.1C181.126,145.227,176.639,208.866,113.816,234.158Zm26.108-80.772c-18.765,7.751-70.574,15.5-99.946,44.058,0,0,2.856-57.52,62.007-79.549,56.3-20.805,90.155-40.386,105.657-82.4C207.642,35.491,221.92,118.711,139.924,153.386Z"/>
    <path id="Path_1667" data-name="Path 1667" class="cls-1" d="M88.149,90.031,82.438,17.826c-.408-2.856-.408-4.9-.816-6.527a8.929,8.929,0,0,0-3.264-5.711c-1.632-1.224-4.487-2.04-8.159-2.04L70.608,1.1h32.635l-.408,2.448Q96.1,3.548,94.269,6c-1.224,1.632-1.632,5.711-1.224,11.83l3.671,46.505,23.253-50.585a17.669,17.669,0,0,0-.408-2.04A10.1,10.1,0,0,0,116.3,6c-1.632-1.224-4.9-2.04-9.383-2.448V1.1H141.59l-.408,2.448c-4.079,0-6.527.408-8.159,1.224a4.178,4.178,0,0,0-2.04,2.448,15.984,15.984,0,0,0-.816,5.3q0,1.224,1.224,14.686c.816,8.975,1.632,21.621,2.856,37.939l20.805-42.018a52.353,52.353,0,0,0,3.671-9.791,5.909,5.909,0,0,0,.408-4.487,5.606,5.606,0,0,0-2.04-3.264,9.509,9.509,0,0,0-5.711-1.632V1.508h25.7l-.408,2.448a13.279,13.279,0,0,0-5.711,1.632c-1.632.816-3.264,2.856-5.3,5.3q-1.836,2.448-6.119,12.238l-31,66.9H126.5l-5.3-66.9-30.6,66.9Z" transform="translate(216.175 3.387)"/>
    <path id="Path_1668" data-name="Path 1668" class="cls-1" d="M120.127,2a6.551,6.551,0,0,1,4.487,2.04,6.551,6.551,0,0,1,2.04,4.487,6.551,6.551,0,0,1-2.04,4.487,5.956,5.956,0,0,1-8.975,0,6.551,6.551,0,0,1-2.04-4.487,6.551,6.551,0,0,1,2.04-4.487A5.2,5.2,0,0,1,120.127,2Z" transform="translate(349.822 6.159)"/>
    <g id="Group_438" data-name="Group 438" transform="translate(372.043 15.91)">
      <path id="Path_1669" data-name="Path 1669" class="cls-1" d="M154.023,8.1,141.377,52.566l-1.632,6.119c0,.408-.408,1.224-.408,1.632,0,.816,0,1.224.408,1.632s.408.408.816.408.816-.408,1.632-.816c1.224-1.224,2.856-3.671,4.9-7.751l2.04,1.632a34.05,34.05,0,0,1-7.751,9.791c-2.856,2.04-5.3,3.264-7.343,3.264a4.987,4.987,0,0,1-3.671-1.224,6.091,6.091,0,0,1-1.224-4.079,27.739,27.739,0,0,1,1.632-8.567l1.632-4.9c-6.119,7.343-12.238,12.646-17.542,15.5a22.829,22.829,0,0,1-11.014,3.264A11.012,11.012,0,0,1,94.871,64.4C92.424,61.948,91.2,58.277,91.2,53.789c0-6.935,2.448-14.278,6.935-21.621a53.064,53.064,0,0,1,17.134-18.357,27.269,27.269,0,0,1,15.5-5.3,14.088,14.088,0,0,1,7.343,2.04c2.04,1.224,3.264,3.264,4.487,6.527l2.04-6.527Zm-24.477,3.264c-2.856,0-6.119,1.224-9.791,4.079-4.9,3.671-8.975,8.975-13.054,16.318-3.672,7.343-5.711,13.87-5.711,19.581a9.6,9.6,0,0,0,2.448,6.935,8.054,8.054,0,0,0,5.711,2.448c5.3,0,11.422-3.264,17.541-10.2,7.751-9.383,11.422-18.765,11.014-28.556,0-3.671-.816-6.119-2.448-7.751C134.442,12.179,132.4,11.364,129.547,11.364Z" transform="translate(-91.2 9.034)"/>
      <path id="Path_1670" data-name="Path 1670" class="cls-1" d="M134.608,7.9l-13.87,46.505a35.654,35.654,0,0,0-1.224,5.711c0,.816,0,1.224.408,1.632s.816.816,1.224.816a6.892,6.892,0,0,0,2.04-.816c2.448-2.04,4.487-4.9,6.935-8.159l2.448,1.632a45.555,45.555,0,0,1-10.2,11.422c-2.856,2.04-5.711,3.264-8.159,3.264-1.632,0-3.264-.408-4.079-1.632A5.237,5.237,0,0,1,108.5,64.2a27.829,27.829,0,0,1,1.632-8.159l8.975-29.78c1.224-4.9,2.04-7.751,2.04-8.975a5.8,5.8,0,0,0-.816-2.448c-.816-.816-1.632-.816-2.856-.816-.816,0-2.856.408-6.119.816V11.164Z" transform="translate(-37.926 8.418)"/>
      <path id="Path_1671" data-name="Path 1671" class="cls-1" d="M148.3,3.9,143,21.849h8.975l-1.224,4.079h-8.975l-11.83,38.754a28.428,28.428,0,0,0-2.04,8.567c0,.816,0,1.224.408,1.632a1.5,1.5,0,0,0,1.224.408,6.724,6.724,0,0,0,3.671-2.04c.816-.816,2.856-3.671,6.119-8.159l2.04,1.632q-5.507,8.567-11.014,12.238a11.971,11.971,0,0,1-6.935,2.448A5.646,5.646,0,0,1,117.3,75.29c0-2.448.816-6.119,2.04-11.014l11.422-37.939h-10.2l.816-2.448a34.038,34.038,0,0,0,12.238-5.711c3.264-2.448,7.343-6.935,11.422-13.462H148.3Z" transform="translate(-10.827 -3.9)"/>
      <path id="Path_1672" data-name="Path 1672" class="cls-1" d="M137.522,42.883a27.073,27.073,0,0,0-.408,5.3c0,4.079,1.224,7.343,4.079,9.791a13.531,13.531,0,0,0,10.2,4.079,25.911,25.911,0,0,0,9.383-2.04c2.856-1.224,7.343-4.079,13.054-8.567l1.224,2.04c-10.2,10.2-20.4,15.5-29.78,15.5-6.527,0-11.014-2.04-14.278-6.119a21.063,21.063,0,0,1-4.9-13.462c0-6.527,2.04-13.054,6.119-19.989s8.975-12.238,15.094-15.91S159.551,7.8,166.078,7.8c4.487,0,8.159.816,10.2,2.856s3.263,4.079,3.263,6.527c0,3.671-1.632,6.935-4.487,10.606-3.672,4.487-9.383,7.751-17.134,10.606C153.432,40.435,146.5,42.067,137.522,42.883Zm.408-3.264a74.718,74.718,0,0,0,16.318-3.671c5.3-2.448,9.791-5.3,12.238-8.567,2.856-3.264,4.079-6.527,4.079-9.383a5.572,5.572,0,0,0-1.632-4.487,6.5,6.5,0,0,0-4.9-1.632c-4.487,0-9.383,2.448-14.686,6.935S140.378,30.237,137.93,39.619Z" transform="translate(16.272 8.11)"/>
      <path id="Path_1673" data-name="Path 1673" class="cls-1" d="M167.224,7.9l-8.567,29.78c4.079-6.935,7.343-12.238,9.791-15.5a47.99,47.99,0,0,1,12.646-11.83,16.623,16.623,0,0,1,7.343-2.04,9.747,9.747,0,0,1,5.711,2.04c1.632,1.632,2.04,3.264,2.04,5.711a23.82,23.82,0,0,1-1.632,8.159l-4.9,16.726C197.412,27.481,204.347,18.1,211.282,12.8c3.671-2.856,7.343-4.487,11.014-4.487a6.578,6.578,0,0,1,5.3,2.448,10.8,10.8,0,0,1,2.04,6.935,30.469,30.469,0,0,1-1.224,8.159l-8.159,25.292c-1.632,5.3-2.856,8.567-2.856,8.975a2.452,2.452,0,0,0,.408,1.632c.408.408.408.408.816.408a3.727,3.727,0,0,0,2.04-1.224,30.256,30.256,0,0,0,6.119-7.751l2.04,1.224a54.433,54.433,0,0,1-5.711,6.935c-2.856,2.856-4.9,4.9-6.935,6.119a9.876,9.876,0,0,1-5.3,1.632,3.976,3.976,0,0,1-3.671-1.632,7.33,7.33,0,0,1-1.632-3.671c0-2.04,1.224-6.119,3.264-12.646l6.935-21.213c1.632-4.9,2.448-7.343,2.448-8.159s.408-1.632.408-2.448a3.448,3.448,0,0,0-.816-2.448,3.116,3.116,0,0,0-2.04-.816,8.5,8.5,0,0,0-6.119,2.856q-9.791,8.567-18.357,23.253a138.86,138.86,0,0,0-10.607,25.292h-8.975l11.83-39.57c1.224-4.487,2.04-7.343,2.04-8.567a3.449,3.449,0,0,0-.816-2.448,3.093,3.093,0,0,0-1.632-.816,8.69,8.69,0,0,0-4.9,1.632c-2.856,1.632-6.119,5.3-10.2,11.014a120.625,120.625,0,0,0-9.791,15.91c-1.224,2.448-3.671,10.2-8.159,23.253H140.3l12.238-42.426,1.632-5.711a4.436,4.436,0,0,0,.408-2.04,2.908,2.908,0,0,0-1.224-2.448,4.632,4.632,0,0,0-3.264-1.224c-.408,0-2.04.408-4.9.816l-.408-2.448Z" transform="translate(59.999 8.418)"/>
      <path id="Path_1674" data-name="Path 1674" class="cls-1" d="M227.323,8.1,214.677,52.566l-1.632,6.119c0,.408-.408,1.224-.408,1.632,0,.816,0,1.224.408,1.632s.408.408.816.408.816-.408,1.632-.816c1.224-1.224,2.856-3.671,4.9-7.751l2.04,1.632a34.05,34.05,0,0,1-7.751,9.791c-2.856,2.04-5.3,3.264-7.343,3.264a4.987,4.987,0,0,1-3.672-1.224,6.091,6.091,0,0,1-1.224-4.079,27.742,27.742,0,0,1,1.632-8.567l1.632-4.9c-6.119,7.343-12.238,12.646-17.541,15.5a22.829,22.829,0,0,1-11.014,3.264,11.012,11.012,0,0,1-8.975-4.079c-2.448-2.448-3.671-6.119-3.671-10.606,0-6.935,2.448-14.278,6.935-21.621a53.065,53.065,0,0,1,17.133-18.357,27.269,27.269,0,0,1,15.5-5.3,14.087,14.087,0,0,1,7.343,2.04c2.04,1.224,3.264,3.264,4.487,6.527l2.04-6.527Zm-24.477,3.264c-2.856,0-6.119,1.224-9.791,4.079-4.9,3.671-8.975,8.975-13.054,16.318-3.671,7.343-5.711,13.87-5.711,19.581a9.6,9.6,0,0,0,2.448,6.935,8.054,8.054,0,0,0,5.711,2.448c5.3,0,11.422-3.264,17.542-10.2,7.751-9.383,11.422-18.765,11.014-28.556,0-3.671-.816-6.119-2.448-7.751C207.742,12.179,205.7,11.364,202.847,11.364Z" transform="translate(134.521 9.034)"/>
      <path id="Path_1675" data-name="Path 1675" class="cls-1" d="M212.4,3.9l-5.3,17.949h8.975l-1.224,4.079h-8.975l-11.83,38.754a28.431,28.431,0,0,0-2.04,8.567c0,.816,0,1.224.408,1.632a1.5,1.5,0,0,0,1.224.408,6.724,6.724,0,0,0,3.672-2.04c.816-.816,2.856-3.671,6.119-8.159l2.04,1.632q-5.507,8.567-11.014,12.238a11.971,11.971,0,0,1-6.935,2.448A5.646,5.646,0,0,1,181.4,75.29c0-2.448.816-6.119,2.04-11.014l11.422-37.939h-10.2l.816-2.448a34.037,34.037,0,0,0,12.238-5.711c3.264-2.448,7.343-6.935,11.422-13.462H212.4Z" transform="translate(186.563 -3.9)"/>
      <path id="Path_1676" data-name="Path 1676" class="cls-1" d="M252.923,8.1,240.277,52.566l-1.632,6.119c0,.408-.408,1.224-.408,1.632,0,.816,0,1.224.408,1.632s.408.408.816.408.816-.408,1.632-.816c1.224-1.224,2.856-3.671,4.9-7.751l2.04,1.632a34.052,34.052,0,0,1-7.751,9.791c-2.856,2.04-5.3,3.264-7.343,3.264a4.986,4.986,0,0,1-3.671-1.224,6.09,6.09,0,0,1-1.224-4.079,27.74,27.74,0,0,1,1.632-8.567l1.632-4.9c-6.119,7.343-12.238,12.646-17.541,15.5a22.829,22.829,0,0,1-11.014,3.264,11.012,11.012,0,0,1-8.975-4.079c-2.448-2.448-3.672-6.119-3.672-10.606,0-6.935,2.448-14.278,6.935-21.621a53.065,53.065,0,0,1,17.134-18.357,27.269,27.269,0,0,1,15.5-5.3,14.088,14.088,0,0,1,7.343,2.04c2.04,1.224,3.263,3.264,4.487,6.527l2.04-6.527Zm-24.068,3.264c-2.856,0-6.119,1.224-9.791,4.079-4.9,3.671-8.975,8.975-13.054,16.318-3.671,7.343-5.711,13.87-5.711,19.581a9.6,9.6,0,0,0,2.448,6.935,8.054,8.054,0,0,0,5.711,2.448c5.3,0,11.422-3.264,17.541-10.2,7.751-9.383,11.422-18.765,11.014-28.556,0-3.671-.816-6.119-2.448-7.751C233.75,12.179,231.3,11.364,228.855,11.364Z" transform="translate(213.354 9.034)"/>
    </g>
    <g id="Group_439" data-name="Group 439" transform="translate(283.927 117.895)">
      <path id="Path_1677" data-name="Path 1677" class="cls-1" d="M76.127,37.151c0-4.9,0-6.527-6.119-6.527V29.4H86.326c5.711,0,12.646,0,17.949,3.264a18.738,18.738,0,0,1,8.567,15.91c0,10.606-7.751,19.581-23.253,19.581H69.6V66.931c6.119,0,6.119-1.632,6.119-6.527V37.151ZM82.246,65.3a35.7,35.7,0,0,0,6.527.816c11.014,0,16.726-7.751,16.726-17.134S99.38,31.848,88.365,31.848a35.7,35.7,0,0,0-6.527.816V65.3Z" transform="translate(-69.6 -27.36)"/>
      <path id="Path_1678" data-name="Path 1678" class="cls-1" d="M91.4,64.491c0,3.264,1.632,3.671,4.487,4.079v1.224H81.608V68.57c2.856,0,4.487-.408,4.487-4.079V50.213c0-4.079-1.224-4.079-2.448-4.079a17.669,17.669,0,0,0-2.04.408l-.408-.816,8.567-3.264h1.224V64.491ZM88.543,29a3.153,3.153,0,0,1,3.264,2.856c0,1.632-1.224,2.856-3.264,2.856a3.153,3.153,0,0,1-3.264-2.856A3.462,3.462,0,0,1,88.543,29Z" transform="translate(-33.879 -28.592)"/>
      <path id="Path_1679" data-name="Path 1679" class="cls-1" d="M103.542,41.275h-1.224c-.816-4.079-2.856-7.343-7.751-7.343-2.448,0-4.9,1.224-4.9,3.671,0,6.527,15.91,5.711,15.91,14.686,0,4.9-4.9,7.751-9.791,7.751a24.075,24.075,0,0,1-5.711-.816c-.408,0-1.224-.408-1.632-.408s-1.224.408-1.224.816H86V50.249h1.224A9.247,9.247,0,0,0,96.2,58.408c2.448,0,4.9-1.224,4.9-4.079C101.094,47.394,86,48.618,86,40.051c0-4.9,3.671-7.751,8.975-7.751a11.911,11.911,0,0,1,3.671.816c.816,0,1.632.408,2.448.408a1.082,1.082,0,0,0,1.224-1.224h1.224Z" transform="translate(-19.098 -18.43)"/>
      <path id="Path_1680" data-name="Path 1680" class="cls-1" d="M108.126,39.067v2.04h-6.935v15.91c0,2.448,0,4.9,2.856,4.9a4.052,4.052,0,0,0,3.264-2.448h1.224c-1.224,2.856-3.672,5.711-7.343,5.711-2.04,0-5.3-1.224-5.3-6.119V41.106H91.4V39.883c3.671-1.224,6.527-4.079,8.567-9.383h.816v8.567Z" transform="translate(-2.469 -23.973)"/>
      <path id="Path_1681" data-name="Path 1681" class="cls-1" d="M105.9,38.319h0c1.632-2.04,4.079-5.711,7.343-5.711,2.04,0,4.079,1.224,4.079,3.264a2.728,2.728,0,0,1-2.856,2.448c-2.04,0-3.264-2.04-4.487-2.04-1.632,0-3.671,3.264-4.079,4.487V51.781c0,4.9,0,6.527,5.3,6.527v1.224H96.108V58.308c2.856,0,4.487-.408,4.487-4.079V39.951c0-4.079-1.224-4.079-2.448-4.079a17.669,17.669,0,0,0-2.04.408l-.408-.816,8.567-3.264h1.224v6.119Z" transform="translate(10.773 -18.738)"/>
      <path id="Path_1682" data-name="Path 1682" class="cls-1" d="M111.6,64.491c0,3.264,1.632,3.671,4.487,4.079v1.224H101.808V68.57c2.856,0,4.487-.408,4.487-4.079V50.213c0-4.079-1.224-4.079-2.448-4.079a17.67,17.67,0,0,0-2.04.408l-.408-.816,8.567-3.264h1.224V64.491ZM108.743,29a3.153,3.153,0,0,1,3.264,2.856c0,1.632-1.224,2.856-3.264,2.856a3.153,3.153,0,0,1-3.264-2.856A3.153,3.153,0,0,1,108.743,29Z" transform="translate(28.325 -28.592)"/>
      <path id="Path_1683" data-name="Path 1683" class="cls-1" d="M129.969,49.434c-1.224,5.3-5.3,10.606-11.83,10.606-7.343,0-12.238-6.119-12.238-13.87,0-8.567,6.527-13.87,13.87-13.87,3.672,0,9.791,2.448,9.791,6.119,0,1.632-1.224,2.448-2.856,2.448-2.448,0-3.263-1.224-3.671-3.264,0-2.448-1.632-3.264-4.079-3.264-5.711,0-7.751,4.9-7.751,9.383,0,4.9,2.856,11.83,9.383,11.83,4.487,0,7.343-3.264,8.975-6.527Z" transform="translate(42.183 -18.43)"/>
      <path id="Path_1684" data-name="Path 1684" class="cls-1" d="M129.126,39.067v2.04h-6.935v15.91c0,2.448,0,4.9,2.856,4.9a4.052,4.052,0,0,0,3.264-2.448h1.224c-1.224,2.856-3.672,5.711-7.343,5.711-2.04,0-5.3-1.224-5.3-6.119V41.106H112.4V39.883c3.671-1.224,6.527-4.079,8.567-9.383h.816v8.567Z" transform="translate(62.199 -23.973)"/>
      <path id="Path_1685" data-name="Path 1685" class="cls-1" d="M152.819,47.757V37.151c0-4.9,0-6.527-6.119-6.527V29.4h18.357v1.224c-6.119,0-6.119,1.632-6.119,6.527V60.812c0,4.9,0,6.527,6.119,6.527v1.224H146.7V67.339c6.119,0,6.119-1.632,6.119-6.527V49.8H132.83V60.812c0,4.9,0,6.527,6.119,6.527v1.224H121V67.339c6.119,0,6.119-1.632,6.119-6.527V37.151c0-4.9,0-6.527-6.119-6.527V29.4h18.357v1.224c-6.119,0-6.119,1.632-6.119,6.527V47.757Z" transform="translate(88.682 -27.36)"/>
      <path id="Path_1686" data-name="Path 1686" class="cls-1" d="M137.4,43.314c0,5.711,3.264,12.238,10.2,12.238a8.471,8.471,0,0,0,8.567-6.119l.816.408c-1.224,5.3-5.3,10.2-11.83,10.2-6.935,0-12.646-5.3-12.646-13.462,0-7.343,4.079-14.278,13.462-14.278,6.527,0,11.014,4.487,11.014,10.606H137.4Zm13.462-2.04c0-3.671-2.04-6.935-6.527-6.935-3.671,0-6.527,3.264-6.935,6.935Z" transform="translate(124.095 -18.43)"/>
      <path id="Path_1687" data-name="Path 1687" class="cls-1" d="M160.813,52.5c0,2.448,0,4.487,1.632,4.487,1.224,0,2.448-1.632,3.264-2.448v1.632c-1.632,1.632-4.079,4.079-6.527,4.079-2.856,0-3.671-2.04-3.671-4.079-2.856,2.04-5.3,4.079-8.975,4.079-4.487,0-6.935-2.856-6.935-6.935,0-6.527,10.607-8.975,15.91-11.014,0-4.487-.408-8.159-5.3-8.159-2.04,0-4.487,1.224-4.487,3.264,0,2.856-.816,4.079-2.448,4.079s-2.448-1.224-2.448-2.856,2.04-6.527,10.607-6.527c9.383,0,9.383,5.3,9.383,6.935V52.5Zm-5.3-7.751c-4.487,1.632-10.607,3.671-10.607,8.159a4.615,4.615,0,0,0,4.487,4.9c2.04,0,4.9-1.632,6.119-2.856Z" transform="translate(145.959 -19.046)"/>
      <path id="Path_1688" data-name="Path 1688" class="cls-1" d="M156.7,64.491c0,3.264,1.632,3.671,4.487,4.079v1.224H146.908V68.57c2.856,0,4.487-.408,4.487-4.079V36.751c0-4.079-1.224-4.079-2.448-4.079a17.666,17.666,0,0,0-2.04.408l-.408-.816L155.067,29h1.224V64.491Z" transform="translate(167.207 -28.592)"/>
      <path id="Path_1689" data-name="Path 1689" class="cls-1" d="M166.918,39.067v2.04h-6.527v15.91c0,2.448,0,4.9,2.856,4.9a4.052,4.052,0,0,0,3.264-2.448h1.224c-1.224,2.856-3.671,5.711-7.343,5.711-2.04,0-5.3-1.224-5.3-6.119V41.106H150.6V39.883c3.672-1.224,6.527-4.079,8.567-9.383h.816v8.567Z" transform="translate(179.833 -23.973)"/>
      <path id="Path_1690" data-name="Path 1690" class="cls-1" d="M182.232,64.8c0,3.264,1.632,3.671,4.487,4.079V70.1H172.442V68.878c2.856,0,4.487-.408,4.487-4.079V52.561c0-5.711-2.448-6.527-4.487-6.527-2.856,0-5.3,1.632-7.343,3.671V64.391c0,3.264,1.632,3.671,4.487,4.079v1.224H155.308V68.47c2.856,0,4.487-.408,4.487-4.079V36.651c0-4.079-1.224-4.079-2.448-4.079a17.663,17.663,0,0,0-2.04.408l-.408-.816,8.567-3.264h1.224V48.073c3.671-3.671,6.119-5.3,9.791-5.3,5.3,0,7.343,4.487,7.343,8.975V64.8Z" transform="translate(193.074 -28.9)"/>
      <path id="Path_1691" data-name="Path 1691" class="cls-1" d="M173.119,37.151c0-4.9,0-6.527-6.119-6.527V29.4h19.581c12.238,0,16.726,4.9,16.726,10.2,0,4.079-3.264,7.343-7.343,8.567h0c4.9.408,9.383,4.079,9.383,8.975,0,3.264-2.04,10.606-16.318,10.606H167V66.523c6.119,0,6.119-1.632,6.119-6.527Zm6.119,9.791a35.173,35.173,0,0,0,6.935.408c9.383,0,10.607-5.3,10.607-7.751,0-6.119-6.119-8.159-12.238-8.159a13.884,13.884,0,0,0-5.711.816V46.941Zm0,18.357a44.952,44.952,0,0,0,7.343.816c5.3,0,11.83-2.04,11.83-8.159,0-6.935-7.343-8.975-13.462-8.975a23.262,23.262,0,0,0-5.3.408V65.3Z" transform="translate(230.335 -27.36)"/>
      <path id="Path_1692" data-name="Path 1692" class="cls-1" d="M205.54,45.454c0,6.119-4.079,14.278-14.278,14.278A13.312,13.312,0,0,1,177.8,46.27,13.751,13.751,0,0,1,191.67,32.4C199.829,32.4,205.54,38.111,205.54,45.454Zm-22.029-1.632c0,4.9,2.04,13.87,8.975,13.87,5.711,0,6.935-6.119,6.935-10.2,0-4.9-2.04-13.462-8.975-13.462C187.183,34.032,183.511,36.479,183.511,43.822Z" transform="translate(263.593 -18.122)"/>
      <path id="Path_1693" data-name="Path 1693" class="cls-1" d="M206.813,52.5c0,2.448,0,4.487,1.632,4.487,1.224,0,2.448-1.632,3.263-2.448v1.632c-1.632,1.632-4.079,4.079-6.527,4.079-2.855,0-3.671-2.04-3.671-4.079-2.856,2.04-5.3,4.079-8.975,4.079-4.487,0-6.935-2.856-6.935-6.935,0-6.527,10.607-8.975,15.91-11.014,0-4.487-.408-8.159-5.3-8.159-2.04,0-4.487,1.224-4.487,3.264,0,2.856-.816,4.079-2.448,4.079s-2.448-1.224-2.448-2.856,2.04-6.527,10.607-6.527c9.383,0,9.383,5.3,9.383,6.935Zm-4.9-7.751c-4.487,1.632-10.607,3.671-10.607,8.159a4.615,4.615,0,0,0,4.487,4.9c2.04,0,4.9-1.632,6.119-2.856Z" transform="translate(287.612 -19.046)"/>
      <path id="Path_1694" data-name="Path 1694" class="cls-1" d="M202.4,38.319h0c1.632-2.04,4.079-5.711,7.343-5.711,2.04,0,4.079,1.224,4.079,3.264a2.728,2.728,0,0,1-2.856,2.448c-2.04,0-3.264-2.04-4.487-2.04-1.632,0-3.671,3.264-4.079,4.487V51.781c0,4.9,0,6.527,5.3,6.527v1.224H192.608V58.308c2.856,0,4.487-.408,4.487-4.079V39.951c0-4.079-1.224-4.079-2.448-4.079a17.667,17.667,0,0,0-2.04.408l-.408-.816,8.567-3.264h1.224v6.119Z" transform="translate(307.936 -18.738)"/>
      <path id="Path_1695" data-name="Path 1695" class="cls-1" d="M218.3,36.751c0-4.079-1.224-4.079-2.448-4.079a17.668,17.668,0,0,0-2.04.408l-.408-.816L221.969,29h1.224V62.451c0,4.079,1.224,4.079,2.448,4.079a17.671,17.671,0,0,0,2.04-.408l.408.816L219.521,70.2H218.3V66.531A11.111,11.111,0,0,1,209.73,70.2c-7.343,0-11.83-6.935-11.83-13.054,0-6.935,5.3-14.686,13.87-14.686A11.287,11.287,0,0,1,218.3,44.5Zm0,15.094c0-3.671-2.448-7.343-6.527-7.343-2.448,0-7.751,2.04-7.751,11.014,0,6.935,4.079,11.83,8.975,11.83,2.448,0,4.079-1.224,5.711-2.448V51.845Z" transform="translate(325.489 -28.592)"/>
    </g>
    <g id="Group_440" data-name="Group 440" transform="translate(290.454 260.267)">
      <path id="Path_1696" data-name="Path 1696" class="cls-1" d="M98.124,89.784a11.294,11.294,0,0,1-.408,3.671,6.574,6.574,0,0,1-1.632,2.856c-.816.816-1.224,1.632-2.448,2.04-.816.408-2.04,1.224-2.856,1.632a9.6,9.6,0,0,1-3.264.816c-1.224,0-2.448.408-4.079.408H73.648c-.816,0-1.224,0-1.632-.408a2.119,2.119,0,0,1-.816-1.632V66.94c0-.816.408-1.632.816-1.632.408-.408.816-.408,1.632-.408H83.03a23.339,23.339,0,0,1,5.711.408,12.216,12.216,0,0,1,4.079,1.632A5.484,5.484,0,0,1,95.269,69.8a12.069,12.069,0,0,1,.816,4.079,5.174,5.174,0,0,1-.408,2.448c-.408.816-.408,1.632-.816,2.04a3.185,3.185,0,0,1-1.632,1.632c-.816.408-1.224.816-2.04,1.224a5.9,5.9,0,0,1,2.856.816,10.817,10.817,0,0,1,2.448,2.04,8.535,8.535,0,0,1,1.632,2.448Zm-9.791-15.91a3.678,3.678,0,0,0-.408-2.04c-.408-.408-.408-1.224-1.224-1.632a3.093,3.093,0,0,0-1.632-.816H78.951v9.791H83.03c1.224,0,2.04,0,2.448-.408.816-.408,1.224-.408,1.632-1.224a2.119,2.119,0,0,0,.816-1.632A3.057,3.057,0,0,0,88.334,73.875Zm2.04,15.91a5.174,5.174,0,0,0-.408-2.448,5.631,5.631,0,0,0-1.224-1.632,8.921,8.921,0,0,0-2.04-1.224,7.953,7.953,0,0,0-3.264-.408H78.951V94.68h5.3c1.224,0,2.04,0,2.448-.408.816-.408,1.224-.408,2.04-.816a5.632,5.632,0,0,0,1.224-1.632A3.057,3.057,0,0,0,90.373,89.784Z" transform="translate(-71.2 -60.413)"/>
      <path id="Path_1697" data-name="Path 1697" class="cls-1" d="M103.476,79.646a3.057,3.057,0,0,1-.408,2.04,2.119,2.119,0,0,1-1.632.816h-15.5a6.049,6.049,0,0,0,.408,2.856l1.224,2.448a2.243,2.243,0,0,0,2.04,1.224,7.953,7.953,0,0,0,3.264.408,7.954,7.954,0,0,0,3.264-.408c.816,0,1.632-.408,2.448-.408a3.084,3.084,0,0,1,1.632-.408c.408,0,.816-.408,1.224-.408h.408a.4.4,0,0,1,.408.408V92.7a.4.4,0,0,1-.408.408,1.424,1.424,0,0,1-.816.408c-.408.408-1.224.408-2.04.816a6.942,6.942,0,0,1-2.856.408c-1.224,0-2.448.408-3.672.408a27.756,27.756,0,0,1-6.119-.816,9.891,9.891,0,0,1-4.079-2.448A8.058,8.058,0,0,1,79.816,87.4a23.355,23.355,0,0,1,0-12.238,15.833,15.833,0,0,1,2.448-4.487,14.652,14.652,0,0,1,4.079-2.856,11.2,11.2,0,0,1,5.3-.816,18.1,18.1,0,0,1,5.3.816,14.237,14.237,0,0,1,3.672,2.448,12.761,12.761,0,0,1,2.04,4.079,20.475,20.475,0,0,1,.816,4.9v.408Zm-6.935-2.04a8.7,8.7,0,0,0-1.224-4.9c-.816-1.224-2.04-1.632-4.079-1.632a5.175,5.175,0,0,0-2.448.408,5.632,5.632,0,0,0-1.632,1.224,8.919,8.919,0,0,0-1.224,2.04,5.174,5.174,0,0,0-.408,2.448H96.541Z" transform="translate(-47.181 -53.946)"/>
      <path id="Path_1698" data-name="Path 1698" class="cls-1" d="M105.581,86.481a8.146,8.146,0,0,1-.816,3.671,5.484,5.484,0,0,1-2.448,2.856,7.687,7.687,0,0,1-3.671,1.632,15.3,15.3,0,0,1-4.487.408A6.942,6.942,0,0,1,91.3,94.64c-.816,0-1.632-.408-2.448-.408-.816-.408-1.224-.408-1.632-.816s-.816-.408-.816-.816C86,92.6,86,92.192,86,91.785V87.705a.4.4,0,0,1,.408-.408h.408c.408,0,.408,0,.816.408s.816.408,1.632.816c.408.408,1.224.408,2.04.816a6.049,6.049,0,0,0,2.856.408h1.632c.408,0,.816-.408,1.224-.408.408-.408.816-.408.816-.816s.408-.816.408-1.224a2.453,2.453,0,0,0-.408-1.632l-1.224-1.224c-.408-.408-1.224-.408-2.04-.816s-1.632-.408-2.448-.816l-2.448-1.224a7.162,7.162,0,0,1-2.04-1.632,3.469,3.469,0,0,1-1.224-2.04A7.953,7.953,0,0,1,86,74.651a7.685,7.685,0,0,1,.816-3.264,4.178,4.178,0,0,1,2.04-2.448,8.2,8.2,0,0,1,3.264-1.632,15.3,15.3,0,0,1,4.487-.408h2.448a17.667,17.667,0,0,1,2.04.408c.408,0,1.224.408,1.632.408a1.424,1.424,0,0,1,.816.408l.408.408v4.487a.4.4,0,0,1-.408.408h-.408a1.264,1.264,0,0,1-.816-.408c-.408,0-.816-.408-1.224-.816s-1.224-.408-2.04-.816c-.816,0-1.632-.408-2.448-.408H94.975c-.408,0-.816.408-1.224.408l-.816.816c0,.408-.408.816-.408,1.224a2.453,2.453,0,0,0,.408,1.632,5.633,5.633,0,0,0,1.632,1.224c.408.408,1.224.408,2.04.816s1.632.408,2.448.816l2.448,1.224a7.162,7.162,0,0,1,2.04,1.632,8.9,8.9,0,0,1,1.632,2.04A11.3,11.3,0,0,1,105.581,86.481Z" transform="translate(-25.625 -54.254)"/>
      <path id="Path_1699" data-name="Path 1699" class="cls-1" d="M109.557,95.9v2.04a1.442,1.442,0,0,1-1.224,1.224c-.408,0-.816.408-1.224.408a3.084,3.084,0,0,0-1.632.408h-1.632a9.055,9.055,0,0,1-3.671-.408,3.746,3.746,0,0,1-2.448-1.632A6.575,6.575,0,0,1,96.1,95.08,12.576,12.576,0,0,1,95.687,91V77.946H92.424a.877.877,0,0,1-.816-.816,14.426,14.426,0,0,1-.408-2.448V73.459c0-.408,0-.816.408-.816a.4.4,0,0,1,.408-.408h3.264V66.116l.408-.408a1.5,1.5,0,0,0,1.224-.408h3.264a1.5,1.5,0,0,1,1.224.408.4.4,0,0,1,.408.408v6.119h6.119l.408.408c0,.408,0,.408.408.816v1.224a4.417,4.417,0,0,1-.408,2.448.877.877,0,0,1-.816.816h-5.711v11.83a7.686,7.686,0,0,0,.816,3.264,2.467,2.467,0,0,0,2.448,1.224h1.224c.408,0,.408,0,.816-.408.408,0,.408,0,.408-.408h.816l.408.408v.816C109.557,95.08,109.557,95.488,109.557,95.9Z" transform="translate(-9.612 -59.181)"/>
      <path id="Path_1700" data-name="Path 1700" class="cls-1" d="M127.232,96.627v2.04c0,.408,0,.408-.408.816l-.408.408c-.408.408-.816.408-1.224.816a3.116,3.116,0,0,1-2.04.816c-.816.408-2.04.408-2.856.816a11.3,11.3,0,0,1-3.671.408,19.055,19.055,0,0,1-6.935-1.224,15.523,15.523,0,0,1-5.3-3.671,16.006,16.006,0,0,1-3.264-5.711A24.532,24.532,0,0,1,99.9,83.981a27.119,27.119,0,0,1,1.224-8.567A15.36,15.36,0,0,1,104.8,69.3a15.524,15.524,0,0,1,5.3-3.671,19.056,19.056,0,0,1,6.935-1.224,6.048,6.048,0,0,1,2.856.408,4.374,4.374,0,0,1,2.448.816c.816.408,1.632.408,2.04.816a5.048,5.048,0,0,1,1.224.816c.408.408.408.408.408.816a1.263,1.263,0,0,0,.408.816v4.487a.4.4,0,0,1-.408.408H125.6a1.5,1.5,0,0,1-1.224-.408,5.633,5.633,0,0,0-1.632-1.224L120.3,70.927a7.954,7.954,0,0,0-3.264-.408,12.068,12.068,0,0,0-4.079.816c-1.224.408-2.04,1.632-2.856,2.448a37.9,37.9,0,0,0-2.04,4.079,20.668,20.668,0,0,0-.816,5.3,24.076,24.076,0,0,0,.816,5.711,12.759,12.759,0,0,0,2.04,4.079,8.3,8.3,0,0,0,2.856,2.448,12.069,12.069,0,0,0,4.079.816,7.953,7.953,0,0,0,3.264-.408l2.448-1.224a5.63,5.63,0,0,0,1.632-1.224,1.5,1.5,0,0,1,1.224-.408h.408l.408.408v.816A3.449,3.449,0,0,1,127.232,96.627Z" transform="translate(17.179 -61.952)"/>
      <path id="Path_1701" data-name="Path 1701" class="cls-1" d="M131.061,94.132c0,.408,0,.408-.408.816a1.424,1.424,0,0,1-.816.408h-3.671c-.408,0-.816,0-.816-.408a1.424,1.424,0,0,1-.408-.816v-2.04a9.633,9.633,0,0,1-3.671,2.448c-1.224.816-2.856.816-4.487.816a11.3,11.3,0,0,1-3.672-.408,6.574,6.574,0,0,1-2.856-1.632,10.813,10.813,0,0,1-2.04-2.448A9.743,9.743,0,0,1,107.4,87.2a12.07,12.07,0,0,1,.816-4.079c.408-1.224,1.632-2.04,2.448-2.856a11.492,11.492,0,0,1,4.487-1.632,27.014,27.014,0,0,1,6.119-.408h2.448V76.591a3.057,3.057,0,0,0-.408-2.04,3.093,3.093,0,0,0-.816-1.632,2.119,2.119,0,0,0-1.632-.816c-.816,0-1.224-.408-2.448-.408a7.952,7.952,0,0,0-3.264.408c-.816.408-1.632.408-2.448.816s-1.224.816-1.632.816a1.5,1.5,0,0,1-1.224.408h-.408l-.408-.408c0-.408,0-.408-.408-.816V70.471a1.424,1.424,0,0,1,.408-.816c.408-.408.816-.408,1.224-.816a5.8,5.8,0,0,1,2.448-.816c.816-.408,2.04-.408,2.856-.816,1.224,0,2.04-.408,3.264-.408a21.552,21.552,0,0,1,5.3.408A14.491,14.491,0,0,1,127.8,68.84a8.882,8.882,0,0,1,2.04,3.264,14.665,14.665,0,0,1,.816,4.487V94.132Zm-7.343-11.014h-2.856a6.049,6.049,0,0,0-2.856.408,3.116,3.116,0,0,0-2.04.816l-1.224,1.224a2.453,2.453,0,0,0-.408,1.632,3.449,3.449,0,0,0,.816,2.448,5.9,5.9,0,0,0,2.856.816,7.563,7.563,0,0,0,2.856-.816A6.927,6.927,0,0,0,123.31,87.2V83.118Z" transform="translate(40.275 -54.562)"/>
      <path id="Path_1702" data-name="Path 1702" class="cls-1" d="M130.7,71.187v2.856c0,.408,0,.408-.408.408h-.816a1.263,1.263,0,0,1-.816-.408c-.408,0-.408,0-.816-.408h-.816a1.5,1.5,0,0,0-1.224.408c-.408,0-.816.408-1.224.816l-1.224,1.224c-.408.408-.816,1.224-1.632,2.04V94.44l-.408.408a1.5,1.5,0,0,0-1.224.408h-3.264a1.5,1.5,0,0,1-1.224-.408.4.4,0,0,1-.408-.408V67.924l.408-.408c.408,0,.408,0,.816-.408h3.264c.408,0,.816,0,.816.408a.4.4,0,0,1,.408.408V72c.816-.816,1.224-1.632,2.04-2.448.408-.816,1.224-1.224,1.632-1.632a3.093,3.093,0,0,1,1.632-.816c.408,0,1.224-.408,1.632-.408h1.632c.408,0,.408,0,.816.408.408,0,.408,0,.408.408l.408.408v1.224A3.678,3.678,0,0,0,130.7,71.187Z" transform="translate(64.294 -54.87)"/>
      <path id="Path_1703" data-name="Path 1703" class="cls-1" d="M144.176,79.646a3.057,3.057,0,0,1-.408,2.04,2.119,2.119,0,0,1-1.632.816h-15.5a6.049,6.049,0,0,0,.408,2.856l1.224,2.448a2.243,2.243,0,0,0,2.04,1.224,13.26,13.26,0,0,0,6.527,0c.816,0,1.632-.408,2.448-.408a3.084,3.084,0,0,1,1.632-.408c.408,0,.816-.408,1.224-.408h.408a.4.4,0,0,1,.408.408V92.7a.4.4,0,0,1-.408.408,1.424,1.424,0,0,1-.816.408c-.408.408-1.224.408-2.04.816a6.943,6.943,0,0,1-2.856.408c-1.224,0-2.448.408-3.672.408a27.756,27.756,0,0,1-6.119-.816,9.891,9.891,0,0,1-4.079-2.448,8.058,8.058,0,0,1-2.448-4.487,23.354,23.354,0,0,1,0-12.238,15.83,15.83,0,0,1,2.448-4.487,14.651,14.651,0,0,1,4.079-2.856,11.2,11.2,0,0,1,5.3-.816,18.1,18.1,0,0,1,5.3.816,14.237,14.237,0,0,1,3.671,2.448,12.76,12.76,0,0,1,2.04,4.079,20.475,20.475,0,0,1,.816,4.9v.408Zm-6.935-2.04a8.7,8.7,0,0,0-1.224-4.9c-.816-1.224-2.04-1.632-4.079-1.632a5.175,5.175,0,0,0-2.448.408,5.632,5.632,0,0,0-1.632,1.224,8.918,8.918,0,0,0-1.224,2.04,5.175,5.175,0,0,0-.408,2.448h11.014Z" transform="translate(78.152 -53.946)"/>
      <path id="Path_1704" data-name="Path 1704" class="cls-1" d="M147.034,67.879v2.04a.4.4,0,0,1-.408.408h-.816a.4.4,0,0,1-.408-.408c-.408,0-.408,0-.816-.408h-1.224a1.5,1.5,0,0,0-1.224.408.877.877,0,0,0-.816.816,1.5,1.5,0,0,0-.408,1.224v4.487h4.9l.408.408c0,.408,0,.408.408.816v1.224a4.417,4.417,0,0,1-.408,2.448.877.877,0,0,1-.816.816h-4.487V103.37l-.408.408a1.5,1.5,0,0,0-1.224.408h-3.263a1.5,1.5,0,0,1-1.224-.408.4.4,0,0,1-.408-.408V82.157h-3.264a.877.877,0,0,1-.816-.816,14.423,14.423,0,0,1-.408-2.448v-2.04c0-.408,0-.408.408-.408h3.672v-2.04a15.3,15.3,0,0,1,.408-4.487,8.2,8.2,0,0,1,1.632-3.264,7.316,7.316,0,0,1,2.856-2.04,12.068,12.068,0,0,1,4.079-.816h2.04c.816,0,1.224.408,1.632.408a1.424,1.424,0,0,1,.816.408l.408.408v.816A2.637,2.637,0,0,0,147.034,67.879Z" transform="translate(109.562 -63.8)"/>
      <path id="Path_1705" data-name="Path 1705" class="cls-1" d="M161.632,80.978a31.493,31.493,0,0,1-.816,6.119,15.831,15.831,0,0,1-2.448,4.487,8.574,8.574,0,0,1-4.487,2.856,13.622,13.622,0,0,1-6.119,1.224,27.756,27.756,0,0,1-6.119-.816c-1.632-.816-3.263-1.632-4.079-2.856a9.726,9.726,0,0,1-2.448-4.487,24.693,24.693,0,0,1-.816-6.119,31.493,31.493,0,0,1,.816-6.119,15.831,15.831,0,0,1,2.448-4.487,8.574,8.574,0,0,1,4.487-2.856A13.622,13.622,0,0,1,148.17,66.7a27.754,27.754,0,0,1,6.119.816c1.632.816,3.263,1.632,4.079,2.856a9.725,9.725,0,0,1,2.448,4.487A15.856,15.856,0,0,1,161.632,80.978Zm-7.343.408a11.294,11.294,0,0,0-.408-3.671,5.9,5.9,0,0,0-.816-2.856,4.074,4.074,0,0,0-2.04-1.632,5.9,5.9,0,0,0-2.856-.816,6.049,6.049,0,0,0-2.856.408,4.073,4.073,0,0,0-2.04,1.632,19.88,19.88,0,0,0-1.224,2.856,11.292,11.292,0,0,0-.408,3.672,11.292,11.292,0,0,0,.408,3.671,25.979,25.979,0,0,0,.816,2.856,4.073,4.073,0,0,0,2.04,1.632,5.9,5.9,0,0,0,2.856.816,6.049,6.049,0,0,0,2.856-.408,4.072,4.072,0,0,0,2.04-1.632,19.875,19.875,0,0,0,1.224-2.856A11.294,11.294,0,0,0,154.289,81.386Z" transform="translate(123.111 -54.87)"/>
      <path id="Path_1706" data-name="Path 1706" class="cls-1" d="M158.1,71.187v2.856c0,.408,0,.408-.408.408h-.816a1.263,1.263,0,0,1-.816-.408c-.408,0-.408,0-.816-.408h-.816a1.5,1.5,0,0,0-1.224.408c-.408,0-.816.408-1.224.816l-1.224,1.224c-.408.408-.816,1.224-1.632,2.04V94.44l-.408.408a1.5,1.5,0,0,0-1.224.408h-3.263a1.5,1.5,0,0,1-1.224-.408.4.4,0,0,1-.408-.408V67.924l.408-.408c.408,0,.408,0,.816-.408h3.263c.408,0,.816,0,.816.408a.4.4,0,0,1,.408.408V72c.816-.816,1.224-1.632,2.04-2.448l1.632-1.632a3.093,3.093,0,0,1,1.632-.816c.408,0,1.224-.408,1.632-.408h1.632c.408,0,.408,0,.816.408.408,0,.408,0,.408.408l.408.408v1.224A3.679,3.679,0,0,0,158.1,71.187Z" transform="translate(148.67 -54.87)"/>
      <path id="Path_1707" data-name="Path 1707" class="cls-1" d="M173.237,98.559v1.224c0,.408,0,.816-.408.816a.4.4,0,0,1-.408.408H153.248c-.816,0-1.224,0-1.632-.408a2.119,2.119,0,0,1-.816-1.632V66.74c0-.816.408-1.632.816-1.632.408-.408.816-.408,1.632-.408h18.765l.408.408c0,.408,0,.408.408.816v2.448c0,.408,0,.816-.408.816a.4.4,0,0,1-.408.408H158.551V78.57h11.422l.408.408c0,.408,0,.408.408.816v2.448c0,.408,0,.816-.408.816a.4.4,0,0,1-.408.408H158.551V94.072h13.87l.408.408c0,.408,0,.408.408.816Z" transform="translate(173.921 -61.029)"/>
      <path id="Path_1708" data-name="Path 1708" class="cls-1" d="M183.216,68.124h0v2.04l-7.751,23.253c0,.408-.408.408-.408.816a1.424,1.424,0,0,1-.816.408,3.084,3.084,0,0,0-1.632.408h-4.9c-.816,0-1.224,0-1.632-.408a1.442,1.442,0,0,1-1.224-1.224l-7.751-23.253c0-.408-.408-.816-.408-1.224V67.308l.408-.408h6.119a.4.4,0,0,1,.408.408l.408.408,5.711,18.765v0l5.711-18.765c0-.408,0-.408.408-.408l.408-.408h5.711a.4.4,0,0,1,.408.408C183.216,67.716,183.216,67.716,183.216,68.124Z" transform="translate(192.09 -54.254)"/>
      <path id="Path_1709" data-name="Path 1709" class="cls-1" d="M188.376,79.646a3.056,3.056,0,0,1-.408,2.04,2.119,2.119,0,0,1-1.632.816h-15.5a6.049,6.049,0,0,0,.408,2.856l1.224,2.448a2.243,2.243,0,0,0,2.04,1.224,13.259,13.259,0,0,0,6.527,0c.816,0,1.632-.408,2.448-.408a3.084,3.084,0,0,1,1.632-.408c.408,0,.816-.408,1.224-.408h.408a.4.4,0,0,1,.408.408V92.7a.4.4,0,0,1-.408.408,1.425,1.425,0,0,1-.816.408c-.408.408-1.224.408-2.04.816a6.942,6.942,0,0,1-2.856.408c-1.224,0-2.448.408-3.671.408a27.756,27.756,0,0,1-6.119-.816,9.891,9.891,0,0,1-4.079-2.448,8.059,8.059,0,0,1-2.448-4.487,23.355,23.355,0,0,1,0-12.238,15.832,15.832,0,0,1,2.448-4.487,14.651,14.651,0,0,1,4.079-2.856,11.2,11.2,0,0,1,5.3-.816,18.105,18.105,0,0,1,5.3.816,14.238,14.238,0,0,1,3.671,2.448,12.76,12.76,0,0,1,2.04,4.079,20.472,20.472,0,0,1,.816,4.9v.408Zm-6.935-2.04a8.7,8.7,0,0,0-1.224-4.9c-.816-1.224-2.04-1.632-4.079-1.632a5.175,5.175,0,0,0-2.448.408,5.631,5.631,0,0,0-1.632,1.224,8.916,8.916,0,0,0-1.224,2.04,5.174,5.174,0,0,0-.408,2.448h11.014Z" transform="translate(214.262 -53.946)"/>
      <path id="Path_1710" data-name="Path 1710" class="cls-1" d="M187,71.187v2.856c0,.408,0,.408-.408.408h-.816a1.263,1.263,0,0,1-.816-.408c-.408,0-.408,0-.816-.408h-.816a1.5,1.5,0,0,0-1.224.408c-.408,0-.816.408-1.224.816l-1.224,1.224c-.408.408-.816,1.224-1.632,2.04V94.44l-.408.408a1.5,1.5,0,0,0-1.224.408h-3.263a1.5,1.5,0,0,1-1.224-.408.4.4,0,0,1-.408-.408V67.924l.408-.408c.408,0,.408,0,.816-.408h3.263c.408,0,.816,0,.816.408a.4.4,0,0,1,.408.408V72c.816-.816,1.224-1.632,2.04-2.448.408-.816,1.224-1.224,1.632-1.632a3.093,3.093,0,0,1,1.632-.816c.408,0,1.224-.408,1.632-.408h1.632c.408,0,.408,0,.816.408.408,0,.408,0,.408.408l.408.408v1.224A3.679,3.679,0,0,0,187,71.187Z" transform="translate(237.665 -54.87)"/>
      <path id="Path_1711" data-name="Path 1711" class="cls-1" d="M193.957,94.332l-3.263,8.975c0,.408-.816.816-1.224,1.224a7.954,7.954,0,0,1-3.264.408h-1.632a1.5,1.5,0,0,1-1.224-.408.4.4,0,0,1-.408-.408v-.816l3.263-8.567c-.408,0-.408-.408-.816-.408,0-.408-.408-.408-.408-.816l-8.975-23.661a3.084,3.084,0,0,1-.408-1.632c0-.408,0-.816.408-.816s.816-.408,1.224-.408h4.079a1.5,1.5,0,0,1,1.224.408.4.4,0,0,1,.408.408c0,.408.408.408.408.816l6.119,17.134h0l5.3-17.542A1.442,1.442,0,0,1,196,67h4.079c.408,0,.816.408,1.224.408.408.408.408.408.408.816a1.5,1.5,0,0,1-.408,1.224Z" transform="translate(250.291 -53.946)"/>
      <path id="Path_1712" data-name="Path 1712" class="cls-1" d="M210.132,80.978a31.488,31.488,0,0,1-.816,6.119,15.829,15.829,0,0,1-2.448,4.487,8.574,8.574,0,0,1-4.487,2.856,13.623,13.623,0,0,1-6.119,1.224,27.755,27.755,0,0,1-6.119-.816c-1.632-.816-3.263-1.632-4.079-2.856a9.724,9.724,0,0,1-2.448-4.487,24.693,24.693,0,0,1-.816-6.119,31.493,31.493,0,0,1,.816-6.119,15.829,15.829,0,0,1,2.448-4.487,8.573,8.573,0,0,1,4.487-2.856A13.622,13.622,0,0,1,196.67,66.7a27.753,27.753,0,0,1,6.119.816c1.632.816,3.264,1.632,4.079,2.856a9.725,9.725,0,0,1,2.448,4.487A31.489,31.489,0,0,1,210.132,80.978Zm-7.343.408a11.294,11.294,0,0,0-.408-3.671,5.9,5.9,0,0,0-.816-2.856,4.073,4.073,0,0,0-2.04-1.632,5.9,5.9,0,0,0-2.856-.816,6.049,6.049,0,0,0-2.856.408,4.073,4.073,0,0,0-2.04,1.632,19.873,19.873,0,0,0-1.224,2.856,11.292,11.292,0,0,0-.408,3.672,11.292,11.292,0,0,0,.408,3.671,25.994,25.994,0,0,0,.816,2.856,4.074,4.074,0,0,0,2.04,1.632,5.9,5.9,0,0,0,2.856.816,6.048,6.048,0,0,0,2.856-.408,4.073,4.073,0,0,0,2.04-1.632,19.889,19.889,0,0,0,1.224-2.856C202.381,83.834,202.789,82.61,202.789,81.386Z" transform="translate(272.463 -54.87)"/>
      <path id="Path_1713" data-name="Path 1713" class="cls-1" d="M214.353,94.032v.408l-.408.408a1.5,1.5,0,0,0-1.224.408h-3.263a1.5,1.5,0,0,1-1.224-.408.4.4,0,0,1-.408-.408V79.346a6.048,6.048,0,0,0-.408-2.856,2.12,2.12,0,0,0-.816-1.632l-1.224-1.224a3.057,3.057,0,0,0-2.04-.408,7.563,7.563,0,0,0-2.856.816,18.841,18.841,0,0,0-2.856,2.856V94.44l-.408.408a1.5,1.5,0,0,0-1.224.408h-3.263a1.5,1.5,0,0,1-1.224-.408.4.4,0,0,1-.408-.408V67.924l.408-.408c.408,0,.408,0,.816-.408h3.263c.408,0,.816,0,.816.408a.4.4,0,0,1,.408.408v3.264a8.555,8.555,0,0,1,4.487-3.264,9.3,9.3,0,0,1,4.487-1.224,14.666,14.666,0,0,1,4.487.816,5.485,5.485,0,0,1,2.856,2.448,8.2,8.2,0,0,1,1.632,3.264,16.81,16.81,0,0,1,.408,4.9v15.91Z" transform="translate(298.022 -54.87)"/>
      <path id="Path_1714" data-name="Path 1714" class="cls-1" d="M223.184,79.646a3.057,3.057,0,0,1-.408,2.04,2.119,2.119,0,0,1-1.632.816h-15.91a6.049,6.049,0,0,0,.408,2.856l1.224,2.448a2.243,2.243,0,0,0,2.04,1.224,13.26,13.26,0,0,0,6.527,0c.816,0,1.632-.408,2.448-.408a3.084,3.084,0,0,1,1.632-.408c.408,0,.816-.408,1.224-.408h.408a.4.4,0,0,1,.408.408V92.7a.4.4,0,0,1-.408.408,1.424,1.424,0,0,1-.816.408c-.408.408-1.224.408-2.04.816a6.942,6.942,0,0,1-2.856.408c-1.224,0-2.448.408-3.671.408a27.756,27.756,0,0,1-6.119-.816,9.891,9.891,0,0,1-4.079-2.448,8.058,8.058,0,0,1-2.448-4.487,23.355,23.355,0,0,1,0-12.238,15.832,15.832,0,0,1,2.448-4.487,14.651,14.651,0,0,1,4.079-2.856,11.2,11.2,0,0,1,5.3-.816,18.1,18.1,0,0,1,5.3.816,14.238,14.238,0,0,1,3.671,2.448,12.76,12.76,0,0,1,2.04,4.079,20.472,20.472,0,0,1,.816,4.9v.408Zm-6.935-2.04a8.7,8.7,0,0,0-1.224-4.9c-.816-1.224-2.04-1.632-4.079-1.632a5.175,5.175,0,0,0-2.448.408,5.631,5.631,0,0,0-1.632,1.224,8.918,8.918,0,0,0-1.224,2.04,5.175,5.175,0,0,0-.408,2.448h11.014Z" transform="translate(320.194 -53.946)"/>
    </g>
  </g>
  <path id="Path_1715" data-name="Path 1715" class="cls-1" d="M196.5,7h28.148l2.04-5.3H198.132Z" transform="translate(605.105 5.235)"/>
</svg>
